<?xml version="1.0" encoding="UTF-8"?><svg id="_レイヤー_1" xmlns="http://www.w3.org/2000/svg" viewBox="0 0 618.18 249.126"><defs><style>.cls-1{fill:#e7211a;fill-rule:evenodd;}.cls-1,.cls-2,.cls-3,.cls-4,.cls-5,.cls-6,.cls-7,.cls-8,.cls-9,.cls-10,.cls-11,.cls-12,.cls-13,.cls-14,.cls-15,.cls-16,.cls-17,.cls-18,.cls-19,.cls-20,.cls-21{stroke-width:0px;}.cls-3{fill:#fabd00;}.cls-4{fill:#25a739;}.cls-5{fill:#970b31;}.cls-6{fill:#427935;}.cls-7{fill:#c60f28;}.cls-8{fill:#e5001e;}.cls-9{fill:#d39200;}.cls-10{fill:#d7a600;}.cls-11{fill:#dc007a;}.cls-12{fill:#fff;}.cls-13{fill:#f5a200;}.cls-14{fill:#e83819;}.cls-15{fill:#ed6a02;}.cls-16{fill:#003067;}.cls-17{fill:#00a6d9;}.cls-18{fill:#004c88;}.cls-19{fill:#00973b;}.cls-20{fill:#0098d8;}.cls-21{fill:#0075ba;}</style></defs><path class="cls-20" d="m359.48,239.226c-2.552,3.098-6.171,5.513-10.859,7.244-4.689,1.731-9.891,2.616-15.608,2.655-6.003.041-11.275-1.233-15.819-3.823-4.543-2.589-8.063-6.368-10.558-11.338-2.496-4.969-3.798-10.82-3.907-17.552l-.032-4.716c-.047-6.923,1.079-12.925,3.379-18.007,2.3-5.081,5.639-8.979,10.02-11.693,4.381-2.713,9.523-4.09,15.431-4.131,8.225-.056,14.67,1.861,19.334,5.752,4.662,3.891,7.449,9.581,8.357,17.069l-13.91.095c-.663-3.965-2.088-6.862-4.275-8.689-2.188-1.827-5.188-2.728-8.999-2.702-4.859.033-8.547,1.885-11.063,5.554-2.515,3.67-3.765,9.109-3.747,16.319l.03,4.43c.05,7.273,1.468,12.757,4.258,16.454,2.787,3.697,6.85,5.527,12.185,5.491,5.366-.037,9.187-1.206,11.457-3.508l-.082-11.957-13.004.089-.073-10.528,27.296-.186.189,27.678Z"/><path class="cls-20" d="m477.499,232.895l-25.058.171-4.665,14.324-15.197.104,25.346-69.536,13.244-.09,26.435,69.183-15.196.104-4.909-14.259Zm-21.277-11.431l17.341-.118-8.895-25.903-8.446,26.021Z"/><path class="cls-20" d="m516.15,235.442l30.345-.207.079,11.481-44.637.304-.473-69.36,14.291-.097.395,57.88Z"/><path class="cls-20" d="m588.462,228.232c-.018-2.699-.985-4.765-2.9-6.197-1.916-1.432-5.355-2.933-10.321-4.503-4.965-1.569-8.899-3.123-11.799-4.659-7.905-4.202-11.881-9.907-11.931-17.117-.025-3.747,1.008-7.097,3.1-10.049,2.092-2.952,5.11-5.268,9.052-6.946,3.943-1.677,8.375-2.534,13.299-2.568,4.954-.034,9.374.834,13.26,2.601,3.887,1.768,6.914,4.281,9.08,7.537,2.166,3.257,3.263,6.965,3.291,11.125l-14.291.098c-.022-3.175-1.039-5.638-3.052-7.387-2.013-1.749-4.829-2.611-8.45-2.586-3.494.024-6.204.781-8.131,2.271-1.928,1.49-2.883,3.442-2.866,5.855.016,2.255,1.163,4.137,3.445,5.646,2.28,1.509,5.633,2.915,10.056,4.219,8.147,2.39,14.091,5.383,17.831,8.978,3.74,3.595,5.629,8.092,5.666,13.491.042,6.002-2.198,10.726-6.716,14.171-4.519,3.445-10.62,5.194-18.306,5.246-5.335.036-10.201-.907-14.597-2.83-4.396-1.923-7.757-4.575-10.082-7.958-2.326-3.382-3.504-7.313-3.535-11.791l14.34-.098c.052,7.654,4.651,11.449,13.798,11.387,3.397-.023,6.045-.732,7.941-2.126,1.897-1.395,2.836-3.331,2.818-5.808Z"/><path class="cls-7" d="m431.79,198.716l-13.754,6.856c.657,1.533,1.124,3.161,1.377,4.859l15.3-1.445c-.452-3.622-1.454-7.075-2.923-10.271"/><path class="cls-14" d="m419.627,213.359c0,1.449-.156,2.861-.455,4.222l14.778,4.246c.674-2.713,1.033-5.55,1.033-8.468,0-.725-.024-1.445-.068-2.161l-15.301,1.446c.008.239.014.476.014.716"/><path class="cls-17" d="m418.583,219.721c-.535,1.572-1.259,3.055-2.148,4.423l12.271,9.255c1.993-2.865,3.568-6.038,4.644-9.435l-14.766-4.244Z"/><path class="cls-4" d="m382.657,203.321c.876-1.488,1.938-2.852,3.156-4.06l-10.348-11.347c-2.603,2.488-4.824,5.372-6.57,8.551l13.762,6.855Z"/><path class="cls-10" d="m408.025,195.305c1.567.718,3.024,1.634,4.339,2.719l10.377-11.33c-2.733-2.357-5.832-4.302-9.197-5.738l-5.52,14.349Z"/><path class="cls-19" d="m417.049,203.585l13.752-6.855c-1.704-3.165-3.876-6.041-6.426-8.533l-10.377,11.327c1.182,1.215,2.21,2.578,3.052,4.061"/><path class="cls-6" d="m379.924,213.359c0-.31.01-.619.024-.926l-15.303-1.37c-.048.759-.077,1.524-.077,2.296,0,2.935.364,5.786,1.042,8.512l14.78-4.24c-.303-1.377-.465-2.805-.465-4.272"/><path class="cls-3" d="m415.123,225.936c-1.088,1.324-2.343,2.504-3.732,3.511l8.08,13.082c2.998-2.032,5.669-4.514,7.913-7.348l-12.261-9.245Z"/><path class="cls-13" d="m384.675,226.229l-12.231,9.296c2.275,2.801,4.969,5.243,7.988,7.236l8.079-13.068c-1.423-.984-2.713-2.151-3.835-3.464"/><path class="cls-21" d="m380.172,210.224c.274-1.729.775-3.382,1.466-4.93l-13.749-6.849c-1.519,3.233-2.561,6.732-3.034,10.406l15.317,1.373Z"/><path class="cls-5" d="m417.591,243.713l-8.068-13.065c-1.466.828-3.045,1.477-4.709,1.913l2.848,15.113c3.542-.814,6.883-2.165,9.929-3.962"/><path class="cls-15" d="m402.639,233.002c-.934.135-1.89.209-2.863.209-.782,0-1.553-.049-2.311-.137l-2.846,15.114c1.685.247,3.405.378,5.157.378,1.943,0,3.85-.16,5.708-.463l-2.844-15.1Z"/><path class="cls-8" d="m401.044,193.547c1.705.109,3.353.434,4.912.948l5.52-14.345c-3.284-1.16-6.787-1.846-10.432-1.974v15.371Z"/><path class="cls-11" d="m395.277,232.696c-1.721-.401-3.356-1.026-4.873-1.843l-8.084,13.075c3.109,1.78,6.51,3.098,10.114,3.866l2.843-15.097Z"/><path class="cls-16" d="m393.809,194.424c1.594-.504,3.275-.811,5.015-.892v-15.368c-3.695.098-7.244.771-10.572,1.926l5.557,14.334Z"/><path class="cls-9" d="m383.329,224.463c-.975-1.44-1.77-3.017-2.341-4.694l-14.77,4.239c1.119,3.523,2.776,6.805,4.878,9.752l12.233-9.296Z"/><path class="cls-18" d="m387.475,197.788c1.298-1.028,2.726-1.894,4.257-2.576l-5.554-14.328c-3.308,1.389-6.356,3.269-9.058,5.548l10.355,11.356Z"/><path class="cls-20" d="m31.566,200.712c0-1.042-.369-1.855-1.107-2.437-.738-.582-2.035-1.185-3.89-1.808-1.856-.622-3.372-1.225-4.55-1.808-3.832-1.882-5.748-4.468-5.748-7.759,0-1.638.477-3.084,1.432-4.337.954-1.252,2.305-2.227,4.052-2.925,1.747-.697,3.71-1.046,5.89-1.046,2.125,0,4.032.379,5.717,1.137,1.686.759,2.996,1.838,3.93,3.239.934,1.402,1.401,3.003,1.401,4.804h-7.109c0-1.205-.369-2.139-1.107-2.803-.738-.663-1.736-.995-2.996-.995-1.273,0-2.278.281-3.016.843-.738.562-1.107,1.276-1.107,2.142,0,.759.406,1.445,1.219,2.061.812.617,2.241,1.253,4.286,1.909,2.044.657,3.723,1.365,5.037,2.123,3.195,1.842,4.793,4.381,4.793,7.617,0,2.587-.975,4.618-2.925,6.093-1.95,1.476-4.624,2.214-8.023,2.214-2.397,0-4.567-.43-6.509-1.289-1.943-.86-3.406-2.038-4.387-3.534-.982-1.496-1.473-3.22-1.473-5.169h7.149c0,1.584.41,2.752,1.229,3.504.819.751,2.149,1.127,3.991,1.127,1.178,0,2.109-.254,2.793-.761.683-.508,1.025-1.222,1.025-2.143Z"/><path class="cls-20" d="m65.962,179v19.356c0,2.194-.467,4.093-1.401,5.697-.934,1.605-2.275,2.827-4.022,3.666-1.747.84-3.812,1.259-6.195,1.259-3.602,0-6.439-.934-8.51-2.803s-3.128-4.428-3.169-7.677v-19.498h7.17v19.641c.081,3.237,1.584,4.854,4.509,4.854,1.475,0,2.593-.406,3.351-1.219.758-.812,1.137-2.133,1.137-3.961v-19.316h7.129Z"/><path class="cls-20" d="m86.08,200.712c0-1.042-.369-1.855-1.107-2.437-.738-.582-2.035-1.185-3.89-1.808-1.856-.622-3.372-1.225-4.55-1.808-3.832-1.882-5.748-4.468-5.748-7.759,0-1.638.477-3.084,1.432-4.337.954-1.252,2.305-2.227,4.052-2.925,1.747-.697,3.71-1.046,5.89-1.046,2.125,0,4.032.379,5.717,1.137,1.686.759,2.996,1.838,3.93,3.239.934,1.402,1.401,3.003,1.401,4.804h-7.109c0-1.205-.369-2.139-1.107-2.803-.738-.663-1.736-.995-2.996-.995-1.273,0-2.278.281-3.016.843-.738.562-1.107,1.276-1.107,2.142,0,.759.406,1.445,1.219,2.061.812.617,2.241,1.253,4.286,1.909,2.044.657,3.723,1.365,5.037,2.123,3.195,1.842,4.793,4.381,4.793,7.617,0,2.587-.975,4.618-2.925,6.093-1.95,1.476-4.624,2.214-8.023,2.214-2.397,0-4.567-.43-6.509-1.289-1.943-.86-3.406-2.038-4.387-3.534-.982-1.496-1.473-3.22-1.473-5.169h7.149c0,1.584.41,2.752,1.229,3.504.819.751,2.149,1.127,3.991,1.127,1.178,0,2.109-.254,2.793-.761.683-.508,1.025-1.222,1.025-2.143Z"/><path class="cls-20" d="m120.496,184.504h-8.876v24.068h-7.129v-24.068h-8.713v-5.504h24.718v5.504Z"/><path class="cls-20" d="m138.278,203.048h-9.769l-1.706,5.525h-7.617l10.846-29.573h6.703l10.927,29.573h-7.657l-1.726-5.525Zm-8.063-5.504h6.357l-3.189-10.257-3.169,10.257Z"/><path class="cls-20" d="m157.826,208.572h-7.109v-29.573h7.109v29.573Z"/><path class="cls-20" d="m187.896,208.572h-7.089l-10.48-18.402v18.402h-7.129v-29.573h7.129l10.46,18.402v-18.402h7.109v29.573Z"/><path class="cls-20" d="m209.984,203.048h-9.77l-1.706,5.525h-7.617l10.846-29.573h6.703l10.927,29.573h-7.657l-1.726-5.525Zm-8.063-5.504h6.357l-3.189-10.257-3.169,10.257Z"/><path class="cls-20" d="m221.936,208.572v-29.573h10.623c3.805,0,6.699.698,8.683,2.092,1.983,1.395,2.975,3.419,2.975,6.073,0,1.531-.353,2.837-1.056,3.92-.704,1.084-1.74,1.882-3.108,2.397,1.544.406,2.728,1.165,3.554,2.275.826,1.111,1.239,2.465,1.239,4.062,0,2.898-.917,5.074-2.752,6.53-1.835,1.455-4.554,2.197-8.155,2.224h-12.004Zm7.129-17.244h3.717c1.557-.013,2.667-.299,3.331-.856.663-.556.995-1.379.995-2.465,0-1.249-.359-2.149-1.076-2.699-.718-.55-1.876-.825-3.473-.825h-3.493v6.845Zm0,4.671v7.089h4.672c1.286,0,2.275-.295,2.965-.883.691-.59,1.036-1.418,1.036-2.488,0-2.464-1.226-3.703-3.676-3.717h-4.997Z"/><path class="cls-20" d="m256.312,203.088h12.409v5.484h-19.538v-29.573h7.129v24.089Z"/><path class="cls-20" d="m290.486,196.02h-11.212v7.068h13.243v5.484h-20.372v-29.573h20.412v5.504h-13.282v6.235h11.212v5.281Z"/><path class="cls-20" d="m16.283,248.569v-28.975h9.334c2.56,0,4.862.58,6.906,1.741,2.043,1.161,3.638,2.799,4.786,4.915,1.147,2.117,1.728,4.488,1.741,7.115v1.333c0,2.654-.56,5.032-1.682,7.135-1.121,2.103-2.7,3.748-4.736,4.935-2.037,1.187-4.309,1.788-6.816,1.801h-9.532Zm6.985-23.582v18.209h2.428c2.003,0,3.542-.713,4.617-2.139,1.075-1.426,1.612-3.545,1.612-6.358v-1.253c0-2.799-.537-4.909-1.612-6.329-1.075-1.42-2.64-2.13-4.697-2.13h-2.348Z"/><path class="cls-20" d="m59.07,236.27h-10.256v6.925h12.247v5.373h-19.232v-28.975h19.271v5.393h-12.286v6.11h10.256v5.174Z"/><path class="cls-20" d="m76.378,240.688l5.771-21.094h7.801l-9.752,28.975h-7.642l-9.671-28.975h7.741l5.751,21.094Z"/><path class="cls-20" d="m109.202,236.27h-10.157v6.925h12.147v5.373h-19.132v-28.975h19.172v5.393h-12.187v6.11h10.157v5.174Z"/><path class="cls-20" d="m120.578,243.196h11.055v5.373h-18.04v-28.975h6.985v23.602Z"/><path class="cls-20" d="m157.62,234.678c0,2.826-.524,5.327-1.572,7.503-1.048,2.176-2.537,3.851-4.468,5.025-1.93,1.174-4.129,1.761-6.597,1.761s-4.656-.567-6.567-1.701c-1.91-1.134-3.4-2.757-4.467-4.866-1.068-2.11-1.629-4.53-1.682-7.264v-1.632c0-2.839.52-5.344,1.562-7.513,1.042-2.169,2.534-3.844,4.478-5.025,1.943-1.181,4.156-1.771,6.637-1.771,2.454,0,4.643.584,6.567,1.751,1.924,1.167,3.42,2.829,4.488,4.985,1.068,2.156,1.608,4.627,1.622,7.413v1.333Zm-7.104-1.214c0-2.878-.481-5.065-1.443-6.557-.962-1.493-2.339-2.239-4.129-2.239-3.503,0-5.353,2.627-5.553,7.881l-.02,2.129c0,2.839.471,5.022,1.413,6.548.942,1.526,2.341,2.288,4.199,2.288,1.765,0,3.125-.749,4.08-2.249.955-1.499,1.439-3.655,1.453-6.468v-1.334Z"/><path class="cls-20" d="m167.379,238.738v9.831h-6.985v-28.975h11.562c2.216,0,4.176.408,5.881,1.224,1.704.816,3.025,1.977,3.96,3.483.936,1.506,1.403,3.214,1.403,5.124,0,2.826-1.011,5.085-3.035,6.776-2.023,1.692-4.799,2.537-8.328,2.537h-4.458Zm0-5.393h4.577c1.354,0,2.385-.338,3.095-1.015.709-.676,1.064-1.631,1.064-2.865,0-1.353-.365-2.434-1.095-3.244-.729-.809-1.724-1.22-2.985-1.234h-4.656v8.358Z"/><path class="cls-20" d="m194.937,219.594l6.468,20.159,6.448-20.159h9.194v28.975h-7.005v-6.766l.677-13.851-7.005,20.617h-4.617l-7.025-20.637.677,13.871v6.766h-6.985v-28.975h9.174Z"/><path class="cls-20" d="m237.429,236.27h-10.286v6.925h12.276v5.373h-19.262v-28.975h19.301v5.393h-12.316v6.11h10.286v5.174Z"/><path class="cls-20" d="m265.969,248.569h-6.946l-10.268-18.03v18.03h-6.985v-28.975h6.985l10.249,18.03v-18.03h6.965v28.975Z"/><path class="cls-20" d="m292.556,224.987h-8.697v23.582h-6.986v-23.582h-8.536v-5.393h24.219v5.393Z"/><circle class="cls-12" cx="36.468" cy="36.468" r="36.468"/><path class="cls-1" d="m36.476,0C16.336,0,.009,16.327.009,36.467s16.327,36.467,36.468,36.467,36.467-16.327,36.467-36.467C72.939,16.329,56.615.005,36.476,0Zm0,70.564c-18.831,0-34.096-15.265-34.096-34.096C2.38,17.637,17.646,2.371,36.476,2.371s34.096,15.265,34.096,34.096c0,18.831-15.265,34.096-34.096,34.096h0Z"/><polygon class="cls-1" points="67.988 32.915 67.677 30.748 67.162 28.581 66.54 26.414 65.821 24.344 64.897 22.39 63.867 20.427 62.624 18.571 61.282 16.715 59.844 15.063 58.289 13.518 56.637 12.07 54.888 10.729 53.032 9.494 51.069 8.358 49.106 7.425 47.463 6.812 47.463 25.481 37.409 25.481 32.462 25.481 25.588 25.481 25.588 6.812 23.518 7.638 21.564 8.562 19.602 9.699 17.745 10.933 15.987 12.381 14.441 13.829 12.896 15.48 11.448 17.124 10.107 18.98 8.979 20.836 7.949 22.799 7.123 24.868 6.297 26.929 5.773 29.096 5.258 31.263 4.956 33.43 4.849 35.597 4.849 37.862 5.054 40.029 5.364 42.303 5.88 44.47 6.501 46.53 7.221 48.591 8.153 50.66 9.29 52.614 10.418 54.47 11.759 56.229 13.207 57.881 14.752 59.533 16.404 60.972 18.163 62.313 20.019 63.556 21.973 64.586 23.936 65.617 25.588 66.238 25.588 47.463 35.668 47.463 40.544 47.463 47.463 47.463 47.463 66.238 49.523 65.412 51.584 64.382 53.44 63.245 55.296 62.002 57.055 60.661 58.707 59.115 60.146 57.57 61.593 55.811 62.934 54.062 64.071 52.206 65.102 50.243 66.025 48.182 66.753 46.113 67.375 43.955 67.784 41.788 68.095 39.62 68.192 37.347 68.192 35.18 67.988 32.915"/><path class="cls-2" d="m112.449,8.597h36.823v17.159h-29.762v17.141c0,9.077-3.949,16.561-11.848,22.452l-4.547-6.057c1.714-1.204,3.245-2.649,4.547-4.29,1.747-1.91,3.116-4.134,4.032-6.555l-15.383,7.567c.045.551-.138,1.097-.506,1.51-.316.169-.696.169-1.012,0-.457-.307-.807-.747-1.004-1.261l-2.522-7.105,8.322-3.029v-18.864h-6.306v-6.563h6.306V7.842h6.048c2.025.169,2.354.844,1.012,2.016v10.844h5.045v6.563h-5.045v16.386l4.796-2.016,1.004,3.784V8.597Zm7.105,6.057v5.045h22.701v-5.045h-22.701Zm11.857,41.867v-12.114h-10.134v-14.877h5.551c2.013.166,2.348.838,1.004,2.016v6.812h3.553v-11.857h5.551c2.019.172,2.354.844,1.004,2.016v9.841h3.784v-9.05h5.551c2.013.166,2.351.838,1.012,2.016v13.082h-10.365v12.106h6.306v-10.329h5.595c2.019.166,2.357.841,1.012,2.025v16.626h-6.608v-2.274h-18.154v3.277h-6.563v-19.655h5.551c2.013.166,2.351.841,1.012,2.025v8.322l5.338-.009Z"/><path class="cls-2" d="m213.201,62.064h-8.073v-2.558h-33.039v3.286h-8.056V12.132h49.186l-.018,49.932Zm-41.113-42.871v12.86h12.372v-12.86h-12.372Zm0,19.921v13.322h12.372v-13.358l-12.372.036Zm20.427-19.921v12.86h12.612v-12.86h-12.612Zm0,19.921v13.322h12.612v-13.358l-12.612.036Z"/><path class="cls-2" d="m245.592,13.136c.844.675,1.092,1.261.755,1.776-.326.334-.824.433-1.252.249l-6.057,12.372h7.594v4.538c.005,2.782-.164,5.561-.506,8.322-.297,4.177-1.329,8.269-3.046,12.088,1.62,1.633,3.609,2.852,5.8,3.553,1.694.68,3.504,1.024,5.329,1.013h31.236l-1.51,7.105h-31.023c-1.015-.002-2.028-.088-3.029-.258-4.541-1.001-8.073-2.851-10.596-5.551-.543.717-1.137,1.393-1.776,2.025-2.265,2.318-4.807,4.349-7.567,6.048l-4.547-5.551c3.453-2.168,6.594-4.797,9.334-7.816-2.819-4.167-5.088-8.681-6.75-13.429l6.306-1.261c1.003,2.85,2.361,5.562,4.041,8.073.918-4.068,1.512-8.202,1.776-12.363h-4.13l-2.265,3.553-6.057-3.029,9.583-17.656h-9.796v-6.555h11.848l1.261-1.261,5.045,4.015Zm20.685-5.045v4.041h13.118v8.571h5.045v6.057h-5.045v8.571h-13.118v2.016h13.615v5.551h-13.615v2.78h16.644v6.048h-16.644v4.538h-6.555v-4.538h-14.13v-6.048h14.13v-2.78h-10.853v-5.551h10.853v-2.016h-10.596v-6.022h10.596v-2.522h-15.099v-6.057h15.099v-2.522h-10.596v-6.048h10.596v-6.057h5.56c2.007.115,2.336.817.995,1.989h0Zm0,10.089v2.522h6.555v-2.522h-6.555Zm0,8.58v2.549h6.555v-2.522l-6.555-.027Z"/><path class="cls-2" d="m316.581,23.483h-24.211v-6.563h24.211v6.563Zm24.46.249c-.041.358.05.718.258,1.013.292.204.65.293,1.004.249h.764c.666.169,1.092-.338,1.261-1.51l.497-3.553,7.105,1.776-1.048,5.826-.506,1.51c-.621,1.654-2.273,2.687-4.032,2.522h-7.567c-.431-.016-.856-.1-1.261-.249-1.197-.349-2.2-1.17-2.78-2.274-.501-.837-.762-1.796-.755-2.771v-11.102h-6.528v5.809c.008,1.279-.162,2.552-.506,3.784-1.003,3.861-3.439,7.196-6.812,9.326h21.44l1.013-1.004,3.784,3.553c1.172,1.013,1.092,1.687-.258,2.016-1.248,3.396-2.766,6.687-4.538,9.841-1.033,1.689-2.308,3.218-3.784,4.538,1.571,1.047,3.265,1.894,5.045,2.522,3.216,1.139,6.503,2.065,9.841,2.771l-2.522,7.567c-2.409-.572-4.769-1.329-7.061-2.265-3.612-1.465-7.006-3.416-10.089-5.8-.72.713-1.479,1.386-2.274,2.016-3.994,2.851-8.311,5.221-12.86,7.061l-2.522-4.796v2.727h-6.546v-1.013h-7.816v2.274h-6.555v-22.204h20.934v15.614c1.472-.376,2.907-.881,4.29-1.51,2.947-1.274,5.739-2.88,8.322-4.787-3.091-3.669-5.332-7.975-6.563-12.612h-3.553v-6.306l-3.784-4.29c1.333-.821,2.531-1.842,3.553-3.029,1.79-2.014,2.78-4.615,2.78-7.309v-11.102h20.632v15.17Zm-27.24-9.334h-18.154v-6.555h18.154v6.555Zm0,17.656h-18.154v-6.048h18.154v6.048Zm0,9.334h-18.154v-6.057h18.154v6.057Zm-12.86,8.571v7.825h7.86v-7.825h-7.86Zm26.991-9.326c.174.699.428,1.375.755,2.016.944,2.332,2.311,4.47,4.032,6.306,2.08-2.512,3.78-5.316,5.045-8.322h-9.832Z"/><path class="cls-2" d="m374.96,8.349v10.587h7.061v3.784c.649-.886,1.242-1.811,1.776-2.771,1.504-2.98,2.695-6.108,3.553-9.334l5.551,2.274c.474.149.906.407,1.261.755.417.311.503.9.192,1.317-.054.073-.119.138-.192.192-.294.207-.655.299-1.013.258-.338.844-.675,1.679-1.004,2.522h2.771V6.324h6.057c2.016.178,2.345.844,1.004,2.025v9.583h11.599v7.061h-11.635v6.306h15.889v7.061h-14.885c1.031,1.706,2.221,3.312,3.553,4.796,3.762,4.188,8.282,7.626,13.322,10.134l-4.032,7.309c-3.037-1.828-5.833-4.03-8.322-6.555-2.14-1.925-4.008-4.134-5.551-6.563v18.918h-7.105v-18.198c-1.655,2.791-3.694,5.335-6.057,7.558-2.537,2.632-5.325,5.012-8.322,7.105l-4.032-6.306c4.487-3.171,8.628-6.806,12.354-10.844,2.688-3.032,4.37-5.471,5.045-7.318h-11.777l2.016,2.016-5.329,5.551c-1.12-1.467-2.384-2.818-3.775-4.032v24.211h-7.105v-21.982c-1.593,3.153-3.539,6.114-5.8,8.828l-4.538-6.306c1.172-1.51,2.274-2.94,3.277-4.29,3.627-4.778,5.922-10.432,6.652-16.386h-8.073v-7.105h8.571V6.288h6.057c1.989.213,2.327.879.986,2.061Zm14.122,16.644c-1.35,2.185-2.664,4.201-4.041,6.057l-5.8-3.784c.295-.453.634-.875,1.013-1.261h-5.329v6.555c1.847,1.35,3.695,2.771,5.542,4.29v-5.551h14.379v-6.306h-5.764Z"/><path class="cls-2" d="m466.892,8.349c-.243.415-.589.76-1.004,1.004v8.828h7.309c-1.923-1.997-4.132-3.697-6.555-5.045l5.045-4.538c2.987,1.373,5.716,3.251,8.064,5.551l-4.281,4.032h8.064v7.576h-17.417c.199,5.059.703,10.101,1.51,15.099.926,4.721,3.007,9.139,6.057,12.86.407.593.919,1.108,1.51,1.519.675.497,1.092-.169,1.261-2.016l.506-4.29,7.567,3.277-.755,5.045c-.135,1.035-.389,2.051-.755,3.029-.495,1.466-1.476,2.72-2.78,3.553-2.846,1.374-6.241.874-8.571-1.261-4.355-3.6-7.664-8.301-9.583-13.615-2.322-7.345-3.52-14.998-3.553-22.701h-30.721v-7.603h30.526V7.105h6.555c1.643,0,2.318.4,1.998,1.243Zm-10.844,31.023h-8.828v11.599l13.322-2.016.755,6.803-29.229,5.524c-.169.888-.417,1.35-.755,1.519-.436.147-.918.049-1.261-.258-.565-.63-.916-1.423-1.004-2.265l-1.235-6.785,12.363-1.519v-12.603h-9.619v-6.563h25.472l.018,6.563Z"/><path class="cls-2" d="m526.007,9.858c1.294,2.166,2.912,4.122,4.796,5.8,5.37,5.045,12.431,8.494,21.182,10.347l-3.553,7.558c-3.882-.771-7.57-2.314-10.844-4.538v4.796h-30.499v-4.041c-2.013,1.522-6.048,3.458-12.106,5.809l-3.784-7.318c5.235-1.275,10.192-3.496,14.628-6.555,5.555-3.665,9.866-8.93,12.363-15.099l6.803.755c2.712.817,3.049,1.646,1.013,2.487Zm22.444,35.313h-16.875c6.329,4.673,12.08,10.081,17.132,16.111l-6.306,4.29c-1.519-1.856-3.117-3.615-4.796-5.329l-35.81,4.032c-.13.615-.493,1.156-1.013,1.51-.403.171-.858.171-1.261,0-.675-.169-1.172-.888-1.51-2.265l-2.016-7.061,11.093-.506c2.232-3.447,4.172-7.074,5.8-10.844h-17.15v-7.567h52.712v7.629Zm-36.823-18.918h21.191c-4.16-3.131-7.822-6.874-10.862-11.102-3.026,4.068-6.49,7.791-10.329,11.102h0Zm9.583,18.918c-1.847,3.553-3.863,6.999-6.048,10.338l16.395-1.261c-1.924-1.882-3.946-3.66-6.057-5.329l5.329-3.784-9.619.036Z"/><path class="cls-2" d="m576.312,8.882v8.828h4.796l1.004-1.004,4.29,4.29c1.344,1.338,1.175,1.93-.506,1.776-2.059,4.348-4.783,8.348-8.073,11.857,3.635,1.739,7.172,3.675,10.596,5.8l-3.784,6.563c-2.247-1.941-4.698-3.632-7.309-5.045v23.98h-7.105v-23.536c-2.522,2.025-5.296,4.044-8.322,6.057l-3.553-7.061c2.877-1.359,5.584-3.053,8.064-5.045,5.382-4.37,8.914-8.405,10.596-12.106h-16.333v-6.563h8.58V6.83h6.048c2.025.169,2.354.844,1.013,2.052Zm29.504.764c-.241.417-.587.763-1.004,1.004v13.118h10.338v7.567h-10.338v24.175h13.367v7.549h-35.313v-7.549h13.873v-24.211h-9.832v-7.567h9.832v-15.383h7.061c1.643,0,2.354.417,2.016,1.261v.036Z"/><path class="cls-2" d="m323.665,136.029l-2.001,2.048-12.597-12.597-12.55,12.597-2.001-2.048,12.55-12.55-12.55-12.55,2.001-2.048,12.55,12.597,12.597-12.597,2.001,2.001-12.55,12.597,12.55,12.55Z"/></svg>