<?xml version="1.0" encoding="UTF-8"?><svg id="_レイヤー_1" xmlns="http://www.w3.org/2000/svg" viewBox="0 0 100 100"><defs><style>.cls-1{fill:#da1367;}.cls-1,.cls-2{stroke-width:0px;}.cls-2{fill:#fff;}</style></defs><rect class="cls-1" width="100" height="100"/><path class="cls-2" d="m8.714,12.464c-.173.094-.675.291-1.507.589-.659.22-1.075.369-1.248.447v-2.707c.533-.204,1.181-.518,1.942-.942.761-.424,1.298-.808,1.612-1.153h2.848v19.068h-3.649v-15.301Z"/><path class="cls-2" d="m15.552,26.6c-.871-.996-1.306-2.334-1.306-4.014v-8.545c0-1.742.424-3.111,1.271-4.108.847-.996,2.126-1.495,3.837-1.495,1.695,0,2.966.498,3.814,1.495.847.997,1.271,2.366,1.271,4.108v8.545c0,1.664-.44,2.998-1.318,4.002-.879,1.005-2.134,1.507-3.767,1.507-1.664,0-2.931-.498-3.802-1.495Zm5.191-4.084v-8.404c0-.706-.09-1.295-.271-1.766-.181-.471-.553-.706-1.118-.706-.596,0-.981.232-1.153.694-.173.463-.259,1.056-.259,1.777v8.404c0,1.585.471,2.378,1.412,2.378.926,0,1.389-.792,1.389-2.378Z"/><path class="cls-2" d="m59.279,65.62h-18.416c-.111,0-.2.101-.2.223v5.535c0,.126.089.225.2.225h18.416c.113,0,.202-.099.202-.225v-5.535c0-.123-.089-.223-.202-.223"/><path class="cls-2" d="m59.279,53.843h-18.416c-.111,0-.2.1-.2.223v5.535c0,.126.089.225.2.225h18.416c.113,0,.202-.099.202-.225v-5.535c0-.123-.089-.223-.202-.223"/><path class="cls-2" d="m59.02,45.476l-8.84-8.84c-.06-.06-.156-.06-.216,0l-8.84,8.84c-.096.096-.028.261.108.261h17.68c.136,0,.204-.165.108-.261Z"/><path class="cls-2" d="m67.318,71.671l8.84-8.84c.06-.06.06-.156,0-.216l-8.84-8.84c-.096-.096-.261-.028-.261.108v17.68c0,.136.165.204.261.108Z"/><path class="cls-2" d="m41.124,79.969l8.84,8.84c.06.06.156.06.216,0l8.84-8.84c.096-.096.028-.261-.108-.261h-17.68c-.136,0-.204.165-.108.261Z"/><path class="cls-2" d="m32.825,53.775l-8.84,8.84c-.06.06-.06.156,0,.216l8.84,8.84c.096.096.261.028.261-.108v-17.68c0-.136-.165-.204-.261-.108Z"/><path class="cls-2" d="m38.65,16.005c-1.212-.789-2.195-2.239-2.71-3.733-.118.387-.233.765-.396,1.126-.36.815-.926,1.561-1.593,2.093-.242.189-.492.361-.755.488l-.658-.774c.292-.14.62-.281.883-.504.955-.797,1.572-1.965,1.815-3.371.153-.884.116-1.785.116-2.678l1.02.113c.059.007.14.042.14.127s-.073.138-.132.156c-.014.352-.023.694-.023,1.045,0,1.16.551,2.42,1.146,3.314.44.66,1.263,1.388,1.909,1.75l-.763.849Z"/><path class="cls-2" d="m44.244,13.393c-.292,0-.585-.033-.871-.101-.063-.311-.174-.598-.279-.893.307.084.62.151.934.151.573,0,1.117-.226,1.117-1.044,0-.472-.308-.783-.685-.783-.146,0-.292.024-.433.068.084.261.175.522.266.782-.244.119-.49.228-.727.329-.097-.278-.195-.556-.293-.834-.335.152-.661.329-.984.523.239.649.463,1.313.663,1.979.189.631.419,1.247.573,1.887-.259.151-.53.251-.803.378-.313-1.306-.691-2.603-1.137-3.847-.376.242-.753.496-1.116.757-.147-.295-.3-.582-.433-.884.405-.228.817-.464,1.229-.681-.203-.48-.433-.963-.677-1.418.104-.031.824-.301.871-.301.05,0,.05.033.071.083.159.42.306.851.467,1.272.313-.169.62-.328.94-.48-.174-.437-.396-.859-.627-1.263.272-.101.544-.219.817-.311.229.411.412.859.601,1.298.278-.084.57-.109.858-.109.781,0,1.435.597,1.435,1.582,0,1.23-.836,1.861-1.779,1.861Z"/><path class="cls-2" d="m47.704,16.038v-7.394h6.04v7.394h-6.04Zm5.175-6.57h-4.324v5.782h4.324v-5.782Zm-4.065,5.063v-.736h1.42v-1.261h-1.123v-.7h1.123v-.885h-1.347v-.736h3.694v.726h-1.533v.885h1.162v.604l.371.219c.021.008.037.043.037.063,0,.078-.09.113-.149.113-.125.29-.251.579-.367.876l-.609-.228c.095-.307.185-.622.273-.937h-.726v1.279h1.56v.718h-3.787Z"/><path class="cls-2" d="m59.142,15.461c-.212-.242-.404-.502-.618-.737,1.086-.317,2.088-.777,2.088-2.365,0-1.078-.535-2.056-1.435-2.272-.185,1.445-.55,3.744-1.628,4.596-.199.159-.399.267-.638.267-.283,0-.557-.233-.736-.485-.323-.452-.439-1.128-.439-1.713,0-2.049,1.394-3.494,3.027-3.494,1.512,0,2.74,1.095,2.74,3.043,0,1.822-1.003,2.775-2.363,3.16Zm-2.417-3.856c-.129.36-.191.754-.191,1.147,0,.342.062,1.229.447,1.229.137,0,.253-.159.335-.267.648-.802.921-2.516.989-3.612-.616.133-1.324.802-1.58,1.503Z"/><path class="cls-2" d="m67.14,9.636c-.141.275-.28.55-.434.814v5.612h-.889v-4.333c-.579.849-1.527,1.751-2.37,2.223l-.629-.592c1.259-.737,2.677-2.205,3.227-3.724h-2.805v-.857h6.041v.857h-2.142Zm1.994,4.436c-.799-.524-1.776-1.647-2.333-2.497.234-.214.454-.445.683-.668.513,1.013,1.417,1.792,2.268,2.393l-.617.773Z"/><path class="cls-2" d="m74.436,13.359v2.814h-.888v-2.814h-2.789v-.84h2.789v-2.848h-2.4v-.825h5.697v.825h-2.416v2.848h2.791v.84h-2.782Zm-2.099-1.166c-.258-.61-.522-1.228-.83-1.801l.786-.43c.248.532.557,1.271.689,1.853l-.645.378Zm4.095-1.571c-.256.541-.514,1.082-.806,1.605l-.653-.308c.242-.643.463-1.304.653-1.974l.881.404c.051.026.102.076.102.146,0,.094-.118.127-.177.127Z"/><path class="cls-2" d="m80.779,9.843l.081.593-.601.162-.234-.771h-.207c-.242.352-.478.745-.787,1.029l-.638-.42c.514-.575.902-1.331,1.086-2.137l.844.275c.043.018.095.051.095.112,0,.077-.081.128-.138.138-.046.102-.089.215-.156.308h1.424v.712h-.771Zm2.49,3.028l-.009.515h1.446v.764h-1.438c0,1.312.131,2.05-1.205,2.281l-.501-.729c.508-.095.875-.139.875-.85v-.702h-2.144c.22.204.425.421.63.642.155.164.317.31.464.49l-.551.618c-.404-.411-.8-.84-1.24-1.2l.492-.549h-1.367v-.764h3.715v-.523h-3.935v-.721h2.701v-.513h-1.946v-.73h1.924v-.582h.912c.036.007-.171.157-.171.2,0,.059.094-.202.11-.257v.639h2.137v.73h-2.15v.513h2.847v.73h-1.599Zm.541-2.994l-.234.738-.638-.069.028-.695h-.477c-.113.178-.384.527-.567.732l-.74-.267c.366-.446.866-1.383,1.006-1.974l.868.258c.036.008.087.043.087.095,0,.077-.096.093-.149.093-.051.13-.108.251-.168.368h1.945v.721h-.962Z"/><path class="cls-2" d="m38.982,23.399c-.035,0-.071-.015-.108-.042-.531.181-1.55.584-2.034.807v1.32l-.867-.009c.008-.12.008-.248.008-.393v-.48c-.585.275-.881.625-.881,1.02,0,.342.337.524,1.005.524.726,0,1.388-.095,2.137-.344l-.028,1.003c-.648.215-1.361.248-1.843.248-1.44,0-2.159-.454-2.159-1.373,0-.446.205-.857.602-1.235.25-.232.624-.48,1.116-.737-.014-.386-.131-.582-.345-.582-.271,0-.52.102-.755.324-.148.137-.339.317-.567.584-.272.301-.44.508-.543.609-.132-.155-.338-.385-.61-.702.824-.644,1.44-1.425,1.852-2.325-.39.051-.824.086-1.293.112-.029-.327-.073-.628-.116-.893.689,0,1.255-.026,1.681-.087.089-.248.169-.643.248-1.183l.992.222c.059.019.088.051.088.103,0,.051-.036.094-.118.128-.037.145-.103.368-.197.661.336-.043.835-.171,1.371-.317l-.081.945c-.404.084-.947.17-1.621.264-.102.258-.272.574-.456.859.176-.052.324-.061.419-.061.447,0,.741.299.874.918.587-.309,1.255-.625,1.981-.952l.338.96c0,.07-.029.102-.089.102Z"/><path class="cls-2" d="m44.069,21.399c-.359.102-.711.189-1.071.257-.382,1.322-.912,2.883-1.602,4.023-.272-.137-.544-.3-.807-.462.625-1.047,1.138-2.239,1.469-3.457-.36.061-.727.086-1.095.093-.036-.298-.081-.599-.118-.908.133.018.266.018.405.018.337,0,.682-.018,1.021-.07.109-.479.168-.985.198-1.482.345.051.684.094,1.022.171-.088.395-.175.799-.294,1.192.301-.068.589-.188.882-.294,0,.303-.009.611-.009.92Zm2.053,5.246c-.305-.316-.614-.642-.975-.883.005.095.001.189-.002.282-.033.885-.607,1.124-1.269,1.124-.235,0-.468-.032-.694-.111-.441-.172-.886-.618-.864-1.218.032-.865.651-1.303,1.34-1.303.198,0,.404.015.601.05-.008-.403-.022-.806-.007-1.21.008-.204.035-.385.109-.582h.662c.043,0,.258-.035.254.069,0,.017-.001.025-.008.035-.095.153-.145.342-.152.523-.017.454-.004.9.016,1.355.53.214,1.131.61,1.556,1.021-.18.292-.366.584-.567.849Zm-1.827-1.235c-.159-.075-.343-.094-.526-.094-.279,0-.629.086-.644.488-.015.396.405.575.694.575.271,0,.472-.061.485-.429.007-.18-.002-.36-.009-.541Zm1.963-2.869c-.515-.472-1.154-.806-1.786-.986l.425-.857c.632.188,1.316.496,1.83.986l-.469.857Z"/><path class="cls-2" d="m51.794,27.205c-.625-.957-1.356-1.789-2.156-2.545-.2-.201-.409-.403-.625-.57-.13-.105-.26-.195-.361-.334-.099-.14-.132-.296-.128-.467.008-.327.15-.511.354-.721.361-.37.736-.712,1.091-1.091.526-.573,1.06-1.143,1.574-1.748.209.184.418.36.627.544.08.062.173.133.238.212.022.026.036.044.034.077-.002.121-.163.136-.245.117-.495.453-1.004.895-1.507,1.356-.21.191-.405.402-.614.595-.099.092-.211.175-.301.276-.083.083-.182.212-.185.339-.003.121.054.19.128.26.301.298.639.555.949.837.692.643,1.337,1.361,1.909,2.145-.263.234-.519.485-.781.719Z"/><path class="cls-2" d="m57.719,23.456c-.445.31-.746,1.154-.614,1.858.157.836,1.17.925,1.699.912.169-.004.346-.018.522-.039-.075.328-.161.647-.234.966l-.155.004c-1.036.026-2.524-.124-2.696-1.717-.105-.979.154-1.751.554-2.221-.863.149-1.726.365-2.56.661-.056-.324-.135-.643-.207-.96.445-.111.93-.149,1.356-.357.436-.216,1.383-1.385,1.734-1.829-.515.055-1.036.093-1.546.08-.004-.302-.015-.606-.042-.902.765.042,1.566.076,2.329-.071.204-.038.392-.129.579-.222.156.267.31.543.449.818-.755.556-1.502,1.369-2.181,2.06,1.086-.166,2.177-.294,3.265-.392-.006.345.005.691-.006,1.034-.645-.053-1.67-.078-2.248.321Z"/><path class="cls-2" d="m63.859,27.446c-.277-.253-.554-.517-.847-.746.751-.227,1.747-.718,2.16-1.527.201-.385.276-.909.305-1.356.052-.778-.173-1.241-.868-1.288-.486-.032-1.717.528-2.179.795-.043-.135-.342-1.061-.338-1.14.004-.061.078-.048.109-.045.164.011.759-.133.942-.193.598-.17,1.151-.371,1.773-.329,1.196.08,1.656,1.06,1.57,2.365-.119,1.796-1.287,2.957-2.628,3.465Zm1.313-6.521c-.69-.329-1.387-.624-2.122-.803.143-.321.276-.642.42-.964.75.151,1.477.447,2.172.813-.149.321-.299.642-.47.954Z"/></svg>