<?xml version="1.0" encoding="UTF-8"?><svg id="_レイヤー_1" xmlns="http://www.w3.org/2000/svg" viewBox="0 0 100 100"><defs><style>.cls-1{fill:#3f7e44;}.cls-1,.cls-2{stroke-width:0px;}.cls-2{fill:#fff;}</style></defs><rect class="cls-1" x=".068" y=".068" width="99.864" height="99.864" transform="translate(-.068 99.932) rotate(-89.922)"/><path class="cls-2" d="m8.853,12.464c-.173.094-.675.291-1.507.589-.659.22-1.075.369-1.248.447v-2.707c.533-.204,1.181-.518,1.942-.942.761-.424,1.298-.808,1.613-1.153h2.848v19.068h-3.649v-15.301Z"/><path class="cls-2" d="m15.585,26.589c-.8-1.004-1.201-2.425-1.201-4.261v-.659h3.625v.636c.015.973.133,1.671.353,2.095.22.424.62.636,1.201.636s.969-.215,1.165-.647c.196-.431.294-1.134.294-2.107,0-1.02-.149-1.777-.447-2.272-.298-.494-.847-.749-1.648-.765-.047-.015-.267-.024-.659-.024v-2.66h.589c.816,0,1.381-.22,1.695-.659.314-.439.471-1.161.471-2.166,0-.816-.114-1.42-.341-1.813-.228-.392-.632-.589-1.212-.589-.549,0-.926.212-1.13.636-.204.424-.314,1.052-.33,1.883v.847h-3.625v-1.036c0-1.663.443-2.95,1.33-3.86.886-.91,2.138-1.365,3.755-1.365,1.648,0,2.919.439,3.814,1.318.895.879,1.342,2.142,1.342,3.79,0,1.099-.228,2.021-.683,2.766-.455.746-1.036,1.212-1.742,1.401,1.616.597,2.425,2.095,2.425,4.496,0,1.836-.408,3.276-1.224,4.32-.816,1.044-2.111,1.565-3.884,1.565-1.821,0-3.131-.502-3.931-1.507Z"/><path class="cls-2" d="m87.606,62.714c-2.642-3.716-14.593-18.554-36.848-18.585-22.258-.03-34.247,14.775-36.902,18.484-.113.159-.21.296-.29.412.079.12.176.257.288.417,2.646,3.714,14.594,18.553,36.852,18.583,22.254.03,34.247-14.776,36.898-18.483.116-.161.211-.297.288-.417-.076-.117-.171-.254-.287-.413m-49.275-9.229c.201-.294.869-1.134.95-1.24.172-.22.512-.265.751-.307.236-.046.551.088.589.266.041.178-.093.867-.209.985-.327.338-1.177.815-1.645.739-.362-.056-.504-.337-.435-.443m-.797,1.58c.035-.042.067-.076.081-.094.28-.319.838-.386,1.223-.446.386-.066.9.13.962.386.066.255-.968.722-1.158.897-.536.493-1.376,1.496-1.866,1.604-.16.036-.292.011-.4-.043.324-.803.71-1.576,1.158-2.305m8.306,17.098c-.303,1.185-.655,1.612-.956,1.985-.3.378-1.411.859-2.115.806-.705-.054-.801-1.936-.8-2.903,0-.334-.474.656-.718-1.358-.156-1.29-.986.133-1.043-.727-.058-.858-.472-.688-.906-1.225-.431-.536-.972.051-1.577.321-.602.266-.354.408-1.209.137-.022-.007-.033-.014-.054-.021-.782-1.856-1.213-3.896-1.21-6.036,0-.524.029-1.038.079-1.547.029-.052.06-.102.096-.144.821-.969.803-1.196.803-1.196l.908-.313s1.448.225,2.539.637c.898.338,2.313,1.103,3.136.768.595-.245,1.062-.569,1.006-1.065-.066-.622-.556-.77-1.149-.352-.219.154-.683-.938-1.049-.883-.365.054.45,1.283.14,1.334-.311.053-.933-1.281-1.04-1.497-.105-.215-.586-.75-1.019-.343-.916.867-2.401.812-2.699,1.035-.909.678-1.147-.225-1.126-.775.037-.126.074-.252.114-.377.297-.326,1.361-.433,1.726-.189.401.268.689-.068.846-.231.159-.159.104-.416.004-.63-.101-.216.201-.373.408-.428.209-.055.901-.538,1.176-.699.279-.16,1.712-.332,2.354-.01.641.324,1.231.061,1.548-.31.397-.469.902-.827,1.125-.935.225-.105-.552-.832-1.192-.041-.642.787-.969.859-1.27.859-.301,0-2.09-.449-2.31-1.015-.217-.565.561-.987,1.222-1.307.661-.314,2.468-.307,2.931-.411.94-.205,2.141-.675,2.746-.262.602.405-2.528,1.114-1.5,1.671.366.201,2.021-.949,2.588-1.243,1.334-.686-1.292-.917-.949-2.314.387-1.58-3.22-.973-5.018-.841,2.413-1.542,5.278-2.436,8.352-2.432,7.314.01,13.434,5.085,15.059,11.901.011.337-.042.58-.077.717-.141.558-1.202,1.037-1.816.137-.156-.227-.821-.856-.8.218.02,1.075,1.043,1.186.051,1.83-.991.643-1.172.488-1.63.649-.457.161-.902,1.268-.793,1.86.11.592,1.521,2.21.473,2.142-.246-.019-2.097-1.286-2.401-2.1-.321-.857-.673-1.696-.922-2.342-.252-.644-.905-.809-1.46-.431-.552.377.153.755-.245,1.562-.396.806-.681,1.525-1.263.858-1.511-1.736-3.711-.884-4.053-2.814-.184-1.046-1.086-.947-1.838-1.541-.756-.59-1.177-.911-1.305-.485-.113.374,2.366,2.345,2.543,2.85.262.749-.745,1.408-1.482,1.585-.734.175-1.057-.415-1.778-1.168-.721-.752-1.036-1.29-1.087-.7-.074.853.683,2.107,1.418,2.576.627.398,1.329.579,1.125,1.224-.205.646-.004.281-.708.975-.705.698-.84.923-.79,1.888.049.969-.203,1.024-.355,1.828-.152.805-.5.108-.806,1.288m16.64-6.16c.521-.041,1.303.682.997.959-.305.274-1.087.173-1.478-.135-.39-.304.247-.805.482-.824m-.658-.477c-.167-.063-.314-.221-.441-.602-.126-.381.195-.598.507-.444.318.162.73.637.73.891,0,.254-.626.223-.796.155m-6.843-.036c-.306.272-1.09.171-1.482-.135-.389-.304.249-.806.482-.824.522-.046,1.304.684,1,.959m-6.336,3.07c-.214.349-.8,2.955-1.191,2.651-.393-.305.163-3.024.276-3.23.614-1.122,1.938-1.065.915.579m2.094,10.108c-1.515-.002-2.975-.225-4.357-.63-.198-.162-.311-.433-.187-.758.481-1.25,1.911-1.738,3.039-1.845,2.515-.242,5.816,1.64,6.342,1.338.528-.302,1.592-1.682,3.152-1.622,1.064.042,1.056.221,1.413.356-2.61,1.986-5.867,3.166-9.402,3.161m10.941-4.498c-.155-.044-.314-.094-.487-.18-.846-.432-.745.257-1.161.104-.419-.156.471-1.12-.781-.305-1.245.813-.908-.127-1.449-1.507-.547-1.382.629-2.956,1.609-3.311,1.347-.486,2.184-.584,2.816-.739,1.863-.463,2.258-1.567,2.595-.894.064.126.125.246.181.359.108.201.233.608.238,1.01-.794,2.071-2.016,3.93-3.562,5.464m4.257-7.821c-.416-.114-2.153-2.523-.775-4.105.229-.26-.461-1.027-.272-1.042.753-.057,1.153.41,1.35,1.084.015.297.026.596.026.899-.001,1.085-.116,2.142-.329,3.164"/><path class="cls-2" d="m33.043,10.694c-.102.153-.204.316-.315.471l4.109-.009v.757h-4.153v-.688c-.213.309-.427.628-.705.858l-.705-.505c.741-.697,1.181-1.621,1.445-2.678l.918.301c.067.026.126.051.126.146,0,.076-.105.12-.156.137-.058.146-.131.292-.197.429h3.942v.782h-4.31Zm4.361,6.218c-1.227-.79-1.675-2.221-1.645-3.791l-1.43.008.653.309c.043.017.124.059.124.128,0,.102-.124.155-.19.162-.139.371-.322.721-.529,1.048.375.334.743.676,1.079,1.054l-.6.636c-.324-.352-.633-.712-.985-1.03-.506.575-1.211,1.072-1.879,1.338l-.645-.643c.645-.232,1.454-.66,1.923-1.235-.367-.24-.742-.472-1.123-.677.177-.241.33-.505.484-.764.396.214.756.488,1.124.764.184-.335.315-.704.419-1.082l-2.549.008v-.745c1.704,0,3.407-.018,5.11-.036-.065.361-.096.723-.096,1.09,0,1.253.421,2.127,1.381,2.701l-.624.756Z"/><path class="cls-2" d="m41.453,10.607v4.829h-.749v-4.88c-.111.291-.214.582-.338.865v5.481h-.815v-4.03c-.125.231-.286.454-.456.643l-.507-.635c.822-1.047,1.307-2.514,1.571-3.877l.911.377c.051.025.103.068.103.145,0,.087-.096.137-.162.12l-.221.644.698.094c.045.008.08.044.08.094,0,.078-.067.113-.116.13Zm3.728,6.4c-.726-.327-1.424-1.108-1.799-1.897-.366.84-1.034,1.493-1.799,1.792l-.49-.566c.726-.29,1.447-.901,1.725-1.766h-1.235v-.738h1.375c.015-.189.015-.387.015-.574v-.207h-.492c-.118.258-.258.505-.427.711l-.573-.376c.302-.506.544-1.065.669-1.665h-.528v-.704h2.092l.022-.815-1.843.017v-.762h2.701c-.014.515-.042,1.028-.058,1.544h.852v.72h-2.671l.286.137c.03.008.043.035.043.053,0,.077-.079.102-.131.102l-.126.291h2.356v.746h-1.342c-.007.258-.007.524-.021.781h1.723v.738h-1.562c.264.797,1.123,1.424,1.783,1.698l-.543.738Z"/><path class="cls-2" d="m48.788,11.448c-.294.506-.742,1.184-1.197,1.494l-.624-.516c.492-.396.932-.97,1.174-1.613l.734.439c.021.015.052.042.052.076,0,.069-.089.145-.14.12Zm4.25,5.455c-.874-.155-1.747-.497-2.533-.969-.918.505-1.885.865-2.9.986l-.528-.746c.932-.034,1.923-.259,2.737-.789-.241-.206-.477-.446-.676-.704-.395.36-.822.644-1.29.858l-.529-.592c.85-.353,1.776-1.141,2.217-2.067l.733.333c.03.019.074.045.074.096,0,.068-.081.084-.125.084l-.109.121h2.268v.497c-.295.48-.771,1.029-1.189,1.363.645.388,1.659.559,2.377.661l-.528.866Zm-1.585-6.235c0,.505.007,1.003.007,1.509,0,.677-.315.995-.858,1.116l-.595-.619c.431-.119.63-.145.63-.73v-1.277h-.461c-.059.967-.272,1.733-.934,2.366-.196.199-.417.378-.66.498l-.581-.566c.199-.112.405-.232.581-.377.579-.481.736-1.117.742-1.922h-2.129v-.773h2.629v-.952l.91.076c.05,0,.116.036.116.105,0,.076-.074.127-.125.146v.625h2.74v.773h-2.012Zm-1.807,3.465c.251.309.522.6.83.815.257-.204.529-.523.704-.815h-1.534Zm3.399-1.003c-.471-.42-1.004-1.167-1.329-1.75l.72-.523c.308.642.748,1.173,1.248,1.629l-.639.643Z"/><path class="cls-2" d="m61.395,14.777c-.074,1.21-.294,1.774-1.386,1.998l-.47-.738c.71-.111.997-.403,1.043-1.26.051-.962.057-1.94.057-2.9h-.395c-.103,1.818-.332,3.791-1.666,4.968l-.661-.524c.169-.128.323-.266.463-.437-.962.206-1.938.352-2.908.531-.007.061-.043.128-.102.128-.038,0-.065-.043-.081-.076l-.322-.858c.542-.069,1.093-.112,1.635-.189v-.43h-1.438v-.642h1.438v-.309h-1.271v-2.47h1.271v-.31h-1.506v-.676h1.506v-.395c-.411.032-.814.068-1.224.076l-.272-.704c.234,0,.461-.017.696-.034.814-.051,1.637-.12,2.408-.462.066.086.58.72.58.796,0,.07-.052.103-.102.103-.052,0-.096-.025-.14-.051-.382.094-.763.155-1.152.206v.446h1.336v.55h.704c.024-.679.03-1.348.038-2.024l.858.101c.059.009.162.044.162.138,0,.077-.067.138-.116.171-.023.534-.039,1.073-.075,1.606h1.189c-.013,1.225-.013,2.452-.095,3.671Zm-4.793-2.652h-.542v.43h.542v-.43Zm.008.978h-.55v.403h.55v-.403Zm1.256-.978h-.5v.43h.5v-.43Zm.007.978h-.507v.403h.507v-.403Zm.829-1.227v-.618h-1.328v.31h1.233v2.47h-1.233v.309h1.247v.626h-1.247v.385c.411-.059.813-.119,1.226-.189l-.066.513c.749-1.036.836-2.503.888-3.807h-.72Z"/><path class="cls-2" d="m35.86,25.899c.597.712,1.19,1.039,1.997,1.304l-.535.755c-.632-.215-1.665-.952-2.167-1.467l.639-.592h-2.364c.081.069.653.567.653.635,0,.077-.111.095-.16.087-.528.522-1.322,1.098-1.99,1.32l-.484-.653c.684-.257,1.401-.729,1.858-1.389h-1.954v-.773h6.599v.773h-2.092Zm-3.464-1.159v-4.365h4.551v4.365h-4.551Zm3.743-3.637h-2.952v.541h2.952v-.541Zm0,1.218h-2.952v.516h2.952v-.516Zm0,1.202h-2.952v.541h2.952v-.541Z"/><path class="cls-2" d="m45.157,26.405c-.279-.266-.521-.6-.749-.926v.694h-.91v1.656h-.814v-1.656h-.91v-.661c-.212.309-.442.626-.713.857l-.506-.53v1.938h-.823v-4.084c-.169.266-.36.567-.58.774l-.506-.626c.866-.902,1.483-2.558,1.762-3.852l.904.428c.037.018.072.061.072.111,0,.086-.109.13-.168.13-.192.557-.404,1.124-.661,1.647v3.39c.704-.67,1.6-2.18,1.835-3.208h-1.438v-.817h1.674v-1.647l.865.061c.052,0,.118.033.118.105,0,.076-.072.127-.124.144v1.338h1.982v.817h-1.732c.36,1.165,1.262,2.435,2.092,3.19l-.669.729Zm-3.31-.986h.844l.009-1.69c-.164.567-.537,1.218-.853,1.69Zm1.637-1.698l.007,1.698h.875c-.345-.515-.661-1.098-.881-1.698Z"/><path class="cls-2" d="m53.053,23.533c-.007.368,0,.737-.015,1.098-.059,1.603-.124,2.942-1.747,3.249l-.55-.737c.749-.086,1.262-.472,1.417-1.355.044-.283.051-.557.059-.841.007-.196,0-.386,0-.584,0-.644.007-1.278.007-1.921h-1.38c-.204.437-.418.883-.711,1.244l-.405-.37v3.971h-2.738v-5.584h.831c.147-.505.279-1.02.388-1.544l.948.266c.052.015.126.052.126.128,0,.086-.119.137-.171.145-.16.344-.329.679-.519,1.004h1.136v1.159c.448-.763.771-1.853.889-2.772l.858.368c.045.019.103.069.103.13,0,.077-.088.102-.139.102-.118.327-.222.661-.36.97h1.99l-.015,1.871Zm-4.117-1.133h-1.161v1.553h1.161v-1.553Zm0,2.291h-1.161v1.842h1.161v-1.842Zm2.37.856c-.338-.479-.697-.934-1.078-1.362l.638-.653c.359.472.734.943,1.02,1.475l-.58.54Z"/><path class="cls-2" d="m58.115,22.272c-.36.103-.712.188-1.071.258-.382,1.32-.91,2.881-1.6,4.022-.272-.137-.543-.298-.808-.462.624-1.047,1.138-2.239,1.468-3.457-.359.061-.725.086-1.092.095-.037-.301-.082-.601-.118-.91.132.018.265.018.403.018.338,0,.682-.018,1.02-.069.111-.479.169-.986.199-1.484.345.051.682.095,1.02.171-.086.396-.174.799-.293,1.193.301-.069.588-.189.882-.291,0,.299-.008.609-.008.918Zm2.026,5.079c-.316-.319-.638-.644-1.005-.884.007.095.007.19.007.283,0,.884-.566,1.124-1.227,1.124-.237,0-.469-.036-.696-.112-.448-.172-.91-.617-.91-1.219,0-.864.602-1.301,1.291-1.301.198,0,.403.017.602.051-.023-.404-.052-.808-.052-1.21,0-.206.023-.386.09-.585h.66c.045,0,.257-.032.257.07,0,.017,0,.026-.008.033-.087.156-.131.345-.131.524,0,.455.028.901.067,1.355.535.215,1.152.61,1.591,1.022-.168.291-.342.584-.535.849Zm-1.871-1.236c-.162-.076-.345-.094-.528-.094-.28,0-.625.086-.625.49,0,.393.425.575.713.575.27,0,.471-.061.471-.429,0-.181-.017-.361-.03-.542Zm1.945-2.617c-.514-.469-1.152-.805-1.783-.985l.425-.858c.633.189,1.315.497,1.828.986l-.47.857Z"/><path class="cls-2" d="m65.245,27.307c-.315-.524-.654-1.029-1.026-1.494-.376.748-.97,1.588-1.608,2.024l-.632-.591c.699-.472,1.315-1.192,1.66-2.05-.359-.524-.815-1.004-1.271-1.406l.499-.781c.412.403.778.866,1.123,1.338.184-.592.272-1.219.332-1.845h-2.101v-.745h1.342v-1.502l.912.069c.05,0,.115.036.115.102,0,.069-.071.112-.115.13v1.202h1.004v.745h-.55c.073.035.344.12.344.231,0,.052-.044.078-.08.087-.124.746-.301,1.518-.579,2.212.417.508.83,1.03,1.183,1.606l-.552.669Zm1.014-1.639c-.316-.532-.648-1.047-1.014-1.526l.691-.593c.324.508.632,1.03.888,1.58l-.564.54Zm1.635-2.667v2.967c0,1.389-.153,1.845-1.379,2.119l-.529-.78c.999-.146,1.037-.506,1.037-1.587v-2.719h-1.381v-.807h1.366v-1.938l.895.069c.044,0,.118.043.118.102,0,.069-.074.112-.118.13v1.638h.889v.807h-.897Z"/><path class="cls-2" d="m76.101,27.873c-.954-.37-1.719-.952-2.417-1.802v2.068h-.843v-2.101c-.661.822-1.52,1.449-2.446,1.774l-.512-.635c1.114-.403,2.303-1.268,2.958-2.419v-.188h-1.337v1.534h-.8v-2.187h2.137v-.377h-2.775v-.705h2.754v-.625l.469.05-.353-.196c.455-.48.801-1.294.963-1.982l.77.163c.074.018.184.035.184.153,0,.08-.097.13-.147.147-.051.138-.109.276-.169.412h1.945v.642h-.924c-.095.284-.183.575-.288.858l-.637-.058.065-.8h-.522c-.147.25-.307.49-.498.696.059.018.138.061.138.145,0,.069-.087.128-.132.156v.239h2.732v.705h-2.738v.377h2.334v1.251c0,.739-.346.953-.91,1.09l-.477-.549c.64-.214.544-.462.544-1.14h-1.49v.196c.249.549.792,1.107,1.233,1.441.537.412,1.123.704,1.74.884l-.55.781Zm-3.591-6.287c.03.231.067.462.095.694-.212.061-.418.13-.631.189-.103-.292-.182-.592-.278-.883h-.294c-.265.368-.543.789-.889,1.054l-.614-.446c.614-.584,1.019-1.253,1.29-2.119l.844.206c.051.019.116.051.116.13,0,.094-.095.146-.159.172-.061.128-.126.256-.199.377h1.423v.626h-.705Z"/><path class="cls-2" d="m83.588,24.357c-.038,0-.074-.018-.111-.043-.527.179-1.548.582-2.033.805v1.322l-.866-.008c.008-.12.008-.248.008-.393v-.481c-.587.275-.881.626-.881,1.021,0,.342.338.523,1.004.523.727,0,1.389-.095,2.137-.342l-.03,1.002c-.645.216-1.358.248-1.842.248-1.439,0-2.159-.454-2.159-1.372,0-.446.206-.857.603-1.235.248-.231.624-.48,1.116-.738-.015-.386-.133-.584-.346-.584-.271,0-.522.105-.755.327-.147.137-.339.319-.566.582-.272.301-.44.506-.544.609-.132-.153-.338-.385-.61-.702.822-.643,1.439-1.424,1.851-2.324-.389.051-.823.084-1.292.111-.03-.326-.074-.626-.118-.891.689,0,1.254-.026,1.681-.087.089-.247.168-.643.25-1.184l.991.222c.059.018.087.052.087.105,0,.051-.037.095-.116.128-.036.145-.103.368-.198.661.336-.043.836-.172,1.372-.319l-.08.944c-.405.086-.948.171-1.623.267-.101.254-.272.573-.455.856.176-.051.323-.058.42-.058.446,0,.74.298.872.916.587-.309,1.256-.625,1.982-.951l.338.96c0,.068-.03.103-.088.103Z"/><path class="cls-2" d="m64.84,16.542c-.269.027-.535.063-.811.097-.333-1.072-.385-2.234-.385-3.372,0-1.271.163-2.549.385-3.794l.646.151c.097.027.223.036.319.082.046.017.083.044.083.115s-.067.116-.119.116c-.297,1.244-.431,2.648-.431,3.936,0,.322.015.636.015.959.133-.404.26-.815.401-1.218.186.17.373.348.556.519-.326.796-.563,1.511-.659,2.407Zm4.72-.42c-.409.089-.944.089-1.356.075-1.061-.033-2.051-.206-2.18-1.83.25-.189.501-.387.758-.568.002.922.431,1.338,1.123,1.36.546.017,1.148-.017,1.673-.202-.006.387-.011.771-.018,1.166Zm-.27-4.796c-.573-.122-1.138-.157-1.721-.107-.399.033-.795.113-1.189.208-.031-.32-.053-.717-.092-1.036.554-.155,1.117-.153,1.684-.202.468-.04.934.002,1.402.069-.027.354-.048.714-.084,1.068Z"/></svg>