<?xml version="1.0" encoding="UTF-8"?><svg id="_レイヤー_1" xmlns="http://www.w3.org/2000/svg" viewBox="0 0 100 100"><defs><style>.cls-1{fill:#9f1942;}.cls-1,.cls-2{stroke-width:0px;}.cls-2{fill:#fff;}</style></defs><rect class="cls-1" width="100" height="100"/><path class="cls-2" d="m7.829,22.257c0-1.067.188-1.993.565-2.778.377-.785.933-1.365,1.671-1.742-.581-.424-1.052-.992-1.412-1.707-.361-.714-.541-1.581-.541-2.601,0-1.569.416-2.79,1.248-3.661.832-.871,2.024-1.307,3.578-1.307s2.738.432,3.555,1.295c.816.863,1.224,2.064,1.224,3.602,0,1.067-.173,1.962-.518,2.684-.346.722-.809,1.287-1.389,1.695.737.377,1.295.973,1.671,1.789.377.816.565,1.781.565,2.896,0,1.774-.408,3.154-1.224,4.143-.816.989-2.111,1.483-3.884,1.483-3.406,0-5.108-1.93-5.108-5.791Zm6.344,2.248c.212-.557.318-1.259.318-2.107,0-.942-.106-1.687-.318-2.236-.212-.549-.624-.824-1.236-.824s-1.024.279-1.236.836c-.212.557-.318,1.299-.318,2.225,0,.847.106,1.55.318,2.107.212.557.624.836,1.236.836s1.024-.279,1.236-.836Zm.106-11.076c0-.69-.11-1.236-.33-1.636-.22-.4-.557-.6-1.012-.6s-.8.2-1.036.6c-.235.4-.353.946-.353,1.636,0,1.962.463,2.943,1.389,2.943.895,0,1.342-.981,1.342-2.943Z"/><path class="cls-2" d="m69.062,49.194l-10.211,9.713c-.385.384-.583.666-.583,1.459v27.224c0,.319.261.581.583.581h10.547c.321,0,.581-.261.581-.581v-38.151c0-.321-.251-.908-.918-.245"/><path class="cls-2" d="m39.645,61.849l-10.212,9.712c-.384.384-.582.666-.582,1.458v14.571c0,.318.262.58.582.58h10.548c.322,0,.582-.262.582-.58v-25.497c0-.322-.254-.91-.918-.244"/><path class="cls-2" d="m73.703,37.415c.004-.077-.024-.16-.087-.221-.054-.052-.122-.077-.189-.083l-.056.004-.084.005-7.819,1.764-.142.015c-.056.011-.109.039-.152.08-.115.116-.115.304,0,.421l.088.088,1.786,1.785-17.717,17.717-8.183-8.183c-.093-.093-.24-.093-.333,0l-2.22,2.221s-.002.002-.002.002l-13.117,13.115c-.091.093-.091.243,0,.333l2.223,2.222c.091.092.239.092.33,0l12.954-12.951,5.938,5.938c.006.009.009.019.019.028l2.221,2.218c.092.093.24.093.333,0l20.107-20.107,1.875,1.874c.115.116.303.116.417,0,.055-.055.082-.122.085-.193v-.025s1.719-7.981,1.719-7.981l.004-.086Z"/><path class="cls-2" d="m54.411,63.554l-4.941,4.981c-.094.077-.231.075-.318-.012l-4.476-4.563c-.819-.816-.996-.154-.996.166v23.462c0,.319.257.581.578.581h10.55c.319,0,.58-.262.58-.581v-23.851c0-.321-.253-.91-.978-.184"/><path class="cls-2" d="m33.987,15.053c-.058,1.029-.352,1.467-1.234,1.698l-.485-.711c.617-.121.852-.284.912-1.048.081-1.072.081-2.161.081-3.242h-.243c-.038.996-.089,1.998-.337,2.952-.191.719-.566,1.595-1.072,2.083l-.675-.488c.131-.146.279-.283.396-.447-.638.138-1.277.267-1.917.412-.007.069-.044.128-.11.128-.058,0-.102-.059-.124-.119l-.309-.756c.397-.043.786-.103,1.182-.155v-.42h-1.013v-.636h1.013v-.292h-.992v-2.495h.984v-.284h-1.005v-.677h1.005v-.352c-.241.017-.484.036-.727.061l-.205-.377c-.087.333-.168.676-.263,1.011-.017.061-.105.317-.105.36v5.506h-.784v-3.859c-.096.163-.19.317-.301.464l-.478-.711c.661-.902,1.072-2.6,1.248-3.758l.866.316c.031.009.073.061.073.103,0,.069-.095.102-.14.112l-.029.128c.565-.061,1.746-.214,2.239-.481l.55.85c0,.069-.051.094-.102.094-.044,0-.096-.015-.133-.05-.315.067-.638.111-.953.162v.421h1.099v.439h.376v-2l.822.112c.051.008.14.044.14.121,0,.069-.052.12-.105.145-.014.541-.036,1.089-.058,1.629.33-.007.66-.017.991-.017-.008,1.356,0,2.711-.081,4.066Zm-3.912-3.001h-.368v.461h.368v-.461Zm0,1.01h-.368v.422h.368v-.422Zm1.013-1.01h-.331v.461h.331v-.461Zm.015,1.01h-.346v.422h.346v-.422Zm.77-1.312v-.515h-1.093v.284h.961v2.495h-.961v.292h.946v.618h-.946v.352c.295-.044.579-.103.874-.155l-.044.291c.55-1.047.616-2.461.638-3.663h-.374Z"/><path class="cls-2" d="m39.767,12.548c.252.567.568,1.082.956,1.527-.162.248-.338.481-.513.713-.639-.353-1.285-.516-1.983-.516-.3,0-.961.146-.961.618,0,.755,1.013.807,1.475.807.536,0,.998-.103,1.519-.197-.072.326-.131.651-.19.978-.359.058-.719.102-1.077.102-.935,0-2.579-.12-2.579-1.595,0-1.073,1.044-1.433,1.798-1.433.442,0,.749.069,1.174.155-.146-.326-.301-.651-.44-.985-.845.171-1.812.291-2.672.324l-.191-.857c.852-.017,1.711-.052,2.548-.257-.089-.259-.17-.516-.244-.774-.616.137-1.231.233-1.864.265-.081-.273-.153-.556-.227-.831.624-.035,1.255-.086,1.878-.232-.109-.411-.197-.84-.27-1.261.3-.025.601-.061.901-.077h.03c.052,0,.117.026.117.103,0,.052-.036.103-.073.137.037.284.081.567.14.85.352-.102.696-.283,1.021-.49.059.317.131.636.19.962-.337.128-.682.248-1.026.36.08.275.176.54.279.806.587-.145,1.159-.386,1.718-.643.065.327.102.652.16.97-.521.214-1.058.352-1.594.471Z"/><path class="cls-2" d="m46.392,15.996c-.226.232-.534.266-.828.266-.242,0-.492-.069-.719-.181-.03-.324-.051-.643-.088-.969.25.155.528.24.807.24.594,0,.587-1.93.587-2.419,0-.352.007-.978-.412-.978-.147,0-.293.034-.44.069-.292,1.243-.916,3.233-1.571,4.263-.285-.155-.549-.327-.836-.464.683-1.054,1.181-2.384,1.484-3.654-.339.067-.677.153-1.006.248-.022-.095-.213-.919-.213-.919,0-.043.051-.051.073-.051.067,0,.124.018.191.018.374,0,.763-.077,1.139-.156.14-.668.22-1.354.264-2.042.219.052.432.121.645.19.096.033.207.061.301.102.037.018.096.044.096.103,0,.052-.052.077-.087.094-.087.481-.185.97-.302,1.45.148-.018.294-.043.441-.043.5,0,.801.155.969.729.119.386.147.893.147,1.305,0,.778-.11,2.256-.639,2.795Zm1.073-5.403c-.163-.431-.346-.833-.558-1.218l.594-.284c.199.378.367.773.522,1.185l-.557.317Zm.749,3.783c-.162-.251-.339-.481-.514-.712.213-.044.749-.173.749-.499,0-.548-.72-1.544-1.058-1.914.279-.143.558-.29.822-.461.439.557,1.167,1.784,1.167,2.555,0,.644-.742.884-1.167,1.03Zm.235-4.085c-.155-.428-.339-.831-.552-1.217l.566-.308c.213.385.403.78.55,1.209l-.565.316Z"/><path class="cls-2" d="m53.194,16.06c-.214.014-.418-.075-.584-.226-.663-.625-.917-1.845-.983-2.787-.055-.787-.03-1.578.049-2.359.021-.302.045-.595.083-.891.233.052.855.225,1.054.339.031.017.056.049.058.092.007.092-.077.151-.143.172-.131.448-.19,1.261-.209,1.742-.018.364.007.721.033,1.091.026.376.099.784.228,1.134.055.163.185.547.367.535.352-.025.742-1.178.878-1.533l.51,1.074c-.194.582-.763,1.577-1.342,1.618Zm3.227-1.537c-.141-1.38-.462-2.517-1.187-3.64.304-.14.59-.307.897-.441.642.956,1.085,2.46,1.241,3.649-.315.159-.63.3-.951.433Z"/><path class="cls-2" d="m62.443,16.546c-1.028.008-2.026-.428-2.04-1.811,0-.204.021-.411.037-.616-.537-.19-1.257-.429-1.271-1.227,0-.345.191-.799.324-1.099.278.061.557.145.828.206-.125.174-.359.508-.359.756.007.301.424.429.624.481.116-.679.248-1.348.366-2.025-.132.163-.256.326-.381.49-.375-.37-.771-.697-1.176-1.014.163-.258.331-.513.508-.771.39.291.756.61,1.093.944.118-.556.206-1.141.235-1.716.235.043.478.113.712.172.096.017.2.043.294.077.051.017.103.043.103.111,0,.094-.089.181-.139.223-.053.189-.096.396-.14.582-.089.404-.177.807-.272,1.211-.138.633-.285,1.278-.396,1.921.293.052.594.052.888.077l-.133.833c-.285,0-.579-.027-.865-.07-.023.13-.023.25-.023.379.008.719.508,1.011,1.065,1.003.624-.009.903-.386.895-1.098-.006-.824-.601-1.613-1.077-2.155.279-.109.55-.247.806-.392.705.78,1.219,1.603,1.233,2.787.017,1.158-.828,1.725-1.739,1.741Z"/><path class="cls-2" d="m28.472,24.896c-.13.619-.295,1.493-.599,2.007l-.614-.319c.288-.625.484-1.449.549-2.151l.664.25c.051.017.08.059.08.119,0,.043-.05.077-.08.094Zm5.333-.54c-.7-.241-1.372-.628-1.951-1.15-.446.43-.89.756-1.432,1.006l-.302-.455.086.377c-.181.103-.375.171-.572.25-.036-.146-.079-.301-.116-.447l-.187.035v3.448h-.743v-3.362c-.362.044-.715.105-1.077.146l-.079-.746c.144-.018.297.009.433-.044.245-.308.471-.643.687-.977-.326-.163-.65-.308-.998-.385v-.379c.528-.609.969-1.311,1.336-2.057.253.111.506.248.751.393.059.034.16.087.16.181,0,.087-.123.112-.174.112-.383.446-.764.891-1.178,1.304.151.087.297.179.44.266.144-.223.275-.455.397-.697.118.071.752.465.752.603,0,.094-.108.112-.166.094-.411.515-.817,1.038-1.241,1.543.244-.025.483-.059.729-.084-.045-.146-.089-.301-.146-.439.195-.077.391-.163.586-.248.094.283.175.566.253.85.404-.189.925-.506,1.257-.84-.354-.388-.694-.781-.969-1.244l.477-.49h-.7v-.746h3.389v.645c-.216.643-.673,1.329-1.085,1.809.449.429,1.287.746,1.843.935-.166.257-.311.531-.462.797Zm-4.018,1.914c-.158-.506-.267-1.038-.376-1.562l.609-.25c.093.524.201,1.039.367,1.536l-.6.276Zm.159.977v-.712h1.546v-1.02h-1.142v-.713h1.134v-.969c.196.025.398.042.594.068.086.008.172.008.26.034.035.008.072.035.072.086,0,.069-.065.12-.116.139v.642h1.252v.713h-1.252v1.02h1.641v.712h-3.989Zm1.113-6.331c.203.429.47.807.767,1.151.26-.309.513-.748.664-1.151h-1.43Z"/><path class="cls-2" d="m36.471,23.429c-.397-.301-.801-.6-1.229-.85l.521-.822c.304.179.896.694,1.142.977l-.434.695Zm-.253,3.757c.022.036.036.087.036.131,0,.042-.036.076-.071.076-.065,0-.782-.498-.882-.566.411-.73.78-2.042.975-2.892l.695.651c-.239.876-.477,1.741-.752,2.599Zm.427-5.909c-.346-.266-.694-.532-1.063-.748l.563-.822c.231.189.781.669.946.909l-.447.661Zm5.124,2.849c-.248-.07-.491-.146-.732-.241v3.491h-.795v-1.433h-1.821c-.238.636-.469,1.15-.959,1.57l-.63-.48c.889-.754,1.041-2.016,1.041-3.216-.245.102-.491.206-.752.266l-.404-.712c.687-.156,1.459-.368,2.059-.806-.368-.361-.685-.774-.96-1.236h-.637v-.746h1.707v-.978l.91.061c.057,0,.135.059.135.138,0,.084-.086.128-.144.145v.635h2.01v.746h-.774c-.26.48-.607.884-.976,1.243.513.36,1.518.601,2.119.687l-.397.868Zm-1.527.548h-1.603c-.015.197-.037.402-.065.6h1.669v-.6Zm0-1.082c-.288-.171-.576-.352-.852-.556-.231.153-.469.283-.716.41,0,.19,0,.37-.007.557h1.574v-.411Zm-1.517-2.274c.197.301.419.584.688.79.244-.207.454-.49.62-.79h-1.308Z"/><path class="cls-2" d="m49.332,27.424c-.677-.446-1.123-.91-1.622-1.609-.478.674-1.086,1.234-1.785,1.556l-.601-.576c.786-.411,1.446-.918,1.937-1.774-.499-.986-.733-2.08-.866-3.216h-1.783v.044c0,.323.008.639.008.962h1.732c-.015.656-.015,1.318-.095,1.967-.141,1.066-.477,1.406-1.372,1.495l-.404-.692c.888-.105,1.006-.454,1.021-1.452l.006-.593h-.909c0,1.233-.192,2.929-.94,3.846l-.69-.499c.755-.874.808-2.324.808-3.503,0-.788-.046-1.582-.06-2.37h2.621c-.043-.515-.058-1.04-.072-1.556l.96.122c.052.008.155.036.155.124,0,.078-.081.156-.139.183-.007.21-.007.41-.007.62,0,.165,0,.34.007.506h2.349v.814h-2.312c.058.786.204,1.556.449,2.29.242-.552.417-1.268.513-1.88l.916.576c.046.026.089.097.089.157,0,.096-.147.131-.204.141-.222.674-.457,1.345-.801,1.939.441.682,1.079,1.136,1.711,1.521l-.616.857Zm-.222-7.325c-.176.29-.344.586-.529.865l-.674-.235c.16-.41.302-.83.411-1.267l.851.349c.052.027.119.07.119.149,0,.087-.119.132-.178.139Z"/><path class="cls-2" d="m56.963,27.311c-1.197-.42-2.261-1.273-2.979-2.513.626-.2,1.253-.392,1.859-.669h-2.596v1.943l1.183-.303-.097.812c-.778.202-1.565.404-2.347.613-.02.058-.069.133-.131.133-.029,0-.062-.026-.076-.059l-.376-.88c.347-.057.695-.099,1.036-.175v-2.043h-1.205v-.803h1.205v-3.408h4.477v.761h-3.662v.453h3.202v.686h-3.202v.436h3.202v.662h-3.202v.428h4.114v.744h-.995l.397.611c0,.075-.056.118-.111.118-.048,0-.097-.025-.14-.05-.452.108-.912.201-1.37.276.439.745,1.641,1.231,2.359,1.415l-.544.812Z"/><path class="cls-2" d="m62.26,27.299c-1.027.009-2.026-.428-2.04-1.81,0-.207.021-.412.036-.618-.536-.188-1.257-.428-1.271-1.227,0-.345.19-.796.324-1.097.278.059.557.144.828.204-.125.172-.359.508-.359.756.008.3.424.428.624.48.116-.677.248-1.348.366-2.025-.132.164-.256.326-.381.49-.375-.368-.77-.695-1.176-1.013.163-.257.333-.515.508-.773.39.292.755.61,1.093.944.118-.557.207-1.141.235-1.715.235.043.477.111.713.171.096.018.199.043.293.078.051.017.103.043.103.111,0,.095-.089.181-.139.222-.053.189-.096.396-.14.584-.089.404-.176.807-.272,1.211-.138.633-.285,1.278-.396,1.921.294.052.594.052.888.078l-.133.83c-.285,0-.579-.025-.865-.068-.023.128-.023.248-.023.377.008.721.507,1.014,1.065,1.004.623-.008.903-.386.896-1.097-.008-.824-.603-1.614-1.078-2.154.277-.112.549-.248.806-.395.705.781,1.219,1.603,1.233,2.788.017,1.158-.828,1.723-1.739,1.741Z"/></svg>