<?xml version="1.0" encoding="UTF-8"?><svg id="_レイヤー_1" xmlns="http://www.w3.org/2000/svg" viewBox="0 0 100 100"><defs><style>.cls-1{fill:#076391;}.cls-1,.cls-2{stroke-width:0px;}.cls-2{fill:#fff;}</style></defs><rect class="cls-1" width="100" height="100"/><path class="cls-2" d="m8.576,12.464c-.173.094-.675.291-1.507.589-.659.22-1.075.369-1.248.447v-2.707c.533-.204,1.181-.518,1.942-.942.761-.424,1.298-.808,1.612-1.153h2.848v19.068h-3.649v-15.301Z"/><path class="cls-2" d="m15.485,26.33c-.84-1.13-1.26-2.652-1.26-4.567v-6.78c0-2.072.377-3.676,1.13-4.814.753-1.138,2.079-1.707,3.978-1.707,1.695,0,2.919.4,3.672,1.201.753.8,1.138,2.009,1.153,3.625l.024.329h-3.46c0-.879-.086-1.495-.259-1.848-.173-.353-.534-.53-1.083-.53-.392,0-.694.118-.906.353-.212.235-.361.628-.447,1.177-.086.549-.129,1.326-.129,2.331v1.93c.204-.345.533-.616.989-.812.455-.196.973-.294,1.554-.294,1.412,0,2.436.491,3.072,1.471.636.981.953,2.319.953,4.014,0,2.103-.392,3.731-1.177,4.885-.785,1.153-2.095,1.73-3.931,1.73-1.742,0-3.033-.565-3.872-1.695Zm5.038-1.801c.196-.525.294-1.361.294-2.507,0-.8-.024-1.42-.071-1.86-.047-.439-.177-.792-.389-1.059-.212-.267-.538-.4-.977-.4-.33,0-.624.086-.883.259-.259.173-.459.377-.6.612v3.037c0,1.805.502,2.707,1.507,2.707.549,0,.922-.263,1.118-.789Z"/><path class="cls-2" d="m66.458,44.361s-.975,1.295-.692,2.557c.286,1.262,1.724,2.013,1.724,2.013,0,0,.976-1.295.691-2.557-.284-1.263-1.724-2.013-1.724-2.013"/><path class="cls-2" d="m64.868,51.758s.976-1.296.691-2.558c-.285-1.263-1.724-2.012-1.724-2.012,0,0-.976,1.294-.693,2.557.286,1.262,1.725,2.013,1.725,2.013"/><path class="cls-2" d="m68.877,50.371s1.03,1.039,2.203.934c1.173-.104,2.042-1.311,2.042-1.311,0,0-1.028-1.039-2.202-.935-1.173.104-2.043,1.311-2.043,1.311"/><path class="cls-2" d="m70.564,44.822c-.954.968-.82,2.682-.82,2.682,0,0,1.682.146,2.638-.821.954-.967.82-2.681.82-2.681,0,0-1.683-.146-2.638.821"/><path class="cls-2" d="m68.459,54.221c1.169.138,2.268-.865,2.268-.865,0,0-.796-1.227-1.964-1.365-1.17-.137-2.269.866-2.269.866,0,0,.796,1.227,1.965,1.364"/><path class="cls-2" d="m69.503,73.01h-8.736c-.683,0-1.238.552-1.238,1.235s.554,1.236,1.238,1.236h8.736c.682,0,1.235-.554,1.235-1.236s-.553-1.235-1.235-1.235"/><path class="cls-2" d="m69.503,86.632h-8.736c-.683,0-1.238.552-1.238,1.235s.554,1.236,1.238,1.236h8.736c.682,0,1.235-.554,1.235-1.236s-.553-1.235-1.235-1.235"/><path class="cls-2" d="m30.216,70.009c-.205-.064-.409-.119-.606-.156,0,0,.224.07.606.156"/><path class="cls-2" d="m69.181,76.344h-8.095c-.388,0-.703.316-.703.703v2.451l-5.284.581-7.72-.177v-4.715c1.025-.131,2.052-.336,3.072-.623,7.431-2.097,9.052-6.725,8.89-10.976-.162-4.329,1.224-6.011,3.215-6.758.57-.214,1.134-.349,1.65-.437.022,1.064.238,2.3.713,3.773.177-.01.352-.025.527-.044-.502-1.507-.716-2.746-.728-3.803,1.028-.122,1.762-.053,1.762-.053,0,0-.695-.373-1.677-1.194.334-2.05,1.555-3.309,2.813-4.596.692-.709,1.406-1.44,1.969-2.312l-.439-.283c-.532.828-1.232,1.54-1.905,2.23-1.227,1.256-2.466,2.538-2.885,4.574-.399-.36-.83-.786-1.272-1.281-1.833-2.054-4.192-.545-7.556,2.587-3.366,3.131-7.598,3.238-11.731-.991-5.453-5.583-10.21-5.551-13.473-5.234,2.232.951,3.012,3.036,4.142,8.336,1.184,5.561,4.169,8.078,8.253,8.425-1.893.307-2.384.569-5.427,2.671-2.377,1.64-5.72,1.122-7.076.814,2.488.776,5.436,3.386,8.073,4.294,1.535.528,3.154.855,4.813.987v4.514l-14.644-.316v3.149l26.64-.591,5.284.582v2.449c0,.388.315.705.703.705h8.095c.389,0,.705-.317.705-.705v-8.031c0-.387-.316-.703-.705-.703Zm-24.807-.988c.576.01,1.153-.007,1.732-.047v4.564l-1.732-.04v-4.478Z"/><path class="cls-2" d="m27.702,82.118c0,.664-.463,1.203-1.034,1.203h-.622c-.57,0-1.035-.539-1.035-1.203v-2.177c0-.665.465-1.203,1.035-1.203h.622c.571,0,1.034.538,1.034,1.203v2.177Z"/><path class="cls-2" d="m35.845,13.487v2.814h-.888v-2.814h-2.789v-.841h2.789v-2.848h-2.4v-.824h5.696v.824h-2.415v2.848h2.79v.841h-2.782Zm-2.099-1.167c-.258-.611-.523-1.227-.831-1.802l.787-.428c.248.53.557,1.269.69,1.852l-.647.378Zm4.096-1.571c-.257.542-.514,1.082-.807,1.605l-.654-.308c.242-.644.463-1.305.654-1.973l.881.403c.051.026.102.077.102.145,0,.095-.119.128-.176.128Z"/><path class="cls-2" d="m43.289,9.498c-.044,0-.081-.018-.118-.044-.33.138-.675.24-1.02.336v1.149h.975v.771h-.975v.213c.27.541.74,1.083,1.158,1.476l-.499.68c-.243-.267-.477-.576-.66-.902v3.148h-.844v-3.104c-.244.53-.648,1.199-1.059,1.569l-.586-.61c.623-.582,1.225-1.577,1.467-2.47h-1.226v-.771h1.404v-1.004c-.376.069-.749.119-1.125.162l-.315-.746c.888-.076,2.166-.248,2.937-.78.081.095.602.738.602.807,0,.076-.058.12-.117.12Zm.117,6.315v-6.119h2.915v6.119h-2.915Zm2.07-5.328h-1.256v4.553h1.256v-4.553Z"/><path class="cls-2" d="m50.973,16.129c-1.049,0-2.724-.163-2.724-1.802,0-1.192.88-1.801,1.71-2.213-.251-.988-.279-2.016-.295-3.036.222.015.449.034.669.05.109.01.22.018.329.036.037.008.08.026.08.076,0,.035-.029.07-.051.095-.036.258-.043.531-.043.79,0,.316-.008,1.311.138,1.534.015.017.046.026.068.026.278,0,1.563-.585,1.85-.764.109.368.184.755.27,1.133-.918.215-3.831.764-3.831,2.18,0,.797,1.087.952,1.592.952.83,0,1.572-.087,2.357-.387.044.36.081.73.105,1.099-.736.153-1.484.231-2.225.231Z"/><path class="cls-2" d="m57.386,9.496c-.404,1.185-1.139,2.601-2.034,3.348l-.667-.516c.903-.866,1.54-2.144,1.807-3.474l.968.385c.044.018.081.053.081.112,0,.087-.089.139-.155.145Zm2.753,6.941c-.147-.275-.286-.549-.433-.824-1.329.197-2.664.335-4.001.49-.03.043-.081.102-.133.102-.044,0-.066-.034-.08-.077l-.272-.866c.213-.025.432-.025.645-.077.176-.042.199-.061.301-.232.316-.548.573-1.174.823-1.766.226-.541.44-1.09.609-1.656l.926.497c.036.018.088.069.088.121,0,.094-.11.145-.177.153-.462.96-.932,1.914-1.49,2.805.793-.077,1.586-.171,2.378-.273-.206-.378-.418-.746-.645-1.108.241-.171.484-.334.727-.497.52.875.998,1.784,1.46,2.7l-.726.508Zm.726-3.602c-.946-.686-1.895-2.204-2.312-3.397.294-.164.58-.345.874-.506.337,1.304,1.144,2.384,2.077,3.175l-.639.729Z"/><path class="cls-2" d="m62.298,16.069v-.806h1.123v-4.1l.866.059c.052,0,.117.034.117.105,0,.076-.059.127-.117.145v3.791h1.036v-5.268h-2.703v-.84h5.991v.85h-2.378v2.006h2.003v.875h-2.018v2.343h2.547v.84h-6.467Z"/><path class="cls-2" d="m75.989,12.724c-.037,0-.074-.017-.109-.043-.529.181-1.551.582-2.034.806v1.321l-.868-.008c.008-.12.008-.248.008-.392v-.483c-.587.275-.881.626-.881,1.021,0,.344.338.523,1.005.523.727,0,1.387-.094,2.138-.342l-.03,1.003c-.647.215-1.36.248-1.843.248-1.438,0-2.158-.453-2.158-1.373,0-.446.205-.857.602-1.234.25-.232.623-.481,1.115-.738-.014-.386-.131-.584-.345-.584-.272,0-.521.103-.755.327-.148.135-.338.317-.566.582-.27.3-.44.508-.543.609-.131-.155-.338-.385-.608-.704.822-.642,1.438-1.424,1.849-2.324-.389.051-.822.086-1.292.111-.03-.326-.074-.626-.116-.891.689,0,1.255-.026,1.681-.086.089-.25.169-.643.25-1.184l.991.223c.059.015.088.051.088.102s-.036.095-.118.13c-.036.145-.102.368-.199.661.339-.043.837-.171,1.373-.319l-.08.944c-.405.084-.948.172-1.624.266-.102.258-.271.575-.455.858.176-.051.323-.059.419-.059.449,0,.741.298.873.915.588-.307,1.254-.625,1.983-.951l.336.962c0,.069-.029.102-.087.102Z"/><path class="cls-2" d="m38.397,22.066c-.301-.017-.602-.025-.895-.025-.442,0-.881-.008-1.315.017.007.317-.008.635.014.952.229.403.273.893.273,1.356,0,1.432-.587,2.711-1.807,3.157-.264-.223-.543-.421-.8-.653.661-.156,1.366-.704,1.593-1.476-.183.113-.395.138-.609.138-.625,0-.991-.78-.991-1.441,0-.824.417-1.639,1.189-1.639.096,0,.198.008.294.034,0-.138-.006-.275-.015-.411-.498.008-.997.059-1.489.102-.477.051-.946.112-1.417.189-.029-.326-.014-.66-.029-.986.976-.043,1.944-.067,2.921-.127-.023-.422-.037-.84-.045-1.272.214.019.441.053.654.087.089.017.193.017.272.043.052.008.111.026.111.102,0,.078-.052.146-.095.181-.009.275-.016.549-.016.824.749-.026,1.505-.059,2.253-.103l-.05.952Zm-3.274,1.219c-.337,0-.484.377-.484.729,0,.283.089.695.389.695.322,0,.382-.48.382-.773,0-.232,0-.651-.287-.651Z"/><path class="cls-2" d="m45.021,27.25c-.373-.465-.814-.944-1.203-1.458-.463-.609-.94-1.244-1.388-1.845-.153-.207-.308-.429-.464-.636-.078-.102-.182-.29-.322-.29-.198,0-.39.352-.498.504-.147.215-.295.447-.434.654-.25.377-.469.763-.711,1.133v.043c0,.068-.029.127-.096.127l-.815-.744c.301-.336.601-.67.865-1.048.279-.386.529-.814.823-1.202.279-.349.498-.557.918-.557.307,0,.513.189.727.429.159.182.315.42.462.61.346.455.69.918,1.042,1.347.543.679,1.248,1.483,1.821,2.119l-.728.815Zm-1.218-4.77c-.176-.412-.381-.807-.586-1.2l.556-.327c.215.378.405.79.566,1.202l-.536.326Zm.931-.404c-.168-.42-.365-.815-.587-1.21l.56-.316c.204.386.395.797.556,1.209l-.529.317Z"/><path class="cls-2" d="m52.509,21.803c-.03,0-.065-.008-.096-.008-.343,0-.711.042-1.048.179-.969.385-1.673,1.526-1.673,2.727,0,1.778,1.425,1.982,2.619,1.982-.057.335-.116.679-.197,1.013h-.161c-.529,0-1.153-.102-1.646-.309-.932-.386-1.526-1.251-1.526-2.428,0-1.036.264-1.843.786-2.675-.881.163-1.763.352-2.628.574-.051-.342-.118-.676-.161-1.011,1.527-.215,3.038-.454,4.537-.832.352-.094.696-.197,1.035-.327.036.13.264.961.264,1.029,0,.069-.052.087-.104.087Z"/><path class="cls-2" d="m57.76,27.369c-.228-.247-.433-.513-.661-.755,1.16-.327,2.232-.797,2.232-2.428,0-1.105-.572-2.11-1.534-2.332-.198,1.483-.588,3.843-1.741,4.717-.213.164-.424.275-.682.275-.302,0-.594-.241-.786-.498-.344-.464-.469-1.158-.469-1.759,0-2.1,1.49-3.585,3.236-3.585,1.615,0,2.93,1.123,2.93,3.123,0,1.87-1.072,2.847-2.526,3.241Zm-2.584-3.954c-.139.368-.205.771-.205,1.174,0,.352.066,1.262.477,1.262.147,0,.271-.164.358-.275.692-.825.985-2.581,1.057-3.707-.66.139-1.416.824-1.688,1.545Z"/><path class="cls-2" d="m67.539,27.576c-1.212-.79-2.193-2.24-2.708-3.733-.119.386-.236.764-.398,1.124-.36.815-.925,1.561-1.592,2.093-.242.189-.493.361-.756.487l-.646-.72c.286-.135.61-.334.873-.556.955-.796,1.571-1.963,1.814-3.372.153-.884.117-1.784.117-2.677l1.02.113c.06.008.142.043.142.128s-.076.137-.134.153c-.013.353-.021.695-.021,1.047,0,1.16.55,2.419,1.145,3.312.442.66,1.262,1.389,1.909,1.748l-.764.851Z"/><path class="cls-2" d="m70.96,27.386c-.266.027-.529.062-.801.096-.33-1.029-.38-2.145-.38-3.235,0-1.218.159-2.445.38-3.637l.638.147c.095.025.221.032.316.076.043.017.082.043.082.111,0,.07-.067.112-.119.112-.294,1.192-.426,2.54-.426,3.775,0,.309.016.609.016.919.131-.387.255-.782.396-1.168.183.164.367.335.55.498-.323.764-.557,1.449-.653,2.307Zm4.513-.454c-.433.068-.859.113-1.291.113-1.115,0-2.158-.138-2.344-1.69.259-.189.515-.387.78-.568.03.885.492,1.271,1.219,1.271.572,0,1.145-.086,1.702-.239-.021.367-.044.738-.066,1.114Zm-.426-4.494c-.535-.165-1.072-.24-1.628-.24-.383,0-.764.043-1.147.102-.007-.309,0-.61-.014-.919.536-.101,1.071-.136,1.615-.136.448,0,.89.076,1.33.18-.052.334-.097.677-.156,1.013Z"/></svg>