<?xml version="1.0" encoding="UTF-8"?><svg id="_レイヤー_1" xmlns="http://www.w3.org/2000/svg" viewBox="0 0 360 288"><rect width="360" height="288" style="fill:none;"/><path d="M256.81,229.58h-4.46v-1.44h-12.2v1.4h-4.28v-10.22c-2.52,1.44-5.22,2.59-7.96,3.53-.5-1.19-1.58-2.95-2.48-3.82,4.5-1.3,8.86-3.46,12.6-6.23-1.44-1.58-3.6-3.46-5.51-4.97-1.22.97-2.56,1.87-4,2.74-.65-1.04-2.05-2.63-3.02-3.35,5.9-3.13,9.86-7.52,11.95-11.45l4.82.9c-.54.94-1.15,1.87-1.8,2.81h8.17l.72-.22,2.95,1.55c-1.83,4.93-4.75,9.14-8.35,12.56h12.85v16.2ZM237.51,203.23c-.58.61-1.15,1.22-1.76,1.84,1.91,1.4,4.21,3.2,5.72,4.75,2.02-1.98,3.71-4.21,5-6.59h-8.96ZM252.34,224.29v-7.02h-12.2v7.02h12.2Z" style="fill:#333;"/><path d="M109.94,218.53v-9.9l29.43-42.12h14.67v41.04h7.92v10.98h-7.92v12.78h-12.6v-12.78h-31.5ZM142.25,180.01l-18.45,27.54h18.45v-27.54Z" style="fill:#333;"/><path d="M169.43,218.53v-9.9l29.43-42.12h14.67v41.04h7.92v10.98h-7.92v12.78h-12.6v-12.78h-31.5ZM201.74,180.01l-18.45,27.54h18.45v-27.54Z" style="fill:#333;"/><path d="M119.77,266.04c4.42-3.86,6.45-6.66,6.45-9.08,0-1.61-.84-2.78-2.59-2.78-1.15,0-2.15.71-2.92,1.63l-1.02-1c1.15-1.25,2.36-2.07,4.15-2.07,2.51,0,4.09,1.65,4.09,4.17,0,2.8-2.21,5.66-5.51,8.79.73-.06,1.59-.13,2.3-.13h3.9v1.52h-8.85v-1.04Z" style="fill:#333;"/><path d="M130.52,259.99c0-4.9,1.71-7.26,4.4-7.26s4.38,2.38,4.38,7.26-1.71,7.33-4.38,7.33-4.4-2.44-4.4-7.33ZM137.58,259.99c0-4.11-1.07-5.84-2.67-5.84s-2.69,1.73-2.69,5.84,1.08,5.93,2.69,5.93,2.67-1.79,2.67-5.93Z" style="fill:#333;"/><path d="M141.08,266.04c4.42-3.86,6.45-6.66,6.45-9.08,0-1.61-.84-2.78-2.59-2.78-1.15,0-2.15.71-2.92,1.63l-1.02-1c1.15-1.25,2.36-2.07,4.15-2.07,2.51,0,4.09,1.65,4.09,4.17,0,2.8-2.21,5.66-5.51,8.79.73-.06,1.59-.13,2.3-.13h3.9v1.52h-8.85v-1.04Z" style="fill:#333;"/><path d="M151.43,265.46l.86-1.15c.81.81,1.82,1.55,3.46,1.55s2.99-1.27,2.99-3.32-1.15-3.21-2.92-3.21c-.94,0-1.54.29-2.34.83l-.94-.58.44-6.58h6.85v1.5h-5.32l-.35,4.07c.61-.35,1.25-.56,2.09-.56,2.34,0,4.24,1.38,4.24,4.47s-2.23,4.84-4.61,4.84c-2.19,0-3.53-.92-4.47-1.86Z" style="fill:#333;"/><path d="M179.78,264.16h-6.95v4.4h-1.44v-4.4h-8.87v-1.38h3.15v-5.14h5.72v-2.92h-4.66c-.86,1.48-1.88,2.78-2.92,3.78-.27-.23-.86-.71-1.23-.9,1.8-1.57,3.42-4.05,4.32-6.62l1.44.35c-.27.67-.58,1.36-.88,2.02h11.44v1.38h-6.07v2.92h5.62v1.34h-5.62v3.8h6.95v1.38ZM171.39,262.77v-3.8h-4.3v3.8h4.3Z" style="fill:#333;"/><path d="M190.79,263.2h-1.86v3.88h-1.67v-3.88h-6.12v-1.15l5.86-9.04h1.94v8.79h1.86v1.4ZM187.25,261.8v-4.32c0-.69.08-1.82.12-2.55h-.08c-.35.69-.73,1.38-1.13,2.07l-3.21,4.8h4.3Z" style="fill:#333;"/><path d="M207.1,266.46c0,1-.29,1.5-1,1.73-.73.25-2,.27-4.05.27-.1-.4-.36-1.08-.61-1.48,1.61.06,3.15.04,3.59.04.44-.02.6-.15.6-.58v-3.84h-9.21c-.48,2.17-1.44,4.34-3.3,5.97-.19-.31-.77-.83-1.06-1.04,3.05-2.69,3.36-6.58,3.36-9.64v-5.87h11.69v14.44ZM205.63,261.2v-3.22h-8.77c0,1-.06,2.09-.21,3.22h8.98ZM196.85,253.43v3.19h8.77v-3.19h-8.77Z" style="fill:#333;"/><path d="M217.57,264.79h-4.13v1.55h-1.31v-14.07h5.43v12.52ZM213.44,253.56v4.26h2.78v-4.26h-2.78ZM216.23,263.5v-4.43h-2.78v4.43h2.78ZM226.61,258.26v2.17h2.23v1.27h-2.23v5.14c0,.81-.21,1.23-.79,1.44-.59.21-1.55.23-3.11.23-.06-.38-.25-.96-.46-1.32,1.19.04,2.25.04,2.55.02.33-.02.42-.1.42-.38v-5.12h-7.26v-1.27h7.26v-2.17h-7.35v-1.27h4.82v-2.44h-3.99v-1.27h3.99v-2.29h1.4v2.29h4.13v1.27h-4.13v2.44h4.95v1.27h-2.44ZM220.3,262.37c.98.96,2.05,2.32,2.5,3.26l-1.21.77c-.44-.94-1.46-2.36-2.44-3.38l1.15-.65Z" style="fill:#333;"/><path d="M230.67,267.9c1.02-.86,2-2.4,2.61-3.82l1.34.35c-.63,1.5-1.61,3.11-2.65,4.11l-1.31-.63ZM245.79,262.93h-12.76v-6.1h5.51v-5.82h1.42v2.05h7.26v1.34h-7.26v2.42h5.83v6.1ZM244.35,258.17h-9.96v3.42h9.96v-3.42ZM237.71,264.48c.25,1.21.46,2.78.48,3.71l-1.42.19c0-.96-.17-2.55-.42-3.78l1.36-.12ZM241.57,264.33c.59,1.15,1.21,2.71,1.44,3.67l-1.38.33c-.19-.94-.77-2.53-1.34-3.7l1.29-.29ZM245.43,263.96c.98,1.21,2.07,2.8,2.55,3.88l-1.34.54c-.44-1.06-1.5-2.71-2.46-3.93l1.25-.48Z" style="fill:#333;"/><g style="opacity:.1;"><path d="M209.23,32.36c3.12,0,5.65-2.53,5.65-5.65,0-3.12-2.53-5.65-5.65-5.65-3.12,0-5.65,2.53-5.65,5.65,0,3.12,2.53,5.65,5.65,5.65Z" style="fill:#014098;"/><path d="M215.52,33.47h-12.59c-.46,0-.9.19-1.22.53-.32.34-.47.79-.44,1.26l1.11,15c.07.87.79,1.54,1.66,1.54h1.73c-.03.12-.05.25-.05.37v10.74c0,.44.18.87.49,1.18.31.31.74.49,1.18.49h3.68c.44,0,.87-.18,1.18-.49s.49-.74.49-1.18v-10.74c0-.13-.02-.25-.05-.37h1.73c.87,0,1.6-.67,1.66-1.54l1.11-15c.03-.46-.12-.92-.44-1.26-.31-.34-.76-.53-1.22-.53Z" style="fill:#014098;"/><path d="M182.78,32.36c3.12,0,5.65-2.53,5.65-5.65,0-3.12-2.53-5.65-5.65-5.65-3.12,0-5.65,2.53-5.65,5.65,0,3.12,2.53,5.65,5.65,5.65Z" style="fill:#014098;"/><path d="M189.08,33.47h-12.59c-.46,0-.9.19-1.22.53-.32.34-.47.79-.44,1.26l1.11,15c.07.87.79,1.54,1.66,1.54h1.73c-.03.12-.05.25-.05.37v10.74c0,.44.18.87.49,1.18.31.31.74.49,1.18.49h3.68c.44,0,.87-.18,1.18-.49s.49-.74.49-1.18v-10.74c0-.13-.02-.25-.05-.37h1.73c.87,0,1.6-.67,1.66-1.54l1.11-15c.03-.46-.12-.92-.44-1.26-.31-.34-.76-.53-1.22-.53Z" style="fill:#014098;"/><path d="M156.33,32.36c3.12,0,5.65-2.53,5.65-5.65,0-3.12-2.53-5.65-5.65-5.65-3.12,0-5.65,2.53-5.65,5.65,0,3.12,2.53,5.65,5.65,5.65Z" style="fill:#014098;"/><path d="M162.63,33.47h-12.59c-.46,0-.9.19-1.22.53-.32.34-.47.79-.44,1.26l1.11,15c.07.87.79,1.54,1.66,1.54h1.73c-.03.12-.05.25-.05.37v10.74c0,.44.18.87.49,1.18.31.31.74.49,1.18.49h3.68c.44,0,.87-.18,1.18-.49s.49-.74.49-1.18v-10.74c0-.13-.02-.25-.05-.37h1.73c.87,0,1.6-.67,1.66-1.54l1.11-15c.03-.46-.12-.92-.44-1.26-.31-.34-.76-.53-1.22-.53Z" style="fill:#014098;"/><path d="M129.89,32.36c3.12,0,5.65-2.53,5.65-5.65,0-3.12-2.53-5.65-5.65-5.65-3.12,0-5.65,2.53-5.65,5.65,0,3.12,2.53,5.65,5.65,5.65Z" style="fill:#014098;"/><path d="M136.18,33.47h-12.59c-.46,0-.9.19-1.22.53-.32.34-.47.79-.44,1.26l1.11,15c.07.87.79,1.54,1.66,1.54h1.73c-.03.12-.05.25-.05.37v10.74c0,.44.18.87.49,1.18.31.31.74.49,1.18.49h3.68c.44,0,.87-.18,1.18-.49s.49-.74.49-1.18v-10.74c0-.13-.02-.25-.05-.37h1.73c.87,0,1.6-.67,1.66-1.54l1.11-15c.03-.46-.12-.92-.44-1.26-.31-.34-.76-.53-1.22-.53Z" style="fill:#014098;"/><path d="M103.44,32.36c3.12,0,5.65-2.53,5.65-5.65,0-3.12-2.53-5.65-5.65-5.65-3.12,0-5.65,2.53-5.65,5.65,0,3.12,2.53,5.65,5.65,5.65Z" style="fill:#014098;"/><path d="M109.73,33.47h-12.59c-.46,0-.9.19-1.22.53-.32.34-.47.79-.44,1.26l1.11,15c.07.87.79,1.54,1.66,1.54h1.73c-.03.12-.05.25-.05.37v10.74c0,.44.18.87.49,1.18.31.31.74.49,1.18.49h3.68c.44,0,.87-.18,1.18-.49s.49-.74.49-1.18v-10.74c0-.13-.02-.25-.05-.37h1.73c.87,0,1.6-.67,1.66-1.54l1.11-15c.03-.46-.12-.92-.44-1.26-.31-.34-.76-.53-1.22-.53Z" style="fill:#014098;"/><path d="M235.68,32.36c3.12,0,5.65-2.53,5.65-5.65,0-3.12-2.53-5.65-5.65-5.65-3.12,0-5.65,2.53-5.65,5.65,0,3.12,2.53,5.65,5.65,5.65Z" style="fill:#014098;"/><path d="M241.97,33.47h-12.59c-.46,0-.9.19-1.22.53-.32.34-.47.79-.44,1.26l1.11,15c.07.87.79,1.54,1.66,1.54h1.73c-.03.12-.05.25-.05.37v10.74c0,.44.18.87.49,1.18.31.31.74.49,1.18.49h3.68c.44,0,.87-.18,1.18-.49s.49-.74.49-1.18v-10.74c0-.13-.02-.25-.05-.37h1.73c.87,0,1.6-.67,1.66-1.54l1.11-15c.03-.46-.12-.92-.44-1.26-.31-.34-.76-.53-1.22-.53Z" style="fill:#014098;"/><path d="M262.12,32.36c3.12,0,5.65-2.53,5.65-5.65,0-3.12-2.53-5.65-5.65-5.65-3.12,0-5.65,2.53-5.65,5.65,0,3.12,2.53,5.65,5.65,5.65Z" style="fill:#014098;"/><path d="M268.42,33.47h-12.59c-.46,0-.9.19-1.22.53-.32.34-.47.79-.44,1.26l1.11,15c.07.87.79,1.54,1.66,1.54h1.73c-.03.12-.05.25-.05.37v10.74c0,.44.18.87.49,1.18.31.31.74.49,1.18.49h3.68c.44,0,.87-.18,1.18-.49s.49-.74.49-1.18v-10.74c0-.13-.02-.25-.05-.37h1.73c.87,0,1.6-.67,1.66-1.54l1.11-15c.03-.46-.12-.92-.44-1.26-.31-.34-.76-.53-1.22-.53Z" style="fill:#014098;"/></g><g style="opacity:.7;"><path d="M209.23,79.53c3.12,0,5.65-2.53,5.65-5.65,0-3.12-2.53-5.65-5.65-5.65-3.12,0-5.65,2.53-5.65,5.65,0,3.12,2.53,5.65,5.65,5.65Z" style="fill:#014098;"/><path d="M215.52,80.64h-12.59c-.46,0-.9.19-1.22.53-.32.34-.47.79-.44,1.26l1.11,15c.07.87.79,1.54,1.66,1.54h1.73c-.03.12-.05.25-.05.37v10.74c0,.44.18.87.49,1.18.31.31.74.49,1.18.49h3.68c.44,0,.87-.18,1.18-.49s.49-.74.49-1.18v-10.74c0-.13-.02-.25-.05-.37h1.73c.87,0,1.6-.67,1.66-1.54l1.11-15c.03-.46-.12-.92-.44-1.26-.31-.34-.76-.53-1.22-.53Z" style="fill:#014098;"/><path d="M182.78,79.53c3.12,0,5.65-2.53,5.65-5.65,0-3.12-2.53-5.65-5.65-5.65-3.12,0-5.65,2.53-5.65,5.65,0,3.12,2.53,5.65,5.65,5.65Z" style="fill:#014098;"/><path d="M189.08,80.64h-12.59c-.46,0-.9.19-1.22.53-.32.34-.47.79-.44,1.26l1.11,15c.07.87.79,1.54,1.66,1.54h1.73c-.03.12-.05.25-.05.37v10.74c0,.44.18.87.49,1.18.31.31.74.49,1.18.49h3.68c.44,0,.87-.18,1.18-.49s.49-.74.49-1.18v-10.74c0-.13-.02-.25-.05-.37h1.73c.87,0,1.6-.67,1.66-1.54l1.11-15c.03-.46-.12-.92-.44-1.26-.31-.34-.76-.53-1.22-.53Z" style="fill:#014098;"/><path d="M156.33,79.53c3.12,0,5.65-2.53,5.65-5.65,0-3.12-2.53-5.65-5.65-5.65-3.12,0-5.65,2.53-5.65,5.65,0,3.12,2.53,5.65,5.65,5.65Z" style="fill:#014098;"/><path d="M162.63,80.64h-12.59c-.46,0-.9.19-1.22.53-.32.34-.47.79-.44,1.26l1.11,15c.07.87.79,1.54,1.66,1.54h1.73c-.03.12-.05.25-.05.37v10.74c0,.44.18.87.49,1.18.31.31.74.49,1.18.49h3.68c.44,0,.87-.18,1.18-.49s.49-.74.49-1.18v-10.74c0-.13-.02-.25-.05-.37h1.73c.87,0,1.6-.67,1.66-1.54l1.11-15c.03-.46-.12-.92-.44-1.26-.31-.34-.76-.53-1.22-.53Z" style="fill:#014098;"/><path d="M129.89,79.53c3.12,0,5.65-2.53,5.65-5.65,0-3.12-2.53-5.65-5.65-5.65-3.12,0-5.65,2.53-5.65,5.65,0,3.12,2.53,5.65,5.65,5.65Z" style="fill:#014098;"/><path d="M136.18,80.64h-12.59c-.46,0-.9.19-1.22.53-.32.34-.47.79-.44,1.26l1.11,15c.07.87.79,1.54,1.66,1.54h1.73c-.03.12-.05.25-.05.37v10.74c0,.44.18.87.49,1.18.31.31.74.49,1.18.49h3.68c.44,0,.87-.18,1.18-.49s.49-.74.49-1.18v-10.74c0-.13-.02-.25-.05-.37h1.73c.87,0,1.6-.67,1.66-1.54l1.11-15c.03-.46-.12-.92-.44-1.26-.31-.34-.76-.53-1.22-.53Z" style="fill:#014098;"/><path d="M103.44,79.53c3.12,0,5.65-2.53,5.65-5.65,0-3.12-2.53-5.65-5.65-5.65-3.12,0-5.65,2.53-5.65,5.65,0,3.12,2.53,5.65,5.65,5.65Z" style="fill:#014098;"/><path d="M109.73,80.64h-12.59c-.46,0-.9.19-1.22.53-.32.34-.47.79-.44,1.26l1.11,15c.07.87.79,1.54,1.66,1.54h1.73c-.03.12-.05.25-.05.37v10.74c0,.44.18.87.49,1.18.31.31.74.49,1.18.49h3.68c.44,0,.87-.18,1.18-.49s.49-.74.49-1.18v-10.74c0-.13-.02-.25-.05-.37h1.73c.87,0,1.6-.67,1.66-1.54l1.11-15c.03-.46-.12-.92-.44-1.26-.31-.34-.76-.53-1.22-.53Z" style="fill:#014098;"/><path d="M76.99,79.53c3.12,0,5.65-2.53,5.65-5.65,0-3.12-2.53-5.65-5.65-5.65-3.12,0-5.65,2.53-5.65,5.65,0,3.12,2.53,5.65,5.65,5.65Z" style="fill:#014098;"/><path d="M83.29,80.64h-12.59c-.46,0-.9.19-1.22.53-.32.34-.47.79-.44,1.26l1.11,15c.07.87.79,1.54,1.66,1.54h1.73c-.03.12-.05.25-.05.37v10.74c0,.44.18.87.49,1.18.31.31.74.49,1.18.49h3.68c.44,0,.87-.18,1.18-.49s.49-.74.49-1.18v-10.74c0-.13-.02-.25-.05-.37h1.73c.87,0,1.6-.67,1.66-1.54l1.11-15c.03-.46-.12-.92-.44-1.26-.31-.34-.76-.53-1.22-.53Z" style="fill:#014098;"/><path d="M235.68,79.53c3.12,0,5.65-2.53,5.65-5.65,0-3.12-2.53-5.65-5.65-5.65-3.12,0-5.65,2.53-5.65,5.65,0,3.12,2.53,5.65,5.65,5.65Z" style="fill:#014098;"/><path d="M241.97,80.64h-12.59c-.46,0-.9.19-1.22.53-.32.34-.47.79-.44,1.26l1.11,15c.07.87.79,1.54,1.66,1.54h1.73c-.03.12-.05.25-.05.37v10.74c0,.44.18.87.49,1.18.31.31.74.49,1.18.49h3.68c.44,0,.87-.18,1.18-.49s.49-.74.49-1.18v-10.74c0-.13-.02-.25-.05-.37h1.73c.87,0,1.6-.67,1.66-1.54l1.11-15c.03-.46-.12-.92-.44-1.26-.31-.34-.76-.53-1.22-.53Z" style="fill:#014098;"/><path d="M262.12,79.53c3.12,0,5.65-2.53,5.65-5.65,0-3.12-2.53-5.65-5.65-5.65-3.12,0-5.65,2.53-5.65,5.65,0,3.12,2.53,5.65,5.65,5.65Z" style="fill:#014098;"/><path d="M268.42,80.64h-12.59c-.46,0-.9.19-1.22.53-.32.34-.47.79-.44,1.26l1.11,15c.07.87.79,1.54,1.66,1.54h1.73c-.03.12-.05.25-.05.37v10.74c0,.44.18.87.49,1.18.31.31.74.49,1.18.49h3.68c.44,0,.87-.18,1.18-.49s.49-.74.49-1.18v-10.74c0-.13-.02-.25-.05-.37h1.73c.87,0,1.6-.67,1.66-1.54l1.11-15c.03-.46-.12-.92-.44-1.26-.31-.34-.76-.53-1.22-.53Z" style="fill:#014098;"/><path d="M288.57,79.53c3.12,0,5.65-2.53,5.65-5.65,0-3.12-2.53-5.65-5.65-5.65-3.12,0-5.65,2.53-5.65,5.65,0,3.12,2.53,5.65,5.65,5.65Z" style="fill:#014098;"/><path d="M294.87,80.64h-12.59c-.46,0-.9.19-1.22.53-.32.34-.47.79-.44,1.26l1.11,15c.07.87.79,1.54,1.66,1.54h1.73c-.03.12-.05.25-.05.37v10.74c0,.44.18.87.49,1.18.31.31.74.49,1.18.49h3.68c.44,0,.87-.18,1.18-.49s.49-.74.49-1.18v-10.74c0-.13-.02-.25-.05-.37h1.73c.87,0,1.6-.67,1.66-1.54l1.11-15c.03-.46-.12-.92-.44-1.26-.31-.34-.76-.53-1.22-.53Z" style="fill:#014098;"/></g><g style="opacity:.4;"><path d="M222.58,55.94c3.12,0,5.65-2.53,5.65-5.65,0-3.12-2.53-5.65-5.65-5.65-3.12,0-5.65,2.53-5.65,5.65,0,3.12,2.53,5.65,5.65,5.65Z" style="fill:#014098;"/><path d="M228.87,57.06h-12.59c-.46,0-.9.19-1.22.53-.32.34-.47.79-.44,1.26l1.11,15c.07.87.79,1.54,1.66,1.54h1.73c-.03.12-.05.25-.05.37v10.74c0,.44.18.87.49,1.18.31.31.74.49,1.18.49h3.68c.44,0,.87-.18,1.18-.49s.49-.74.49-1.18v-10.74c0-.13-.02-.25-.05-.37h1.73c.87,0,1.6-.67,1.66-1.54l1.11-15c.03-.46-.12-.92-.44-1.26-.31-.34-.76-.53-1.22-.53Z" style="fill:#014098;"/><path d="M196.13,55.94c3.12,0,5.65-2.53,5.65-5.65,0-3.12-2.53-5.65-5.65-5.65-3.12,0-5.65,2.53-5.65,5.65,0,3.12,2.53,5.65,5.65,5.65Z" style="fill:#014098;"/><path d="M202.43,57.06h-12.59c-.46,0-.9.19-1.22.53-.32.34-.47.79-.44,1.26l1.11,15c.07.87.79,1.54,1.66,1.54h1.73c-.03.12-.05.25-.05.37v10.74c0,.44.18.87.49,1.18.31.31.74.49,1.18.49h3.68c.44,0,.87-.18,1.18-.49s.49-.74.49-1.18v-10.74c0-.13-.02-.25-.05-.37h1.73c.87,0,1.6-.67,1.66-1.54l1.11-15c.03-.46-.12-.92-.44-1.26-.31-.34-.76-.53-1.22-.53Z" style="fill:#014098;"/><path d="M169.68,55.94c3.12,0,5.65-2.53,5.65-5.65,0-3.12-2.53-5.65-5.65-5.65-3.12,0-5.65,2.53-5.65,5.65,0,3.12,2.53,5.65,5.65,5.65Z" style="fill:#014098;"/><path d="M175.98,57.06h-12.59c-.46,0-.9.19-1.22.53-.32.34-.47.79-.44,1.26l1.11,15c.07.87.79,1.54,1.66,1.54h1.73c-.03.12-.05.25-.05.37v10.74c0,.44.18.87.49,1.18.31.31.74.49,1.18.49h3.68c.44,0,.87-.18,1.18-.49s.49-.74.49-1.18v-10.74c0-.13-.02-.25-.05-.37h1.73c.87,0,1.6-.67,1.66-1.54l1.11-15c.03-.46-.12-.92-.44-1.26-.31-.34-.76-.53-1.22-.53Z" style="fill:#014098;"/><path d="M143.24,55.94c3.12,0,5.65-2.53,5.65-5.65,0-3.12-2.53-5.65-5.65-5.65-3.12,0-5.65,2.53-5.65,5.65,0,3.12,2.53,5.65,5.65,5.65Z" style="fill:#014098;"/><path d="M149.53,57.06h-12.59c-.46,0-.9.19-1.22.53-.32.34-.47.79-.44,1.26l1.11,15c.07.87.79,1.54,1.66,1.54h1.73c-.03.12-.05.25-.05.37v10.74c0,.44.18.87.49,1.18.31.31.74.49,1.18.49h3.68c.44,0,.87-.18,1.18-.49s.49-.74.49-1.18v-10.74c0-.13-.02-.25-.05-.37h1.73c.87,0,1.6-.67,1.66-1.54l1.11-15c.03-.46-.12-.92-.44-1.26-.31-.34-.76-.53-1.22-.53Z" style="fill:#014098;"/><path d="M116.79,55.94c3.12,0,5.65-2.53,5.65-5.65,0-3.12-2.53-5.65-5.65-5.65-3.12,0-5.65,2.53-5.65,5.65,0,3.12,2.53,5.65,5.65,5.65Z" style="fill:#014098;"/><path d="M123.08,57.06h-12.59c-.46,0-.9.19-1.22.53-.32.34-.47.79-.44,1.26l1.11,15c.07.87.79,1.54,1.66,1.54h1.73c-.03.12-.05.25-.05.37v10.74c0,.44.18.87.49,1.18.31.31.74.49,1.18.49h3.68c.44,0,.87-.18,1.18-.49s.49-.74.49-1.18v-10.74c0-.13-.02-.25-.05-.37h1.73c.87,0,1.6-.67,1.66-1.54l1.11-15c.03-.46-.12-.92-.44-1.26-.31-.34-.76-.53-1.22-.53Z" style="fill:#014098;"/><path d="M90.34,55.94c3.12,0,5.65-2.53,5.65-5.65,0-3.12-2.53-5.65-5.65-5.65-3.12,0-5.65,2.53-5.65,5.65,0,3.12,2.53,5.65,5.65,5.65Z" style="fill:#014098;"/><path d="M96.64,57.06h-12.59c-.46,0-.9.19-1.22.53-.32.34-.47.79-.44,1.26l1.11,15c.07.87.79,1.54,1.66,1.54h1.73c-.03.12-.05.25-.05.37v10.74c0,.44.18.87.49,1.18.31.31.74.49,1.18.49h3.68c.44,0,.87-.18,1.18-.49s.49-.74.49-1.18v-10.74c0-.13-.02-.25-.05-.37h1.73c.87,0,1.6-.67,1.66-1.54l1.11-15c.03-.46-.12-.92-.44-1.26-.31-.34-.76-.53-1.22-.53Z" style="fill:#014098;"/><path d="M249.03,55.94c3.12,0,5.65-2.53,5.65-5.65,0-3.12-2.53-5.65-5.65-5.65-3.12,0-5.65,2.53-5.65,5.65,0,3.12,2.53,5.65,5.65,5.65Z" style="fill:#014098;"/><path d="M255.32,57.06h-12.59c-.46,0-.9.19-1.22.53-.32.34-.47.79-.44,1.26l1.11,15c.07.87.79,1.54,1.66,1.54h1.73c-.03.12-.05.25-.05.37v10.74c0,.44.18.87.49,1.18.31.31.74.49,1.18.49h3.68c.44,0,.87-.18,1.18-.49s.49-.74.49-1.18v-10.74c0-.13-.02-.25-.05-.37h1.73c.87,0,1.6-.67,1.66-1.54l1.11-15c.03-.46-.12-.92-.44-1.26-.31-.34-.76-.53-1.22-.53Z" style="fill:#014098;"/><path d="M275.48,55.94c3.12,0,5.65-2.53,5.65-5.65,0-3.12-2.53-5.65-5.65-5.65-3.12,0-5.65,2.53-5.65,5.65,0,3.12,2.53,5.65,5.65,5.65Z" style="fill:#014098;"/><path d="M281.77,57.06h-12.59c-.46,0-.9.19-1.22.53-.32.34-.47.79-.44,1.26l1.11,15c.07.87.79,1.54,1.66,1.54h1.73c-.03.12-.05.25-.05.37v10.74c0,.44.18.87.49,1.18.31.31.74.49,1.18.49h3.68c.44,0,.87-.18,1.18-.49s.49-.74.49-1.18v-10.74c0-.13-.02-.25-.05-.37h1.73c.87,0,1.6-.67,1.66-1.54l1.11-15c.03-.46-.12-.92-.44-1.26-.31-.34-.76-.53-1.22-.53Z" style="fill:#014098;"/></g><path d="M196.01,103.12c3.12,0,5.65-2.53,5.65-5.65,0-3.12-2.53-5.65-5.65-5.65-3.12,0-5.65,2.53-5.65,5.65,0,3.12,2.53,5.65,5.65,5.65Z" style="fill:#014098;"/><path d="M202.3,104.23h-12.59c-.46,0-.9.19-1.22.53-.32.34-.47.79-.44,1.26l1.11,15c.07.87.79,1.54,1.66,1.54h1.73c-.03.12-.05.25-.05.37v10.74c0,.44.18.87.49,1.18.31.31.74.49,1.18.49h3.68c.44,0,.87-.18,1.18-.49s.49-.74.49-1.18v-10.74c0-.13-.02-.25-.05-.37h1.73c.87,0,1.6-.67,1.66-1.54l1.11-15c.03-.46-.12-.92-.44-1.26-.31-.34-.76-.53-1.22-.53Z" style="fill:#014098;"/><path d="M169.56,103.12c3.12,0,5.65-2.53,5.65-5.65,0-3.12-2.53-5.65-5.65-5.65-3.12,0-5.65,2.53-5.65,5.65,0,3.12,2.53,5.65,5.65,5.65Z" style="fill:#014098;"/><path d="M175.85,104.23h-12.59c-.46,0-.9.19-1.22.53-.32.34-.47.79-.44,1.26l1.11,15c.07.87.79,1.54,1.66,1.54h1.73c-.03.12-.05.25-.05.37v10.74c0,.44.18.87.49,1.18.31.31.74.49,1.18.49h3.68c.44,0,.87-.18,1.18-.49s.49-.74.49-1.18v-10.74c0-.13-.02-.25-.05-.37h1.73c.87,0,1.6-.67,1.66-1.54l1.11-15c.03-.46-.12-.92-.44-1.26-.31-.34-.76-.53-1.22-.53Z" style="fill:#014098;"/><path d="M143.11,103.12c3.12,0,5.65-2.53,5.65-5.65,0-3.12-2.53-5.65-5.65-5.65-3.12,0-5.65,2.53-5.65,5.65,0,3.12,2.53,5.65,5.65,5.65Z" style="fill:#014098;"/><path d="M149.4,104.23h-12.59c-.46,0-.9.19-1.22.53-.32.34-.47.79-.44,1.26l1.11,15c.07.87.79,1.54,1.66,1.54h1.73c-.03.12-.05.25-.05.37v10.74c0,.44.18.87.49,1.18.31.31.74.49,1.18.49h3.68c.44,0,.87-.18,1.18-.49s.49-.74.49-1.18v-10.74c0-.13-.02-.25-.05-.37h1.73c.87,0,1.6-.67,1.66-1.54l1.11-15c.03-.46-.12-.92-.44-1.26-.31-.34-.76-.53-1.22-.53Z" style="fill:#014098;"/><path d="M116.66,103.12c3.12,0,5.65-2.53,5.65-5.65,0-3.12-2.53-5.65-5.65-5.65-3.12,0-5.65,2.53-5.65,5.65,0,3.12,2.53,5.65,5.65,5.65Z" style="fill:#014098;"/><path d="M122.96,104.23h-12.59c-.46,0-.9.19-1.22.53-.32.34-.47.79-.44,1.26l1.11,15c.07.87.79,1.54,1.66,1.54h1.73c-.03.12-.05.25-.05.37v10.74c0,.44.18.87.49,1.18.31.31.74.49,1.18.49h3.68c.44,0,.87-.18,1.18-.49s.49-.74.49-1.18v-10.74c0-.13-.02-.25-.05-.37h1.73c.87,0,1.6-.67,1.66-1.54l1.11-15c.03-.46-.12-.92-.44-1.26-.31-.34-.76-.53-1.22-.53Z" style="fill:#014098;"/><path d="M90.21,103.12c3.12,0,5.65-2.53,5.65-5.65,0-3.12-2.53-5.65-5.65-5.65-3.12,0-5.65,2.53-5.65,5.65,0,3.12,2.53,5.65,5.65,5.65Z" style="fill:#014098;"/><path d="M96.51,104.23h-12.59c-.46,0-.9.19-1.22.53-.32.34-.47.79-.44,1.26l1.11,15c.07.87.79,1.54,1.66,1.54h1.73c-.03.12-.05.25-.05.37v10.74c0,.44.18.87.49,1.18.31.31.74.49,1.18.49h3.68c.44,0,.87-.18,1.18-.49s.49-.74.49-1.18v-10.74c0-.13-.02-.25-.05-.37h1.73c.87,0,1.6-.67,1.66-1.54l1.11-15c.03-.46-.12-.92-.44-1.26-.31-.34-.76-.53-1.22-.53Z" style="fill:#014098;"/><path d="M63.77,103.12c3.12,0,5.65-2.53,5.65-5.65,0-3.12-2.53-5.65-5.65-5.65-3.12,0-5.65,2.53-5.65,5.65,0,3.12,2.53,5.65,5.65,5.65Z" style="fill:#014098;"/><path d="M70.06,104.23h-12.59c-.46,0-.9.19-1.22.53-.32.34-.47.79-.44,1.26l1.11,15c.07.87.79,1.54,1.66,1.54h1.73c-.03.12-.05.25-.05.37v10.74c0,.44.18.87.49,1.18.31.31.74.49,1.18.49h3.68c.44,0,.87-.18,1.18-.49s.49-.74.49-1.18v-10.74c0-.13-.02-.25-.05-.37h1.73c.87,0,1.6-.67,1.66-1.54l1.11-15c.03-.46-.12-.92-.44-1.26-.31-.34-.76-.53-1.22-.53Z" style="fill:#014098;"/><path d="M222.45,103.12c3.12,0,5.65-2.53,5.65-5.65,0-3.12-2.53-5.65-5.65-5.65-3.12,0-5.65,2.53-5.65,5.65,0,3.12,2.53,5.65,5.65,5.65Z" style="fill:#014098;"/><path d="M228.75,104.23h-12.59c-.46,0-.9.19-1.22.53-.32.34-.47.79-.44,1.26l1.11,15c.07.87.79,1.54,1.66,1.54h1.73c-.03.12-.05.25-.05.37v10.74c0,.44.18.87.49,1.18.31.31.74.49,1.18.49h3.68c.44,0,.87-.18,1.18-.49s.49-.74.49-1.18v-10.74c0-.13-.02-.25-.05-.37h1.73c.87,0,1.6-.67,1.66-1.54l1.11-15c.03-.46-.12-.92-.44-1.26-.31-.34-.76-.53-1.22-.53Z" style="fill:#014098;"/><path d="M248.9,103.12c3.12,0,5.65-2.53,5.65-5.65,0-3.12-2.53-5.65-5.65-5.65-3.12,0-5.65,2.53-5.65,5.65,0,3.12,2.53,5.65,5.65,5.65Z" style="fill:#014098;"/><path d="M255.2,104.23h-12.59c-.46,0-.9.19-1.22.53-.32.34-.47.79-.44,1.26l1.11,15c.07.87.79,1.54,1.66,1.54h1.73c-.03.12-.05.25-.05.37v10.74c0,.44.18.87.49,1.18.31.31.74.49,1.18.49h3.68c.44,0,.87-.18,1.18-.49s.49-.74.49-1.18v-10.74c0-.13-.02-.25-.05-.37h1.73c.87,0,1.6-.67,1.66-1.54l1.11-15c.03-.46-.12-.92-.44-1.26-.31-.34-.76-.53-1.22-.53Z" style="fill:#014098;"/><path d="M275.35,103.12c3.12,0,5.65-2.53,5.65-5.65,0-3.12-2.53-5.65-5.65-5.65-3.12,0-5.65,2.53-5.65,5.65,0,3.12,2.53,5.65,5.65,5.65Z" style="fill:#014098;"/><path d="M281.64,104.23h-12.59c-.46,0-.9.19-1.22.53-.32.34-.47.79-.44,1.26l1.11,15c.07.87.79,1.54,1.66,1.54h1.73c-.03.12-.05.25-.05.37v10.74c0,.44.18.87.49,1.18.31.31.74.49,1.18.49h3.68c.44,0,.87-.18,1.18-.49s.49-.74.49-1.18v-10.74c0-.13-.02-.25-.05-.37h1.73c.87,0,1.6-.67,1.66-1.54l1.11-15c.03-.46-.12-.92-.44-1.26-.31-.34-.76-.53-1.22-.53Z" style="fill:#014098;"/><path d="M301.8,103.12c3.12,0,5.65-2.53,5.65-5.65,0-3.12-2.53-5.65-5.65-5.65-3.12,0-5.65,2.53-5.65,5.65,0,3.12,2.53,5.65,5.65,5.65Z" style="fill:#014098;"/><path d="M308.09,104.23h-12.59c-.46,0-.9.19-1.22.53-.32.34-.47.79-.44,1.26l1.11,15c.07.87.79,1.54,1.66,1.54h1.73c-.03.12-.05.25-.05.37v10.74c0,.44.18.87.49,1.18.31.31.74.49,1.18.49h3.68c.44,0,.87-.18,1.18-.49s.49-.74.49-1.18v-10.74c0-.13-.02-.25-.05-.37h1.73c.87,0,1.6-.67,1.66-1.54l1.11-15c.03-.46-.12-.92-.44-1.26-.31-.34-.76-.53-1.22-.53Z" style="fill:#014098;"/></svg>