<?xml version="1.0" encoding="UTF-8"?><svg id="_レイヤー_1" xmlns="http://www.w3.org/2000/svg" viewBox="0 0 360 288"><rect width="360" height="288" style="fill:none;"/><path d="M129.22,178.72v-11.61h21.69v65.61h-12.96v-54h-8.73Z" style="fill:#333;"/><path d="M176.2,178.72v-11.61h21.69v65.61h-12.96v-54h-8.73Z" style="fill:#333;"/><path d="M240.82,201.25v30.96h-4.61v-2.27h-15.98v2.34h-4.43v-31.03h25.02ZM220.24,205.57v7.74h15.98v-7.74h-15.98ZM236.22,225.62v-8.06h-15.98v8.06h15.98Z" style="fill:#333;"/><path d="M142.23,264.02c4.42-3.86,6.45-6.66,6.45-9.08,0-1.61-.84-2.78-2.59-2.78-1.15,0-2.15.71-2.92,1.63l-1.02-1c1.15-1.25,2.36-2.07,4.15-2.07,2.51,0,4.09,1.65,4.09,4.17,0,2.8-2.21,5.66-5.51,8.79.73-.06,1.59-.13,2.3-.13h3.9v1.52h-8.85v-1.04Z" style="fill:#333;"/><path d="M152.99,257.98c0-4.9,1.71-7.26,4.4-7.26s4.38,2.38,4.38,7.26-1.71,7.33-4.38,7.33-4.4-2.44-4.4-7.33ZM160.05,257.98c0-4.11-1.08-5.83-2.67-5.83s-2.69,1.73-2.69,5.83,1.07,5.93,2.69,5.93,2.67-1.79,2.67-5.93Z" style="fill:#333;"/><path d="M163.55,264.02c4.42-3.86,6.45-6.66,6.45-9.08,0-1.61-.84-2.78-2.59-2.78-1.15,0-2.15.71-2.92,1.63l-1.02-1c1.15-1.25,2.36-2.07,4.15-2.07,2.51,0,4.09,1.65,4.09,4.17,0,2.8-2.21,5.66-5.51,8.79.73-.06,1.59-.13,2.3-.13h3.9v1.52h-8.85v-1.04Z" style="fill:#333;"/><path d="M183.4,261.18h-1.86v3.88h-1.67v-3.88h-6.12v-1.15l5.85-9.04h1.94v8.79h1.86v1.4ZM179.86,259.78v-4.32c0-.69.08-1.82.12-2.55h-.08c-.35.69-.73,1.38-1.13,2.07l-3.21,4.8h4.3Z" style="fill:#333;"/><path d="M202.25,262.14h-6.95v4.4h-1.44v-4.4h-8.87v-1.38h3.15v-5.14h5.72v-2.92h-4.66c-.86,1.48-1.88,2.78-2.92,3.78-.27-.23-.86-.71-1.23-.9,1.8-1.57,3.42-4.05,4.32-6.62l1.44.35c-.27.67-.57,1.36-.88,2.02h11.44v1.38h-6.07v2.92h5.62v1.34h-5.62v3.8h6.95v1.38ZM193.86,260.76v-3.8h-4.3v3.8h4.3Z" style="fill:#333;"/><path d="M206.94,252.2v4.19c0,2.96-.23,7.27-1.88,10.17-.25-.25-.84-.65-1.17-.81,1.57-2.73,1.71-6.6,1.71-9.37v-5.49h7.04v-1.88h1.46v1.88h7.16v1.3h-14.32ZM219.82,260.32c-.86,1.65-2.21,2.88-3.86,3.82,1.67.6,3.59,1,5.64,1.21-.31.29-.67.84-.83,1.21-2.34-.31-4.49-.84-6.31-1.69-2.04.84-4.38,1.36-6.76,1.65-.1-.35-.38-.88-.6-1.19,2.07-.21,4.11-.59,5.91-1.23-1.23-.73-2.25-1.65-3.01-2.75l.77-.29h-2.96v-1.17h10.84l.25-.06.9.48ZM210.64,258.69v-3.17h-3.05v-1.17h3.05v-1.67h1.36v1.67h4.64v-1.67h1.38v1.67h3.09v1.17h-3.09v3.17h-7.39ZM211.37,261.07c.73.98,1.8,1.79,3.11,2.44,1.32-.63,2.46-1.42,3.24-2.44h-6.35ZM212,255.52v2.02h4.64v-2.02h-4.64Z" style="fill:#333;"/><path d="M164.85,63.86h35.21l-24.53-42.93c-.67-1.16-1.9-1.88-3.24-1.88h-15.29c-2.06,0-3.73,1.67-3.73,3.74,0,.35.05.69.14,1.02l11.44,40.05ZM153.42,133.78c-.57,1.98.58,4.05,2.56,4.62.33.09.67.14,1.02.14h15.29c1.34,0,2.58-.72,3.24-1.88l24.53-42.93h-35.21l-11.44,40.05Z" style="fill:#014098; isolation:isolate; opacity:.4;"/><path d="M226.73,93.73h-85.89l-10.08,13.44c-.71.94-1.81,1.49-2.99,1.49h-9.34c-2.06,0-3.73-1.67-3.73-3.74,0-.3.04-.61.11-.9l7.35-25.23-7.35-25.23c-.5-2,.72-4.03,2.72-4.53.3-.07.6-.11.9-.11h9.34c1.18,0,2.28.55,2.99,1.49l10.08,13.44h85.89c8.25,0,22.41,6.69,22.41,14.94s-14.16,14.94-22.41,14.94Z" style="fill:#014098;"/></svg>