<svg id="レイヤー_1" data-name="レイヤー 1" xmlns="http://www.w3.org/2000/svg" viewBox="0 0 696.03 82.13"><defs><style>.cls-1{fill:#fff;}.cls-2{fill:#e7211a;fill-rule:evenodd;}</style></defs><circle class="cls-1" cx="41.06" cy="41.06" r="41.06"/><path class="cls-2" d="M114.38,257a41.06,41.06,0,1,0,41.06,41.06A41.07,41.07,0,0,0,114.38,257Zm0,79.45a38.39,38.39,0,1,1,38.39-38.39A38.39,38.39,0,0,1,114.38,336.45Z" transform="translate(-73.31 -257)"/><polygon class="cls-2" points="76.55 37.06 76.2 34.62 75.62 32.18 74.92 29.74 74.11 27.41 73.07 25.21 71.91 23 70.51 20.91 69 18.82 67.38 16.96 65.63 15.22 63.77 13.59 61.8 12.08 59.71 10.69 57.5 9.41 55.29 8.36 53.44 7.67 53.44 28.69 42.12 28.69 36.55 28.69 28.81 28.69 28.81 7.67 26.48 8.6 24.28 9.64 22.07 10.92 19.98 12.31 18 13.94 16.26 15.57 14.52 17.43 12.89 19.28 11.38 21.37 10.11 23.46 8.95 25.67 8.02 28 7.09 30.32 6.5 32.76 5.92 35.2 5.58 37.64 5.46 40.08 5.46 42.63 5.69 45.07 6.04 47.63 6.62 50.07 7.32 52.39 8.13 54.71 9.18 57.04 10.46 59.24 11.73 61.33 13.24 63.31 14.87 65.17 16.61 67.03 18.47 68.65 20.45 70.16 22.54 71.56 24.74 72.72 26.95 73.88 28.81 74.58 28.81 53.44 40.16 53.44 45.65 53.44 53.44 53.44 53.44 74.58 55.76 73.65 58.08 72.49 60.17 71.21 62.26 69.81 64.24 68.3 66.1 66.56 67.72 64.82 69.35 62.84 70.86 60.87 72.14 58.78 73.3 56.57 74.34 54.25 75.16 51.92 75.86 49.49 76.32 47.05 76.67 44.61 76.78 42.05 76.78 39.61 76.55 37.06"/><path class="cls-1" d="M199.92,266.68h41.46V286H207.87V305.3q0,15.33-13.34,25.28l-5.12-6.82a24.56,24.56,0,0,0,5.12-4.83,23,23,0,0,0,4.54-7.38l-17.32,8.52a2.28,2.28,0,0,1-.57,1.7,1.21,1.21,0,0,1-1.14,0,3,3,0,0,1-1.13-1.42l-2.84-8,9.37-3.41V287.7h-7.1v-7.39h7.1V265.83h6.81c2.28.19,2.65.95,1.14,2.27v12.21h5.68v7.39h-5.68v18.45l5.4-2.27,1.13,4.26Zm8,6.82v5.68h25.56V273.5Zm13.35,47.14V307H209.86V290.25h6.25q3.4.28,1.13,2.27v7.67h4V286.84h6.25q3.41.29,1.13,2.27v11.08h4.26V290h6.25q3.4.28,1.14,2.27V307H228.6v13.63h7.1V309H242q3.41.28,1.14,2.28V330H235.7v-2.56H215.26v3.69h-7.39V309h6.25q3.4.28,1.14,2.28v9.37Z" transform="translate(-73.31 -257)"/><path class="cls-1" d="M313.36,326.88h-9.09V324h-37.2v3.7H258V270.66h55.38Zm-46.29-48.27v14.48H281V278.61Zm0,22.43v15H281V301Zm23-22.43v14.48h14.2V278.61Zm0,22.43v15h14.2V301Z" transform="translate(-73.31 -257)"/><path class="cls-1" d="M349.83,271.79c.95.76,1.23,1.42.85,2a1.27,1.27,0,0,1-1.41.28L342.45,288H351v5.11a75.1,75.1,0,0,1-.57,9.37A40.13,40.13,0,0,1,347,316.09a16.11,16.11,0,0,0,6.53,4,15.85,15.85,0,0,0,6,1.14H394.7l-1.7,8H358.07a20.66,20.66,0,0,1-3.41-.29q-7.67-1.69-11.93-6.25a21.19,21.19,0,0,1-2,2.28,44.59,44.59,0,0,1-8.52,6.81l-5.12-6.25a50.39,50.39,0,0,0,10.51-8.8A65.78,65.78,0,0,1,330,301.61l7.1-1.42a40.52,40.52,0,0,0,4.55,9.09,88.77,88.77,0,0,0,2-13.92H339l-2.55,4-6.82-3.41,10.79-19.88H329.39v-7.38h13.34l1.42-1.42Zm23.29-5.68v4.55h14.77v9.65h5.68v6.82h-5.68v9.65H373.12v2.27h15.33v6.25H373.12v3.13h18.74v6.81H373.12v5.11h-7.38v-5.11H349.83v-6.81h15.91V305.3H353.52v-6.25h12.22v-2.27H353.81V290h11.93v-2.84h-17v-6.82h17v-2.84H353.81v-6.81h11.93v-6.82H372C374.26,264,374.63,264.79,373.12,266.11Zm0,11.36v2.84h7.38v-2.84Zm0,9.66V290h7.38v-2.84Z" transform="translate(-73.31 -257)"/><path class="cls-1" d="M429.76,283.44H402.5v-7.39h27.26Zm27.54.28a1.65,1.65,0,0,0,.29,1.14,1.62,1.62,0,0,0,1.13.28h.86c.75.19,1.23-.38,1.42-1.7l.56-4,8,2L468.38,288l-.57,1.7a4.41,4.41,0,0,1-4.54,2.84h-8.52a4.63,4.63,0,0,1-1.42-.28,5.17,5.17,0,0,1-3.13-2.56,6,6,0,0,1-.85-3.12v-12.5H442v6.54a15.44,15.44,0,0,1-.57,4.26,17.67,17.67,0,0,1-7.67,10.5h24.14l1.14-1.13,4.26,4c1.32,1.14,1.23,1.9-.29,2.27a76.47,76.47,0,0,1-5.11,11.08,22.87,22.87,0,0,1-4.26,5.11,25.64,25.64,0,0,0,5.68,2.84,87.2,87.2,0,0,0,11.08,3.12l-2.84,8.52a54,54,0,0,1-7.95-2.55,48.16,48.16,0,0,1-11.36-6.53,31,31,0,0,1-2.56,2.27,70.25,70.25,0,0,1-14.48,7.95l-2.84-5.4V330H421v-1.14h-8.8v2.56h-7.38v-25h23.57V324a29,29,0,0,0,4.83-1.7,47.53,47.53,0,0,0,9.37-5.39,36.63,36.63,0,0,1-7.39-14.2h-4v-7.1l-4.26-4.83a17.14,17.14,0,0,0,4-3.41,12.39,12.39,0,0,0,3.13-8.23v-12.5H457.3Zm-30.67-10.51H406.19v-7.38h20.44Zm0,19.88H406.19v-6.81h20.44Zm0,10.51H406.19v-6.82h20.44Zm-14.48,9.65v8.81H421v-8.81Zm30.39-10.5a10.68,10.68,0,0,0,.85,2.27,23,23,0,0,0,4.54,7.1,37.45,37.45,0,0,0,5.68-9.37Z" transform="translate(-73.31 -257)"/><path class="cls-1" d="M495.49,266.4v11.92h7.95v4.26a29.86,29.86,0,0,0,2-3.12,54.25,54.25,0,0,0,4-10.51l6.25,2.56a3.55,3.55,0,0,1,1.42.85,1.06,1.06,0,0,1,0,1.7,1.65,1.65,0,0,1-1.14.29c-.38.95-.76,1.89-1.13,2.84h3.12V264.12h6.82c2.27.2,2.64.95,1.13,2.28v10.79h13.06v7.95H525.87v7.1h17.89v7.95H527a35.84,35.84,0,0,0,4,5.4A50.25,50.25,0,0,0,546,317l-4.54,8.23a47.7,47.7,0,0,1-9.37-7.38,35.66,35.66,0,0,1-6.25-7.39v21.3h-8V311.27a39,39,0,0,1-6.82,8.51,63.6,63.6,0,0,1-9.37,8l-4.54-7.1a88.14,88.14,0,0,0,13.91-12.21q4.54-5.12,5.68-8.24H503.44l2.27,2.27-6,6.25a31,31,0,0,0-4.25-4.54v27.26h-8V306.72a52.56,52.56,0,0,1-6.53,9.94l-5.11-7.1c1.32-1.7,2.56-3.31,3.69-4.83A38.21,38.21,0,0,0,487,286.28h-9.09v-8h9.65v-14.2h6.82C496.62,264.32,497,265.07,495.49,266.4Zm15.9,18.74c-1.52,2.46-3,4.73-4.55,6.82l-6.53-4.26a9.28,9.28,0,0,1,1.14-1.42h-6v7.38c2.08,1.52,4.16,3.12,6.24,4.83v-6.25h16.19v-7.1Z" transform="translate(-73.31 -257)"/><path class="cls-1" d="M599,266.4a3.17,3.17,0,0,1-1.13,1.13v9.94h8.23a31.54,31.54,0,0,0-7.38-5.68l5.68-5.11a32.18,32.18,0,0,1,9.08,6.25l-4.82,4.54h9.08V286H598.13a141.44,141.44,0,0,0,1.7,17,32.81,32.81,0,0,0,6.82,14.48,6.71,6.71,0,0,0,1.7,1.71c.76.56,1.23-.19,1.42-2.27l.57-4.83,8.52,3.69-.85,5.68a15.42,15.42,0,0,1-.85,3.41,7.65,7.65,0,0,1-3.13,4,8.69,8.69,0,0,1-9.65-1.42,35.56,35.56,0,0,1-10.79-15.33,86,86,0,0,1-4-25.56H555V278h34.37V265h7.38C598.6,265,599.36,265.45,599,266.4Zm-12.21,34.93h-9.94v13.06l15-2.27.85,7.66L559.79,326c-.19,1-.47,1.52-.85,1.71a1.44,1.44,0,0,1-1.42-.29,4.52,4.52,0,0,1-1.13-2.55L555,317.23l13.92-1.71V301.33H558.09v-7.39h28.68Z" transform="translate(-73.31 -257)"/><path class="cls-1" d="M665.56,268.1a27.92,27.92,0,0,0,5.4,6.53q9.07,8.52,23.85,11.65l-4,8.51a33.24,33.24,0,0,1-12.21-5.11v5.4H644.26v-4.55q-3.4,2.57-13.63,6.54l-4.26-8.24a49.76,49.76,0,0,0,16.47-7.38,37,37,0,0,0,13.92-17l7.66.85Q669,266.68,665.56,268.1Zm25.27,39.76h-19A111.77,111.77,0,0,1,691.12,326l-7.1,4.83c-1.71-2.09-3.51-4.07-5.4-6l-40.32,4.54a2.74,2.74,0,0,1-1.14,1.7,1.82,1.82,0,0,1-1.42,0c-.76-.19-1.32-1-1.7-2.55l-2.27-7.95,12.49-.57a83,83,0,0,0,6.53-12.21H631.48v-8.52h59.35Zm-41.46-21.3h23.86A58.09,58.09,0,0,1,661,274.06,77.87,77.87,0,0,1,649.37,286.56Zm10.79,21.3q-3.12,6-6.81,11.64l18.46-1.42a86.14,86.14,0,0,0-6.82-6l6-4.26Z" transform="translate(-73.31 -257)"/><path class="cls-1" d="M722.2,267v9.94h5.4l1.13-1.13,4.83,4.83q2.27,2.26-.57,2a52.14,52.14,0,0,1-9.09,13.35,124.37,124.37,0,0,1,11.93,6.53l-4.26,7.39a46.28,46.28,0,0,0-8.23-5.68v27h-8V304.73q-4.26,3.42-9.37,6.82l-4-7.95a45.65,45.65,0,0,0,9.08-5.68q9.09-7.38,11.93-13.63H704.59V276.9h9.66V264.69h6.81C723.34,264.88,723.71,265.64,722.2,267Zm33.22.86a3.09,3.09,0,0,1-1.13,1.13v14.77h11.64v8.52H754.29V319.5h15.05V328H729.58V319.5H745.2V292.24H734.13v-8.52H745.2V266.4h7.95C755,266.4,755.8,266.87,755.42,267.82Z" transform="translate(-73.31 -257)"/></svg>