<?xml version="1.0" encoding="UTF-8"?><svg id="_レイヤー_1" xmlns="http://www.w3.org/2000/svg" viewBox="0 0 360 288"><defs><style>.cls-1{fill:none;}.cls-2{fill:#014098;}.cls-3{fill:#333;}.cls-4{opacity:.4;}</style></defs><rect class="cls-1" width="360" height="288"/><path class="cls-3" d="m85.06,176.03s0,.62-.07.92c-.31,3.5-.69,5.07-1.31,5.68-.51.491-1.193.761-1.9.75-.67.06-1.84,0-3.05,0-.076-.747-.333-1.465-.75-2.09,1.19.1,2.4.11,2.92.11.294.042.593-.026.84-.19.35-.29.64-1.24.85-3.15h-5c-1,2.48-3,4.34-7.83,5.4-.268-.735-.671-1.414-1.19-2,3.74-.73,5.52-1.86,6.43-3.4h-5.61v-2.05h6.36c.07-.42.15-.86.21-1.32h-5.28v-8.2h13.8v8.2h-6.12c-.06.46-.14.88-.21,1.32l6.91.02Zm-12.15-6.31h3.38v-1.33h-3.38v1.33Zm0,3.1h3.38v-1.34h-3.38v1.34Zm9.12-4.43h-3.46v1.33h3.44l.02-1.33Zm0,3.09h-3.46v1.34h3.44l.02-1.34Z"/><path class="cls-3" d="m105.57,180.71v2.17h-11.92v-2.17h5.12v-3.83h-3.7v-2.14h3.7v-3.1h-2.11c-.261.919-.62,1.807-1.07,2.65-.647-.371-1.315-.705-2-1,.19-.35.39-.71.58-1.11l-1.1.5c-.173-.758-.417-1.498-.73-2.21v13.11h-2.28v-13.81c-.109,1.722-.397,3.428-.86,5.09l-1.69-.61c.495-1.627.81-3.304.94-5l1.61.24v-3.92h2.28v3.63l1.12-.46c.377.784.711,1.589,1,2.41.495-1.521.83-3.09,1-4.68l2.23.31c-.14.9-.29,1.8-.48,2.67h1.53v-3.81h2.29v3.77h3.91v2.23h-3.91v3.14h3.54v2.14h-3.51v3.83l4.51-.04Z"/><path class="cls-3" d="m114.06,178.28c-.41-.54-1.06-1.31-1.71-2v7.24h-2.27v-6.62c-.731.69-1.528,1.306-2.38,1.84-.259-.768-.619-1.497-1.07-2.17,2.24-1.279,4.095-3.137,5.37-5.38h-4.64v-2h2.72v-3.55h2.27v3.53h.86l.41-.09,1.28.82c-.576,1.46-1.335,2.841-2.26,4.11.92.75,2.4,2.07,2.8,2.45l-1.38,1.82Zm11,2.43v2.23h-10.87v-2.23h4.44v-7h-3.65v-2.21h3.65v-5.76h2.34v5.74h3.6v2.21h-3.6v7l4.09.02Z"/><path class="cls-3" d="m139.11,180.18c1.79.53,3.74,1.23,5.07,1.74l-2,1.62c-2.002-.878-4.06-1.623-6.16-2.23l1.6-1.13h-5.21l1.46,1c-1.877,1.02-3.877,1.796-5.95,2.31-.543-.578-1.12-1.123-1.73-1.63,1.696-.384,3.346-.951,4.92-1.69h-3v-8.53h14v8.51l-3,.03Zm2.36-9.22h-12.49v-4.8h12.49v4.8Zm-11.09,3.09h9.4v-.82h-9.4v.82Zm0,2.27h9.4v-.83h-9.4v.83Zm0,2.3h9.4v-.84h-9.4v.84Zm8.66-10.67h-7.76v1.25h7.76v-1.25Z"/><path class="cls-3" d="m232.43,172.21c-.392,2.267-1.269,4.423-2.57,6.32,1.782.825,3.491,1.799,5.11,2.91l-1.75,2.2c-1.625-1.217-3.359-2.282-5.18-3.18-2.1,1.63-4.94,2.55-8.82,3.13-.269-.825-.674-1.599-1.2-2.29,2.602-.152,5.14-.865,7.44-2.09-1-.48-2.09-.92-3.11-1.32l-.32.71-2.31-.85c.73-1.5,1.6-3.43,2.44-5.49h-4.3v-2.32h5.24c.58-1.5,1.13-3,1.6-4.3l2.51.42c-.46,1.23-1,2.55-1.5,3.88h9.56v2.32l-2.84-.05Zm-7.66,0c-.5,1.25-1,2.46-1.49,3.59,1.3.46,2.74,1,4.18,1.65,1.189-1.536,1.998-3.331,2.36-5.24h-5.05Z"/><path class="cls-3" d="m254.57,180.71v2.17h-11.9v-2.17h5.12v-3.83h-3.7v-2.14h3.7v-3.1h-2.11c-.261.919-.62,1.807-1.07,2.65-.647-.371-1.315-.705-2-1,.19-.35.39-.71.58-1.11l-1.1.5c-.173-.758-.417-1.498-.73-2.21v13.11h-2.28v-13.81c-.109,1.722-.397,3.428-.86,5.09l-1.69-.61c.495-1.627.81-3.304.94-5l1.61.24v-3.92h2.28v3.63l1.12-.46c.377.784.711,1.589,1,2.41.495-1.521.83-3.09,1-4.68l2.23.31c-.14.9-.29,1.8-.48,2.67h1.53v-3.81h2.29v3.77h3.91v2.23h-3.91v3.14h3.52v2.14h-3.51v3.83l4.51-.04Z"/><path class="cls-3" d="m263.08,178.28c-.41-.54-1.06-1.31-1.71-2v7.24h-2.27v-6.62c-.731.69-1.528,1.306-2.38,1.84-.259-.768-.619-1.497-1.07-2.17,2.24-1.279,4.095-3.137,5.37-5.38h-4.64v-2h2.72v-3.55h2.27v3.53h.86l.41-.09,1.28.82c-.576,1.46-1.335,2.841-2.26,4.11.92.75,2.4,2.07,2.8,2.45l-1.38,1.82Zm11,2.43v2.23h-10.87v-2.23h4.44v-7h-3.65v-2.21h3.65v-5.76h2.34v5.74h3.63v2.21h-3.63v7l4.09.02Z"/><path class="cls-3" d="m288.13,180.18c1.79.53,3.74,1.23,5.07,1.74l-2,1.62c-2.003-.877-4.06-1.622-6.16-2.23l1.59-1.13h-5.2l1.46,1c-1.877,1.02-3.877,1.796-5.95,2.31-.543-.578-1.12-1.123-1.73-1.63,1.696-.384,3.346-.951,4.92-1.69h-3v-8.53h14v8.51l-3,.03Zm2.36-9.22h-12.49v-4.8h12.49v4.8Zm-11.09,3.09h9.4v-.82h-9.4v.82Zm0,2.27h9.4v-.83h-9.4v.83Zm0,2.3h9.4v-.84h-9.4v.84Zm8.65-10.67h-7.75v1.25h7.75v-1.25Z"/><path class="cls-2" d="m103.38,53c8.257,0,14.95-6.693,14.95-14.95s-6.693-14.95-14.95-14.95c-8.237,0-14.922,6.663-14.95,14.9,0,8.265,6.685,14.972,14.95,15Z"/><path class="cls-2" d="m120.04,55.94h-33.32c-2.43-.007-4.406,1.957-4.413,4.387,0,.118.004.236.013.353l2.94,39.7c.168,2.304,2.09,4.086,4.4,4.08h4.57c-.085.327-.128.663-.13,1v28.43c-.005,2.43,1.96,4.404,4.39,4.41h9.75c2.437,0,4.414-1.973,4.42-4.41v-28.45c-.002-.337-.045-.673-.13-1h4.57c2.31.006,4.232-1.776,4.4-4.08l2.94-39.7c.177-2.435-1.654-4.552-4.088-4.728-.104-.008-.208-.011-.312-.012v.02Z"/><g class="cls-4"><path class="cls-2" d="m254.31,53c8.257-.028,14.927-6.743,14.9-15s-6.743-14.927-15-14.9c-8.218.028-14.872,6.682-14.9,14.9-.033,8.251,6.629,14.967,14.88,15,.04,0,.08,0,.12,0Z"/><path class="cls-2" d="m275.3,105.09l-8.82-45.58c-.406-2.071-2.219-3.566-4.33-3.57h-15.69c-2.111.004-3.924,1.499-4.33,3.57l-8.82,45.58c-.464,2.391,1.098,4.705,3.489,5.169.277.054.559.081.841.081h7.39v23.53c-.005,2.43,1.96,4.404,4.39,4.41h9.75c2.43.005,4.404-1.96,4.41-4.39v-23.55h7.39c2.436,0,4.41-1.974,4.411-4.409,0-.282-.027-.564-.081-.841Z"/></g><path class="cls-3" d="m78.14,252.827v-9.123l27.122-38.817h13.52v37.821h7.299v10.119h-7.299v11.777h-11.612v-11.777h-29.029Zm29.776-35.499l-17.003,25.38h17.003v-25.38Z"/><path class="cls-3" d="m186.722,212.928c0,3.069-2.489,5.559-5.641,5.559s-5.641-2.489-5.641-5.559c0-3.151,2.488-5.641,5.641-5.641,3.317,0,5.641,2.654,5.641,5.641Zm0,40.312c0,3.152-2.489,5.641-5.641,5.641s-5.641-2.488-5.641-5.641c0-3.068,2.488-5.557,5.641-5.557,3.317,0,5.641,2.654,5.641,5.557Z"/><path class="cls-3" d="m245.172,214.839v-10.699h19.988v60.464h-11.943v-49.765h-8.045Z"/></svg>