<svg id="レイヤー_1" data-name="レイヤー 1" xmlns="http://www.w3.org/2000/svg" viewBox="0 0 390.09 34.8"><defs><style>.cls-1,.cls-3,.cls-5{fill:none;}.cls-1{stroke:#000;stroke-miterlimit:10;}.cls-2{fill:#e61f19;}.cls-2,.cls-4{fill-rule:evenodd;}.cls-3{stroke:#e61f19;}.cls-3,.cls-5{stroke-linecap:round;stroke-linejoin:round;stroke-width:0.06px;}.cls-4,.cls-6{fill:#fff;}.cls-5{stroke:#fff;}</style></defs><path d="M424.3,427.92l-3-5.18h-2.2v5.18h-1.55V415.71h3.83c2.48,0,4.27.88,4.27,3.43a3.31,3.31,0,0,1-2.77,3.43l3.13,5.35Zm-5.16-6.43h2.05c1.91,0,3-.77,3-2.35s-1-2.18-3-2.18h-2.05Z" transform="translate(-102.59 -403.84)"/><path d="M428.17,415.71h7.05V417h-5.5v3.83h4.63v1.32h-4.63v4.44h5.69v1.32h-7.24Z" transform="translate(-102.59 -403.84)"/><path d="M437.27,421.82c0-3.95,2.32-6.35,5.42-6.35A4.54,4.54,0,0,1,446,417l-.83,1a3.36,3.36,0,0,0-2.5-1.17c-2.32,0-3.85,1.9-3.85,4.95s1.46,5,3.8,5a3.72,3.72,0,0,0,2.83-1.37l.85,1a4.75,4.75,0,0,1-3.75,1.75C439.56,428.14,437.27,425.79,437.27,421.82Z" transform="translate(-102.59 -403.84)"/><path d="M455.32,427.92l-3-5.18h-2.2v5.18h-1.55V415.71h3.83c2.48,0,4.27.88,4.27,3.43a3.31,3.31,0,0,1-2.77,3.43l3.13,5.35Zm-5.16-6.43h2c1.91,0,3-.77,3-2.35s-1.05-2.18-3-2.18h-2Z" transform="translate(-102.59 -403.84)"/><path d="M459.14,422.87v-7.16h1.55v7.21c0,2.95,1.25,3.87,2.83,3.87s2.92-.92,2.92-3.87v-7.21h1.48v7.16c0,3.93-1.9,5.27-4.4,5.27S459.14,426.8,459.14,422.87Z" transform="translate(-102.59 -403.84)"/><path d="M471.21,415.71h1.55v12.21h-1.55Z" transform="translate(-102.59 -403.84)"/><path d="M478.64,417h-3.7v-1.3h8.95V417h-3.7v10.91h-1.55Z" transform="translate(-102.59 -403.84)"/><rect class="cls-1" x="303.63" y="7.12" width="85.96" height="22.08"/><path class="cls-2" d="M137.37,421.23A17.38,17.38,0,1,0,120,438.61,17.38,17.38,0,0,0,137.37,421.23Z" transform="translate(-102.59 -403.84)"/><path class="cls-3" d="M137.37,421.23A17.38,17.38,0,1,0,120,438.61,17.38,17.38,0,0,0,137.37,421.23Z" transform="translate(-102.59 -403.84)"/><path class="cls-4" d="M136.19,421.23A16.2,16.2,0,1,0,120,437.44,16.19,16.19,0,0,0,136.19,421.23Z" transform="translate(-102.59 -403.84)"/><path class="cls-5" d="M136.19,421.23A16.2,16.2,0,1,0,120,437.44,16.19,16.19,0,0,0,136.19,421.23Z" transform="translate(-102.59 -403.84)"/><polygon class="cls-2" points="17.41 17.41 22.64 31.56 23.2 31.34 17.41 17.41"/><polygon class="cls-3" points="17.41 17.41 22.64 31.56 23.2 31.34 17.41 17.41"/><polygon class="cls-2" points="17.41 17.41 23.2 31.34 23.74 31.09 17.41 17.41"/><polygon class="cls-3" points="17.41 17.41 23.2 31.34 23.74 31.09 17.41 17.41"/><polygon class="cls-2" points="17.41 17.41 23.74 31.09 24.28 30.83 17.41 17.41"/><polygon class="cls-3" points="17.41 17.41 23.74 31.09 24.28 30.83 17.41 17.41"/><polygon class="cls-2" points="17.41 17.41 24.28 30.83 24.82 30.53 17.41 17.41"/><polygon class="cls-3" points="17.41 17.41 24.28 30.83 24.82 30.53 17.41 17.41"/><polygon class="cls-2" points="17.41 17.41 24.82 30.53 25.33 30.24 17.41 17.41"/><polygon class="cls-3" points="17.41 17.41 24.82 30.53 25.33 30.24 17.41 17.41"/><polygon class="cls-2" points="17.41 17.41 25.33 30.24 25.85 29.92 17.41 17.41"/><polygon class="cls-3" points="17.41 17.41 25.33 30.24 25.85 29.92 17.41 17.41"/><polygon class="cls-2" points="17.41 17.41 25.85 29.92 26.34 29.55 17.41 17.41"/><polygon class="cls-3" points="17.41 17.41 25.85 29.92 26.34 29.55 17.41 17.41"/><polygon class="cls-2" points="17.41 17.41 26.34 29.55 26.8 29.18 17.41 17.41"/><polygon class="cls-3" points="17.41 17.41 26.34 29.55 26.8 29.18 17.41 17.41"/><polygon class="cls-2" points="17.41 17.41 26.8 29.18 27.27 28.82 17.41 17.41"/><polygon class="cls-3" points="17.41 17.41 26.8 29.18 27.27 28.82 17.41 17.41"/><polygon class="cls-2" points="17.41 17.41 27.27 28.82 27.74 28.4 17.41 17.41"/><polygon class="cls-3" points="17.41 17.41 27.27 28.82 27.74 28.4 17.41 17.41"/><polygon class="cls-2" points="17.41 17.41 27.74 28.4 28.15 27.98 17.41 17.41"/><polygon class="cls-3" points="17.41 17.41 27.74 28.4 28.15 27.98 17.41 17.41"/><polygon class="cls-2" points="17.41 17.41 28.15 27.98 28.57 27.54 17.41 17.41"/><polygon class="cls-3" points="17.41 17.41 28.15 27.98 28.57 27.54 17.41 17.41"/><polygon class="cls-2" points="17.41 17.41 28.57 27.54 28.96 27.1 17.41 17.41"/><polygon class="cls-3" points="17.41 17.41 28.57 27.54 28.96 27.1 17.41 17.41"/><polygon class="cls-2" points="17.41 17.41 28.96 27.1 29.36 26.63 17.41 17.41"/><polygon class="cls-3" points="17.41 17.41 28.96 27.1 29.36 26.63 17.41 17.41"/><polygon class="cls-2" points="17.41 17.41 29.36 26.63 29.7 26.14 17.41 17.41"/><polygon class="cls-3" points="17.41 17.41 29.36 26.63 29.7 26.14 17.41 17.41"/><polygon class="cls-2" points="17.41 17.41 29.7 26.14 30.04 25.65 17.41 17.41"/><polygon class="cls-3" points="17.41 17.41 29.7 26.14 30.04 25.65 17.41 17.41"/><polygon class="cls-2" points="17.41 17.41 30.04 25.65 30.36 25.14 17.41 17.41"/><polygon class="cls-3" points="17.41 17.41 30.04 25.65 30.36 25.14 17.41 17.41"/><polygon class="cls-2" points="17.41 17.41 30.36 25.14 30.65 24.6 17.41 17.41"/><polygon class="cls-3" points="17.41 17.41 30.36 25.14 30.65 24.6 17.41 17.41"/><polygon class="cls-2" points="17.41 17.41 30.65 24.6 30.92 24.08 17.41 17.41"/><polygon class="cls-3" points="17.41 17.41 30.65 24.6 30.92 24.08 17.41 17.41"/><polygon class="cls-2" points="17.41 17.41 30.92 24.08 31.19 23.52 17.41 17.41"/><polygon class="cls-3" points="17.41 17.41 30.92 24.08 31.19 23.52 17.41 17.41"/><polygon class="cls-2" points="17.41 17.41 31.19 23.52 31.41 22.98 17.41 17.41"/><polygon class="cls-3" points="17.41 17.41 31.19 23.52 31.41 22.98 17.41 17.41"/><polygon class="cls-2" points="17.41 17.41 31.41 22.98 31.64 22.42 17.41 17.41"/><polygon class="cls-3" points="17.41 17.41 31.41 22.98 31.64 22.42 17.41 17.41"/><polygon class="cls-2" points="17.41 17.41 31.64 22.42 31.83 21.83 17.41 17.41"/><polygon class="cls-3" points="17.41 17.41 31.64 22.42 31.83 21.83 17.41 17.41"/><polygon class="cls-2" points="17.41 17.41 31.83 21.83 31.98 21.26 17.41 17.41"/><polygon class="cls-3" points="17.41 17.41 31.83 21.83 31.98 21.26 17.41 17.41"/><polygon class="cls-2" points="17.41 17.41 31.98 21.26 32.13 20.68 17.41 17.41"/><polygon class="cls-3" points="17.41 17.41 31.98 21.26 32.13 20.68 17.41 17.41"/><polygon class="cls-2" points="17.41 17.41 32.13 20.68 32.25 20.09 17.41 17.41"/><polygon class="cls-3" points="17.41 17.41 32.13 20.68 32.25 20.09 17.41 17.41"/><polygon class="cls-2" points="17.41 17.41 32.25 20.09 32.35 19.5 17.41 17.41"/><polygon class="cls-3" points="17.41 17.41 32.25 20.09 32.35 19.5 17.41 17.41"/><polygon class="cls-2" points="17.41 17.41 32.35 19.5 32.42 18.89 17.41 17.41"/><polygon class="cls-3" points="17.41 17.41 32.35 19.5 32.42 18.89 17.41 17.41"/><polygon class="cls-2" points="17.41 17.41 32.42 18.89 32.44 18.3 17.41 17.41"/><polygon class="cls-3" points="17.41 17.41 32.42 18.89 32.44 18.3 17.41 17.41"/><polygon class="cls-2" points="17.41 17.41 32.44 18.3 32.47 17.68 17.41 17.41"/><polygon class="cls-3" points="17.41 17.41 32.44 18.3 32.47 17.68 17.41 17.41"/><polygon class="cls-2" points="17.41 17.41 32.47 17.68 32.47 17.09 17.41 17.41"/><polygon class="cls-3" points="17.41 17.41 32.47 17.68 32.47 17.09 17.41 17.41"/><polygon class="cls-2" points="17.41 17.41 32.47 17.09 32.44 16.48 17.41 17.41"/><polygon class="cls-3" points="17.41 17.41 32.47 17.09 32.44 16.48 17.41 17.41"/><polygon class="cls-2" points="17.41 17.41 32.44 16.48 32.4 15.89 17.41 17.41"/><polygon class="cls-3" points="17.41 17.41 32.44 16.48 32.4 15.89 17.41 17.41"/><polygon class="cls-2" points="17.41 17.41 32.4 15.89 32.32 15.3 17.41 17.41"/><polygon class="cls-3" points="17.41 17.41 32.4 15.89 32.32 15.3 17.41 17.41"/><polygon class="cls-2" points="17.41 17.41 32.32 15.3 32.22 14.72 17.41 17.41"/><polygon class="cls-3" points="17.41 17.41 32.32 15.3 32.22 14.72 17.41 17.41"/><polygon class="cls-2" points="17.41 17.41 32.22 14.72 32.1 14.13 17.41 17.41"/><polygon class="cls-3" points="17.41 17.41 32.22 14.72 32.1 14.13 17.41 17.41"/><polygon class="cls-2" points="17.41 17.41 32.1 14.13 31.95 13.54 17.41 17.41"/><polygon class="cls-3" points="17.41 17.41 32.1 14.13 31.95 13.54 17.41 17.41"/><polygon class="cls-2" points="17.41 17.41 31.95 13.54 31.81 12.95 17.41 17.41"/><polygon class="cls-3" points="17.41 17.41 31.95 13.54 31.81 12.95 17.41 17.41"/><polygon class="cls-2" points="17.41 17.41 31.81 12.95 31.61 12.39 17.41 17.41"/><polygon class="cls-3" points="17.41 17.41 31.81 12.95 31.61 12.39 17.41 17.41"/><polygon class="cls-2" points="17.41 17.41 31.61 12.39 31.39 11.82 17.41 17.41"/><polygon class="cls-3" points="17.41 17.41 31.61 12.39 31.39 11.82 17.41 17.41"/><polygon class="cls-2" points="17.41 17.41 31.39 11.82 31.14 11.28 17.41 17.41"/><polygon class="cls-3" points="17.41 17.41 31.39 11.82 31.14 11.28 17.41 17.41"/><polygon class="cls-2" points="17.41 17.41 31.14 11.28 30.9 10.72 17.41 17.41"/><polygon class="cls-3" points="17.41 17.41 31.14 11.28 30.9 10.72 17.41 17.41"/><polygon class="cls-2" points="17.41 17.41 30.9 10.72 30.63 10.21 17.41 17.41"/><polygon class="cls-3" points="17.41 17.41 30.9 10.72 30.63 10.21 17.41 17.41"/><polygon class="cls-2" points="17.41 17.41 30.63 10.21 30.31 9.67 17.41 17.41"/><polygon class="cls-3" points="17.41 17.41 30.63 10.21 30.31 9.67 17.41 17.41"/><polygon class="cls-2" points="17.41 17.41 30.31 9.67 29.99 9.15 17.41 17.41"/><polygon class="cls-3" points="17.41 17.41 30.31 9.67 29.99 9.15 17.41 17.41"/><polygon class="cls-2" points="17.41 17.41 29.99 9.15 29.65 8.66 17.41 17.41"/><polygon class="cls-3" points="17.41 17.41 29.99 9.15 29.65 8.66 17.41 17.41"/><polygon class="cls-2" points="17.41 17.41 29.65 8.66 29.31 8.2 17.41 17.41"/><polygon class="cls-3" points="17.41 17.41 29.65 8.66 29.31 8.2 17.41 17.41"/><polygon class="cls-2" points="17.41 17.41 29.31 8.2 28.91 7.73 17.41 17.41"/><polygon class="cls-3" points="17.41 17.41 29.31 8.2 28.91 7.73 17.41 17.41"/><polygon class="cls-2" points="17.41 17.41 28.91 7.73 28.52 7.26 17.41 17.41"/><polygon class="cls-3" points="17.41 17.41 28.91 7.73 28.52 7.26 17.41 17.41"/><polygon class="cls-2" points="17.41 17.41 28.52 7.26 28.1 6.82 17.41 17.41"/><polygon class="cls-3" points="17.41 17.41 28.52 7.26 28.1 6.82 17.41 17.41"/><polygon class="cls-2" points="17.41 17.41 28.1 6.82 27.66 6.41 17.41 17.41"/><polygon class="cls-3" points="17.41 17.41 28.1 6.82 27.66 6.41 17.41 17.41"/><polygon class="cls-2" points="17.41 17.41 27.66 6.41 27.22 6.01 17.41 17.41"/><polygon class="cls-3" points="17.41 17.41 27.66 6.41 27.22 6.01 17.41 17.41"/><polygon class="cls-2" points="17.41 17.41 27.22 6.01 26.76 5.62 17.41 17.41"/><polygon class="cls-3" points="17.41 17.41 27.22 6.01 26.76 5.62 17.41 17.41"/><polygon class="cls-2" points="17.41 17.41 26.76 5.62 26.27 5.28 17.41 17.41"/><polygon class="cls-3" points="17.41 17.41 26.76 5.62 26.27 5.28 17.41 17.41"/><polygon class="cls-2" points="17.41 17.41 26.27 5.28 25.77 4.91 17.41 17.41"/><polygon class="cls-3" points="17.41 17.41 26.27 5.28 25.77 4.91 17.41 17.41"/><polygon class="cls-2" points="17.41 17.41 25.77 4.91 25.26 4.59 17.41 17.41"/><polygon class="cls-3" points="17.41 17.41 25.77 4.91 25.26 4.59 17.41 17.41"/><polygon class="cls-2" points="17.41 17.41 25.26 4.59 24.75 4.3 17.41 17.41"/><polygon class="cls-3" points="17.41 17.41 25.26 4.59 24.75 4.3 17.41 17.41"/><polygon class="cls-2" points="17.41 17.41 24.75 4.3 24.21 4 17.41 17.41"/><polygon class="cls-3" points="17.41 17.41 24.75 4.3 24.21 4 17.41 17.41"/><polygon class="cls-2" points="17.41 17.41 24.21 4 23.67 3.76 17.41 17.41"/><polygon class="cls-3" points="17.41 17.41 24.21 4 23.67 3.76 17.41 17.41"/><polygon class="cls-2" points="17.41 17.41 23.67 3.76 23.13 3.51 17.41 17.41"/><polygon class="cls-3" points="17.41 17.41 23.67 3.76 23.13 3.51 17.41 17.41"/><polygon class="cls-2" points="17.41 17.41 23.13 3.51 22.64 3.32 17.41 17.41"/><polygon class="cls-3" points="17.41 17.41 23.13 3.51 22.64 3.32 17.41 17.41"/><polygon class="cls-2" points="17.41 17.41 12.22 3.32 11.65 3.54 17.41 17.41"/><polygon class="cls-3" points="17.41 17.41 12.22 3.32 11.65 3.54 17.41 17.41"/><polygon class="cls-2" points="17.41 17.41 11.65 3.54 11.09 3.78 17.41 17.41"/><polygon class="cls-3" points="17.41 17.41 11.65 3.54 11.09 3.78 17.41 17.41"/><polygon class="cls-2" points="17.41 17.41 11.09 3.78 10.55 4.05 17.41 17.41"/><polygon class="cls-3" points="17.41 17.41 11.09 3.78 10.55 4.05 17.41 17.41"/><polygon class="cls-2" points="17.41 17.41 10.55 4.05 10.03 4.32 17.41 17.41"/><polygon class="cls-3" points="17.41 17.41 10.55 4.05 10.03 4.32 17.41 17.41"/><polygon class="cls-2" points="17.41 17.41 10.03 4.32 9.52 4.64 17.41 17.41"/><polygon class="cls-3" points="17.41 17.41 10.03 4.32 9.52 4.64 17.41 17.41"/><polygon class="cls-2" points="17.41 17.41 9.52 4.64 9 4.96 17.41 17.41"/><polygon class="cls-3" points="17.41 17.41 9.52 4.64 9 4.96 17.41 17.41"/><polygon class="cls-2" points="17.41 17.41 9 4.96 8.51 5.3 17.41 17.41"/><polygon class="cls-3" points="17.41 17.41 9 4.96 8.51 5.3 17.41 17.41"/><polygon class="cls-2" points="17.41 17.41 8.51 5.3 8.02 5.67 17.41 17.41"/><polygon class="cls-3" points="17.41 17.41 8.51 5.3 8.02 5.67 17.41 17.41"/><polygon class="cls-2" points="17.41 17.41 8.02 5.67 7.56 6.06 17.41 17.41"/><polygon class="cls-3" points="17.41 17.41 8.02 5.67 7.56 6.06 17.41 17.41"/><polygon class="cls-2" points="17.41 17.41 7.56 6.06 7.12 6.48 17.41 17.41"/><polygon class="cls-3" points="17.41 17.41 7.56 6.06 7.12 6.48 17.41 17.41"/><polygon class="cls-2" points="17.41 17.41 7.12 6.48 6.7 6.89 17.41 17.41"/><polygon class="cls-3" points="17.41 17.41 7.12 6.48 6.7 6.89 17.41 17.41"/><polygon class="cls-2" points="17.41 17.41 6.7 6.89 6.28 7.34 17.41 17.41"/><polygon class="cls-3" points="17.41 17.41 6.7 6.89 6.28 7.34 17.41 17.41"/><polygon class="cls-2" points="17.41 17.41 6.28 7.34 5.89 7.78 17.41 17.41"/><polygon class="cls-3" points="17.41 17.41 6.28 7.34 5.89 7.78 17.41 17.41"/><polygon class="cls-2" points="17.41 17.41 5.89 7.78 5.5 8.24 17.41 17.41"/><polygon class="cls-3" points="17.41 17.41 5.89 7.78 5.5 8.24 17.41 17.41"/><polygon class="cls-2" points="17.41 17.41 5.5 8.24 5.15 8.73 17.41 17.41"/><polygon class="cls-3" points="17.41 17.41 5.5 8.24 5.15 8.73 17.41 17.41"/><polygon class="cls-2" points="17.41 17.41 5.15 8.73 4.81 9.22 17.41 17.41"/><polygon class="cls-3" points="17.41 17.41 5.15 8.73 4.81 9.22 17.41 17.41"/><polygon class="cls-2" points="17.41 17.41 4.81 9.22 4.49 9.74 17.41 17.41"/><polygon class="cls-3" points="17.41 17.41 4.81 9.22 4.49 9.74 17.41 17.41"/><polygon class="cls-2" points="17.41 17.41 4.49 9.74 4.2 10.25 17.41 17.41"/><polygon class="cls-3" points="17.41 17.41 4.49 9.74 4.2 10.25 17.41 17.41"/><polygon class="cls-2" points="17.41 17.41 4.2 10.25 3.9 10.79 17.41 17.41"/><polygon class="cls-3" points="17.41 17.41 4.2 10.25 3.9 10.79 17.41 17.41"/><polygon class="cls-2" points="17.41 17.41 3.9 10.79 3.66 11.36 17.41 17.41"/><polygon class="cls-3" points="17.41 17.41 3.9 10.79 3.66 11.36 17.41 17.41"/><polygon class="cls-2" points="17.41 17.41 3.66 11.36 3.41 11.9 17.41 17.41"/><polygon class="cls-3" points="17.41 17.41 3.66 11.36 3.41 11.9 17.41 17.41"/><polygon class="cls-2" points="17.41 17.41 3.41 11.9 3.22 12.46 17.41 17.41"/><polygon class="cls-3" points="17.41 17.41 3.41 11.9 3.22 12.46 17.41 17.41"/><polygon class="cls-2" points="17.41 17.41 3.22 12.46 3.02 13.05 17.41 17.41"/><polygon class="cls-3" points="17.41 17.41 3.22 12.46 3.02 13.05 17.41 17.41"/><polygon class="cls-2" points="17.41 17.41 3.02 13.05 2.85 13.61 17.41 17.41"/><polygon class="cls-3" points="17.41 17.41 3.02 13.05 2.85 13.61 17.41 17.41"/><polygon class="cls-2" points="17.41 17.41 2.85 13.61 2.73 14.2 17.41 17.41"/><polygon class="cls-3" points="17.41 17.41 2.85 13.61 2.73 14.2 17.41 17.41"/><polygon class="cls-2" points="17.41 17.41 2.73 14.2 2.6 14.79 17.41 17.41"/><polygon class="cls-3" points="17.41 17.41 2.73 14.2 2.6 14.79 17.41 17.41"/><polygon class="cls-2" points="17.41 17.41 2.6 14.79 2.51 15.38 17.41 17.41"/><polygon class="cls-3" points="17.41 17.41 2.6 14.79 2.51 15.38 17.41 17.41"/><polygon class="cls-2" points="17.41 17.41 2.51 15.38 2.43 15.99 17.41 17.41"/><polygon class="cls-3" points="17.41 17.41 2.51 15.38 2.43 15.99 17.41 17.41"/><polygon class="cls-2" points="17.41 17.41 2.43 15.99 2.38 16.56 17.41 17.41"/><polygon class="cls-3" points="17.41 17.41 2.43 15.99 2.38 16.56 17.41 17.41"/><polygon class="cls-2" points="17.41 17.41 2.38 16.56 2.36 17.17 17.41 17.41"/><polygon class="cls-3" points="17.41 17.41 2.38 16.56 2.36 17.17 17.41 17.41"/><polygon class="cls-2" points="17.41 17.41 2.36 17.17 2.36 17.76 17.41 17.41"/><polygon class="cls-3" points="17.41 17.41 2.36 17.17 2.36 17.76 17.41 17.41"/><polygon class="cls-2" points="17.41 17.41 2.36 17.76 2.38 18.37 17.41 17.41"/><polygon class="cls-3" points="17.41 17.41 2.36 17.76 2.38 18.37 17.41 17.41"/><polygon class="cls-2" points="17.41 17.41 2.38 18.37 2.43 18.96 17.41 17.41"/><polygon class="cls-3" points="17.41 17.41 2.38 18.37 2.43 18.96 17.41 17.41"/><polygon class="cls-2" points="17.41 17.41 2.43 18.96 2.51 19.57 17.41 17.41"/><polygon class="cls-3" points="17.41 17.41 2.43 18.96 2.51 19.57 17.41 17.41"/><polygon class="cls-2" points="17.41 17.41 2.51 19.57 2.6 20.16 17.41 17.41"/><polygon class="cls-3" points="17.41 17.41 2.51 19.57 2.6 20.16 17.41 17.41"/><polygon class="cls-2" points="17.41 17.41 2.6 20.16 2.73 20.75 17.41 17.41"/><polygon class="cls-3" points="17.41 17.41 2.6 20.16 2.73 20.75 17.41 17.41"/><polygon class="cls-2" points="17.41 17.41 2.73 20.75 2.87 21.34 17.41 17.41"/><polygon class="cls-3" points="17.41 17.41 2.73 20.75 2.87 21.34 17.41 17.41"/><polygon class="cls-2" points="17.41 17.41 2.87 21.34 3.05 21.9 17.41 17.41"/><polygon class="cls-3" points="17.41 17.41 2.87 21.34 3.05 21.9 17.41 17.41"/><polygon class="cls-2" points="17.41 17.41 3.05 21.9 3.24 22.49 17.41 17.41"/><polygon class="cls-3" points="17.41 17.41 3.05 21.9 3.24 22.49 17.41 17.41"/><polygon class="cls-2" points="17.41 17.41 3.24 22.49 3.46 23.05 17.41 17.41"/><polygon class="cls-3" points="17.41 17.41 3.24 22.49 3.46 23.05 17.41 17.41"/><polygon class="cls-2" points="17.41 17.41 3.46 23.05 3.68 23.59 17.41 17.41"/><polygon class="cls-3" points="17.41 17.41 3.46 23.05 3.68 23.59 17.41 17.41"/><polygon class="cls-2" points="17.41 17.41 3.68 23.59 3.95 24.16 17.41 17.41"/><polygon class="cls-3" points="17.41 17.41 3.68 23.59 3.95 24.16 17.41 17.41"/><polygon class="cls-2" points="17.41 17.41 3.95 24.16 4.22 24.67 17.41 17.41"/><polygon class="cls-3" points="17.41 17.41 3.95 24.16 4.22 24.67 17.41 17.41"/><polygon class="cls-2" points="17.41 17.41 4.22 24.67 4.52 25.21 17.41 17.41"/><polygon class="cls-3" points="17.41 17.41 4.22 24.67 4.52 25.21 17.41 17.41"/><polygon class="cls-2" points="17.41 17.41 4.52 25.21 4.86 25.7 17.41 17.41"/><polygon class="cls-3" points="17.41 17.41 4.52 25.21 4.86 25.7 17.41 17.41"/><polygon class="cls-2" points="17.41 17.41 4.86 25.7 5.18 26.22 17.41 17.41"/><polygon class="cls-3" points="17.41 17.41 4.86 25.7 5.18 26.22 17.41 17.41"/><polygon class="cls-2" points="17.41 17.41 5.18 26.22 5.55 26.68 17.41 17.41"/><polygon class="cls-3" points="17.41 17.41 5.18 26.22 5.55 26.68 17.41 17.41"/><polygon class="cls-2" points="17.41 17.41 5.55 26.68 5.94 27.15 17.41 17.41"/><polygon class="cls-3" points="17.41 17.41 5.55 26.68 5.94 27.15 17.41 17.41"/><polygon class="cls-2" points="17.41 17.41 5.94 27.15 6.33 27.61 17.41 17.41"/><polygon class="cls-3" points="17.41 17.41 5.94 27.15 6.33 27.61 17.41 17.41"/><polygon class="cls-2" points="17.41 17.41 6.33 27.61 6.75 28.05 17.41 17.41"/><polygon class="cls-3" points="17.41 17.41 6.33 27.61 6.75 28.05 17.41 17.41"/><polygon class="cls-2" points="17.41 17.41 6.75 28.05 7.19 28.47 17.41 17.41"/><polygon class="cls-3" points="17.41 17.41 6.75 28.05 7.19 28.47 17.41 17.41"/><polygon class="cls-2" points="17.41 17.41 7.19 28.47 7.63 28.86 17.41 17.41"/><polygon class="cls-3" points="17.41 17.41 7.19 28.47 7.63 28.86 17.41 17.41"/><polygon class="cls-2" points="17.41 17.41 7.63 28.86 8.1 29.26 17.41 17.41"/><polygon class="cls-3" points="17.41 17.41 7.63 28.86 8.1 29.26 17.41 17.41"/><polygon class="cls-2" points="17.41 17.41 8.1 29.26 8.56 29.6 17.41 17.41"/><polygon class="cls-3" points="17.41 17.41 8.1 29.26 8.56 29.6 17.41 17.41"/><polygon class="cls-2" points="17.41 17.41 8.56 29.6 9.08 29.94 17.41 17.41"/><polygon class="cls-3" points="17.41 17.41 8.56 29.6 9.08 29.94 17.41 17.41"/><polygon class="cls-2" points="17.41 17.41 9.08 29.94 9.57 30.29 17.41 17.41"/><polygon class="cls-3" points="17.41 17.41 9.08 29.94 9.57 30.29 17.41 17.41"/><polygon class="cls-2" points="17.41 17.41 9.57 30.29 10.11 30.58 17.41 17.41"/><polygon class="cls-3" points="17.41 17.41 9.57 30.29 10.11 30.58 17.41 17.41"/><polygon class="cls-2" points="17.41 17.41 10.11 30.58 10.62 30.88 17.41 17.41"/><polygon class="cls-3" points="17.41 17.41 10.11 30.58 10.62 30.88 17.41 17.41"/><polygon class="cls-2" points="17.41 17.41 10.62 30.88 11.16 31.12 17.41 17.41"/><polygon class="cls-3" points="17.41 17.41 10.62 30.88 11.16 31.12 17.41 17.41"/><polygon class="cls-2" points="17.41 17.41 11.16 31.12 11.73 31.36 17.41 17.41"/><polygon class="cls-3" points="17.41 17.41 11.16 31.12 11.73 31.36 17.41 17.41"/><polygon class="cls-2" points="17.41 17.41 11.73 31.36 12.22 31.56 17.41 17.41"/><polygon class="cls-3" points="17.41 17.41 11.73 31.36 12.22 31.56 17.41 17.41"/><polygon class="cls-2" points="12.22 12.24 22.64 12.24 12.22 31.56 12.22 3.32 12.22 12.24"/><polygon class="cls-3" points="12.22 12.24 22.64 12.24 12.22 31.56 12.22 3.32 12.22 12.24"/><polygon class="cls-2" points="22.64 12.24 22.64 3.32 12.22 22.64 12.22 31.56 22.64 12.24"/><polygon class="cls-3" points="22.64 12.24 22.64 3.32 12.22 22.64 12.22 31.56 22.64 12.24"/><polygon class="cls-2" points="22.64 3.32 22.64 31.56 22.64 22.64 12.22 22.64 22.64 3.32"/><polygon class="cls-3" points="22.64 3.32 22.64 31.56 22.64 22.64 12.22 22.64 22.64 3.32"/><polygon class="cls-2" points="22.64 17.41 22.64 31.56 23.2 31.34 22.64 17.41"/><polygon class="cls-3" points="22.64 17.41 22.64 31.56 23.2 31.34 22.64 17.41"/><polygon class="cls-2" points="22.64 17.41 23.2 31.34 23.74 31.09 22.64 17.41"/><polygon class="cls-3" points="22.64 17.41 23.2 31.34 23.74 31.09 22.64 17.41"/><polygon class="cls-2" points="22.64 17.41 23.74 31.09 24.28 30.83 22.64 17.41"/><polygon class="cls-3" points="22.64 17.41 23.74 31.09 24.28 30.83 22.64 17.41"/><polygon class="cls-2" points="22.64 17.41 24.28 30.83 24.82 30.53 22.64 17.41"/><polygon class="cls-3" points="22.64 17.41 24.28 30.83 24.82 30.53 22.64 17.41"/><polygon class="cls-2" points="22.64 17.41 24.82 30.53 25.33 30.24 22.64 17.41"/><polygon class="cls-3" points="22.64 17.41 24.82 30.53 25.33 30.24 22.64 17.41"/><polygon class="cls-2" points="22.64 17.41 25.33 30.24 25.85 29.92 22.64 17.41"/><polygon class="cls-3" points="22.64 17.41 25.33 30.24 25.85 29.92 22.64 17.41"/><polygon class="cls-2" points="22.64 17.41 25.85 29.92 26.34 29.55 22.64 17.41"/><polygon class="cls-3" points="22.64 17.41 25.85 29.92 26.34 29.55 22.64 17.41"/><polygon class="cls-2" points="22.64 17.41 26.34 29.55 26.8 29.18 22.64 17.41"/><polygon class="cls-3" points="22.64 17.41 26.34 29.55 26.8 29.18 22.64 17.41"/><polygon class="cls-2" points="22.64 17.41 26.8 29.18 27.27 28.82 22.64 17.41"/><polygon class="cls-3" points="22.64 17.41 26.8 29.18 27.27 28.82 22.64 17.41"/><polygon class="cls-2" points="22.64 17.41 27.27 28.82 27.74 28.4 22.64 17.41"/><polygon class="cls-3" points="22.64 17.41 27.27 28.82 27.74 28.4 22.64 17.41"/><polygon class="cls-2" points="22.64 17.41 27.74 28.4 28.15 27.98 22.64 17.41"/><polygon class="cls-3" points="22.64 17.41 27.74 28.4 28.15 27.98 22.64 17.41"/><polygon class="cls-2" points="22.64 17.41 28.15 27.98 28.57 27.54 22.64 17.41"/><polygon class="cls-3" points="22.64 17.41 28.15 27.98 28.57 27.54 22.64 17.41"/><polygon class="cls-2" points="22.64 17.41 28.57 27.54 28.96 27.1 22.64 17.41"/><polygon class="cls-3" points="22.64 17.41 28.57 27.54 28.96 27.1 22.64 17.41"/><polygon class="cls-2" points="22.64 17.41 28.96 27.1 29.36 26.63 22.64 17.41"/><polygon class="cls-3" points="22.64 17.41 28.96 27.1 29.36 26.63 22.64 17.41"/><polygon class="cls-2" points="22.64 17.41 29.36 26.63 29.7 26.14 22.64 17.41"/><polygon class="cls-3" points="22.64 17.41 29.36 26.63 29.7 26.14 22.64 17.41"/><polygon class="cls-2" points="22.64 17.41 29.7 26.14 30.04 25.65 22.64 17.41"/><polygon class="cls-3" points="22.64 17.41 29.7 26.14 30.04 25.65 22.64 17.41"/><polygon class="cls-2" points="22.64 17.41 30.04 25.65 30.36 25.14 22.64 17.41"/><polygon class="cls-3" points="22.64 17.41 30.04 25.65 30.36 25.14 22.64 17.41"/><polygon class="cls-2" points="22.64 17.41 30.36 25.14 30.65 24.6 22.64 17.41"/><polygon class="cls-3" points="22.64 17.41 30.36 25.14 30.65 24.6 22.64 17.41"/><polygon class="cls-2" points="22.64 17.41 30.65 24.6 30.92 24.08 22.64 17.41"/><polygon class="cls-3" points="22.64 17.41 30.65 24.6 30.92 24.08 22.64 17.41"/><polygon class="cls-2" points="22.64 17.41 30.92 24.08 31.19 23.52 22.64 17.41"/><polygon class="cls-3" points="22.64 17.41 30.92 24.08 31.19 23.52 22.64 17.41"/><polygon class="cls-2" points="22.64 17.41 31.19 23.52 31.41 22.98 22.64 17.41"/><polygon class="cls-3" points="22.64 17.41 31.19 23.52 31.41 22.98 22.64 17.41"/><polygon class="cls-2" points="22.64 17.41 31.41 22.98 31.64 22.42 22.64 17.41"/><polygon class="cls-3" points="22.64 17.41 31.41 22.98 31.64 22.42 22.64 17.41"/><polygon class="cls-2" points="22.64 17.41 31.64 22.42 31.83 21.83 22.64 17.41"/><polygon class="cls-3" points="22.64 17.41 31.64 22.42 31.83 21.83 22.64 17.41"/><polygon class="cls-2" points="22.64 17.41 31.83 21.83 31.98 21.26 22.64 17.41"/><polygon class="cls-3" points="22.64 17.41 31.83 21.83 31.98 21.26 22.64 17.41"/><polygon class="cls-2" points="22.64 17.41 31.98 21.26 32.13 20.68 22.64 17.41"/><polygon class="cls-3" points="22.64 17.41 31.98 21.26 32.13 20.68 22.64 17.41"/><polygon class="cls-2" points="22.64 17.41 32.13 20.68 32.25 20.09 22.64 17.41"/><polygon class="cls-3" points="22.64 17.41 32.13 20.68 32.25 20.09 22.64 17.41"/><polygon class="cls-2" points="22.64 17.41 32.25 20.09 32.35 19.5 22.64 17.41"/><polygon class="cls-3" points="22.64 17.41 32.25 20.09 32.35 19.5 22.64 17.41"/><polygon class="cls-2" points="22.64 17.41 32.35 19.5 32.42 18.89 22.64 17.41"/><polygon class="cls-3" points="22.64 17.41 32.35 19.5 32.42 18.89 22.64 17.41"/><polygon class="cls-2" points="22.64 17.41 32.42 18.89 32.44 18.3 22.64 17.41"/><polygon class="cls-3" points="22.64 17.41 32.42 18.89 32.44 18.3 22.64 17.41"/><polygon class="cls-2" points="22.64 17.41 32.44 18.3 32.47 17.68 22.64 17.41"/><polygon class="cls-3" points="22.64 17.41 32.44 18.3 32.47 17.68 22.64 17.41"/><polygon class="cls-2" points="22.64 17.41 32.47 17.68 32.47 17.09 22.64 17.41"/><polygon class="cls-3" points="22.64 17.41 32.47 17.68 32.47 17.09 22.64 17.41"/><polygon class="cls-2" points="22.64 17.41 32.47 17.09 32.44 16.48 22.64 17.41"/><polygon class="cls-3" points="22.64 17.41 32.47 17.09 32.44 16.48 22.64 17.41"/><polygon class="cls-2" points="22.64 17.41 32.44 16.48 32.4 15.89 22.64 17.41"/><polygon class="cls-3" points="22.64 17.41 32.44 16.48 32.4 15.89 22.64 17.41"/><polygon class="cls-2" points="22.64 17.41 32.4 15.89 32.32 15.3 22.64 17.41"/><polygon class="cls-3" points="22.64 17.41 32.4 15.89 32.32 15.3 22.64 17.41"/><polygon class="cls-2" points="22.64 17.41 32.32 15.3 32.22 14.72 22.64 17.41"/><polygon class="cls-3" points="22.64 17.41 32.32 15.3 32.22 14.72 22.64 17.41"/><polygon class="cls-2" points="22.64 17.41 32.22 14.72 32.1 14.13 22.64 17.41"/><polygon class="cls-3" points="22.64 17.41 32.22 14.72 32.1 14.13 22.64 17.41"/><polygon class="cls-2" points="22.64 17.41 32.1 14.13 31.95 13.54 22.64 17.41"/><polygon class="cls-3" points="22.64 17.41 32.1 14.13 31.95 13.54 22.64 17.41"/><polygon class="cls-2" points="22.64 17.41 31.95 13.54 31.81 12.95 22.64 17.41"/><polygon class="cls-3" points="22.64 17.41 31.95 13.54 31.81 12.95 22.64 17.41"/><polygon class="cls-2" points="22.64 17.41 31.81 12.95 31.61 12.39 22.64 17.41"/><polygon class="cls-3" points="22.64 17.41 31.81 12.95 31.61 12.39 22.64 17.41"/><polygon class="cls-2" points="22.64 17.41 31.61 12.39 31.39 11.82 22.64 17.41"/><polygon class="cls-3" points="22.64 17.41 31.61 12.39 31.39 11.82 22.64 17.41"/><polygon class="cls-2" points="22.64 17.41 31.39 11.82 31.14 11.28 22.64 17.41"/><polygon class="cls-3" points="22.64 17.41 31.39 11.82 31.14 11.28 22.64 17.41"/><polygon class="cls-2" points="22.64 17.41 31.14 11.28 30.9 10.72 22.64 17.41"/><polygon class="cls-3" points="22.64 17.41 31.14 11.28 30.9 10.72 22.64 17.41"/><polygon class="cls-2" points="22.64 17.41 30.9 10.72 30.63 10.21 22.64 17.41"/><polygon class="cls-3" points="22.64 17.41 30.9 10.72 30.63 10.21 22.64 17.41"/><polygon class="cls-2" points="22.64 17.41 30.63 10.21 30.31 9.67 22.64 17.41"/><polygon class="cls-3" points="22.64 17.41 30.63 10.21 30.31 9.67 22.64 17.41"/><polygon class="cls-2" points="22.64 17.41 30.31 9.67 29.99 9.15 22.64 17.41"/><polygon class="cls-3" points="22.64 17.41 30.31 9.67 29.99 9.15 22.64 17.41"/><polygon class="cls-2" points="22.64 17.41 29.99 9.15 29.65 8.66 22.64 17.41"/><polygon class="cls-3" points="22.64 17.41 29.99 9.15 29.65 8.66 22.64 17.41"/><polygon class="cls-2" points="22.64 17.41 29.65 8.66 29.31 8.2 22.64 17.41"/><polygon class="cls-3" points="22.64 17.41 29.65 8.66 29.31 8.2 22.64 17.41"/><polygon class="cls-2" points="22.64 17.41 29.31 8.2 28.91 7.73 22.64 17.41"/><polygon class="cls-3" points="22.64 17.41 29.31 8.2 28.91 7.73 22.64 17.41"/><polygon class="cls-2" points="22.64 17.41 28.91 7.73 28.52 7.26 22.64 17.41"/><polygon class="cls-3" points="22.64 17.41 28.91 7.73 28.52 7.26 22.64 17.41"/><polygon class="cls-2" points="22.64 17.41 28.52 7.26 28.1 6.82 22.64 17.41"/><polygon class="cls-3" points="22.64 17.41 28.52 7.26 28.1 6.82 22.64 17.41"/><polygon class="cls-2" points="22.64 17.41 28.1 6.82 27.66 6.41 22.64 17.41"/><polygon class="cls-3" points="22.64 17.41 28.1 6.82 27.66 6.41 22.64 17.41"/><polygon class="cls-2" points="22.64 17.41 27.66 6.41 27.22 6.01 22.64 17.41"/><polygon class="cls-3" points="22.64 17.41 27.66 6.41 27.22 6.01 22.64 17.41"/><polygon class="cls-2" points="22.64 17.41 27.22 6.01 26.76 5.62 22.64 17.41"/><polygon class="cls-3" points="22.64 17.41 27.22 6.01 26.76 5.62 22.64 17.41"/><polygon class="cls-2" points="22.64 17.41 26.76 5.62 26.27 5.28 22.64 17.41"/><polygon class="cls-3" points="22.64 17.41 26.76 5.62 26.27 5.28 22.64 17.41"/><polygon class="cls-2" points="22.64 17.41 26.27 5.28 25.77 4.91 22.64 17.41"/><polygon class="cls-3" points="22.64 17.41 26.27 5.28 25.77 4.91 22.64 17.41"/><polygon class="cls-2" points="22.64 17.41 25.77 4.91 25.26 4.59 22.64 17.41"/><polygon class="cls-3" points="22.64 17.41 25.77 4.91 25.26 4.59 22.64 17.41"/><polygon class="cls-2" points="22.64 17.41 25.26 4.59 24.75 4.3 22.64 17.41"/><polygon class="cls-3" points="22.64 17.41 25.26 4.59 24.75 4.3 22.64 17.41"/><polygon class="cls-2" points="22.64 17.41 24.75 4.3 24.21 4 22.64 17.41"/><polygon class="cls-3" points="22.64 17.41 24.75 4.3 24.21 4 22.64 17.41"/><polygon class="cls-2" points="22.64 17.41 24.21 4 23.67 3.76 22.64 17.41"/><polygon class="cls-3" points="22.64 17.41 24.21 4 23.67 3.76 22.64 17.41"/><polygon class="cls-2" points="22.64 17.41 23.67 3.76 23.13 3.51 22.64 17.41"/><polygon class="cls-3" points="22.64 17.41 23.67 3.76 23.13 3.51 22.64 17.41"/><polygon class="cls-2" points="22.64 17.41 23.13 3.51 22.64 3.32 22.64 17.41"/><polygon class="cls-3" points="22.64 17.41 23.13 3.51 22.64 3.32 22.64 17.41"/><polygon class="cls-2" points="12.22 17.41 12.22 3.32 11.65 3.54 12.22 17.41"/><polygon class="cls-3" points="12.22 17.41 12.22 3.32 11.65 3.54 12.22 17.41"/><polygon class="cls-2" points="12.22 17.41 11.65 3.54 11.09 3.78 12.22 17.41"/><polygon class="cls-3" points="12.22 17.41 11.65 3.54 11.09 3.78 12.22 17.41"/><polygon class="cls-2" points="12.22 17.41 11.09 3.78 10.55 4.05 12.22 17.41"/><polygon class="cls-3" points="12.22 17.41 11.09 3.78 10.55 4.05 12.22 17.41"/><polygon class="cls-2" points="12.22 17.41 10.55 4.05 10.03 4.32 12.22 17.41"/><polygon class="cls-3" points="12.22 17.41 10.55 4.05 10.03 4.32 12.22 17.41"/><polygon class="cls-2" points="12.22 17.41 10.03 4.32 9.52 4.64 12.22 17.41"/><polygon class="cls-3" points="12.22 17.41 10.03 4.32 9.52 4.64 12.22 17.41"/><polygon class="cls-2" points="12.22 17.41 9.52 4.64 9 4.96 12.22 17.41"/><polygon class="cls-3" points="12.22 17.41 9.52 4.64 9 4.96 12.22 17.41"/><polygon class="cls-2" points="12.22 17.41 9 4.96 8.51 5.3 12.22 17.41"/><polygon class="cls-3" points="12.22 17.41 9 4.96 8.51 5.3 12.22 17.41"/><polygon class="cls-2" points="12.22 17.41 8.51 5.3 8.02 5.67 12.22 17.41"/><polygon class="cls-3" points="12.22 17.41 8.51 5.3 8.02 5.67 12.22 17.41"/><polygon class="cls-2" points="12.22 17.41 8.02 5.67 7.56 6.06 12.22 17.41"/><polygon class="cls-3" points="12.22 17.41 8.02 5.67 7.56 6.06 12.22 17.41"/><polygon class="cls-2" points="12.22 17.41 7.56 6.06 7.12 6.48 12.22 17.41"/><polygon class="cls-3" points="12.22 17.41 7.56 6.06 7.12 6.48 12.22 17.41"/><polygon class="cls-2" points="12.22 17.41 7.12 6.48 6.7 6.89 12.22 17.41"/><polygon class="cls-3" points="12.22 17.41 7.12 6.48 6.7 6.89 12.22 17.41"/><polygon class="cls-2" points="12.22 17.41 6.7 6.89 6.28 7.34 12.22 17.41"/><polygon class="cls-3" points="12.22 17.41 6.7 6.89 6.28 7.34 12.22 17.41"/><polygon class="cls-2" points="12.22 17.41 6.28 7.34 5.89 7.78 12.22 17.41"/><polygon class="cls-3" points="12.22 17.41 6.28 7.34 5.89 7.78 12.22 17.41"/><polygon class="cls-2" points="12.22 17.41 5.89 7.78 5.5 8.24 12.22 17.41"/><polygon class="cls-3" points="12.22 17.41 5.89 7.78 5.5 8.24 12.22 17.41"/><polygon class="cls-2" points="12.22 17.41 5.5 8.24 5.15 8.73 12.22 17.41"/><polygon class="cls-3" points="12.22 17.41 5.5 8.24 5.15 8.73 12.22 17.41"/><polygon class="cls-2" points="12.22 17.41 5.15 8.73 4.81 9.22 12.22 17.41"/><polygon class="cls-3" points="12.22 17.41 5.15 8.73 4.81 9.22 12.22 17.41"/><polygon class="cls-2" points="12.22 17.41 4.81 9.22 4.49 9.74 12.22 17.41"/><polygon class="cls-3" points="12.22 17.41 4.81 9.22 4.49 9.74 12.22 17.41"/><polygon class="cls-2" points="12.22 17.41 4.49 9.74 4.2 10.25 12.22 17.41"/><polygon class="cls-3" points="12.22 17.41 4.49 9.74 4.2 10.25 12.22 17.41"/><polygon class="cls-2" points="12.22 17.41 4.2 10.25 3.9 10.79 12.22 17.41"/><polygon class="cls-3" points="12.22 17.41 4.2 10.25 3.9 10.79 12.22 17.41"/><polygon class="cls-2" points="12.22 17.41 3.9 10.79 3.66 11.36 12.22 17.41"/><polygon class="cls-3" points="12.22 17.41 3.9 10.79 3.66 11.36 12.22 17.41"/><polygon class="cls-2" points="12.22 17.41 3.66 11.36 3.41 11.9 12.22 17.41"/><polygon class="cls-3" points="12.22 17.41 3.66 11.36 3.41 11.9 12.22 17.41"/><polygon class="cls-2" points="12.22 17.41 3.41 11.9 3.22 12.46 12.22 17.41"/><polygon class="cls-3" points="12.22 17.41 3.41 11.9 3.22 12.46 12.22 17.41"/><polygon class="cls-2" points="12.22 17.41 3.22 12.46 3.02 13.05 12.22 17.41"/><polygon class="cls-3" points="12.22 17.41 3.22 12.46 3.02 13.05 12.22 17.41"/><polygon class="cls-2" points="12.22 17.41 3.02 13.05 2.85 13.61 12.22 17.41"/><polygon class="cls-3" points="12.22 17.41 3.02 13.05 2.85 13.61 12.22 17.41"/><polygon class="cls-2" points="12.22 17.41 2.85 13.61 2.73 14.2 12.22 17.41"/><polygon class="cls-3" points="12.22 17.41 2.85 13.61 2.73 14.2 12.22 17.41"/><polygon class="cls-2" points="12.22 17.41 2.73 14.2 2.6 14.79 12.22 17.41"/><polygon class="cls-3" points="12.22 17.41 2.73 14.2 2.6 14.79 12.22 17.41"/><polygon class="cls-2" points="12.22 17.41 2.6 14.79 2.51 15.38 12.22 17.41"/><polygon class="cls-3" points="12.22 17.41 2.6 14.79 2.51 15.38 12.22 17.41"/><polygon class="cls-2" points="12.22 17.41 2.51 15.38 2.43 15.99 12.22 17.41"/><polygon class="cls-3" points="12.22 17.41 2.51 15.38 2.43 15.99 12.22 17.41"/><polygon class="cls-2" points="12.22 17.41 2.43 15.99 2.38 16.56 12.22 17.41"/><polygon class="cls-3" points="12.22 17.41 2.43 15.99 2.38 16.56 12.22 17.41"/><polygon class="cls-2" points="12.22 17.41 2.38 16.56 2.36 17.17 12.22 17.41"/><polygon class="cls-3" points="12.22 17.41 2.38 16.56 2.36 17.17 12.22 17.41"/><polygon class="cls-2" points="12.22 17.41 2.36 17.17 2.36 17.76 12.22 17.41"/><polygon class="cls-3" points="12.22 17.41 2.36 17.17 2.36 17.76 12.22 17.41"/><polygon class="cls-2" points="12.22 17.41 2.36 17.76 2.38 18.37 12.22 17.41"/><polygon class="cls-3" points="12.22 17.41 2.36 17.76 2.38 18.37 12.22 17.41"/><polygon class="cls-2" points="12.22 17.41 2.38 18.37 2.43 18.96 12.22 17.41"/><polygon class="cls-3" points="12.22 17.41 2.38 18.37 2.43 18.96 12.22 17.41"/><polygon class="cls-2" points="12.22 17.41 2.43 18.96 2.51 19.57 12.22 17.41"/><polygon class="cls-3" points="12.22 17.41 2.43 18.96 2.51 19.57 12.22 17.41"/><polygon class="cls-2" points="12.22 17.41 2.51 19.57 2.6 20.16 12.22 17.41"/><polygon class="cls-3" points="12.22 17.41 2.51 19.57 2.6 20.16 12.22 17.41"/><polygon class="cls-2" points="12.22 17.41 2.6 20.16 2.73 20.75 12.22 17.41"/><polygon class="cls-3" points="12.22 17.41 2.6 20.16 2.73 20.75 12.22 17.41"/><polygon class="cls-2" points="12.22 17.41 2.73 20.75 2.87 21.34 12.22 17.41"/><polygon class="cls-3" points="12.22 17.41 2.73 20.75 2.87 21.34 12.22 17.41"/><polygon class="cls-2" points="12.22 17.41 2.87 21.34 3.05 21.9 12.22 17.41"/><polygon class="cls-3" points="12.22 17.41 2.87 21.34 3.05 21.9 12.22 17.41"/><polygon class="cls-2" points="12.22 17.41 3.05 21.9 3.24 22.49 12.22 17.41"/><polygon class="cls-3" points="12.22 17.41 3.05 21.9 3.24 22.49 12.22 17.41"/><polygon class="cls-2" points="12.22 17.41 3.24 22.49 3.46 23.05 12.22 17.41"/><polygon class="cls-3" points="12.22 17.41 3.24 22.49 3.46 23.05 12.22 17.41"/><polygon class="cls-2" points="12.22 17.41 3.46 23.05 3.68 23.59 12.22 17.41"/><polygon class="cls-3" points="12.22 17.41 3.46 23.05 3.68 23.59 12.22 17.41"/><polygon class="cls-2" points="12.22 17.41 3.68 23.59 3.95 24.16 12.22 17.41"/><polygon class="cls-3" points="12.22 17.41 3.68 23.59 3.95 24.16 12.22 17.41"/><polygon class="cls-2" points="12.22 17.41 3.95 24.16 4.22 24.67 12.22 17.41"/><polygon class="cls-3" points="12.22 17.41 3.95 24.16 4.22 24.67 12.22 17.41"/><polygon class="cls-2" points="12.22 17.41 4.22 24.67 4.52 25.21 12.22 17.41"/><polygon class="cls-3" points="12.22 17.41 4.22 24.67 4.52 25.21 12.22 17.41"/><polygon class="cls-2" points="12.22 17.41 4.52 25.21 4.86 25.7 12.22 17.41"/><polygon class="cls-3" points="12.22 17.41 4.52 25.21 4.86 25.7 12.22 17.41"/><polygon class="cls-2" points="12.22 17.41 4.86 25.7 5.18 26.22 12.22 17.41"/><polygon class="cls-3" points="12.22 17.41 4.86 25.7 5.18 26.22 12.22 17.41"/><polygon class="cls-2" points="12.22 17.41 5.18 26.22 5.55 26.68 12.22 17.41"/><polygon class="cls-3" points="12.22 17.41 5.18 26.22 5.55 26.68 12.22 17.41"/><polygon class="cls-2" points="12.22 17.41 5.55 26.68 5.94 27.15 12.22 17.41"/><polygon class="cls-3" points="12.22 17.41 5.55 26.68 5.94 27.15 12.22 17.41"/><polygon class="cls-2" points="12.22 17.41 5.94 27.15 6.33 27.61 12.22 17.41"/><polygon class="cls-3" points="12.22 17.41 5.94 27.15 6.33 27.61 12.22 17.41"/><polygon class="cls-2" points="12.22 17.41 6.33 27.61 6.75 28.05 12.22 17.41"/><polygon class="cls-3" points="12.22 17.41 6.33 27.61 6.75 28.05 12.22 17.41"/><polygon class="cls-2" points="12.22 17.41 6.75 28.05 7.19 28.47 12.22 17.41"/><polygon class="cls-3" points="12.22 17.41 6.75 28.05 7.19 28.47 12.22 17.41"/><polygon class="cls-2" points="12.22 17.41 7.19 28.47 7.63 28.86 12.22 17.41"/><polygon class="cls-3" points="12.22 17.41 7.19 28.47 7.63 28.86 12.22 17.41"/><polygon class="cls-2" points="12.22 17.41 7.63 28.86 8.1 29.26 12.22 17.41"/><polygon class="cls-3" points="12.22 17.41 7.63 28.86 8.1 29.26 12.22 17.41"/><polygon class="cls-2" points="12.22 17.41 8.1 29.26 8.56 29.6 12.22 17.41"/><polygon class="cls-3" points="12.22 17.41 8.1 29.26 8.56 29.6 12.22 17.41"/><polygon class="cls-2" points="12.22 17.41 8.56 29.6 9.08 29.94 12.22 17.41"/><polygon class="cls-3" points="12.22 17.41 8.56 29.6 9.08 29.94 12.22 17.41"/><polygon class="cls-2" points="12.22 17.41 9.08 29.94 9.57 30.29 12.22 17.41"/><polygon class="cls-3" points="12.22 17.41 9.08 29.94 9.57 30.29 12.22 17.41"/><polygon class="cls-2" points="12.22 17.41 9.57 30.29 10.11 30.58 12.22 17.41"/><polygon class="cls-3" points="12.22 17.41 9.57 30.29 10.11 30.58 12.22 17.41"/><polygon class="cls-2" points="12.22 17.41 10.11 30.58 10.62 30.88 12.22 17.41"/><polygon class="cls-3" points="12.22 17.41 10.11 30.58 10.62 30.88 12.22 17.41"/><polygon class="cls-2" points="12.22 17.41 10.62 30.88 11.16 31.12 12.22 17.41"/><polygon class="cls-3" points="12.22 17.41 10.62 30.88 11.16 31.12 12.22 17.41"/><polygon class="cls-2" points="12.22 17.41 11.16 31.12 11.73 31.36 12.22 17.41"/><polygon class="cls-3" points="12.22 17.41 11.16 31.12 11.73 31.36 12.22 17.41"/><polygon class="cls-2" points="12.22 17.41 11.73 31.36 12.22 31.56 12.22 17.41"/><polygon class="cls-3" points="12.22 17.41 11.73 31.36 12.22 31.56 12.22 17.41"/><rect class="cls-6" x="12.22" y="3.32" width="10.42" height="8.92"/><rect class="cls-5" x="12.22" y="3.32" width="10.42" height="8.92"/><rect class="cls-6" x="12.22" y="22.64" width="10.42" height="8.92"/><rect class="cls-5" x="12.22" y="22.64" width="10.42" height="8.92"/><path d="M156.66,408.33h17.17v8H160v8a12.55,12.55,0,0,1-5.53,10.47L152.3,432a9.76,9.76,0,0,0,2.12-2,9.35,9.35,0,0,0,1.88-3.05l-7.17,3.53a.94.94,0,0,1-.24.7.49.49,0,0,1-.47,0,1.25,1.25,0,0,1-.47-.59l-1.17-3.29,3.88-1.41V417h-2.94V414h2.94v-6h2.82c.94.08,1.1.39.47.94V414h2.35V417H154v7.64l2.23-.94.48,1.77Zm3.29,2.83v2.35h10.58v-2.35Zm5.53,19.52V425h-4.71V418.1h2.59c.94.07,1.1.39.47.94v3.17h1.65v-5.53h2.58c.94.08,1.1.4.47.95v4.58h1.77V418h2.59c.94.08,1.09.39.47.94V425h-4.83v5.64h2.94v-4.82h2.59c.94.08,1.1.39.47.94v7.76h-3.06V433.5H163V435H160v-9.17h2.59c.94.08,1.09.39.47.94v3.88Z" transform="translate(-102.59 -403.84)"/><path d="M203.64,433.27h-3.77v-1.18H184.46v1.53H180.7V410h22.94Zm-19.18-20v6h5.77v-6Zm0,9.3v6.23h5.77v-6.23Zm9.53-9.3v6h5.88v-6Zm0,9.3v6.23h5.88v-6.23Z" transform="translate(-102.59 -403.84)"/><path d="M218.74,410.45c.39.32.51.59.36.82a.53.53,0,0,1-.59.12l-2.83,5.77h3.53v2.11a32.5,32.5,0,0,1-.23,3.88,16.83,16.83,0,0,1-1.41,5.65,7.92,7.92,0,0,0,5.17,2.12h14.59l-.71,3.29H222.15a8.39,8.39,0,0,1-1.41-.12,9.34,9.34,0,0,1-4.94-2.59,7.76,7.76,0,0,1-.82.94,18.63,18.63,0,0,1-3.53,2.83l-2.12-2.59a20.85,20.85,0,0,0,4.36-3.65,27,27,0,0,1-3.18-6.23l2.94-.59a16.52,16.52,0,0,0,1.88,3.77,36.92,36.92,0,0,0,.83-5.77h-1.89l-1.05,1.65-2.83-1.41,4.47-8.24h-4.59v-3h5.53l.59-.59Zm9.65-2.35V410h6.11v4h2.36v2.82H234.5v4h-6.11v.94h6.35v2.59h-6.35v1.29h7.76v2.83h-7.76v2.11h-3.06v-2.11h-6.59v-2.83h6.59v-1.29h-5.06v-2.59h5.06v-.94h-4.94V418h4.94V416.8h-7.06V414h7.06V412.8h-4.94V410h4.94v-2.82h2.59C228.86,407.24,229,407.55,228.39,408.1Zm0,4.7V414h3.06V412.8Zm0,4V418h3.06V416.8Z" transform="translate(-102.59 -403.84)"/><path d="M251.85,415.27h-11.3v-3.06h11.3Zm11.4.12a.66.66,0,0,0,.12.47.68.68,0,0,0,.47.12h.35c.32.08.51-.16.59-.71l.24-1.64,3.29.82-.47,2.71c-.08.23-.16.47-.23.7a1.84,1.84,0,0,1-1.89,1.18H262.2a1.87,1.87,0,0,1-.59-.12,2.18,2.18,0,0,1-1.3-1.06,2.5,2.5,0,0,1-.35-1.29v-5.18H256.9v2.71a6.63,6.63,0,0,1-.23,1.76,7.28,7.28,0,0,1-3.18,4.35h10l.47-.47,1.76,1.65c.55.47.51.78-.11.94a32.73,32.73,0,0,1-2.12,4.59,9.5,9.5,0,0,1-1.77,2.11,10.48,10.48,0,0,0,2.36,1.18,35.62,35.62,0,0,0,4.58,1.29L267.49,435a22.28,22.28,0,0,1-3.3-1.06,19.63,19.63,0,0,1-4.7-2.7,12.6,12.6,0,0,1-1.06.94,28.91,28.91,0,0,1-6,3.29l-1.17-2.23v1.29H248.2v-.47h-3.65v1.06H241.5V424.8h9.76v7.29a12.33,12.33,0,0,0,2-.7,19.68,19.68,0,0,0,3.88-2.24,15.1,15.1,0,0,1-3.06-5.88h-1.65v-2.94l-1.76-2a7,7,0,0,0,1.65-1.41,5.17,5.17,0,0,0,1.29-3.41v-5.18h9.64ZM250.55,411h-8.47V408h8.47Zm0,8.23h-8.47v-2.82h8.47Zm0,4.35h-8.47V420.8h8.47Zm-6,4v3.65h3.65v-3.65Zm12.59-4.35a4.49,4.49,0,0,0,.35.94,9.5,9.5,0,0,0,1.88,2.94,15.25,15.25,0,0,0,2.35-3.88Z" transform="translate(-102.59 -403.84)"/><path d="M279.07,408.22v4.94h3.29v1.76a11,11,0,0,0,.82-1.29,22.17,22.17,0,0,0,1.65-4.36l2.59,1.06a1.54,1.54,0,0,1,.59.36.44.44,0,0,1,0,.7.69.69,0,0,1-.48.12c-.15.39-.31.78-.47,1.18h1.3v-5.41h2.82c.94.07,1.1.39.47.94v4.47h5.41V416h-5.41v2.94h7.41v3.29h-6.94a14.67,14.67,0,0,0,1.65,2.24,20.78,20.78,0,0,0,6.23,4.7l-1.88,3.41a20.07,20.07,0,0,1-3.88-3.06,14.66,14.66,0,0,1-2.59-3.05v8.82h-3.29V426.8a16.2,16.2,0,0,1-2.82,3.53,26.4,26.4,0,0,1-3.89,3.29l-1.88-2.94a36.23,36.23,0,0,0,5.77-5.06,12.15,12.15,0,0,0,2.35-3.41h-5.53l.94.94-2.47,2.59a13.17,13.17,0,0,0-1.76-1.88v11.29h-3.3V424.92a22,22,0,0,1-2.7,4.11L271,426.09c.55-.7,1.06-1.37,1.53-2a15.9,15.9,0,0,0,3.06-7.64h-3.77v-3.29h4v-5.88h2.83C279.54,407.35,279.69,407.67,279.07,408.22Zm6.58,7.76c-.63,1-1.25,2-1.88,2.82l-2.7-1.76a3.29,3.29,0,0,1,.47-.59h-2.47v3.06c.86.63,1.72,1.29,2.58,2v-2.59h6.71V416Z" transform="translate(-102.59 -403.84)"/><path d="M321.93,408.22a1.38,1.38,0,0,1-.47.47v4.11h3.41a12.94,12.94,0,0,0-3.06-2.35l2.36-2.12a13.54,13.54,0,0,1,3.76,2.59l-2,1.88h3.76v3.53h-8.11a58.43,58.43,0,0,0,.7,7.06,13.73,13.73,0,0,0,2.83,6,2.57,2.57,0,0,0,.7.7c.31.24.51-.07.59-.94l.24-2,3.52,1.53-.35,2.35a6.59,6.59,0,0,1-.35,1.41,3.18,3.18,0,0,1-1.29,1.65,3.6,3.6,0,0,1-4-.59,14.69,14.69,0,0,1-4.47-6.35,35.69,35.69,0,0,1-1.65-10.58H303.7V413h14.23v-5.41H321C321.77,407.63,322.09,407.82,321.93,408.22Zm-5.06,14.46h-4.11v5.41l6.23-.94.35,3.18-13.64,2.59c-.08.39-.2.62-.35.7a.58.58,0,0,1-.59-.12,1.84,1.84,0,0,1-.47-1.06l-.59-3.17,5.76-.71v-5.88H305v-3.06h11.88Z" transform="translate(-102.59 -403.84)"/><path d="M349.51,408.92a11.46,11.46,0,0,0,2.23,2.71,20.2,20.2,0,0,0,9.88,4.82L360,420a13.72,13.72,0,0,1-5.05-2.12v2.24H340.68v-1.89a26.9,26.9,0,0,1-5.64,2.71l-1.76-3.41a20.86,20.86,0,0,0,6.82-3.06,15.37,15.37,0,0,0,5.76-7.06l3.18.36C350.29,408.14,350.45,408.53,349.51,408.92ZM360,425.39h-7.88a45.62,45.62,0,0,1,8,7.53l-2.94,2c-.71-.86-1.45-1.68-2.23-2.47l-16.71,1.89a1.1,1.1,0,0,1-.47.7.72.72,0,0,1-.58,0c-.32-.08-.55-.43-.71-1.06l-.94-3.29,5.17-.23a34.36,34.36,0,0,0,2.71-5.06h-8v-3.53H360Zm-17.17-8.82h9.88a24.59,24.59,0,0,1-5.06-5.18A32.12,32.12,0,0,1,342.8,416.57Zm4.47,8.82q-1.29,2.46-2.82,4.82l7.64-.59a34.17,34.17,0,0,0-2.82-2.47l2.47-1.76Z" transform="translate(-102.59 -403.84)"/><path d="M373,408.45v4.12h2.24l.47-.47,2,2c.62.63.55.9-.24.82a21.44,21.44,0,0,1-3.76,5.53,52.37,52.37,0,0,1,4.94,2.7l-1.77,3.06a18.64,18.64,0,0,0-3.41-2.35V435h-3.29V424.09q-1.77,1.43-3.88,2.83l-1.65-3.3a18.53,18.53,0,0,0,3.77-2.35,17.19,17.19,0,0,0,4.94-5.64h-7.65v-3.06h4v-5.06h2.82C373.43,407.59,373.59,407.9,373,408.45Zm13.76.35a1.16,1.16,0,0,1-.47.47v6.12h4.83v3.53h-4.83v11.29h6.24v3.53H376v-3.53h6.47V418.92H377.9v-3.53h4.59v-7.17h3.29C386.57,408.22,386.88,408.41,386.72,408.8Z" transform="translate(-102.59 -403.84)"/></svg>