<?xml version="1.0" encoding="UTF-8"?><svg id="_レイヤー_1" xmlns="http://www.w3.org/2000/svg" viewBox="0 0 360 288"><rect width="360" height="288" style="fill:none;"/><path d="M137.28,98.81c0-4.91,2.45-7.73,5.97-7.73s6,2.82,6,7.73-2.49,7.83-6,7.83-5.97-2.89-5.97-7.83ZM145.8,98.81c0-3.62-1.13-4.98-2.55-4.98s-2.52,1.36-2.52,4.98,1.09,5.08,2.52,5.08,2.55-1.46,2.55-5.08ZM157.41,91.08h2.89l-13.37,25.48h-2.85l13.34-25.48ZM155.12,108.73c0-4.94,2.49-7.76,5.97-7.76s6,2.82,6,7.76-2.52,7.83-6,7.83-5.97-2.92-5.97-7.83ZM163.65,108.73c0-3.62-1.13-5.01-2.55-5.01s-2.55,1.39-2.55,5.01,1.13,5.04,2.55,5.04,2.55-1.43,2.55-5.04Z" style="fill:#333;"/><path d="M61.53,68.26c-1.36-1.16-3.3-1.74-5.85-1.74-3.82,0-6.62,1.53-8.42,4.6-1.8,3.07-2.72,8.06-2.78,14.97,1.33-2.21,3.26-3.94,5.81-5.18,2.54-1.24,5.31-1.87,8.29-1.87,3.59,0,6.77.77,9.54,2.32,2.76,1.55,4.92,3.8,6.47,6.76,1.55,2.96,2.32,6.51,2.32,10.66,0,3.93-.79,7.42-2.36,10.49-1.58,3.07-3.89,5.46-6.93,7.17-3.04,1.71-6.66,2.57-10.87,2.57-5.75,0-10.27-1.27-13.56-3.82-3.29-2.54-5.59-6.1-6.88-10.66-1.3-4.56-1.95-10.19-1.95-16.88,0-10.12,1.74-17.76,5.23-22.93,3.48-5.17,8.98-7.75,16.51-7.75,5.81,0,10.31,1.58,13.52,4.73,3.21,3.15,5.06,7.08,5.56,11.78h-10.78c-.55-2.32-1.51-4.06-2.86-5.23ZM48.55,91.15c-1.99,1.71-2.99,4.2-2.99,7.46s.93,5.83,2.78,7.71c1.85,1.88,4.46,2.82,7.84,2.82,2.99,0,5.35-.91,7.09-2.74,1.74-1.82,2.61-4.28,2.61-7.38s-.84-5.75-2.53-7.63c-1.69-1.88-4.16-2.82-7.42-2.82-2.93,0-5.39.86-7.38,2.57Z" style="fill:#333;"/><path d="M85.63,107.07v-9.12l27.12-38.82h13.52v37.82h7.3v10.12h-7.3v11.78h-11.61v-11.78h-29.03ZM115.4,71.58l-17,25.38h17v-25.38Z" style="fill:#333;"/><path d="M69.14,31.22c.69.48,2.28,1.75,2.73,2.09l-1.32,1.63c-.31-.38-.84-.96-1.4-1.5v4.09h-2.21v-3.86c-.75,1.07-1.61,2.03-2.44,2.71-.35-.5-1-1.25-1.48-1.61,1.25-.83,2.57-2.27,3.46-3.71h-2.92v-1.92h3.38v-1.48h-3.44v-1.88h1.77c-.08-.63-.31-1.48-.58-2.11l1.17-.27h-2.15v-1.86h3.23v-1.75h2.21v1.75h3.19v1.86h-1.98l1.11.21c-.35.83-.65,1.59-.92,2.17h1.94v1.88h-3.34v1.48h3.17v1.92h-3.17v.15ZM66.49,23.41c.33.65.58,1.54.65,2.11l-.96.27h3.76l-1.27-.27c.25-.58.56-1.46.71-2.11h-2.9ZM81.2,28.07h-1.82v9.39h-2.21v-9.39h-1.96c-.02,2.86-.42,6.91-2.96,9.54-.29-.5-1.11-1.29-1.63-1.55,2.21-2.34,2.44-5.61,2.44-8.25v-6.66l1.34.38c1.82-.44,3.71-1.06,4.88-1.69l1.82,1.67c-1.69.75-3.88,1.34-5.89,1.77v2.69h5.99v2.11Z" style="fill:#333;"/><path d="M100.09,33.37h-7.54v4.18h-2.36v-4.18h-7.33v-2.19h7.33v-1.21h1.38c-.44-.4-1-.86-1.34-1.07,1.96-1.04,3.46-2.75,4.09-4.88h-6.81l1.82.42c-.19.56-.4,1.11-.67,1.63.81.52,1.73,1.17,2.21,1.61l-1.36,1.59c-.38-.4-1.11-.98-1.82-1.5-.83,1.23-1.8,2.27-2.86,3.05-.4-.42-1.36-1.19-1.9-1.55,1.86-1.11,3.34-3.03,4.05-5.26h-3.59v-2.17h6.81v-2.19h2.36v2.19h6.99v2.17h-4.93l2.04.42c-.21.65-.48,1.27-.77,1.84,1.31.83,2.92,1.92,3.76,2.71l-1.61,1.73c-.71-.73-2.07-1.77-3.32-2.65-.65.79-1.36,1.48-2.15,2.03v1.07h7.54v2.19Z" style="fill:#333;"/><path d="M107.75,29.74c-.61.19-1.23.38-1.84.56v4.86c0,1.06-.17,1.63-.75,2-.6.36-1.4.44-2.67.42-.06-.56-.31-1.5-.58-2.11.69.04,1.36.04,1.59.02.23,0,.33-.08.33-.33v-4.24c-.63.19-1.27.36-1.82.52l-.5-2.19c.65-.13,1.46-.35,2.32-.56v-3.32h-2.02v-2.09h2.02v-3.61h2.07v3.61h1.75v2.09h-1.75v2.76l1.55-.44.29,2.05ZM115.83,31.16c1,1.52,2.53,2.96,4.07,3.76-.5.4-1.15,1.19-1.5,1.73-1.32-.86-2.63-2.25-3.67-3.76v4.55h-2.15v-4.65c-1.13,1.63-2.65,3.07-4.22,3.95-.36-.54-1.02-1.36-1.52-1.79,1.75-.79,3.46-2.23,4.53-3.8h-3.3v-1.98h4.51v-1.94h2.15v1.94h4.63v1.98h-3.53ZM119,21.56c-2.96.83-7.08,1.29-10.58,1.48-.08-.52-.36-1.34-.6-1.82,3.42-.23,7.31-.75,9.66-1.44l1.52,1.79ZM109.27,27.59c-.15-.96-.63-2.5-1.17-3.69l1.8-.46c.58,1.11,1.13,2.61,1.31,3.59l-1.94.56ZM112.55,26.86c-.02-.92-.35-2.38-.77-3.53l1.9-.36c.46,1.11.84,2.53.88,3.49l-2.02.4ZM115.14,27.26c.75-1.21,1.73-3.17,2.21-4.63l2.17.79c-.83,1.63-1.82,3.42-2.61,4.55l-1.77-.71Z" style="fill:#333;"/><path d="M137.51,34.86c0,1.23-.27,1.84-1.04,2.19-.79.38-1.96.42-3.69.4-.08-.61-.44-1.59-.73-2.19,1.08.06,2.34.04,2.69.04.36,0,.5-.12.5-.46v-2.88h-4.05v5.36h-2.3v-5.36h-3.92c-.35,2.09-1.04,4.2-2.42,5.7-.36-.42-1.29-1.21-1.8-1.48,2.09-2.3,2.27-5.72,2.27-8.41v-6.85h14.49v13.94ZM128.89,29.82v-2.36h-3.61v.35c0,.61-.02,1.31-.06,2.02h3.67ZM125.28,23.1v2.23h3.61v-2.23h-3.61ZM135.25,23.1h-4.05v2.23h4.05v-2.23ZM135.25,29.82v-2.36h-4.05v2.36h4.05Z" style="fill:#333;"/><path d="M301.52,98.81c0-4.91,2.46-7.73,5.97-7.73s6,2.82,6,7.73-2.49,7.83-6,7.83-5.97-2.89-5.97-7.83ZM310.05,98.81c0-3.62-1.13-4.98-2.55-4.98s-2.52,1.36-2.52,4.98,1.09,5.08,2.52,5.08,2.55-1.46,2.55-5.08ZM321.66,91.08h2.89l-13.37,25.48h-2.85l13.33-25.48ZM319.37,108.73c0-4.94,2.49-7.76,5.97-7.76s6,2.82,6,7.76-2.52,7.83-6,7.83-5.97-2.92-5.97-7.83ZM327.89,108.73c0-3.62-1.13-5.01-2.55-5.01s-2.55,1.39-2.55,5.01,1.13,5.04,2.55,5.04,2.55-1.43,2.55-5.04Z" style="fill:#333;"/><path d="M205.87,61.5c3.62-3.01,8.39-4.52,14.31-4.52,4.04,0,7.49.71,10.37,2.12,2.88,1.41,5.05,3.32,6.51,5.72,1.46,2.41,2.2,5.13,2.2,8.17,0,3.48-.9,6.43-2.7,8.83-1.8,2.41-3.94,4.02-6.43,4.85v.33c3.21,1,5.71,2.77,7.51,5.31,1.8,2.54,2.7,5.81,2.7,9.79,0,3.32-.76,6.28-2.28,8.88-1.52,2.6-3.76,4.63-6.72,6.1-2.96,1.47-6.51,2.2-10.66,2.2-6.25,0-11.33-1.58-15.26-4.73-3.93-3.15-6-7.8-6.22-13.93h11.28c.11,2.71,1.04,4.88,2.78,6.51,1.74,1.63,4.13,2.45,7.17,2.45,2.82,0,4.99-.79,6.51-2.36,1.52-1.58,2.28-3.61,2.28-6.1,0-3.32-1.05-5.69-3.15-7.13-2.1-1.44-5.36-2.16-9.79-2.16h-2.41v-9.54h2.41c7.85,0,11.78-2.63,11.78-7.88,0-2.38-.71-4.23-2.11-5.56-1.41-1.33-3.44-1.99-6.1-1.99s-4.6.71-6.01,2.11c-1.41,1.41-2.23,3.19-2.45,5.35h-11.36c.28-5.53,2.23-9.8,5.85-12.81Z" style="fill:#333;"/><path d="M278.03,68.26c-1.36-1.16-3.3-1.74-5.85-1.74-3.82,0-6.62,1.53-8.42,4.6s-2.72,8.06-2.78,14.97c1.33-2.21,3.26-3.94,5.81-5.18,2.54-1.24,5.31-1.87,8.29-1.87,3.59,0,6.77.77,9.54,2.32,2.76,1.55,4.92,3.8,6.47,6.76,1.55,2.96,2.32,6.51,2.32,10.66,0,3.93-.79,7.42-2.36,10.49s-3.89,5.46-6.93,7.17c-3.04,1.71-6.66,2.57-10.87,2.57-5.75,0-10.27-1.27-13.56-3.82-3.29-2.54-5.59-6.1-6.88-10.66-1.3-4.56-1.95-10.19-1.95-16.88,0-10.12,1.74-17.76,5.23-22.93,3.48-5.17,8.99-7.75,16.51-7.75,5.81,0,10.31,1.58,13.52,4.73,3.21,3.15,5.06,7.08,5.56,11.78h-10.78c-.55-2.32-1.51-4.06-2.86-5.23ZM265.05,91.15c-1.99,1.71-2.99,4.2-2.99,7.46s.93,5.83,2.78,7.71c1.85,1.88,4.46,2.82,7.84,2.82,2.99,0,5.35-.91,7.09-2.74,1.74-1.82,2.61-4.28,2.61-7.38s-.84-5.75-2.53-7.63c-1.69-1.88-4.16-2.82-7.42-2.82-2.93,0-5.39.86-7.38,2.57Z" style="fill:#333;"/><path d="M243.8,22.96v9.58h-2.4v-.96h-4.34v5.99h-2.42v-5.99h-4.32v1.06h-2.3v-9.67h6.62v-3.32h2.42v3.32h6.74ZM234.65,29.34v-4.13h-4.32v4.13h4.32ZM241.41,29.34v-4.13h-4.34v4.13h4.34Z" style="fill:#333;"/><path d="M250.74,33.12c.81,1.29,2.27,1.8,4.28,1.88,2.25.1,6.6.04,9.16-.15-.27.54-.61,1.65-.71,2.3-2.32.12-6.18.15-8.48.06-2.38-.1-3.97-.63-5.22-2.13-.83.75-1.65,1.5-2.67,2.3l-1.11-2.38c.77-.46,1.71-1.11,2.53-1.77v-4.05h-2.11v-2.09h4.34v6.03ZM249.42,24.52c-.56-.9-1.9-2.21-3.01-3.07l1.71-1.36c1.11.81,2.5,2.03,3.13,2.94l-1.82,1.5ZM253.98,24.75c-.65.42-1.32.81-2,1.13-.25-.58-.77-1.48-1.19-2,2.17-.88,4.34-2.67,5.39-4.22h2.25c1.48,1.79,3.59,3.32,5.72,4.05-.48.59-.98,1.46-1.32,2.11-.56-.27-1.15-.6-1.75-.98v1.27h-2.48v1.06h4.88v1.88h-4.88v3.32c0,.98-.15,1.5-.81,1.8-.65.31-1.52.33-2.71.33-.08-.58-.35-1.38-.59-1.92.65.04,1.4.04,1.59.04.25,0,.33-.08.33-.29v-3.28h-4.64v-1.88h4.64v-1.06h-2.44v-1.36ZM255.37,29.97c-.59,1.44-1.59,2.9-2.59,3.8-.38-.35-1.21-.86-1.69-1.13,1-.79,1.84-1.96,2.3-3.15l1.98.48ZM260.26,24.27c-1.11-.81-2.17-1.75-2.86-2.63-.67.88-1.63,1.8-2.75,2.63h5.61ZM261.12,29.39c.86,1.04,1.94,2.44,2.42,3.42l-1.92.94c-.42-.94-1.44-2.44-2.3-3.51l1.8-.84Z" style="fill:#333;"/><path d="M271.4,29.74c-.61.19-1.23.38-1.84.56v4.86c0,1.06-.17,1.63-.75,2-.59.36-1.4.44-2.67.42-.06-.56-.31-1.5-.58-2.11.69.04,1.36.04,1.59.02.23,0,.33-.08.33-.33v-4.24c-.63.19-1.27.36-1.82.52l-.5-2.19c.65-.13,1.46-.35,2.32-.56v-3.32h-2.02v-2.09h2.02v-3.61h2.07v3.61h1.75v2.09h-1.75v2.76l1.55-.44.29,2.05ZM279.48,31.16c1,1.52,2.53,2.96,4.07,3.76-.5.4-1.15,1.19-1.5,1.73-1.32-.86-2.63-2.25-3.67-3.76v4.55h-2.15v-4.65c-1.13,1.63-2.65,3.07-4.22,3.95-.36-.54-1.02-1.36-1.52-1.79,1.75-.79,3.46-2.23,4.53-3.8h-3.3v-1.98h4.51v-1.94h2.15v1.94h4.63v1.98h-3.53ZM282.65,21.56c-2.96.83-7.08,1.29-10.58,1.48-.08-.52-.36-1.34-.59-1.82,3.42-.23,7.31-.75,9.66-1.44l1.52,1.79ZM272.92,27.59c-.15-.96-.63-2.5-1.17-3.69l1.8-.46c.58,1.11,1.13,2.61,1.3,3.59l-1.94.56ZM276.2,26.86c-.02-.92-.35-2.38-.77-3.53l1.9-.36c.46,1.11.84,2.53.88,3.49l-2.02.4ZM278.79,27.26c.75-1.21,1.73-3.17,2.21-4.63l2.17.79c-.83,1.63-1.82,3.42-2.61,4.55l-1.77-.71Z" style="fill:#333;"/><path d="M301.16,34.86c0,1.23-.27,1.84-1.04,2.19-.79.38-1.96.42-3.69.4-.08-.61-.44-1.59-.73-2.19,1.07.06,2.34.04,2.69.04.37,0,.5-.12.5-.46v-2.88h-4.05v5.36h-2.3v-5.36h-3.92c-.34,2.09-1.04,4.2-2.42,5.7-.37-.42-1.29-1.21-1.8-1.48,2.09-2.3,2.26-5.72,2.26-8.41v-6.85h14.49v13.94ZM292.54,29.82v-2.36h-3.61v.35c0,.61-.02,1.31-.06,2.02h3.67ZM288.93,23.1v2.23h3.61v-2.23h-3.61ZM298.89,23.1h-4.05v2.23h4.05v-2.23ZM298.89,29.82v-2.36h-4.05v2.36h4.05Z" style="fill:#333;"/><path d="M137.28,248.15c0-4.91,2.45-7.73,5.97-7.73s6,2.82,6,7.73-2.49,7.83-6,7.83-5.97-2.89-5.97-7.83ZM145.8,248.15c0-3.62-1.13-4.98-2.55-4.98s-2.52,1.36-2.52,4.98,1.09,5.08,2.52,5.08,2.55-1.46,2.55-5.08ZM157.41,240.42h2.89l-13.37,25.48h-2.85l13.34-25.48ZM155.12,258.07c0-4.94,2.49-7.76,5.97-7.76s6,2.82,6,7.76-2.52,7.83-6,7.83-5.97-2.92-5.97-7.83ZM163.65,258.07c0-3.62-1.13-5.01-2.55-5.01s-2.55,1.39-2.55,5.01,1.13,5.04,2.55,5.04,2.55-1.43,2.55-5.04Z" style="fill:#333;"/><path d="M77.92,216.52l-22.06,51.67h-11.78l22.23-50.35h-28.37v-9.95h39.98v8.63Z" style="fill:#333;"/><path d="M90.89,210.84c3.62-3.01,8.39-4.52,14.31-4.52,4.04,0,7.49.71,10.37,2.12,2.87,1.41,5.04,3.32,6.51,5.72,1.46,2.41,2.2,5.13,2.2,8.17,0,3.48-.9,6.43-2.7,8.83-1.8,2.41-3.94,4.02-6.43,4.85v.33c3.21,1,5.71,2.77,7.51,5.31,1.8,2.54,2.7,5.81,2.7,9.79,0,3.32-.76,6.28-2.28,8.88-1.52,2.6-3.76,4.63-6.72,6.1-2.96,1.47-6.51,2.2-10.66,2.2-6.25,0-11.34-1.58-15.26-4.73-3.93-3.15-6-7.8-6.22-13.93h11.28c.11,2.71,1.04,4.88,2.78,6.51,1.74,1.63,4.13,2.45,7.17,2.45,2.82,0,4.99-.79,6.51-2.36,1.52-1.58,2.28-3.61,2.28-6.1,0-3.32-1.05-5.69-3.15-7.13-2.1-1.44-5.36-2.16-9.79-2.16h-2.41v-9.54h2.41c7.85,0,11.78-2.63,11.78-7.88,0-2.38-.71-4.23-2.12-5.56-1.41-1.33-3.44-1.99-6.1-1.99s-4.6.71-6.01,2.12-2.23,3.19-2.45,5.35h-11.36c.28-5.53,2.23-9.8,5.85-12.81Z" style="fill:#333;"/><path d="M74.52,178.85c1.67,2.13,4.28,4.17,6.83,5.28-.54.46-1.27,1.38-1.65,1.98-2.26-1.17-4.49-3.09-6.24-5.28v6.1h-2.44v-5.99c-1.75,2.11-3.99,3.97-6.24,5.14-.38-.58-1.13-1.5-1.69-1.98,2.57-1.09,5.18-3.13,6.87-5.26h-6.22v-2.26h7.27v-2.46h-5.84v-2.27h5.84v-2.86h2.44v2.86h6.01v2.27h-6.01v2.46h7.39v2.26h-6.33Z" style="fill:#333;"/><path d="M85.1,180.54c-.19,1.8-.6,3.72-1.15,4.95-.4-.25-1.25-.65-1.75-.83.56-1.13.86-2.84,1.02-4.45l1.88.33ZM99.86,170.46c-.69,2.04-1.77,3.67-3.13,4.97,1.15.65,2.48,1.15,3.94,1.46-.48.44-1.09,1.31-1.4,1.84-1.61-.44-3.05-1.07-4.28-1.92-1.31.86-2.78,1.52-4.38,2.02-.25-.52-.77-1.36-1.21-1.84.36.83.67,1.65.79,2.26l-1.61.73c-.06-.29-.13-.61-.25-.98l-.98.08v7.85h-1.98v-7.72l-2.78.17-.19-1.98,1.38-.06c.29-.36.6-.79.9-1.23-.56-.83-1.48-1.84-2.27-2.61l1.09-1.55c.13.12.29.25.44.38.54-1.06,1.08-2.32,1.4-3.34l1.98.73c-.69,1.3-1.46,2.78-2.15,3.86.25.27.46.54.65.77.65-1.08,1.27-2.17,1.71-3.11l1.86.86c-1.06,1.67-2.38,3.61-3.59,5.16l1.84-.08c-.21-.48-.44-.96-.67-1.38l1.52-.63c.31.54.61,1.15.88,1.77,1.38-.36,2.67-.9,3.82-1.59-.9-.9-1.65-1.94-2.27-3.13l1.23-.4h-2.19v-1.96h7.95l.4-.1,1.54.69ZM89,180.06c.48,1.09.98,2.5,1.19,3.46l-1.69.61c-.17-.96-.67-2.44-1.11-3.57l1.61-.5ZM96.17,184.38h4.2v2h-10.85v-2h4.4v-2.25h-3.26v-2.01h3.26v-2.29h2.25v2.29h3.42v2.01h-3.42v2.25ZM93.05,171.82c.46.84,1.09,1.61,1.84,2.28.75-.67,1.38-1.44,1.88-2.28h-3.72Z" style="fill:#333;"/><path d="M101.48,185.2c.65-.98.88-2.59.96-4.22l1.27.25c-.1,1.75-.29,3.53-1.07,4.61l-1.15-.63ZM116.24,181.56c.77,1.55,1.98,2.84,3.59,3.53-.46.42-1.11,1.23-1.44,1.8-1.59-.83-2.76-2.26-3.59-4.05-.69,1.55-1.98,2.99-4.26,4.11-.23-.38-.71-.96-1.11-1.34-.08.25-.15.42-.25.54-.33.44-.67.61-1.15.67-.38.08-1,.1-1.69.06-.02-.54-.19-1.29-.46-1.77.5.06.92.08,1.17.08.23,0,.36-.06.52-.25.13-.19.23-.67.33-1.67l-.61.23c-.12-.67-.5-1.71-.86-2.48l.9-.31c.25.48.48,1.04.65,1.55.04-.58.08-1.29.12-2.11h-5.49v-10.46h7.06v1.84h-2.05v1.06h1.67v1.02c1.73-1.04,3.4-3.01,4.18-4.61h1.96c1.15,1.77,2.82,3.51,4.51,4.32-.4.54-.84,1.36-1.13,1.96-.42-.25-.84-.54-1.25-.88v1.06h-1.92v1.04h3.44v5.07h-2.82ZM104.85,181.29c.17,1.11.25,2.59.19,3.51l-1.04.13c.06-.96,0-2.42-.13-3.55l.98-.1ZM104.47,171.54v1.06h1.31v-1.06h-1.31ZM104.47,174.32v1.15h1.31v-1.15h-1.31ZM104.47,178.39h1.31v-1.19h-1.31v1.19ZM106.14,181.1c.31,1,.58,2.26.63,3.09l-1,.21c-.04-.83-.29-2.11-.6-3.11l.96-.19ZM110.02,178.39s0,.5-.02.75c-.13,3.17-.25,5.01-.46,6.03,1.98-1,3.01-2.26,3.53-3.61h-2.73v-5.07h3.26v-1.04h-1.96v-1.04c-.48.4-.96.79-1.48,1.09-.21-.5-.58-1.17-.9-1.65v.46h-1.67v1.15h1.67v1.73h-1.67v1.19h2.42ZM113.49,179.91c.1-.58.12-1.15.12-1.71v-.06h-1.4v1.77h1.29ZM116.76,173.71c-.9-.84-1.71-1.84-2.25-2.73-.5.86-1.25,1.84-2.11,2.73h4.36ZM115.62,178.14v.08c0,.56-.02,1.11-.08,1.69h1.57v-1.77h-1.5Z" style="fill:#333;"/><path d="M131.54,176.8c-.75.54-1.48,1.04-2.27,1.54h6.97v8.52h-2.38v-.5h-6.6v.58h-2.28v-6.28c-.96.42-1.96.84-2.94,1.21-.29-.5-.96-1.42-1.4-1.88,2.51-.79,4.93-1.88,7.14-3.19h-6.53v-2.02h6.16v-1.75h-4.51v-1.98h4.51v-2.07h2.26v2.07h4.17v.94c.73-.79,1.38-1.59,1.98-2.44l1.96,1c-1.09,1.52-2.38,2.94-3.78,4.22h4.45v2.02h-6.91ZM133.86,180.19h-6.6v1.23h6.6v-1.23ZM133.86,184.46v-1.31h-6.6v1.31h6.6ZM129.68,174.78h1.06c.73-.56,1.42-1.13,2.07-1.75h-3.13v1.75Z" style="fill:#333;"/><path d="M301.52,248.15c0-4.91,2.46-7.73,5.97-7.73s6,2.82,6,7.73-2.49,7.83-6,7.83-5.97-2.89-5.97-7.83ZM310.05,248.15c0-3.62-1.13-4.98-2.55-4.98s-2.52,1.36-2.52,4.98,1.09,5.08,2.52,5.08,2.55-1.46,2.55-5.08ZM321.66,240.42h2.89l-13.37,25.48h-2.85l13.33-25.48ZM319.37,258.07c0-4.94,2.49-7.76,5.97-7.76s6,2.82,6,7.76-2.52,7.83-6,7.83-5.97-2.92-5.97-7.83ZM327.89,258.07c0-3.62-1.13-5.01-2.55-5.01s-2.55,1.39-2.55,5.01,1.13,5.04,2.55,5.04,2.55-1.43,2.55-5.04Z" style="fill:#333;"/><path d="M208.36,255.09c5.31-4.42,9.54-8.11,12.69-11.07,3.15-2.96,5.78-6.04,7.88-9.25,2.1-3.21,3.15-6.36,3.15-9.46,0-2.82-.66-5.03-1.99-6.64-1.33-1.6-3.37-2.41-6.14-2.41s-4.89.93-6.39,2.78c-1.49,1.85-2.27,4.38-2.32,7.59h-11.28c.22-6.64,2.2-11.67,5.93-15.1,3.73-3.43,8.47-5.14,14.22-5.14,6.3,0,11.14,1.67,14.51,5.02,3.37,3.35,5.06,7.75,5.06,13.23,0,4.31-1.16,8.43-3.48,12.36-2.32,3.93-4.98,7.34-7.96,10.24-2.99,2.9-6.88,6.4-11.7,10.49h24.47v9.62h-40.97v-8.63l4.31-3.65Z" style="fill:#333;"/><path d="M290.8,216.52l-22.06,51.67h-11.78l22.23-50.35h-28.37v-9.95h39.98v8.63Z" style="fill:#333;"/><path d="M238.74,180.54c-.19,1.8-.59,3.72-1.15,4.95-.4-.25-1.25-.65-1.75-.83.56-1.13.86-2.84,1.02-4.45l1.88.33ZM253.5,170.46c-.69,2.04-1.77,3.67-3.13,4.97,1.15.65,2.48,1.15,3.93,1.46-.48.44-1.09,1.31-1.4,1.84-1.61-.44-3.05-1.07-4.28-1.92-1.31.86-2.78,1.52-4.38,2.02-.25-.52-.77-1.36-1.21-1.84.36.83.67,1.65.79,2.26l-1.61.73c-.06-.29-.13-.61-.25-.98l-.98.08v7.85h-1.98v-7.72l-2.78.17-.19-1.98,1.38-.06c.29-.36.59-.79.9-1.23-.56-.83-1.48-1.84-2.26-2.61l1.09-1.55c.13.12.29.25.44.38.54-1.06,1.07-2.32,1.4-3.34l1.98.73c-.69,1.3-1.46,2.78-2.15,3.86.25.27.46.54.65.77.65-1.08,1.27-2.17,1.71-3.11l1.86.86c-1.06,1.67-2.38,3.61-3.59,5.16l1.84-.08c-.21-.48-.44-.96-.67-1.38l1.52-.63c.31.54.61,1.15.88,1.77,1.38-.36,2.67-.9,3.82-1.59-.9-.9-1.65-1.94-2.27-3.13l1.23-.4h-2.19v-1.96h7.95l.4-.1,1.54.69ZM242.64,180.06c.48,1.09.98,2.5,1.19,3.46l-1.69.61c-.17-.96-.67-2.44-1.11-3.57l1.61-.5ZM249.82,184.38h4.2v2h-10.84v-2h4.4v-2.25h-3.26v-2.01h3.26v-2.29h2.25v2.29h3.42v2.01h-3.42v2.25ZM246.69,171.82c.46.84,1.09,1.61,1.84,2.28.75-.67,1.38-1.44,1.88-2.28h-3.72Z" style="fill:#333;"/><path d="M255.12,185.2c.65-.98.88-2.59.96-4.22l1.27.25c-.1,1.75-.29,3.53-1.08,4.61l-1.15-.63ZM269.88,181.56c.77,1.55,1.98,2.84,3.59,3.53-.46.42-1.11,1.23-1.44,1.8-1.59-.83-2.76-2.26-3.59-4.05-.69,1.55-1.98,2.99-4.26,4.11-.23-.38-.71-.96-1.11-1.34-.08.25-.15.42-.25.54-.33.44-.67.61-1.15.67-.38.08-1,.1-1.69.06-.02-.54-.19-1.29-.46-1.77.5.06.92.08,1.17.08.23,0,.36-.06.52-.25.13-.19.23-.67.33-1.67l-.61.23c-.12-.67-.5-1.71-.86-2.48l.9-.31c.25.48.48,1.04.65,1.55.04-.58.08-1.29.12-2.11h-5.49v-10.46h7.06v1.84h-2.05v1.06h1.67v1.02c1.73-1.04,3.4-3.01,4.18-4.61h1.96c1.15,1.77,2.82,3.51,4.51,4.32-.4.54-.84,1.36-1.13,1.96-.42-.25-.84-.54-1.25-.88v1.06h-1.92v1.04h3.44v5.07h-2.82ZM258.5,181.29c.17,1.11.25,2.59.19,3.51l-1.04.13c.06-.96,0-2.42-.13-3.55l.98-.1ZM258.12,171.54v1.06h1.3v-1.06h-1.3ZM258.12,174.32v1.15h1.3v-1.15h-1.3ZM258.12,178.39h1.3v-1.19h-1.3v1.19ZM259.79,181.1c.31,1,.58,2.26.63,3.09l-1,.21c-.04-.83-.29-2.11-.59-3.11l.96-.19ZM263.66,178.39s0,.5-.02.75c-.13,3.17-.25,5.01-.46,6.03,1.98-1,3.01-2.26,3.53-3.61h-2.73v-5.07h3.26v-1.04h-1.96v-1.04c-.48.4-.96.79-1.48,1.09-.21-.5-.58-1.17-.9-1.65v.46h-1.67v1.15h1.67v1.73h-1.67v1.19h2.42ZM267.14,179.91c.1-.58.12-1.15.12-1.71v-.06h-1.4v1.77h1.29ZM270.4,173.71c-.9-.84-1.71-1.84-2.25-2.73-.5.86-1.25,1.84-2.11,2.73h4.36ZM269.27,178.14v.08c0,.56-.02,1.11-.08,1.69h1.57v-1.77h-1.5Z" style="fill:#333;"/><path d="M285.19,176.8c-.75.54-1.48,1.04-2.27,1.54h6.97v8.52h-2.38v-.5h-6.6v.58h-2.29v-6.28c-.96.42-1.96.84-2.94,1.21-.29-.5-.96-1.42-1.4-1.88,2.51-.79,4.93-1.88,7.14-3.19h-6.53v-2.02h6.16v-1.75h-4.51v-1.98h4.51v-2.07h2.26v2.07h4.17v.94c.73-.79,1.38-1.59,1.98-2.44l1.96,1c-1.09,1.52-2.38,2.94-3.78,4.22h4.45v2.02h-6.91ZM287.51,180.19h-6.6v1.23h6.6v-1.23ZM287.51,184.46v-1.31h-6.6v1.31h6.6ZM283.32,174.78h1.06c.73-.56,1.42-1.13,2.07-1.75h-3.13v1.75Z" style="fill:#333;"/><line x1="31.4" y1="147.03" x2="334.7" y2="147.03" style="fill:none; stroke:#333; stroke-miterlimit:10;"/></svg>