<svg id="レイヤー_1" data-name="レイヤー 1" xmlns="http://www.w3.org/2000/svg" viewBox="0 0 800 640"><defs><style>.cls-1{fill:none;}.cls-2{fill:#333;}</style></defs><rect class="cls-1" width="800" height="640"/><path class="cls-2" d="M206.81,205.13v88.55H194.24v-4.94H135.67v4.94h-12V205.13Zm-12.57,72.72V215.91H135.67v61.94Zm-3.46-15.34v9.6H139.53v-9.6h19.88V250.84H143.09V241h16.32v-9.3H140.62V221.36H189.2v10.29H170.3V241H187v9.89h-5.44a75.71,75.71,0,0,1,7.42,8.81l-5.14,2.86Zm-20.48,0h9.89a76.38,76.38,0,0,0-6.72-8.6l6-3.07h-9.2Z" transform="translate(-60.73 -148.05)"/><path class="cls-2" d="M309.32,278v11.58H219.67V278h38.19V243.52H226.1V231.84h31.76V201.47h12.67v30.37h32.26v11.68H270.53V278Z" transform="translate(-60.73 -148.05)"/><path class="cls-2" d="M387.58,245.5a73.48,73.48,0,0,1-15.14,23.15c9.6,6.83,22,11.48,37.2,13.85A53.9,53.9,0,0,0,402,293.68c-16.22-3.06-29-8.6-39-16.72-10.69,7.82-23.65,13.26-38.59,16.92A64.19,64.19,0,0,0,317,282.8c14.84-2.87,27.41-7.42,37.3-14.25a84.86,84.86,0,0,1-13.65-22.75L352,242.43a59.15,59.15,0,0,0,11.37,18.31,54.68,54.68,0,0,0,11.58-18.9Zm-32.16-15.83c-7,9.2-18.11,18.5-27.31,24.24a95.16,95.16,0,0,0-9.89-9.1c9.3-4.66,19.29-12.27,25-19.89ZM382,224.12H319.6V212.65H357V201.17h12.07v11.48H407v11.47H382.63c8.61,5.84,20.09,14.55,25.63,20.78L397.77,253c-4.95-6.33-16.23-15.54-25.13-22.07Z" transform="translate(-60.73 -148.05)"/><path class="cls-2" d="M440,271.22c3.85,6.63,10.68,9.4,20.78,9.8,11.77.49,35.22.2,48.77-.89a49,49,0,0,0-3.66,11.48c-12.17.59-33.14.79-45.21.29-11.88-.49-19.69-3.36-25.63-11-4.55,3.86-9.2,7.72-14.74,11.87L414.88,281a138.18,138.18,0,0,0,13.86-9V250.44H416.17V239.66H440ZM434.18,227c-3.07-4.74-10.49-11.57-16.53-16.12l8.12-7.52c6,4.15,13.65,10.48,17.21,15.23Zm25.33,50H448.43V226h22.16c-4.45-2.07-9.2-4.05-13.26-5.63L465,214c3.46,1.29,7.62,2.87,11.68,4.65a90.33,90.33,0,0,0,7.91-5.24H449.32v-8.91h45.41l2.28-.59,7,5.64a112.5,112.5,0,0,1-17.61,13.36c2.18,1.08,4.26,2.07,5.94,3.06h12v40.77c0,4.75-.89,7.22-4.06,8.81s-7.42,1.68-13.36,1.68a32.12,32.12,0,0,0-2.86-9.2c3.06.1,6.53.1,7.52.1,1.18-.1,1.48-.5,1.48-1.49v-4.55H481.37v14.45H470.89V262.12H459.51Zm0-42.44v5.34h11.38v-5.34Zm11.38,19.09v-5.54H459.51v5.54Zm22.16-19.09H481.37v5.34h11.68Zm0,19.09v-5.54H481.37v5.54Z" transform="translate(-60.73 -148.05)"/><path class="cls-2" d="M589.71,224.42c-6.72,7.52-16,13.46-26.61,18h31.66v50.86h-12v-2.87H546.28v3.36H534.9V251.33c-4.45,1-8.81,1.89-13.26,2.58a75.81,75.81,0,0,0-7.22-10.19c17.31-2.08,34.23-5.94,47.29-12.27l-.29.1c-4.26,1.58-9.6,1.68-16.73,1.68A39.06,39.06,0,0,0,540,223.14c5.14.29,11.37.29,13.06.19s2.17-.29,2.17-1.58V201.27h11.88v20.88c0,4-.7,6.43-2.87,8a50.6,50.6,0,0,0,14.25-10.78Zm-42.05-15.14c-5.54,8.91-14.64,17.42-22.75,22.66-2.18-2.08-6.63-6.23-9.21-8.21,8-4.16,16-11.08,20.59-18.11Zm35.13,42H546.28v4.65h36.51Zm-36.51,17.61h36.51V263.8H546.28Zm36.51,12.86v-4.85H546.28v4.85Zm3.07-77c7.52,5.25,16.72,13,21.17,18.6l-10.19,6.43c-3.86-5.54-12.86-13.65-20.48-19.29Z" transform="translate(-60.73 -148.05)"/><path class="cls-2" d="M296.86,419.38v10.13H224.78V419.38Zm-4.49-54.48v10H229.43v-10Zm-6.56,26.49v10.05H235.15V391.39Z" transform="translate(-60.73 -148.05)"/><path class="cls-2" d="M381.73,424.36v7.81H306.41v-7.81h32.22V420H312.47v-7.39h26.16v-3.74H315.21V382.51h23.42v-3.16H306.9v-7.72h31.73V368c-8,.34-16.11.58-23.59.67a26,26,0,0,0-2-7.56c19.35-.41,41.85-1.83,55.89-4.15l4.56,7.64c-7.22,1.16-15.86,2.07-24.91,2.74v4.32h32.55v7.72H348.59v3.16h24.67v26.32H348.59v3.74h27.74V420H348.59v4.4Zm-56.89-31.64h13.79V389H324.84Zm13.79,9.63v-3.73H324.84v3.73Zm10-13.37v3.74h14.53V389Zm14.53,9.64H348.59v3.73h14.53Z" transform="translate(-60.73 -148.05)"/><path class="cls-2" d="M416.77,417.72a82.56,82.56,0,0,1-19.93,16.19,83.32,83.32,0,0,0-8-6.65c6.64-3.32,14-8.8,17.68-13.36Zm15.53-6.15v22.92H421.92V411.57H403.4v1.75h-10v-48.5h10v38h61v8.72Zm23.25-13H409.13V359.84h46.42Zm-9.72-32h-27.4v4.16h27.4Zm0,10.47h-27.4v4.31h27.4Zm0,10.54h-27.4v4.24h27.4Zm.17,25.66c6.14,4.15,14.95,10.38,19.35,14.62L456.21,434c-3.9-4.07-12.37-10.88-18.68-15.44Z" transform="translate(-60.73 -148.05)"/><path class="cls-2" d="M472.79,567.27a33.09,33.09,0,0,0,6.89,2.58c-1,9.63-3.57,12.62-13.12,12.62H449.78c-10.63,0-13.95-2.57-14.28-10.71H418.81v4.4h-9.47V546.51H435.5v-2.74H412.91v-16c-.91.58-1.82,1.08-2.82,1.66a31.15,31.15,0,0,0-7.06-7c10.13-4.81,17.11-11.38,20.84-17.52l10.47,2c-.67,1-1.33,2-2,2.91h15.12l1.33-.33,6.39,4.06a65.85,65.85,0,0,1-4.48,6.65h17.85v23.58H445.22v2.74h27.57Zm-54-14.53v3.66H435.5v-3.66Zm0,12.79H435.5V562H418.81Zm16.69-39.69H422.21v3.48H435.5Zm0,12.37v-3.57H422.21v3.57Zm-9-21.43c-1.16,1.17-2.32,2.33-3.48,3.41h17a27.74,27.74,0,0,0,2.41-3.41Zm32.22,9.06H445.22v3.48h13.53Zm0,8.8H445.22v3.57h13.53Zm-13.53,18.1v3.66h17.93v-3.66Zm0,9.3v3.49h17.93V562Zm20.51,13.45c2.82,0,4.15-.83,4.9-3.73H445.3c.17,3.07,1.33,3.73,5.56,3.73Z" transform="translate(-60.73 -148.05)"/><path class="cls-2" d="M557.9,525.17v56.39H547.61v-5.23H500.44v5.48H490.31V525.34h10.13v40.77h18V507.48h10.3v58.63h18.85V525.17Z" transform="translate(-60.73 -148.05)"/><path class="cls-2" d="M611.88,525.34v8.72H638v28.06c0,4.74-1,7.56-4.4,9.06s-8.22,1.66-14.7,1.66a35.31,35.31,0,0,0-3.32-9.72c4.15.17,9,.17,10.38.17s1.74-.42,1.74-1.33V543.69H611.88v39.19H601.59V543.69H587.05v29.15h-10V534.06h24.5v-8.72H569.28v-9.63H601.5v-10.8h10.55v10.8h33v9.63Z" transform="translate(-60.73 -148.05)"/><path class="cls-2" d="M388.83,702.9c3.92,12.41,10.22,21.25,15.51,21.16,2.1,0,3.1-3.83,3.56-13a28.16,28.16,0,0,0,9.4,5.2c-1.55,15.33-5.39,18.7-13.6,18.7-11.86-.09-21.53-13.59-26.55-32H354v16.88c7.76-1,16.15-2,24.18-3l.37,10.76c-15.06,2.1-31.21,4.2-43.07,5.75L333.26,722c2.83-.28,6.11-.55,9.58-1V653.71h66v30H385.09c.27,3.11.64,6.12,1.18,9h29V702.9ZM354,663.84v9.85h43.8v-9.85Zm21,28.93c-.46-2.92-.82-5.93-1.1-9H354v9Z" transform="translate(-60.73 -148.05)"/><path class="cls-2" d="M438.29,686v48.82H427.52V653.07h35V686Zm0-25.09v4.84h14v-4.84Zm14,17.34v-5.2h-14v5.2ZM504.54,722c0,5.84-1.19,9-4.84,10.76s-8.85,2.1-16.7,2.1a39.48,39.48,0,0,0-2.37-8.48H458V731h-9.85V691.49h35.13v32.39c3.55.09,6.93.09,8.12,0,1.64,0,2.19-.55,2.19-2V686.2H468.77V653.07h35.77ZM458,699.52V705h15.06v-5.47Zm15.06,18.89v-5.66H458v5.66Zm6-57.49v4.84h14.51v-4.84Zm14.51,17.52v-5.38H479.08v5.38Z" transform="translate(-60.73 -148.05)"/><path class="cls-2" d="M561.67,649.24c9.85,14.42,24.82,26.83,39.41,33.12a59.61,59.61,0,0,0-7.3,9.77c-14.14-7.85-29.38-21-37.23-32.21-7.39,11.13-21.44,23.81-36.49,32.3a46,46,0,0,0-6.85-8.76c15.79-8.12,30.48-22.63,37.32-34.22Zm1.55,73.27h32.66v9.86H518.23v-9.86h9.95V690.85h10.67v31.66h13V675.16h11.41v19.52h24.45v9.58H563.22Z" transform="translate(-60.73 -148.05)"/><path class="cls-2" d="M662.5,714c7.76,4.74,18.34,8.3,28.93,9.94a50.94,50.94,0,0,0-7.3,9.86,77.8,77.8,0,0,1-30.66-15.42v16.42H642.79V719a86.62,86.62,0,0,1-30.57,14.78,50.5,50.5,0,0,0-6.93-9c10.22-2.09,21-5.93,28.83-10.67H607.93v-8.94h34.86v-4H616.51v-7.85h26.28v-4.1H612v-8.49h17.34a40.86,40.86,0,0,0-3.11-7.12l1.1-.18H608.21v-8.85h12.22a81.13,81.13,0,0,0-5.65-11.31l9.31-3.2A69.39,69.39,0,0,1,631,662.84l-4.47,1.64h8.3V649.61H645v14.87h6.75V649.61H662v14.87h8.12l-3.28-1a73.58,73.58,0,0,0,5.75-13.24l11.4,2.74c-2.55,4.2-5,8.31-7.11,11.5h11.86v8.85H671.53c-1.46,2.65-2.92,5.11-4.29,7.3h17.89v8.49H653.47v4.1h27.37v7.85H653.47v4H689V714Zm-24.82-40.7a44.62,44.62,0,0,1,3.1,7l-1.55.27H656.3c1.09-2.19,2.19-4.83,3.19-7.3Z" transform="translate(-60.73 -148.05)"/><path class="cls-2" d="M746.91,653.17a167,167,0,0,1-8.48,18.34v63.14H727.66V688.2a75.37,75.37,0,0,1-5.75,6.85,74,74,0,0,0-5.84-10.95c8.21-8.21,16.24-21.17,20.8-34.22Zm39.51,70.53c5.39,0,6.3-2.19,7.12-12.5a37.75,37.75,0,0,0,9.85,4.2c-1.46,13.5-4.65,18.06-16.15,18.06H767.08c-13,0-16.7-3.55-16.7-16.06V692.49l-6.84,2.65-4.2-9.58,11-4.29V659.74h10.77V677L770,673.6V650h10.13v19.62l9.21-3.47,1.37-1.09,2-1.37,7.39,2.83-.37,1.64c-.09,15.88-.27,26.83-.82,30.84-.45,4.56-2.1,6.94-5.11,8.21-2.83,1.28-7.11,1.37-10.31,1.28-.18-3-1.09-7.57-2.37-9.94,2,.09,4.56.18,5.57.18,1.27,0,1.91-.37,2.28-2.1s.54-7.67.64-19.62l-9.49,3.74v32.49H770V684.74l-8.85,3.46v29.2c0,5.48.91,6.3,6.75,6.3Z" transform="translate(-60.73 -148.05)"/></svg>