<svg viewBox="0 0 100 100" xmlns="http://www.w3.org/2000/svg" preserveAspectRatio="none">
  <!-- 繧ｯ繝ｩ繧､繧｢繝ｳ繝育畑繝・Δ縺ｮ邱夂判繧｢繝ｼ繝茨ｼ郁ｦ区悽縺ｮ讒矩繧定｡ｨ迴ｾ・・-->
  <g fill="none" stroke="#1b3228" stroke-width="0.3" stroke-linecap="round" stroke-linejoin="round">
    <!-- 荳矩Κ繧偵≧縺ｭ繧狗ｴ邱夲ｼ郁ｦ区悽縺ｮ邵ｫ縺・岼繝ｻ繧ｫ繝・ヨ繝ｩ繧､繝ｳ縺ｮ繧医≧縺ｪ邱夲ｼ・-->
    <path d="M 0 80 Q 25 50, 45 60 T 80 85" stroke-dasharray="1 1.5" />
    
    <!-- 縺薙％縺九ｉ荳九・縲後う繝ｩ繧ｹ繝医′蜈･繧倶ｽ咲ｽｮ縲阪ｒ遉ｺ縺呎歓雎｡逧・↑繝懊ち繝九き繝ｫ繝ｻ閻輔・邱夂判・井ｻｮ・・-->
    <!-- 蟾ｦ荳九・闡峨▲縺ｱ鬚ｨ -->
    <path d="M 10 95 Q 15 80, 25 75 C 30 65, 35 85, 25 75 C 15 85, 20 65, 25 75" />
    <!-- 荳ｭ螟ｮ縺ｮ讀咲黄鬚ｨ -->
    <path d="M 40 95 Q 35 75, 50 65 C 55 60, 45 50, 50 65 C 60 60, 50 75, 50 65" />
    <!-- 蜿ｳ蛛ｴ縺ｮ縲梧焔繝ｻ闌弱阪↓隕狗ｫ九※縺滓峇邱・-->
    <path d="M 75 95 Q 70 65, 85 45 C 75 35, 80 25, 85 45 C 90 25, 95 35, 85 45" />
    <path d="M 85 45 Q 75 15, 80 0" />
  </g>
</svg>
