<?xml version="1.0" encoding="UTF-8"?><svg id="_レイヤー_1" xmlns="http://www.w3.org/2000/svg" viewBox="0 0 360 288"><rect width="360" height="288" style="fill:none;"/><path d="M41.65,28.21v3.22h-23v-3.22h23Z" style="fill:#333;"/><path d="M46.85,33.43c-.25,2.35-.77,4.85-1.5,6.45-.53-.33-1.62-.85-2.27-1.08.72-1.47,1.12-3.7,1.32-5.8l2.45.43ZM49.78,31.53v10.22h-2.57v-10.05c-1.3.07-2.55.15-3.62.22l-.25-2.57,1.82-.08c.38-.5.75-1.02,1.15-1.6-.72-1.08-1.92-2.4-2.95-3.4l1.42-2.02c.17.15.38.33.58.5.7-1.38,1.4-3.02,1.82-4.35l2.57.95c-.9,1.7-1.9,3.65-2.8,5.02.3.35.6.67.85,1,.85-1.4,1.65-2.82,2.22-4.05l2.42,1.12c-1.37,2.17-3.1,4.7-4.67,6.72l2.7-.12c-.25-.62-.55-1.22-.85-1.78l1.95-.82c.97,1.7,1.95,3.87,2.22,5.3l-2.12.95c-.08-.38-.17-.82-.33-1.3l-1.57.12ZM66.6,26.61c-.75,4.1-2.1,7.42-3.92,10.02,1.22,1.17,2.67,2.1,4.42,2.72-.6.53-1.42,1.65-1.8,2.4-1.72-.75-3.17-1.75-4.4-2.97-1.15,1.2-2.42,2.15-3.8,2.9-.4-.65-1.38-1.75-2-2.2,1.5-.72,2.85-1.7,4.02-2.9-.92-1.4-1.65-2.97-2.25-4.7-.47,3.4-1.6,7-4.07,9.75-.5-.47-1.5-1.25-2.17-1.57.77-.85,1.4-1.77,1.9-2.75l-1.25.45c-.22-1.17-.8-2.95-1.35-4.32l2.1-.68c.42.92.85,2.1,1.15,3.1,1.3-3.3,1.47-6.9,1.47-9.57v-3.72h-2.08v-2.72h8.3l.45-.12,1.97.25c-.25,1.85-.62,4-1.02,6.07h2.05l.5-.1,1.77.67ZM57.23,23.53c.62,4.25,1.7,8,3.62,10.87,1.07-1.6,1.92-3.52,2.5-5.72h-1.62l-.2.97-2.65-.3c.47-2.1.95-4.7,1.3-6.8h-2.95v.97Z" style="fill:#333;"/><path d="M76.3,27.13c-.3,3.57-.9,6.52-1.77,8.9,2.32,1.85,5.47,2.22,9.12,2.25,1.47,0,6.55,0,8.37-.08-.48.67-.95,2.07-1.15,2.9h-7.3c-4.22,0-7.62-.5-10.27-2.5-.78,1.35-1.7,2.4-2.77,3.22-.45-.6-1.6-1.62-2.22-2,1.17-.83,2.15-1.92,2.92-3.35-.92-1.25-1.7-2.85-2.35-4.85l2.32-.85c.33,1.1.75,2.02,1.22,2.82.38-1.25.67-2.65.88-4.2h-1.7l-.32.72-2.7-.7c1.07-2.2,2.27-4.9,3.2-7.07h-3.25v-2.6h4.57l.45-.1,2.02.55c-.75,1.95-1.77,4.32-2.8,6.6h1.25l.52-.08,1.75.4ZM81.75,22.24h-4.57v-2.25h4.57v-1.42h2.9v1.42h5.2v3.27h1.87v2.27h-1.87v3.27h-5.2v1.1h5.4v2.15h-5.4v1.17h6.55v2.32h-6.55v2.02h-2.9v-2.02h-5.92v-2.32h5.92v-1.17h-4.85v-2.15h4.85v-1.1h-4.7v-2.25h4.7v-1.02h-6.27v-2.27h6.27v-1.02ZM84.65,22.24v1.02h2.27v-1.02h-2.27ZM86.93,25.53h-2.27v1.02h2.27v-1.02Z" style="fill:#333;"/><path d="M97.76,22.46c-.65.88-1.33,1.65-1.97,2.25-.55-.47-1.72-1.27-2.4-1.62,1.5-1.2,2.9-3.05,3.65-4.9l2.77.75c-.17.4-.37.8-.57,1.2h5.55v1.85c1-1.08,1.85-2.42,2.37-3.8l2.82.67c-.17.42-.38.85-.6,1.28h7.25v2.32h-4.37c.4.55.75,1.1.95,1.52l-2.52.72c-.25-.6-.8-1.5-1.38-2.25h-1.38c-.62.88-1.3,1.65-1.97,2.25-.6-.45-1.9-1.12-2.6-1.42.32-.25.65-.52.97-.82h-3.5c.32.58.62,1.15.77,1.57l-2.4.7c-.17-.62-.6-1.5-1.05-2.27h-.4ZM108.53,35.91c2.15,1.25,5.35,2.2,8.37,2.62-.62.62-1.47,1.8-1.9,2.52-3.02-.65-6.15-2.02-8.45-3.85v4.45h-2.88v-4.5c-2.27,1.82-5.42,3.25-8.47,3.97-.42-.7-1.22-1.82-1.82-2.42,2.92-.47,6.02-1.5,8.12-2.8h-7.65v-2.32h9.82v-.62c-.15.08-.3.12-.47.2-.33-.5-1.25-1.42-1.82-1.85-2.6.4-5.15.77-7.17,1.1l-.32-2.35c1.05-.12,2.32-.3,3.72-.5v-2.52h-3.15v-2.05h8.97v2.05h-3.12v2.15l3.1-.45.08,1.22c.87-.8,1.05-1.7,1.05-2.6v-2.5h9.15v4.4c0,.42-.03.67.05.75.05.1.12.12.22.12h.4c.12,0,.22,0,.3-.08.08-.05.15-.2.2-.5.05-.27.08-.92.1-1.72.45.4,1.33.8,1.92,1.02-.08.95-.17,1.97-.33,2.37-.17.45-.45.78-.82.97-.35.18-.9.25-1.33.25h-1.22c-.62,0-1.3-.17-1.72-.6-.33-.35-.5-.75-.55-1.7l-1.42,1.27c-.5-.65-1.5-1.57-2.42-2.32-.25,1.07-.83,2.12-1.92,2.97h1.42v1.5h9.9v2.32h-7.92ZM107.23,26.81v.62c0,.35-.03.67-.05,1.02l1.25-1.07c.8.55,1.77,1.3,2.45,1.95v-2.52h-3.65Z" style="fill:#333;"/><path d="M131.7,28.81v8.82h8.5v2.97h-19.97v-2.97h8.27v-8.82h-9.62v-2.95h9.62v-7.42h3.2v7.42h9.82v2.95h-9.82Z" style="fill:#333;"/><path d="M169.68,36.58h3.97v-11.7h-3.35v-2.27c1.85-.35,3.12-.82,4.3-1.55h2.72v15.52h3.47v2.97h-11.12v-2.97Z" style="fill:#333;"/><path d="M183.46,30.23c0-6.4,2.5-9.52,6.27-9.52s6.25,3.15,6.25,9.52-2.5,9.67-6.25,9.67-6.27-3.3-6.27-9.67ZM192.5,30.23c0-5.17-1.2-6.67-2.77-6.67s-2.8,1.5-2.8,6.67,1.2,6.8,2.8,6.8,2.77-1.6,2.77-6.8Z" style="fill:#333;"/><path d="M210.9,18.96c-.02.4-.05.9-.07,1.42.2,3.45,1.45,14.22,10.77,18.59-.92.7-1.82,1.72-2.3,2.52-5.65-2.8-8.45-7.95-9.85-12.55-1.35,4.5-3.97,9.32-9.25,12.55-.52-.77-1.5-1.67-2.5-2.37,9.97-5.52,9.62-16.87,9.8-20.17h3.4Z" style="fill:#333;"/><path d="M41.23,69.23v3.42h-22.19v-3.42h22.19ZM39.15,54.81v3.27h-18.04v-3.27h18.04Z" style="fill:#333;"/><path d="M46.85,66.43c-.25,2.35-.77,4.85-1.5,6.45-.53-.33-1.62-.85-2.27-1.08.72-1.47,1.12-3.7,1.32-5.8l2.45.43ZM49.78,64.53v10.22h-2.57v-10.05c-1.3.07-2.55.15-3.62.22l-.25-2.57,1.82-.08c.38-.5.75-1.02,1.15-1.6-.72-1.08-1.92-2.4-2.95-3.4l1.42-2.02c.17.15.38.33.58.5.7-1.38,1.4-3.02,1.82-4.35l2.57.95c-.9,1.7-1.9,3.65-2.8,5.02.3.35.6.67.85,1,.85-1.4,1.65-2.82,2.22-4.05l2.42,1.12c-1.37,2.17-3.1,4.7-4.67,6.72l2.7-.12c-.25-.62-.55-1.22-.85-1.78l1.95-.82c.97,1.7,1.95,3.87,2.22,5.3l-2.12.95c-.08-.38-.17-.82-.33-1.3l-1.57.12ZM66.6,59.61c-.75,4.1-2.1,7.42-3.92,10.02,1.22,1.17,2.67,2.1,4.42,2.72-.6.53-1.42,1.65-1.8,2.4-1.72-.75-3.17-1.75-4.4-2.97-1.15,1.2-2.42,2.15-3.8,2.9-.4-.65-1.38-1.75-2-2.2,1.5-.72,2.85-1.7,4.02-2.9-.92-1.4-1.65-2.97-2.25-4.7-.47,3.4-1.6,7-4.07,9.75-.5-.47-1.5-1.25-2.17-1.57.77-.85,1.4-1.77,1.9-2.75l-1.25.45c-.22-1.17-.8-2.95-1.35-4.32l2.1-.68c.42.92.85,2.1,1.15,3.1,1.3-3.3,1.47-6.9,1.47-9.57v-3.72h-2.08v-2.72h8.3l.45-.12,1.97.25c-.25,1.85-.62,4-1.02,6.07h2.05l.5-.1,1.77.67ZM57.23,56.53c.62,4.25,1.7,8,3.62,10.87,1.07-1.6,1.92-3.52,2.5-5.72h-1.62l-.2.97-2.65-.3c.47-2.1.95-4.7,1.3-6.8h-2.95v.97Z" style="fill:#333;"/><path d="M76.3,60.13c-.3,3.57-.9,6.52-1.77,8.9,2.32,1.85,5.47,2.22,9.12,2.25,1.47,0,6.55,0,8.37-.08-.48.67-.95,2.07-1.15,2.9h-7.3c-4.22,0-7.62-.5-10.27-2.5-.78,1.35-1.7,2.4-2.77,3.22-.45-.6-1.6-1.62-2.22-2,1.17-.83,2.15-1.92,2.92-3.35-.92-1.25-1.7-2.85-2.35-4.85l2.32-.85c.33,1.1.75,2.02,1.22,2.82.38-1.25.67-2.65.88-4.2h-1.7l-.32.72-2.7-.7c1.07-2.2,2.27-4.9,3.2-7.07h-3.25v-2.6h4.57l.45-.1,2.02.55c-.75,1.95-1.77,4.32-2.8,6.6h1.25l.52-.08,1.75.4ZM81.75,55.24h-4.57v-2.25h4.57v-1.42h2.9v1.42h5.2v3.27h1.87v2.27h-1.87v3.27h-5.2v1.1h5.4v2.15h-5.4v1.17h6.55v2.32h-6.55v2.02h-2.9v-2.02h-5.92v-2.32h5.92v-1.17h-4.85v-2.15h4.85v-1.1h-4.7v-2.25h4.7v-1.02h-6.27v-2.27h6.27v-1.02ZM84.65,55.24v1.02h2.27v-1.02h-2.27ZM86.93,58.53h-2.27v1.02h2.27v-1.02Z" style="fill:#333;"/><path d="M97.76,55.46c-.65.88-1.33,1.65-1.97,2.25-.55-.47-1.72-1.27-2.4-1.62,1.5-1.2,2.9-3.05,3.65-4.9l2.77.75c-.17.4-.37.8-.57,1.2h5.55v1.85c1-1.08,1.85-2.42,2.37-3.8l2.82.67c-.17.42-.38.85-.6,1.28h7.25v2.32h-4.37c.4.55.75,1.1.95,1.52l-2.52.72c-.25-.6-.8-1.5-1.38-2.25h-1.38c-.62.88-1.3,1.65-1.97,2.25-.6-.45-1.9-1.12-2.6-1.42.32-.25.65-.52.97-.82h-3.5c.32.58.62,1.15.77,1.57l-2.4.7c-.17-.62-.6-1.5-1.05-2.27h-.4ZM108.53,68.91c2.15,1.25,5.35,2.2,8.37,2.62-.62.62-1.47,1.8-1.9,2.52-3.02-.65-6.15-2.02-8.45-3.85v4.45h-2.88v-4.5c-2.27,1.82-5.42,3.25-8.47,3.97-.42-.7-1.22-1.82-1.82-2.42,2.92-.47,6.02-1.5,8.12-2.8h-7.65v-2.32h9.82v-.62c-.15.08-.3.12-.47.2-.33-.5-1.25-1.42-1.82-1.85-2.6.4-5.15.77-7.17,1.1l-.32-2.35c1.05-.12,2.32-.3,3.72-.5v-2.52h-3.15v-2.05h8.97v2.05h-3.12v2.15l3.1-.45.08,1.22c.87-.8,1.05-1.7,1.05-2.6v-2.5h9.15v4.4c0,.42-.03.67.05.75.05.1.12.12.22.12h.4c.12,0,.22,0,.3-.08.08-.05.15-.2.2-.5.05-.27.08-.92.1-1.72.45.4,1.33.8,1.92,1.02-.08.95-.17,1.97-.33,2.37-.17.45-.45.78-.82.97-.35.18-.9.25-1.33.25h-1.22c-.62,0-1.3-.17-1.72-.6-.33-.35-.5-.75-.55-1.7l-1.42,1.27c-.5-.65-1.5-1.57-2.42-2.32-.25,1.07-.83,2.12-1.92,2.97h1.42v1.5h9.9v2.32h-7.92ZM107.23,59.81v.62c0,.35-.03.67-.05,1.02l1.25-1.07c.8.55,1.77,1.3,2.45,1.95v-2.52h-3.65Z" style="fill:#333;"/><path d="M131.7,61.81v8.82h8.5v2.97h-19.97v-2.97h8.27v-8.82h-9.62v-2.95h9.62v-7.42h3.2v7.42h9.82v2.95h-9.82Z" style="fill:#333;"/><path d="M169.68,69.58h3.97v-11.7h-3.35v-2.27c1.85-.35,3.12-.82,4.3-1.55h2.72v15.52h3.47v2.97h-11.12v-2.97Z" style="fill:#333;"/><path d="M184.41,69.58h3.97v-11.7h-3.35v-2.27c1.85-.35,3.12-.82,4.3-1.55h2.72v15.52h3.47v2.97h-11.12v-2.97Z" style="fill:#333;"/><path d="M210.9,51.96c-.02.4-.05.9-.07,1.42.2,3.45,1.45,14.22,10.77,18.59-.92.7-1.82,1.72-2.3,2.52-5.65-2.8-8.45-7.95-9.85-12.55-1.35,4.5-3.97,9.32-9.25,12.55-.52-.77-1.5-1.67-2.5-2.37,9.97-5.52,9.62-16.87,9.8-20.17h3.4Z" style="fill:#333;"/><path d="M19.68,102.58h3.97v-11.7h-3.35v-2.27c1.85-.35,3.12-.82,4.3-1.55h2.72v15.52h3.47v2.97h-11.12v-2.97Z" style="fill:#333;"/><path d="M36.58,99.43c-.25,2.35-.77,4.85-1.5,6.45-.53-.33-1.62-.85-2.27-1.08.72-1.47,1.12-3.7,1.32-5.8l2.45.43ZM39.5,97.53v10.22h-2.57v-10.05c-1.3.07-2.55.15-3.62.22l-.25-2.57,1.82-.08c.38-.5.75-1.02,1.15-1.6-.72-1.08-1.92-2.4-2.95-3.4l1.42-2.02c.17.15.38.33.58.5.7-1.38,1.4-3.02,1.82-4.35l2.57.95c-.9,1.7-1.9,3.65-2.8,5.02.3.35.6.67.85,1,.85-1.4,1.65-2.82,2.22-4.05l2.42,1.12c-1.37,2.17-3.1,4.7-4.67,6.72l2.7-.12c-.25-.62-.55-1.22-.85-1.78l1.95-.82c.97,1.7,1.95,3.87,2.22,5.3l-2.12.95c-.08-.38-.17-.82-.33-1.3l-1.57.12ZM56.32,92.61c-.75,4.1-2.1,7.42-3.92,10.02,1.22,1.17,2.67,2.1,4.42,2.72-.6.53-1.42,1.65-1.8,2.4-1.72-.75-3.17-1.75-4.4-2.97-1.15,1.2-2.42,2.15-3.8,2.9-.4-.65-1.38-1.75-2-2.2,1.5-.72,2.85-1.7,4.02-2.9-.92-1.4-1.65-2.97-2.25-4.7-.47,3.4-1.6,7-4.07,9.75-.5-.47-1.5-1.25-2.17-1.57.77-.85,1.4-1.77,1.9-2.75l-1.25.45c-.22-1.17-.8-2.95-1.35-4.32l2.1-.68c.42.92.85,2.1,1.15,3.1,1.3-3.3,1.47-6.9,1.47-9.57v-3.72h-2.08v-2.72h8.3l.45-.12,1.97.25c-.25,1.85-.62,4-1.02,6.07h2.05l.5-.1,1.77.67ZM46.95,89.53c.62,4.25,1.7,8,3.62,10.87,1.07-1.6,1.92-3.52,2.5-5.72h-1.62l-.2.97-2.65-.3c.47-2.1.95-4.7,1.3-6.8h-2.95v.97Z" style="fill:#333;"/><path d="M66.03,93.13c-.3,3.57-.9,6.52-1.77,8.9,2.32,1.85,5.47,2.22,9.12,2.25,1.47,0,6.55,0,8.37-.08-.48.67-.95,2.07-1.15,2.9h-7.3c-4.22,0-7.62-.5-10.27-2.5-.78,1.35-1.7,2.4-2.77,3.22-.45-.6-1.6-1.62-2.22-2,1.17-.83,2.15-1.92,2.92-3.35-.92-1.25-1.7-2.85-2.35-4.85l2.32-.85c.33,1.1.75,2.02,1.22,2.82.38-1.25.67-2.65.88-4.2h-1.7l-.32.72-2.7-.7c1.07-2.2,2.27-4.9,3.2-7.07h-3.25v-2.6h4.57l.45-.1,2.02.55c-.75,1.95-1.77,4.32-2.8,6.6h1.25l.52-.08,1.75.4ZM71.48,88.24h-4.57v-2.25h4.57v-1.42h2.9v1.42h5.2v3.27h1.87v2.27h-1.87v3.27h-5.2v1.1h5.4v2.15h-5.4v1.17h6.55v2.32h-6.55v2.02h-2.9v-2.02h-5.92v-2.32h5.92v-1.17h-4.85v-2.15h4.85v-1.1h-4.7v-2.25h4.7v-1.02h-6.27v-2.27h6.27v-1.02ZM74.38,88.24v1.02h2.27v-1.02h-2.27ZM76.65,91.53h-2.27v1.02h2.27v-1.02Z" style="fill:#333;"/><path d="M87.48,88.46c-.65.88-1.33,1.65-1.97,2.25-.55-.47-1.72-1.27-2.4-1.62,1.5-1.2,2.9-3.05,3.65-4.9l2.77.75c-.17.4-.37.8-.57,1.2h5.55v1.85c1-1.08,1.85-2.42,2.37-3.8l2.82.67c-.17.42-.38.85-.6,1.28h7.25v2.32h-4.37c.4.55.75,1.1.95,1.52l-2.52.72c-.25-.6-.8-1.5-1.38-2.25h-1.38c-.62.88-1.3,1.65-1.97,2.25-.6-.45-1.9-1.12-2.6-1.42.32-.25.65-.52.97-.82h-3.5c.32.58.62,1.15.77,1.57l-2.4.7c-.17-.62-.6-1.5-1.05-2.27h-.4ZM98.25,101.91c2.15,1.25,5.35,2.2,8.37,2.62-.62.62-1.47,1.8-1.9,2.52-3.02-.65-6.15-2.02-8.45-3.85v4.45h-2.88v-4.5c-2.27,1.82-5.42,3.25-8.47,3.97-.42-.7-1.22-1.82-1.82-2.42,2.92-.47,6.02-1.5,8.12-2.8h-7.65v-2.32h9.82v-.62c-.15.08-.3.12-.47.2-.33-.5-1.25-1.42-1.82-1.85-2.6.4-5.15.77-7.17,1.1l-.32-2.35c1.05-.12,2.32-.3,3.72-.5v-2.52h-3.15v-2.05h8.97v2.05h-3.12v2.15l3.1-.45.08,1.22c.87-.8,1.05-1.7,1.05-2.6v-2.5h9.15v4.4c0,.42-.03.67.05.75.05.1.12.12.22.12h.4c.12,0,.22,0,.3-.08.08-.05.15-.2.2-.5.05-.27.08-.92.1-1.72.45.4,1.33.8,1.92,1.02-.08.95-.17,1.97-.33,2.37-.17.45-.45.78-.82.97-.35.18-.9.25-1.33.25h-1.22c-.62,0-1.3-.17-1.72-.6-.33-.35-.5-.75-.55-1.7l-1.42,1.27c-.5-.65-1.5-1.57-2.42-2.32-.25,1.07-.83,2.12-1.92,2.97h1.42v1.5h9.9v2.32h-7.92ZM96.95,92.81v.62c0,.35-.03.67-.05,1.02l1.25-1.07c.8.55,1.77,1.3,2.45,1.95v-2.52h-3.65Z" style="fill:#333;"/><path d="M127.9,105.18c.97,0,1.17-.42,1.33-2.62.6.42,1.67.85,2.4,1.02-.33,3.12-1.08,4.07-3.5,4.07h-4.37c-2.95,0-3.75-.8-3.75-3.65v-4.8l-1.02.47-1.02-2.42c-.1,6.12-.28,8.52-.85,9.32-.45.65-.92.9-1.6,1.03-.62.15-1.58.12-2.58.12-.05-.83-.32-1.92-.72-2.65.78.1,1.47.1,1.8.1s.52-.08.72-.4c.33-.5.47-2.6.58-8.47h-1.95c-.35,4.5-1.15,8.55-3.22,11.4-.47-.7-1.4-1.6-2.12-2.07,2.47-3.42,2.7-8.92,2.77-14.7h-2.4v-2.75h3.82v-3.77h2.85v3.77h3.9v1.88c1.02-1.62,1.77-3.62,2.22-5.67l2.92.55c-.2.88-.47,1.75-.75,2.6h7.85v2.7h-8.97c-.42.88-.9,1.7-1.42,2.42h1.83v2.4l1.35-.62v-3.57h2.47v2.42l1.8-.82.1-.08.45-.33,1.85.65-.1.4c-.03,3.55-.03,6.1-.1,6.85-.05.9-.4,1.45-1.08,1.72-.6.25-1.4.27-2.05.27-.07-.67-.27-1.62-.55-2.17.3.02.65.02.85.02s.32-.05.35-.37c.05-.23.05-1.6.08-3.97l-1.6.75v6.97h-2.47v-5.82l-1.35.62v6.02c0,1.03.17,1.17,1.42,1.17h3.85ZM120,96.28v-2.6l-.22.25c-.47-.55-1.57-1.65-2.22-2.1.28-.27.55-.58.8-.9h-4.77c-.03.9-.05,1.8-.08,2.67h4.5v1.12l-.05,2.5,2.05-.95Z" style="fill:#333;"/><path d="M156.27,103.01v3h-22.72v-3h9.52v-12.92h-8.17v-3.1h19.97v3.1h-8.4v12.92h9.8Z" style="fill:#333;"/><path d="M181.35,88.46h-4.12c.42.6.83,1.2,1.05,1.67l-2.75.77c-.28-.65-.9-1.62-1.5-2.45h-1.45c-.45.58-.9,1.07-1.38,1.52v1.35h9.57v4.95h-2.9v-2.72h-15.92v2.72h-2.8v-4.95h9.2v-1.75h1.1c-.45-.25-.92-.48-1.25-.62.2-.15.42-.33.62-.5h-2.92c.35.6.65,1.2.83,1.65l-2.67.75c-.2-.62-.65-1.58-1.12-2.4h-.42c-.65.92-1.35,1.75-2,2.4-.58-.47-1.75-1.27-2.42-1.6,1.5-1.25,2.92-3.17,3.67-5.07l2.77.75c-.17.4-.37.8-.57,1.2h5.55v1.67c1-1.02,1.85-2.32,2.37-3.62l2.82.67c-.17.42-.38.85-.6,1.28h7.25v2.32ZM165.88,101.31h12.85v6.45h-2.95v-.67h-9.9v.67h-2.85v-13.17h13.8v5.57h-10.95v1.15ZM165.88,96.73v1.3h8v-1.3h-8ZM165.88,103.48v1.4h9.9v-1.4h-9.9Z" style="fill:#333;"/><path d="M191.83,102.73c-2.75.97-5.75,1.92-8.15,2.7l-.67-3.02c.88-.22,1.9-.5,3.05-.82v-5.87h-2.52v-2.72h2.52v-4.4h-2.75v-2.77h8.25v2.77h-2.67v4.4h2.25v2.72h-2.25v5c.83-.25,1.65-.5,2.45-.78l.5,2.8ZM206.67,104.26v2.7h-16.07v-2.7h6.9v-2.37h-5.17v-2.67h5.17v-2.15h-5v-11.62h13.05v11.62h-5.02v2.15h5.3v2.67h-5.3v2.37h6.15ZM195.18,90.03h2.57v-2.07h-2.57v2.07ZM195.18,94.53h2.57v-2.15h-2.57v2.15ZM202.73,87.96h-2.47v2.07h2.47v-2.07ZM202.73,92.38h-2.47v2.15h2.47v-2.15Z" style="fill:#333;"/><path d="M216.9,97.73c-.88.25-1.77.5-2.67.72v5.97c0,1.45-.27,2.15-1.12,2.62-.83.45-2.03.52-3.77.52-.12-.75-.5-1.92-.85-2.7.97.03,2,.03,2.32.03.38,0,.47-.12.47-.5v-5.15l-2.42.6-.78-2.82c.92-.18,2-.43,3.2-.73v-4.42h-2.87v-2.75h2.87v-4.75h2.95v4.75h2.45v2.75h-2.45v3.7l2.3-.58.38,2.72ZM230.75,94.36c-.95,3.47-2.55,6.2-4.65,8.3,1.62,1.15,3.55,1.97,5.77,2.52-.62.6-1.47,1.8-1.9,2.57-2.42-.72-4.5-1.75-6.22-3.15-1.95,1.35-4.15,2.35-6.57,3.07-.32-.8-1.05-2.05-1.6-2.7,2.2-.52,4.22-1.32,5.97-2.45-1.47-1.67-2.65-3.65-3.55-5.95l.75-.22h-1.3v-2.67h4.92v-3h-5.37v-2.75h5.37v-3.57h2.95v3.57h5.6v2.75h-5.6v3h3l.53-.12,1.9.8ZM220.9,96.36c.7,1.65,1.7,3.15,2.95,4.42,1.3-1.25,2.37-2.72,3.12-4.42h-6.07Z" style="fill:#333;"/><path d="M246.43,94.81v8.82h8.5v2.97h-19.97v-2.97h8.27v-8.82h-9.62v-2.95h9.62v-7.42h3.2v7.42h9.82v2.95h-9.82Z" style="fill:#333;"/><path d="M284.41,102.58h3.97v-11.7h-3.35v-2.27c1.85-.35,3.12-.82,4.3-1.55h2.72v15.52h3.47v2.97h-11.12v-2.97Z" style="fill:#333;"/><path d="M299.13,102.58h3.97v-11.7h-3.35v-2.27c1.85-.35,3.12-.82,4.3-1.55h2.72v15.52h3.47v2.97h-11.12v-2.97Z" style="fill:#333;"/><path d="M325.63,84.96c-.02.4-.05.9-.07,1.42.2,3.45,1.45,14.22,10.77,18.59-.92.7-1.82,1.72-2.3,2.52-5.65-2.8-8.45-7.95-9.85-12.55-1.35,4.5-3.97,9.32-9.25,12.55-.52-.77-1.5-1.67-2.5-2.37,9.97-5.52,9.62-16.87,9.8-20.17h3.4Z" style="fill:#333;"/><path d="M19.68,135.58h3.97v-11.7h-3.35v-2.27c1.85-.35,3.12-.82,4.3-1.55h2.72v15.52h3.47v2.97h-11.12v-2.97Z" style="fill:#333;"/><path d="M36.58,132.43c-.25,2.35-.77,4.85-1.5,6.45-.53-.33-1.62-.85-2.27-1.08.72-1.47,1.12-3.7,1.32-5.8l2.45.43ZM39.5,130.53v10.22h-2.57v-10.05c-1.3.07-2.55.15-3.62.22l-.25-2.57,1.82-.08c.38-.5.75-1.02,1.15-1.6-.72-1.08-1.92-2.4-2.95-3.4l1.42-2.02c.17.15.38.33.58.5.7-1.38,1.4-3.02,1.82-4.35l2.57.95c-.9,1.7-1.9,3.65-2.8,5.02.3.35.6.67.85,1,.85-1.4,1.65-2.82,2.22-4.05l2.42,1.12c-1.37,2.17-3.1,4.7-4.67,6.72l2.7-.12c-.25-.62-.55-1.22-.85-1.78l1.95-.82c.97,1.7,1.95,3.87,2.22,5.3l-2.12.95c-.08-.38-.17-.82-.33-1.3l-1.57.12ZM56.32,125.61c-.75,4.1-2.1,7.42-3.92,10.02,1.22,1.17,2.67,2.1,4.42,2.72-.6.53-1.42,1.65-1.8,2.4-1.72-.75-3.17-1.75-4.4-2.97-1.15,1.2-2.42,2.15-3.8,2.9-.4-.65-1.38-1.75-2-2.2,1.5-.72,2.85-1.7,4.02-2.9-.92-1.4-1.65-2.97-2.25-4.7-.47,3.4-1.6,7-4.07,9.75-.5-.47-1.5-1.25-2.17-1.57.77-.85,1.4-1.77,1.9-2.75l-1.25.45c-.22-1.17-.8-2.95-1.35-4.32l2.1-.68c.42.92.85,2.1,1.15,3.1,1.3-3.3,1.47-6.9,1.47-9.57v-3.72h-2.08v-2.72h8.3l.45-.12,1.97.25c-.25,1.85-.62,4-1.02,6.07h2.05l.5-.1,1.77.67ZM46.95,122.53c.62,4.25,1.7,8,3.62,10.87,1.07-1.6,1.92-3.52,2.5-5.72h-1.62l-.2.97-2.65-.3c.47-2.1.95-4.7,1.3-6.8h-2.95v.97Z" style="fill:#333;"/><path d="M81.23,136.76v2.92h-22.64v-2.92h9.65v-8.7h-8.02v-2.95h8.02v-7.67h3.2v7.67h8.15v2.95h-8.15v8.7h9.8Z" style="fill:#333;"/><path d="M97.65,126.13c2.08,3.82,5.57,7.55,9.25,9.55-.72.6-1.75,1.77-2.22,2.6-3.15-2.02-6.02-5.22-8.22-8.82v11.27h-3.17v-11.15c-2.17,3.62-5.05,6.8-8.25,8.8-.5-.78-1.53-1.92-2.22-2.55,3.7-2,7.12-5.77,9.17-9.7h-8.02v-2.95h9.32v-5.8h3.17v5.8h9.37v2.95h-8.17Z" style="fill:#333;"/><path d="M127.9,138.18c.97,0,1.17-.42,1.33-2.62.6.42,1.67.85,2.4,1.02-.33,3.12-1.08,4.07-3.5,4.07h-4.37c-2.95,0-3.75-.8-3.75-3.65v-4.8l-1.02.47-1.02-2.42c-.1,6.12-.28,8.52-.85,9.32-.45.65-.92.9-1.6,1.03-.62.15-1.58.12-2.58.12-.05-.83-.32-1.92-.72-2.65.78.1,1.47.1,1.8.1s.52-.08.72-.4c.33-.5.47-2.6.58-8.47h-1.95c-.35,4.5-1.15,8.55-3.22,11.4-.47-.7-1.4-1.6-2.12-2.07,2.47-3.42,2.7-8.92,2.77-14.7h-2.4v-2.75h3.82v-3.77h2.85v3.77h3.9v1.88c1.02-1.62,1.77-3.62,2.22-5.67l2.92.55c-.2.88-.47,1.75-.75,2.6h7.85v2.7h-8.97c-.42.88-.9,1.7-1.42,2.42h1.83v2.4l1.35-.62v-3.57h2.47v2.42l1.8-.82.1-.08.45-.33,1.85.65-.1.4c-.03,3.55-.03,6.1-.1,6.85-.05.9-.4,1.45-1.08,1.72-.6.25-1.4.27-2.05.27-.07-.67-.27-1.62-.55-2.17.3.02.65.02.85.02s.32-.05.35-.37c.05-.23.05-1.6.08-3.97l-1.6.75v6.97h-2.47v-5.82l-1.35.62v6.02c0,1.03.17,1.17,1.42,1.17h3.85ZM120,129.28v-2.6l-.22.25c-.47-.55-1.57-1.65-2.22-2.1.28-.27.55-.58.8-.9h-4.77c-.03.9-.05,1.8-.08,2.67h4.5v1.12l-.05,2.5,2.05-.95Z" style="fill:#333;"/><path d="M156.27,136.01v3h-22.72v-3h9.52v-12.92h-8.17v-3.1h19.97v3.1h-8.4v12.92h9.8Z" style="fill:#333;"/><path d="M181.35,121.46h-4.12c.42.6.83,1.2,1.05,1.67l-2.75.77c-.28-.65-.9-1.62-1.5-2.45h-1.45c-.45.58-.9,1.07-1.38,1.52v1.35h9.57v4.95h-2.9v-2.72h-15.92v2.72h-2.8v-4.95h9.2v-1.75h1.1c-.45-.25-.92-.48-1.25-.62.2-.15.42-.33.62-.5h-2.92c.35.6.65,1.2.83,1.65l-2.67.75c-.2-.62-.65-1.58-1.12-2.4h-.42c-.65.92-1.35,1.75-2,2.4-.58-.47-1.75-1.27-2.42-1.6,1.5-1.25,2.92-3.17,3.67-5.07l2.77.75c-.17.4-.37.8-.57,1.2h5.55v1.67c1-1.02,1.85-2.32,2.37-3.62l2.82.67c-.17.42-.38.85-.6,1.28h7.25v2.32ZM165.88,134.31h12.85v6.45h-2.95v-.67h-9.9v.67h-2.85v-13.17h13.8v5.57h-10.95v1.15ZM165.88,129.73v1.3h8v-1.3h-8ZM165.88,136.48v1.4h9.9v-1.4h-9.9Z" style="fill:#333;"/><path d="M191.83,135.73c-2.75.97-5.75,1.92-8.15,2.7l-.67-3.02c.88-.22,1.9-.5,3.05-.82v-5.87h-2.52v-2.72h2.52v-4.4h-2.75v-2.77h8.25v2.77h-2.67v4.4h2.25v2.72h-2.25v5c.83-.25,1.65-.5,2.45-.78l.5,2.8ZM206.67,137.26v2.7h-16.07v-2.7h6.9v-2.37h-5.17v-2.67h5.17v-2.15h-5v-11.62h13.05v11.62h-5.02v2.15h5.3v2.67h-5.3v2.37h6.15ZM195.18,123.03h2.57v-2.07h-2.57v2.07ZM195.18,127.53h2.57v-2.15h-2.57v2.15ZM202.73,120.96h-2.47v2.07h2.47v-2.07ZM202.73,125.38h-2.47v2.15h2.47v-2.15Z" style="fill:#333;"/><path d="M216.9,130.73c-.88.25-1.77.5-2.67.72v5.97c0,1.45-.27,2.15-1.12,2.62-.83.45-2.03.52-3.77.52-.12-.75-.5-1.92-.85-2.7.97.03,2,.03,2.32.03.38,0,.47-.12.47-.5v-5.15l-2.42.6-.78-2.82c.92-.18,2-.43,3.2-.73v-4.42h-2.87v-2.75h2.87v-4.75h2.95v4.75h2.45v2.75h-2.45v3.7l2.3-.58.38,2.72ZM230.75,127.36c-.95,3.47-2.55,6.2-4.65,8.3,1.62,1.15,3.55,1.97,5.77,2.52-.62.6-1.47,1.8-1.9,2.57-2.42-.72-4.5-1.75-6.22-3.15-1.95,1.35-4.15,2.35-6.57,3.07-.32-.8-1.05-2.05-1.6-2.7,2.2-.52,4.22-1.32,5.97-2.45-1.47-1.67-2.65-3.65-3.55-5.95l.75-.22h-1.3v-2.67h4.92v-3h-5.37v-2.75h5.37v-3.57h2.95v3.57h5.6v2.75h-5.6v3h3l.53-.12,1.9.8ZM220.9,129.36c.7,1.65,1.7,3.15,2.95,4.42,1.3-1.25,2.37-2.72,3.12-4.42h-6.07Z" style="fill:#333;"/><path d="M246.43,127.81v8.82h8.5v2.97h-19.97v-2.97h8.27v-8.82h-9.62v-2.95h9.62v-7.42h3.2v7.42h9.82v2.95h-9.82Z" style="fill:#333;"/><path d="M284.41,135.58h3.97v-11.7h-3.35v-2.27c1.85-.35,3.12-.82,4.3-1.55h2.72v15.52h3.47v2.97h-11.12v-2.97Z" style="fill:#333;"/><path d="M298.18,129.23c0-6.4,2.5-9.52,6.27-9.52s6.25,3.15,6.25,9.52-2.5,9.67-6.25,9.67-6.27-3.3-6.27-9.67ZM307.23,129.23c0-5.17-1.2-6.67-2.77-6.67s-2.8,1.5-2.8,6.67,1.2,6.8,2.8,6.8,2.77-1.6,2.77-6.8Z" style="fill:#333;"/><path d="M325.63,117.96c-.02.4-.05.9-.07,1.42.2,3.45,1.45,14.22,10.77,18.59-.92.7-1.82,1.72-2.3,2.52-5.65-2.8-8.45-7.95-9.85-12.55-1.35,4.5-3.97,9.32-9.25,12.55-.52-.77-1.5-1.67-2.5-2.37,9.97-5.52,9.62-16.87,9.8-20.17h3.4Z" style="fill:#333;"/><path d="M19.68,168.58h3.97v-11.7h-3.35v-2.28c1.85-.35,3.12-.82,4.3-1.55h2.72v15.52h3.47v2.97h-11.12v-2.97Z" style="fill:#333;"/><path d="M36.58,165.43c-.25,2.35-.77,4.85-1.5,6.45-.53-.32-1.62-.85-2.27-1.07.72-1.47,1.12-3.7,1.32-5.8l2.45.43ZM39.5,163.53v10.22h-2.57v-10.05c-1.3.07-2.55.15-3.62.22l-.25-2.57,1.82-.08c.38-.5.75-1.02,1.15-1.6-.72-1.07-1.92-2.4-2.95-3.4l1.42-2.03c.17.15.38.33.58.5.7-1.38,1.4-3.02,1.82-4.35l2.57.95c-.9,1.7-1.9,3.65-2.8,5.02.3.35.6.68.85,1,.85-1.4,1.65-2.82,2.22-4.05l2.42,1.12c-1.37,2.17-3.1,4.7-4.67,6.72l2.7-.12c-.25-.62-.55-1.22-.85-1.78l1.95-.82c.97,1.7,1.95,3.88,2.22,5.3l-2.12.95c-.08-.38-.17-.82-.33-1.3l-1.57.12ZM56.32,158.61c-.75,4.1-2.1,7.42-3.92,10.02,1.22,1.17,2.67,2.1,4.42,2.72-.6.53-1.42,1.65-1.8,2.4-1.72-.75-3.17-1.75-4.4-2.97-1.15,1.2-2.42,2.15-3.8,2.9-.4-.65-1.38-1.75-2-2.2,1.5-.72,2.85-1.7,4.02-2.9-.92-1.4-1.65-2.97-2.25-4.7-.47,3.4-1.6,7-4.07,9.75-.5-.47-1.5-1.25-2.17-1.57.77-.85,1.4-1.78,1.9-2.75l-1.25.45c-.22-1.17-.8-2.95-1.35-4.32l2.1-.68c.42.92.85,2.1,1.15,3.1,1.3-3.3,1.47-6.9,1.47-9.57v-3.72h-2.08v-2.72h8.3l.45-.12,1.97.25c-.25,1.85-.62,4-1.02,6.07h2.05l.5-.1,1.77.68ZM46.95,155.53c.62,4.25,1.7,8,3.62,10.87,1.07-1.6,1.92-3.53,2.5-5.72h-1.62l-.2.97-2.65-.3c.47-2.1.95-4.7,1.3-6.8h-2.95v.97Z" style="fill:#333;"/><path d="M76.28,156.21v1.65h4.67v13.02c0,1.15-.15,1.82-.85,2.28-.67.42-1.52.5-2.72.5-.08-.72-.4-1.85-.75-2.53.6.03,1.22.03,1.42,0,.22,0,.3-.07.3-.3v-2.47h-2.08v5.15h-2.65v-5.15h-1.92v5.27h-2.57v-15.77h4.5v-1.65h-4.95v-1.15l-1.67,2.1c-.67-1.12-1.97-2.85-3.22-4.07-.9,1.47-2.08,3.17-3.7,4.75h2.3v-2.12h2.7v2.12h2.88v2.28h-2.88v1.7h3.42v2.4h-9.75v-2.4h3.62v-1.7h-2.8v-1.97c-.45-.6-1.25-1.5-1.82-1.88,2.05-1.72,3.47-4,4.3-5.85h2.52c1.45,1.2,3.17,2.92,4.1,4.25v-1h4.95v-3.27h2.65v3.27h2.67c-.62-.65-1.55-1.4-2.35-1.95l1.75-1.3c.95.57,2.17,1.5,2.75,2.17l-1.3,1.07h1.47v2.55h-5ZM59.41,165.33h8.7v7.85h-2.67v-.78h-3.45v1.27h-2.57v-8.35ZM61.98,167.73v2.25h3.45v-2.25h-3.45ZM71.7,160.36v1.6h1.92v-1.6h-1.92ZM73.63,165.98v-1.62h-1.92v1.62h1.92ZM76.28,160.36v1.6h2.08v-1.6h-2.08ZM78.35,165.98v-1.62h-2.08v1.62h2.08Z" style="fill:#333;"/><path d="M105.2,167.18c-1.25.83-2.75,1.68-4.07,2.3,1.5.9,3.32,1.55,5.5,1.9-.58.6-1.3,1.68-1.65,2.42-5.22-1.12-8.4-3.7-10.3-7.95-.85.72-1.85,1.38-2.95,1.95v2.55l4.87-.65.15,2.42c-3.57.55-7.45,1.05-10.22,1.45l-.45-2.52c.83-.1,1.78-.2,2.8-.33v-1.67c-1.35.5-2.77.88-4.22,1.15-.35-.65-1.03-1.62-1.58-2.15,2.72-.4,5.5-1.17,7.6-2.22h-7.12v-2.25h9.75v-1.7h2.97v1.7h9.9v2.25h-2.77l1.8,1.35ZM88.58,159.36c-1.5.7-3.1,1.38-4.5,2l-.92-2.43c1.27-.45,3.05-1.17,4.9-1.95l.53,2.05v-8.65h2.72v12.02h-2.72v-3.05ZM86.68,155.88c-.6-.75-1.97-1.92-3.05-2.7l1.7-1.67c1.05.72,2.47,1.75,3.17,2.52l-1.82,1.85ZM97.6,155.84h-5.3v-2.58h5.3v-2.87h2.97v2.87h5.55v2.58h-5.55v2.95h4.92v2.55h-12.57v-2.55h4.67v-2.95ZM97.5,165.83c.47.83,1.05,1.57,1.75,2.22,1.17-.65,2.52-1.5,3.5-2.22h-5.25Z" style="fill:#333;"/><path d="M127.9,171.18c.97,0,1.17-.43,1.33-2.62.6.43,1.67.85,2.4,1.03-.33,3.12-1.08,4.07-3.5,4.07h-4.37c-2.95,0-3.75-.8-3.75-3.65v-4.8l-1.02.47-1.02-2.42c-.1,6.12-.28,8.52-.85,9.32-.45.65-.92.9-1.6,1.03-.62.15-1.58.12-2.58.12-.05-.82-.32-1.92-.72-2.65.78.1,1.47.1,1.8.1s.52-.08.72-.4c.33-.5.47-2.6.58-8.47h-1.95c-.35,4.5-1.15,8.55-3.22,11.4-.47-.7-1.4-1.6-2.12-2.07,2.47-3.42,2.7-8.92,2.77-14.7h-2.4v-2.75h3.82v-3.77h2.85v3.77h3.9v1.88c1.02-1.62,1.77-3.62,2.22-5.67l2.92.55c-.2.88-.47,1.75-.75,2.6h7.85v2.7h-8.97c-.42.88-.9,1.7-1.42,2.43h1.83v2.4l1.35-.62v-3.57h2.47v2.42l1.8-.82.1-.07.45-.33,1.85.65-.1.4c-.03,3.55-.03,6.1-.1,6.85-.05.9-.4,1.45-1.08,1.72-.6.25-1.4.28-2.05.28-.07-.68-.27-1.62-.55-2.17.3.02.65.02.85.02s.32-.05.35-.37c.05-.23.05-1.6.08-3.97l-1.6.75v6.97h-2.47v-5.82l-1.35.62v6.02c0,1.03.17,1.18,1.42,1.18h3.85ZM120,162.28v-2.6l-.22.25c-.47-.55-1.57-1.65-2.22-2.1.28-.27.55-.57.8-.9h-4.77c-.03.9-.05,1.8-.08,2.67h4.5v1.12l-.05,2.5,2.05-.95Z" style="fill:#333;"/><path d="M156.27,169.01v3h-22.72v-3h9.52v-12.92h-8.17v-3.1h19.97v3.1h-8.4v12.92h9.8Z" style="fill:#333;"/><path d="M181.35,154.46h-4.12c.42.6.83,1.2,1.05,1.67l-2.75.78c-.28-.65-.9-1.62-1.5-2.45h-1.45c-.45.57-.9,1.07-1.38,1.52v1.35h9.57v4.95h-2.9v-2.72h-15.92v2.72h-2.8v-4.95h9.2v-1.75h1.1c-.45-.25-.92-.48-1.25-.62.2-.15.42-.33.62-.5h-2.92c.35.6.65,1.2.83,1.65l-2.67.75c-.2-.62-.65-1.57-1.12-2.4h-.42c-.65.92-1.35,1.75-2,2.4-.58-.47-1.75-1.27-2.42-1.6,1.5-1.25,2.92-3.17,3.67-5.07l2.77.75c-.17.4-.37.8-.57,1.2h5.55v1.67c1-1.03,1.85-2.32,2.37-3.62l2.82.68c-.17.42-.38.85-.6,1.28h7.25v2.32ZM165.88,167.31h12.85v6.45h-2.95v-.68h-9.9v.68h-2.85v-13.17h13.8v5.57h-10.95v1.15ZM165.88,162.73v1.3h8v-1.3h-8ZM165.88,169.48v1.4h9.9v-1.4h-9.9Z" style="fill:#333;"/><path d="M191.83,168.73c-2.75.97-5.75,1.92-8.15,2.7l-.67-3.03c.88-.22,1.9-.5,3.05-.82v-5.87h-2.52v-2.72h2.52v-4.4h-2.75v-2.78h8.25v2.78h-2.67v4.4h2.25v2.72h-2.25v5c.83-.25,1.65-.5,2.45-.78l.5,2.8ZM206.67,170.26v2.7h-16.07v-2.7h6.9v-2.37h-5.17v-2.68h5.17v-2.15h-5v-11.62h13.05v11.62h-5.02v2.15h5.3v2.68h-5.3v2.37h6.15ZM195.18,156.03h2.57v-2.07h-2.57v2.07ZM195.18,160.53h2.57v-2.15h-2.57v2.15ZM202.73,153.96h-2.47v2.07h2.47v-2.07ZM202.73,158.38h-2.47v2.15h2.47v-2.15Z" style="fill:#333;"/><path d="M216.9,163.73c-.88.25-1.77.5-2.67.72v5.97c0,1.45-.27,2.15-1.12,2.62-.83.45-2.03.52-3.77.52-.12-.75-.5-1.92-.85-2.7.97.03,2,.03,2.32.03.38,0,.47-.12.47-.5v-5.15l-2.42.6-.78-2.82c.92-.18,2-.43,3.2-.72v-4.42h-2.87v-2.75h2.87v-4.75h2.95v4.75h2.45v2.75h-2.45v3.7l2.3-.58.38,2.72ZM230.75,160.36c-.95,3.47-2.55,6.2-4.65,8.3,1.62,1.15,3.55,1.97,5.77,2.53-.62.6-1.47,1.8-1.9,2.57-2.42-.72-4.5-1.75-6.22-3.15-1.95,1.35-4.15,2.35-6.57,3.07-.32-.8-1.05-2.05-1.6-2.7,2.2-.52,4.22-1.32,5.97-2.45-1.47-1.67-2.65-3.65-3.55-5.95l.75-.22h-1.3v-2.68h4.92v-3h-5.37v-2.75h5.37v-3.57h2.95v3.57h5.6v2.75h-5.6v3h3l.53-.12,1.9.8ZM220.9,162.36c.7,1.65,1.7,3.15,2.95,4.42,1.3-1.25,2.37-2.72,3.12-4.42h-6.07Z" style="fill:#333;"/><path d="M246.1,158.41v14.92h-2.75v-14.92h-3.32v-1.03c-.42.85-.92,1.72-1.45,2.55v13.8h-2.72v-10.12c-.52.58-1.02,1.12-1.55,1.6-.27-.62-1.07-2.12-1.6-2.75,1.97-1.65,3.9-4.25,5.07-6.82l2.25.78v-.72h3.32v-4.92h2.75v4.92h3.22v2.72h-3.22ZM239.88,151.36c-1.33,2.17-3.42,4.52-5.35,6.05-.35-.62-1.08-1.72-1.53-2.22,1.6-1.22,3.32-3.2,4.2-4.77l2.67.95ZM242.65,161.16c-.25,3.47-.78,6.95-1.75,9.22-.42-.35-1.45-1.05-2-1.38.9-2,1.22-5.12,1.37-8.2l2.38.35ZM247.93,155.36c-.3-.92-1-2.4-1.65-3.5l1.97-.82c.65,1.07,1.4,2.47,1.7,3.4l-2.02.92ZM248.75,160.86c.52,2.4.97,5.4,1.12,7.42l-2.3.45c-.08-2-.53-5.07-1-7.45l2.17-.42ZM256.5,161.41h-1.92v9.1c0,1.4-.2,2.2-1.08,2.68-.87.47-2.1.52-3.75.52-.08-.82-.42-2.02-.8-2.9,1.03.05,2.08.05,2.38.05.32,0,.42-.07.42-.4v-9.05h-2.17v-2.65h6.92v2.65ZM256.12,154.34h-5.92v-2.6h5.92v2.6Z" style="fill:#333;"/><path d="M272.05,160.56c-.97.7-1.92,1.35-2.95,2h9.07v11.1h-3.1v-.65h-8.6v.75h-2.97v-8.17c-1.25.55-2.55,1.1-3.82,1.58-.38-.65-1.25-1.85-1.82-2.45,3.27-1.02,6.42-2.45,9.3-4.15h-8.5v-2.62h8.02v-2.27h-5.87v-2.57h5.87v-2.7h2.95v2.7h5.42v1.22c.95-1.03,1.8-2.07,2.58-3.17l2.55,1.3c-1.42,1.97-3.1,3.82-4.92,5.5h5.8v2.62h-9ZM275.08,164.98h-8.6v1.6h8.6v-1.6ZM275.08,170.53v-1.7h-8.6v1.7h8.6ZM269.63,157.93h1.37c.95-.72,1.85-1.47,2.7-2.27h-4.07v2.27Z" style="fill:#333;"/><path d="M308.43,169.43c5.02-4.5,8-7.97,8-10.82,0-1.88-1.03-3-2.77-3-1.35,0-2.47.88-3.4,1.9l-2-2c1.7-1.8,3.35-2.8,5.87-2.8,3.5,0,5.82,2.25,5.82,5.7s-2.77,6.95-6.15,10.25c.92-.1,2.15-.2,3-.2h4.02v3.1h-12.4v-2.12Z" style="fill:#333;"/><path d="M335.9,150.96c-.02.4-.05.9-.07,1.43.2,3.45,1.45,14.22,10.77,18.59-.92.7-1.82,1.72-2.3,2.53-5.65-2.8-8.45-7.95-9.85-12.55-1.35,4.5-3.97,9.32-9.25,12.55-.52-.78-1.5-1.67-2.5-2.38,9.97-5.52,9.62-16.87,9.8-20.17h3.4Z" style="fill:#333;"/><path d="M19.68,201.58h3.97v-11.7h-3.35v-2.28c1.85-.35,3.12-.82,4.3-1.55h2.72v15.52h3.47v2.97h-11.12v-2.97Z" style="fill:#333;"/><path d="M36.58,198.43c-.25,2.35-.77,4.85-1.5,6.45-.53-.32-1.62-.85-2.27-1.07.72-1.47,1.12-3.7,1.32-5.8l2.45.43ZM39.5,196.53v10.22h-2.57v-10.05c-1.3.07-2.55.15-3.62.22l-.25-2.57,1.82-.08c.38-.5.75-1.02,1.15-1.6-.72-1.07-1.92-2.4-2.95-3.4l1.42-2.03c.17.15.38.33.58.5.7-1.38,1.4-3.02,1.82-4.35l2.57.95c-.9,1.7-1.9,3.65-2.8,5.02.3.35.6.68.85,1,.85-1.4,1.65-2.82,2.22-4.05l2.42,1.12c-1.37,2.17-3.1,4.7-4.67,6.72l2.7-.12c-.25-.62-.55-1.22-.85-1.78l1.95-.82c.97,1.7,1.95,3.88,2.22,5.3l-2.12.95c-.08-.38-.17-.82-.33-1.3l-1.57.12ZM56.32,191.61c-.75,4.1-2.1,7.42-3.92,10.02,1.22,1.17,2.67,2.1,4.42,2.72-.6.53-1.42,1.65-1.8,2.4-1.72-.75-3.17-1.75-4.4-2.97-1.15,1.2-2.42,2.15-3.8,2.9-.4-.65-1.38-1.75-2-2.2,1.5-.72,2.85-1.7,4.02-2.9-.92-1.4-1.65-2.97-2.25-4.7-.47,3.4-1.6,7-4.07,9.75-.5-.47-1.5-1.25-2.17-1.57.77-.85,1.4-1.78,1.9-2.75l-1.25.45c-.22-1.17-.8-2.95-1.35-4.32l2.1-.68c.42.92.85,2.1,1.15,3.1,1.3-3.3,1.47-6.9,1.47-9.57v-3.72h-2.08v-2.72h8.3l.45-.12,1.97.25c-.25,1.85-.62,4-1.02,6.07h2.05l.5-.1,1.77.68ZM46.95,188.53c.62,4.25,1.7,8,3.62,10.87,1.07-1.6,1.92-3.53,2.5-5.72h-1.62l-.2.97-2.65-.3c.47-2.1.95-4.7,1.3-6.8h-2.95v.97Z" style="fill:#333;"/><path d="M81.35,187.46h-4.12c.42.6.83,1.2,1.05,1.67l-2.75.78c-.28-.65-.9-1.62-1.5-2.45h-1.45c-.45.57-.9,1.07-1.38,1.52v1.35h9.57v4.95h-2.9v-2.72h-15.92v2.72h-2.8v-4.95h9.2v-1.75h1.1c-.45-.25-.92-.48-1.25-.62.2-.15.42-.33.62-.5h-2.92c.35.6.65,1.2.83,1.65l-2.67.75c-.2-.62-.65-1.57-1.12-2.4h-.42c-.65.92-1.35,1.75-2,2.4-.58-.47-1.75-1.27-2.42-1.6,1.5-1.25,2.92-3.17,3.67-5.07l2.77.75c-.17.4-.37.8-.57,1.2h5.55v1.67c1-1.03,1.85-2.32,2.37-3.62l2.82.68c-.17.42-.38.85-.6,1.28h7.25v2.32ZM65.88,200.31h12.85v6.45h-2.95v-.68h-9.9v.68h-2.85v-13.17h13.8v5.57h-10.95v1.15ZM65.88,195.73v1.3h8v-1.3h-8ZM65.88,202.48v1.4h9.9v-1.4h-9.9Z" style="fill:#333;"/><path d="M106.27,202.01v3h-22.72v-3h9.52v-12.92h-8.17v-3.1h19.97v3.1h-8.4v12.92h9.8Z" style="fill:#333;"/><path d="M131.4,199.78h-2.6v4.35h-3.02v-1.02h-4.5v.77c0,1.47-.35,2.07-1.33,2.5-.95.38-2.3.42-4.42.42-.15-.7-.6-1.72-.97-2.35,1.2.05,2.67.05,3.07.05.47-.03.62-.17.62-.62v-.77h-7.6v-2.15h7.6v-1.17h-9.9v-2.28h9.9v-1.07h-7.4v-2h7.4v-1.1h-6.77v-4.95h6.77v-1.02h-9.32v-2.35h9.32v-1.62h3.02v1.62h9.55v2.35h-9.55v1.02h7.1v4.95h-7.1v1.1h7.52v3.07h2.6v2.28ZM118.25,191.46v-1.2h-3.92v1.2h3.92ZM121.28,190.26v1.2h4.05v-1.2h-4.05ZM121.28,197.51h4.5v-1.07h-4.5v1.07ZM125.78,199.78h-4.5v1.17h4.5v-1.17Z" style="fill:#333;"/><path d="M152.9,204.18c.97,0,1.17-.43,1.33-2.62.6.43,1.67.85,2.4,1.03-.33,3.12-1.08,4.07-3.5,4.07h-4.37c-2.95,0-3.75-.8-3.75-3.65v-4.8l-1.02.47-1.02-2.42c-.1,6.12-.28,8.52-.85,9.32-.45.65-.92.9-1.6,1.03-.62.15-1.58.12-2.58.12-.05-.82-.32-1.92-.72-2.65.78.1,1.47.1,1.8.1s.52-.08.72-.4c.33-.5.47-2.6.58-8.47h-1.95c-.35,4.5-1.15,8.55-3.22,11.4-.47-.7-1.4-1.6-2.12-2.07,2.47-3.42,2.7-8.92,2.77-14.7h-2.4v-2.75h3.82v-3.77h2.85v3.77h3.9v1.88c1.02-1.62,1.77-3.62,2.22-5.67l2.92.55c-.2.88-.47,1.75-.75,2.6h7.85v2.7h-8.97c-.42.88-.9,1.7-1.42,2.43h1.83v2.4l1.35-.62v-3.57h2.47v2.42l1.8-.82.1-.07.45-.33,1.85.65-.1.4c-.03,3.55-.03,6.1-.1,6.85-.05.9-.4,1.45-1.08,1.72-.6.25-1.4.28-2.05.28-.07-.68-.27-1.62-.55-2.17.3.02.65.02.85.02s.32-.05.35-.37c.05-.23.05-1.6.08-3.97l-1.6.75v6.97h-2.47v-5.82l-1.35.62v6.02c0,1.03.17,1.18,1.42,1.18h3.85ZM145,195.28v-2.6l-.22.25c-.47-.55-1.57-1.65-2.22-2.1.28-.27.55-.57.8-.9h-4.77c-.03.9-.05,1.8-.08,2.67h4.5v1.12l-.05,2.5,2.05-.95Z" style="fill:#333;"/><path d="M181.27,202.01v3h-22.72v-3h9.52v-12.92h-8.17v-3.1h19.97v3.1h-8.4v12.92h9.8Z" style="fill:#333;"/><path d="M206.35,187.46h-4.12c.42.6.83,1.2,1.05,1.67l-2.75.78c-.28-.65-.9-1.62-1.5-2.45h-1.45c-.45.57-.9,1.07-1.38,1.52v1.35h9.57v4.95h-2.9v-2.72h-15.92v2.72h-2.8v-4.95h9.2v-1.75h1.1c-.45-.25-.92-.48-1.25-.62.2-.15.42-.33.62-.5h-2.92c.35.6.65,1.2.83,1.65l-2.67.75c-.2-.62-.65-1.57-1.12-2.4h-.42c-.65.92-1.35,1.75-2,2.4-.58-.47-1.75-1.27-2.42-1.6,1.5-1.25,2.92-3.17,3.67-5.07l2.77.75c-.17.4-.37.8-.57,1.2h5.55v1.67c1-1.03,1.85-2.32,2.37-3.62l2.82.68c-.17.42-.38.85-.6,1.28h7.25v2.32ZM190.88,200.31h12.85v6.45h-2.95v-.68h-9.9v.68h-2.85v-13.17h13.8v5.57h-10.95v1.15ZM190.88,195.73v1.3h8v-1.3h-8ZM190.88,202.48v1.4h9.9v-1.4h-9.9Z" style="fill:#333;"/><path d="M216.83,201.73c-2.75.97-5.75,1.92-8.15,2.7l-.67-3.03c.88-.22,1.9-.5,3.05-.82v-5.87h-2.52v-2.72h2.52v-4.4h-2.75v-2.78h8.25v2.78h-2.67v4.4h2.25v2.72h-2.25v5c.83-.25,1.65-.5,2.45-.78l.5,2.8ZM231.67,203.26v2.7h-16.07v-2.7h6.9v-2.37h-5.17v-2.68h5.17v-2.15h-5v-11.62h13.05v11.62h-5.02v2.15h5.3v2.68h-5.3v2.37h6.15ZM220.18,189.03h2.57v-2.07h-2.57v2.07ZM220.18,193.53h2.57v-2.15h-2.57v2.15ZM227.73,186.96h-2.47v2.07h2.47v-2.07ZM227.73,191.38h-2.47v2.15h2.47v-2.15Z" style="fill:#333;"/><path d="M241.9,196.73c-.88.25-1.77.5-2.67.72v5.97c0,1.45-.27,2.15-1.12,2.62-.83.45-2.03.52-3.77.52-.12-.75-.5-1.92-.85-2.7.97.03,2,.03,2.32.03.38,0,.47-.12.47-.5v-5.15l-2.42.6-.78-2.82c.92-.18,2-.43,3.2-.72v-4.42h-2.87v-2.75h2.87v-4.75h2.95v4.75h2.45v2.75h-2.45v3.7l2.3-.58.38,2.72ZM255.75,193.36c-.95,3.47-2.55,6.2-4.65,8.3,1.62,1.15,3.55,1.97,5.77,2.53-.62.6-1.47,1.8-1.9,2.57-2.42-.72-4.5-1.75-6.22-3.15-1.95,1.35-4.15,2.35-6.57,3.07-.32-.8-1.05-2.05-1.6-2.7,2.2-.52,4.22-1.32,5.97-2.45-1.47-1.67-2.65-3.65-3.55-5.95l.75-.22h-1.3v-2.68h4.92v-3h-5.37v-2.75h5.37v-3.57h2.95v3.57h5.6v2.75h-5.6v3h3l.53-.12,1.9.8ZM245.9,195.36c.7,1.65,1.7,3.15,2.95,4.42,1.3-1.25,2.37-2.72,3.12-4.42h-6.07Z" style="fill:#333;"/><path d="M271.43,193.81v8.82h8.5v2.97h-19.97v-2.97h8.27v-8.82h-9.62v-2.95h9.62v-7.42h3.2v7.42h9.82v2.95h-9.82Z" style="fill:#333;"/><path d="M308.43,202.43c5.02-4.5,8-7.97,8-10.82,0-1.88-1.03-3-2.77-3-1.35,0-2.47.88-3.4,1.9l-2-2c1.7-1.8,3.35-2.8,5.87-2.8,3.5,0,5.82,2.25,5.82,5.7s-2.77,6.95-6.15,10.25c.92-.1,2.15-.2,3-.2h4.02v3.1h-12.4v-2.12Z" style="fill:#333;"/><path d="M335.9,183.96c-.02.4-.05.9-.07,1.43.2,3.45,1.45,14.22,10.77,18.59-.92.7-1.82,1.72-2.3,2.53-5.65-2.8-8.45-7.95-9.85-12.55-1.35,4.5-3.97,9.32-9.25,12.55-.52-.78-1.5-1.67-2.5-2.38,9.97-5.52,9.62-16.87,9.8-20.17h3.4Z" style="fill:#333;"/><path d="M19.68,234.58h3.97v-11.7h-3.35v-2.28c1.85-.35,3.12-.82,4.3-1.55h2.72v15.52h3.47v2.97h-11.12v-2.97Z" style="fill:#333;"/><path d="M36.58,231.43c-.25,2.35-.77,4.85-1.5,6.45-.53-.32-1.62-.85-2.27-1.07.72-1.47,1.12-3.7,1.32-5.8l2.45.43ZM39.5,229.53v10.22h-2.57v-10.05c-1.3.07-2.55.15-3.62.22l-.25-2.57,1.82-.08c.38-.5.75-1.02,1.15-1.6-.72-1.07-1.92-2.4-2.95-3.4l1.42-2.03c.17.15.38.33.58.5.7-1.38,1.4-3.02,1.82-4.35l2.57.95c-.9,1.7-1.9,3.65-2.8,5.02.3.35.6.68.85,1,.85-1.4,1.65-2.82,2.22-4.05l2.42,1.12c-1.37,2.17-3.1,4.7-4.67,6.72l2.7-.12c-.25-.62-.55-1.22-.85-1.78l1.95-.82c.97,1.7,1.95,3.88,2.22,5.3l-2.12.95c-.08-.38-.17-.82-.33-1.3l-1.57.12ZM56.32,224.61c-.75,4.1-2.1,7.42-3.92,10.02,1.22,1.17,2.67,2.1,4.42,2.72-.6.53-1.42,1.65-1.8,2.4-1.72-.75-3.17-1.75-4.4-2.97-1.15,1.2-2.42,2.15-3.8,2.9-.4-.65-1.38-1.75-2-2.2,1.5-.72,2.85-1.7,4.02-2.9-.92-1.4-1.65-2.97-2.25-4.7-.47,3.4-1.6,7-4.07,9.75-.5-.47-1.5-1.25-2.17-1.57.77-.85,1.4-1.78,1.9-2.75l-1.25.45c-.22-1.17-.8-2.95-1.35-4.32l2.1-.68c.42.92.85,2.1,1.15,3.1,1.3-3.3,1.47-6.9,1.47-9.57v-3.72h-2.08v-2.72h8.3l.45-.12,1.97.25c-.25,1.85-.62,4-1.02,6.07h2.05l.5-.1,1.77.68ZM46.95,221.53c.62,4.25,1.7,8,3.62,10.87,1.07-1.6,1.92-3.53,2.5-5.72h-1.62l-.2.97-2.65-.3c.47-2.1.95-4.7,1.3-6.8h-2.95v.97Z" style="fill:#333;"/><path d="M64.3,233.93c1.02,1.68,2.9,2.35,5.5,2.45,2.92.12,8.55.05,11.87-.2-.33.7-.78,2.15-.92,3-3,.15-8.02.2-11,.07-3.07-.12-5.12-.82-6.75-2.78-1.1.98-2.2,1.95-3.57,3l-1.45-3.1c1.07-.62,2.32-1.45,3.42-2.3v-5.27h-2.87v-2.72h5.77v7.85ZM62.58,222.71c-.77-1.2-2.55-2.85-4.02-3.95l2.2-1.8c1.5,1.05,3.32,2.6,4.17,3.77l-2.35,1.97ZM66.95,223.83c-.6-.45-1.8-1.07-2.47-1.4,1.55-1.38,2.82-3.57,3.55-5.82l2.77.65c-.22.65-.47,1.3-.77,1.92h1.75v-2.77h2.95v2.77h5.45v2.53h-5.45v2.12h6.47v2.47h-16.07v-2.47h1.82ZM68.65,221.71c-.52.8-1.07,1.52-1.65,2.12h4.77v-2.12h-3.12ZM67.13,234.96v-7.27h12.57v7.27h-12.57ZM70.03,232.58h6.57v-2.55h-6.57v2.55Z" style="fill:#333;"/><path d="M105.5,217.34v22.39h-2.9v-.9h-15.62v.9h-2.8v-22.39h21.32ZM102.6,236.18v-16.17h-15.62v16.17h15.62ZM101.88,231.03c-.8.62-1.72,1.22-2.55,1.7.92.43,1.95.8,2.95,1.03-.5.45-1.2,1.32-1.5,1.9-1.83-.6-3.62-1.6-5.05-2.82v2.8h-2.6v-2.6c-1.38.85-2.85,1.55-4.27,2.07-.3-.47-1.1-1.43-1.6-1.88,2.05-.6,4.17-1.5,5.77-2.62h-3.92v-4.27h11.52v3.87l1.25.83ZM101.73,225.58h-13.9v-1.67h5.57v-.95h-4.4v-1.6h4.4v-1.05h2.7v1.05h4.6v1.6h-4.6v.95h5.62v1.67ZM91.58,229.11h6.45v-1.25h-6.45v1.25ZM96.25,230.68c.4.38.85.75,1.38,1.1.52-.35,1.1-.78,1.62-1.18h-2.92l-.08.08Z" style="fill:#333;"/><path d="M127.9,237.18c.97,0,1.17-.43,1.33-2.62.6.43,1.67.85,2.4,1.03-.33,3.12-1.08,4.07-3.5,4.07h-4.37c-2.95,0-3.75-.8-3.75-3.65v-4.8l-1.02.47-1.02-2.42c-.1,6.12-.28,8.52-.85,9.32-.45.65-.92.9-1.6,1.03-.62.15-1.58.12-2.58.12-.05-.82-.32-1.92-.72-2.65.78.1,1.47.1,1.8.1s.52-.08.72-.4c.33-.5.47-2.6.58-8.47h-1.95c-.35,4.5-1.15,8.55-3.22,11.4-.47-.7-1.4-1.6-2.12-2.07,2.47-3.42,2.7-8.92,2.77-14.7h-2.4v-2.75h3.82v-3.77h2.85v3.77h3.9v1.88c1.02-1.62,1.77-3.62,2.22-5.67l2.92.55c-.2.88-.47,1.75-.75,2.6h7.85v2.7h-8.97c-.42.88-.9,1.7-1.42,2.43h1.83v2.4l1.35-.62v-3.57h2.47v2.42l1.8-.82.1-.07.45-.33,1.85.65-.1.4c-.03,3.55-.03,6.1-.1,6.85-.05.9-.4,1.45-1.08,1.72-.6.25-1.4.28-2.05.28-.07-.68-.27-1.62-.55-2.17.3.02.65.02.85.02s.32-.05.35-.37c.05-.23.05-1.6.08-3.97l-1.6.75v6.97h-2.47v-5.82l-1.35.62v6.02c0,1.03.17,1.18,1.42,1.18h3.85ZM120,228.28v-2.6l-.22.25c-.47-.55-1.57-1.65-2.22-2.1.28-.27.55-.57.8-.9h-4.77c-.03.9-.05,1.8-.08,2.67h4.5v1.12l-.05,2.5,2.05-.95Z" style="fill:#333;"/><path d="M156.27,235.01v3h-22.72v-3h9.52v-12.92h-8.17v-3.1h19.97v3.1h-8.4v12.92h9.8Z" style="fill:#333;"/><path d="M181.35,220.46h-4.12c.42.6.83,1.2,1.05,1.67l-2.75.78c-.28-.65-.9-1.62-1.5-2.45h-1.45c-.45.57-.9,1.07-1.38,1.52v1.35h9.57v4.95h-2.9v-2.72h-15.92v2.72h-2.8v-4.95h9.2v-1.75h1.1c-.45-.25-.92-.48-1.25-.62.2-.15.42-.33.62-.5h-2.92c.35.6.65,1.2.83,1.65l-2.67.75c-.2-.62-.65-1.57-1.12-2.4h-.42c-.65.92-1.35,1.75-2,2.4-.58-.47-1.75-1.27-2.42-1.6,1.5-1.25,2.92-3.17,3.67-5.07l2.77.75c-.17.4-.37.8-.57,1.2h5.55v1.67c1-1.03,1.85-2.32,2.37-3.62l2.82.68c-.17.42-.38.85-.6,1.28h7.25v2.32ZM165.88,233.31h12.85v6.45h-2.95v-.68h-9.9v.68h-2.85v-13.17h13.8v5.57h-10.95v1.15ZM165.88,228.73v1.3h8v-1.3h-8ZM165.88,235.48v1.4h9.9v-1.4h-9.9Z" style="fill:#333;"/><path d="M191.83,234.73c-2.75.97-5.75,1.92-8.15,2.7l-.67-3.03c.88-.22,1.9-.5,3.05-.82v-5.87h-2.52v-2.72h2.52v-4.4h-2.75v-2.78h8.25v2.78h-2.67v4.4h2.25v2.72h-2.25v5c.83-.25,1.65-.5,2.45-.78l.5,2.8ZM206.67,236.26v2.7h-16.07v-2.7h6.9v-2.37h-5.17v-2.68h5.17v-2.15h-5v-11.62h13.05v11.62h-5.02v2.15h5.3v2.68h-5.3v2.37h6.15ZM195.18,222.03h2.57v-2.07h-2.57v2.07ZM195.18,226.53h2.57v-2.15h-2.57v2.15ZM202.73,219.96h-2.47v2.07h2.47v-2.07ZM202.73,224.38h-2.47v2.15h2.47v-2.15Z" style="fill:#333;"/><path d="M216.9,229.73c-.88.25-1.77.5-2.67.72v5.97c0,1.45-.27,2.15-1.12,2.62-.83.45-2.03.52-3.77.52-.12-.75-.5-1.92-.85-2.7.97.03,2,.03,2.32.03.38,0,.47-.12.47-.5v-5.15l-2.42.6-.78-2.82c.92-.18,2-.43,3.2-.72v-4.42h-2.87v-2.75h2.87v-4.75h2.95v4.75h2.45v2.75h-2.45v3.7l2.3-.58.38,2.72ZM230.75,226.36c-.95,3.47-2.55,6.2-4.65,8.3,1.62,1.15,3.55,1.97,5.77,2.53-.62.6-1.47,1.8-1.9,2.57-2.42-.72-4.5-1.75-6.22-3.15-1.95,1.35-4.15,2.35-6.57,3.07-.32-.8-1.05-2.05-1.6-2.7,2.2-.52,4.22-1.32,5.97-2.45-1.47-1.67-2.65-3.65-3.55-5.95l.75-.22h-1.3v-2.68h4.92v-3h-5.37v-2.75h5.37v-3.57h2.95v3.57h5.6v2.75h-5.6v3h3l.53-.12,1.9.8ZM220.9,228.36c.7,1.65,1.7,3.15,2.95,4.42,1.3-1.25,2.37-2.72,3.12-4.42h-6.07Z" style="fill:#333;"/><path d="M246.43,226.81v8.82h8.5v2.97h-19.97v-2.97h8.27v-8.82h-9.62v-2.95h9.62v-7.42h3.2v7.42h9.82v2.95h-9.82Z" style="fill:#333;"/><path d="M284.41,234.58h3.97v-11.7h-3.35v-2.28c1.85-.35,3.12-.82,4.3-1.55h2.72v15.52h3.47v2.97h-11.12v-2.97Z" style="fill:#333;"/><path d="M310.9,216.96c-.02.4-.05.9-.07,1.43.2,3.45,1.45,14.22,10.77,18.59-.92.7-1.82,1.72-2.3,2.53-5.65-2.8-8.45-7.95-9.85-12.55-1.35,4.5-3.97,9.32-9.25,12.55-.52-.78-1.5-1.67-2.5-2.38,9.97-5.52,9.62-16.87,9.8-20.17h3.4Z" style="fill:#333;"/><path d="M36.78,269.63c1.35,0,1.57-.52,1.77-3.45.67.53,2.05,1.03,2.95,1.22-.4,4.03-1.32,5.15-4.47,5.15h-4.82c-3.65,0-4.65-.95-4.65-4.15v-3.1l-8.27.88-.35-2.87,8.62-.85v-2.53c-1.77.28-3.55.5-5.25.68-.1-.75-.52-1.93-.88-2.6,4.87-.58,10.12-1.55,13.32-2.93l2.32,2.45c-1.82.72-3.97,1.32-6.25,1.8v2.8l10.07-1,.35,2.75-10.42,1.1v3.38c0,1.12.22,1.27,1.7,1.27h4.25ZM22.48,257.46h-3.02v-5.87h9.02v-2.17h3.15v2.17h9.2v5.87h-3.17v-3.07h-15.17v3.07Z" style="fill:#333;"/><path d="M49.23,263.86c.77-.32,1.55-.65,2.3-.97l.67,2.62c-2.65,1.32-5.5,2.65-7.8,3.72l-1.2-3c.9-.32,2-.75,3.25-1.25v-7.02h-2.92v-2.82h2.92v-5.42h2.77v5.42h2.52v2.82h-2.52v5.9ZM62.58,269.6c1.37,0,1.62-.57,1.85-3.12.62.45,1.77.92,2.6,1.07-.4,3.5-1.28,4.7-4.2,4.7h-5.32c-3.37,0-4.35-.93-4.35-4.38v-6.42l-1.35.57-1.1-2.65,2.45-1.03v-6.57h2.85v5.35l2.07-.88v-6.9h2.77v5.7l1.97-.85.52-.35.53-.35,2.07.72-.1.5c0,4.75-.05,7.75-.18,8.77-.07,1.15-.52,1.75-1.27,2.07-.72.33-1.8.35-2.6.35-.07-.75-.3-1.87-.62-2.5.42.05.97.05,1.2.05.3,0,.45-.1.55-.55.05-.4.08-2.22.08-5.77l-2.15.95v8.82h-2.77v-7.62l-2.07.9v7.7c0,1.47.22,1.7,1.75,1.7h4.82Z" style="fill:#333;"/><path d="M76.3,258.13c-.3,3.57-.9,6.52-1.77,8.9,2.32,1.85,5.47,2.22,9.12,2.25,1.47,0,6.55,0,8.37-.07-.48.67-.95,2.07-1.15,2.9h-7.3c-4.22,0-7.62-.5-10.27-2.5-.78,1.35-1.7,2.4-2.77,3.22-.45-.6-1.6-1.62-2.22-2,1.17-.83,2.15-1.93,2.92-3.35-.92-1.25-1.7-2.85-2.35-4.85l2.32-.85c.33,1.1.75,2.03,1.22,2.82.38-1.25.67-2.65.88-4.2h-1.7l-.32.72-2.7-.7c1.07-2.2,2.27-4.9,3.2-7.07h-3.25v-2.6h4.57l.45-.1,2.02.55c-.75,1.95-1.77,4.32-2.8,6.6h1.25l.52-.07,1.75.4ZM81.75,253.24h-4.57v-2.25h4.57v-1.43h2.9v1.43h5.2v3.27h1.87v2.28h-1.87v3.27h-5.2v1.1h5.4v2.15h-5.4v1.17h6.55v2.32h-6.55v2.03h-2.9v-2.03h-5.92v-2.32h5.92v-1.17h-4.85v-2.15h4.85v-1.1h-4.7v-2.25h4.7v-1.02h-6.27v-2.28h6.27v-1.02ZM84.65,253.24v1.02h2.27v-1.02h-2.27ZM86.93,256.53h-2.27v1.02h2.27v-1.02Z" style="fill:#333;"/><path d="M103.25,263.03c-.9.25-1.77.55-2.7.82v8.9h-2.72v-8.07c-1.35.4-2.6.8-3.75,1.1l-.72-2.82c1.25-.28,2.77-.68,4.47-1.15v-4.77h-1.67c-.28,1.22-.58,2.3-.92,3.2-.45-.38-1.55-1.05-2.1-1.38.77-1.97,1.2-5.1,1.42-8.05l2.47.43c-.1,1-.22,1.97-.37,2.97h1.17v-4.8h2.72v4.8h2.08v2.82h-2.08v4.02l2.3-.65.4,2.62ZM116.7,253.26s-.03,1-.05,1.35c-.48,11.15-.92,15.22-1.88,16.47-.58.85-1.12,1.12-1.95,1.3-.7.12-1.75.12-2.82.07-.08-.85-.38-2.07-.83-2.9.92.1,1.75.1,2.22.1.38,0,.62-.1.92-.47.62-.8,1.07-4.2,1.47-13.17h-.12c-1.22,6.3-3.8,12.8-7.82,16.12-.58-.57-1.6-1.3-2.42-1.72,4-2.88,6.5-8.55,7.75-14.4h-1.17c-1.1,4.07-3.2,8.55-5.72,10.95-.55-.57-1.5-1.25-2.27-1.67,2.47-1.95,4.42-5.65,5.52-9.27h-1.27c-.73,1.72-1.6,3.27-2.58,4.47-.47-.48-1.65-1.3-2.25-1.68,1.97-2.17,3.35-5.75,4.1-9.42l2.7.5c-.25,1.15-.57,2.27-.92,3.37h9.4Z" style="fill:#333;"/><path d="M141.25,252.96c-.52,5.45-1.72,9.75-3.6,13.1,1.22,1.68,2.72,3.07,4.52,4.05-.67.55-1.6,1.68-2.05,2.45-1.7-1.03-3.1-2.3-4.3-3.82-1.27,1.55-2.75,2.8-4.45,3.82-.38-.65-1.05-1.58-1.65-2.18v2.35h-2.87v-4c-2.87.5-5.8.95-8.1,1.3l-.58-2.97c.67-.07,1.45-.15,2.3-.25v-13.27h-1.7v-2.75h12.55v1.78h7.47l.5-.07,1.95.47ZM123.31,253.53v2.38h3.55v-2.38h-3.55ZM123.31,261.08h3.55v-2.5h-3.55v2.5ZM123.31,266.46c1.15-.15,2.35-.32,3.55-.47v-2.25h-3.55v2.72ZM129.73,269.98c1.65-.92,3.1-2.27,4.32-3.97-1.52-2.78-2.6-6.12-3.37-9.9l2.85-.57c.5,2.67,1.25,5.2,2.3,7.4.97-2.15,1.72-4.65,2.15-7.45h-7.37v-1.95h-.88v16.45Z" style="fill:#333;"/><path d="M155.65,261.36s-.02.82-.1,1.22c-.4,5.52-.85,7.95-1.72,8.92-.7.75-1.4.97-2.47,1.07-.88.1-2.4.1-3.92.05-.08-.95-.52-2.25-1.1-3.12,1.5.15,3.1.18,3.77.18.5,0,.8-.05,1.12-.3.53-.42.85-2,1.12-5.27h-5.07c-.07.4-.15.78-.22,1.12l-3-.47c.58-2.35,1.2-5.92,1.52-8.8h6.92v-2.85h-7.52v-2.78h10.47v8.4h-7.25c-.12.88-.27,1.77-.42,2.62h7.87ZM164.05,249.76v22.97h-2.97v-22.97h2.97Z" style="fill:#333;"/><path d="M191.38,269.03v2.92h-22.37v-2.92h9.5v-4.82h-7.12v-2.87h7.12v-4.32h-8.45v-2.9h10c-1.05-1.02-2.55-2.17-3.75-3.05l2.45-1.7c1.6,1.03,3.75,2.62,4.8,3.77l-1.32.97h7.92v2.9h-8.37v4.32h7.17v2.87h-7.17v4.82h9.6Z" style="fill:#333;"/><path d="M210.43,262.63v6.4h6v2.85h-14.8v-2.85h5.77v-6.4h-6.77v-2.87h6.77v-5.55c-1.75.3-3.52.52-5.2.72-.12-.72-.52-1.78-.85-2.47-.45,1.02-.97,2.02-1.55,3v17.25h-2.97v-12.8c-.67.85-1.33,1.62-2.02,2.3-.3-.73-1.22-2.38-1.75-3.12,2.5-2.3,4.87-5.92,6.25-9.62l2.95.93c-.28.67-.55,1.32-.88,2,4.5-.57,9.42-1.52,12.52-2.65l2.17,2.5c-1.7.57-3.62,1.05-5.65,1.42v6.1h6.25v2.87h-6.25Z" style="fill:#333;"/><path d="M232.33,259.56c-.97.7-1.92,1.35-2.95,2h9.07v11.1h-3.1v-.65h-8.6v.75h-2.97v-8.17c-1.25.55-2.55,1.1-3.82,1.58-.38-.65-1.25-1.85-1.82-2.45,3.27-1.02,6.42-2.45,9.3-4.15h-8.5v-2.62h8.02v-2.27h-5.87v-2.57h5.87v-2.7h2.95v2.7h5.42v1.22c.95-1.03,1.8-2.07,2.58-3.17l2.55,1.3c-1.42,1.97-3.1,3.82-4.92,5.5h5.8v2.62h-9ZM235.35,263.98h-8.6v1.6h8.6v-1.6ZM235.35,269.53v-1.7h-8.6v1.7h8.6ZM229.9,256.93h1.37c.95-.72,1.85-1.47,2.7-2.27h-4.07v2.27Z" style="fill:#333;"/><path d="M268.28,268.33l1.72-2.32c1.1,1.07,2.45,1.9,4.12,1.9,1.88,0,3.15-.92,3.15-2.57,0-1.82-1.07-2.95-5.1-2.95v-2.65c3.4,0,4.5-1.18,4.5-2.82,0-1.45-.9-2.3-2.47-2.32-1.32.02-2.4.65-3.5,1.65l-1.88-2.25c1.6-1.4,3.38-2.27,5.55-2.27,3.57,0,6,1.75,6,4.92,0,2-1.12,3.45-3.1,4.22v.12c2.1.57,3.7,2.12,3.7,4.55,0,3.4-2.97,5.37-6.5,5.37-2.92,0-4.9-1.1-6.2-2.57Z" style="fill:#333;"/><path d="M296.18,249.96c-.02.4-.05.9-.07,1.43.2,3.45,1.45,14.22,10.77,18.59-.92.7-1.82,1.72-2.3,2.53-5.65-2.8-8.45-7.95-9.85-12.55-1.35,4.5-3.97,9.32-9.25,12.55-.52-.78-1.5-1.67-2.5-2.38,9.97-5.52,9.62-16.87,9.8-20.17h3.4Z" style="fill:#333;"/></svg>