<?xml version="1.0" encoding="UTF-8"?><svg id="_レイヤー_1" xmlns="http://www.w3.org/2000/svg" viewBox="0 0 360 288"><rect width="360" height="288" style="fill:none;"/><path d="M50.22,141.63c-.5-.46-1.27-.69-2.31-.69-1.58,0-2.86.61-3.85,1.82-.99,1.21-1.75,3.21-2.29,6.01.68-.88,1.56-1.56,2.66-2.04,1.09-.48,2.21-.72,3.38-.72,1.72,0,3.08.48,4.08,1.44s1.5,2.3,1.5,4.02c0,.66-.05,1.24-.15,1.74-.24,1.4-.73,2.65-1.48,3.75s-1.72,1.96-2.91,2.59-2.55.95-4.06.95c-2.3,0-3.95-.58-4.95-1.73-1-1.15-1.5-2.83-1.5-5.05,0-1.28.16-2.83.48-4.65,1.28-7.32,4.5-10.98,9.66-10.98,1.36,0,2.48.25,3.36.76.88.51,1.51,1.19,1.9,2.04.39.85.56,1.79.5,2.81h-3.15c-.06-.92-.34-1.61-.84-2.07ZM43.23,149.98c-.98.73-1.59,1.79-1.83,3.17-.06.36-.09.72-.09,1.08,0,1.06.32,1.9.96,2.5.64.61,1.58.92,2.82.92s2.33-.39,3.19-1.17c.87-.78,1.42-1.82,1.64-3.12.08-.38.12-.78.12-1.2,0-1.02-.29-1.82-.87-2.4-.58-.58-1.46-.87-2.64-.87s-2.32.37-3.3,1.09Z" style="fill:none; stroke:#fff; stroke-linecap:round; stroke-linejoin:round; stroke-width:3px;"/><path d="M64.32,157.62c1.42,0,2.56-.56,3.42-1.68.86-1.12,1.53-3.03,2.01-5.73-.6.68-1.37,1.21-2.31,1.58s-1.92.55-2.94.55c-1.76,0-3.18-.47-4.26-1.41-1.08-.94-1.62-2.28-1.62-4.02,0-.4.05-.92.15-1.56.4-2.2,1.36-3.96,2.88-5.26s3.41-1.96,5.67-1.96c2.12,0,3.65.54,4.6,1.63.95,1.09,1.42,2.74,1.42,4.93,0,1.3-.15,2.79-.45,4.47-.46,2.58-1.04,4.69-1.75,6.33-.71,1.64-1.67,2.88-2.88,3.72-1.21.84-2.76,1.26-4.64,1.26-1.98,0-3.46-.49-4.44-1.47s-1.47-2.24-1.47-3.78c0-.3,0-.52.03-.66h3.15c.06,2.04,1.2,3.06,3.42,3.06ZM68.64,148.34c.82-.75,1.34-1.75,1.56-2.99.08-.52.12-.89.12-1.11,0-1.04-.3-1.85-.9-2.42-.6-.57-1.44-.86-2.52-.86-1.26,0-2.32.4-3.19,1.18-.87.79-1.42,1.83-1.63,3.11-.06.32-.09.64-.09.96,0,.96.3,1.74.9,2.34.6.6,1.51.9,2.73.9s2.21-.38,3.03-1.12Z" style="fill:none; stroke:#fff; stroke-linecap:round; stroke-linejoin:round; stroke-width:3px;"/><path d="M83.3,156.06h-8.2v-1.12h1.63v-6.82h-1.41v-1.12h1.41v-2.03h1.14v2.03h3.04v-2.03h1.16v2.03h1.23v1.12h-1.23v6.82h1.23v1.12ZM78.62,156.73c-.6,1.29-1.56,2.57-2.49,3.39-.24-.2-.71-.55-1.01-.72.92-.76,1.8-1.88,2.3-2.99l1.19.32ZM77.88,148.11v1.48h3.04v-1.48h-3.04ZM77.88,152.24h3.04v-1.65h-3.04v1.65ZM77.88,154.93h3.04v-1.68h-3.04v1.68ZM80.78,156.41c.67.76,1.44,1.8,1.76,2.49l-1.01.59c-.3-.67-1.06-1.76-1.73-2.55l.97-.52ZM89.94,158.51c0,.74-.19,1.11-.64,1.31-.49.2-1.26.24-2.5.24-.05-.35-.22-.89-.39-1.21.89.02,1.73.02,1.97,0,.25,0,.35-.08.35-.35v-4.03h-3.54c-.17,2-.59,4.13-1.6,5.75-.2-.23-.71-.62-.99-.74,1.39-2.22,1.53-5.39,1.53-7.79v-6.06h5.81v12.9ZM88.73,153.34v-2.79h-3.43v1.12c0,.52-.02,1.09-.03,1.66h3.46ZM85.3,146.75v2.67h3.43v-2.67h-3.43Z" style="fill:none; stroke:#fff; stroke-linecap:round; stroke-linejoin:round; stroke-width:3px;"/><path d="M50.22,141.63c-.5-.46-1.27-.69-2.31-.69-1.58,0-2.86.61-3.85,1.82-.99,1.21-1.75,3.21-2.29,6.01.68-.88,1.56-1.56,2.66-2.04,1.09-.48,2.21-.72,3.38-.72,1.72,0,3.08.48,4.08,1.44s1.5,2.3,1.5,4.02c0,.66-.05,1.24-.15,1.74-.24,1.4-.73,2.65-1.48,3.75s-1.72,1.96-2.91,2.59-2.55.95-4.06.95c-2.3,0-3.95-.58-4.95-1.73-1-1.15-1.5-2.83-1.5-5.05,0-1.28.16-2.83.48-4.65,1.28-7.32,4.5-10.98,9.66-10.98,1.36,0,2.48.25,3.36.76.88.51,1.51,1.19,1.9,2.04.39.85.56,1.79.5,2.81h-3.15c-.06-.92-.34-1.61-.84-2.07ZM43.23,149.98c-.98.73-1.59,1.79-1.83,3.17-.06.36-.09.72-.09,1.08,0,1.06.32,1.9.96,2.5.64.61,1.58.92,2.82.92s2.33-.39,3.19-1.17c.87-.78,1.42-1.82,1.64-3.12.08-.38.12-.78.12-1.2,0-1.02-.29-1.82-.87-2.4-.58-.58-1.46-.87-2.64-.87s-2.32.37-3.3,1.09Z" style="fill:#333;"/><path d="M64.32,157.62c1.42,0,2.56-.56,3.42-1.68.86-1.12,1.53-3.03,2.01-5.73-.6.68-1.37,1.21-2.31,1.58s-1.92.55-2.94.55c-1.76,0-3.18-.47-4.26-1.41-1.08-.94-1.62-2.28-1.62-4.02,0-.4.05-.92.15-1.56.4-2.2,1.36-3.96,2.88-5.26s3.41-1.96,5.67-1.96c2.12,0,3.65.54,4.6,1.63.95,1.09,1.42,2.74,1.42,4.93,0,1.3-.15,2.79-.45,4.47-.46,2.58-1.04,4.69-1.75,6.33-.71,1.64-1.67,2.88-2.88,3.72-1.21.84-2.76,1.26-4.64,1.26-1.98,0-3.46-.49-4.44-1.47s-1.47-2.24-1.47-3.78c0-.3,0-.52.03-.66h3.15c.06,2.04,1.2,3.06,3.42,3.06ZM68.64,148.34c.82-.75,1.34-1.75,1.56-2.99.08-.52.12-.89.12-1.11,0-1.04-.3-1.85-.9-2.42-.6-.57-1.44-.86-2.52-.86-1.26,0-2.32.4-3.19,1.18-.87.79-1.42,1.83-1.63,3.11-.06.32-.09.64-.09.96,0,.96.3,1.74.9,2.34.6.6,1.51.9,2.73.9s2.21-.38,3.03-1.12Z" style="fill:#333;"/><path d="M83.3,156.06h-8.2v-1.12h1.63v-6.82h-1.41v-1.12h1.41v-2.03h1.14v2.03h3.04v-2.03h1.16v2.03h1.23v1.12h-1.23v6.82h1.23v1.12ZM78.62,156.73c-.6,1.29-1.56,2.57-2.49,3.39-.24-.2-.71-.55-1.01-.72.92-.76,1.8-1.88,2.3-2.99l1.19.32ZM77.88,148.11v1.48h3.04v-1.48h-3.04ZM77.88,152.24h3.04v-1.65h-3.04v1.65ZM77.88,154.93h3.04v-1.68h-3.04v1.68ZM80.78,156.41c.67.76,1.44,1.8,1.76,2.49l-1.01.59c-.3-.67-1.06-1.76-1.73-2.55l.97-.52ZM89.94,158.51c0,.74-.19,1.11-.64,1.31-.49.2-1.26.24-2.5.24-.05-.35-.22-.89-.39-1.21.89.02,1.73.02,1.97,0,.25,0,.35-.08.35-.35v-4.03h-3.54c-.17,2-.59,4.13-1.6,5.75-.2-.23-.71-.62-.99-.74,1.39-2.22,1.53-5.39,1.53-7.79v-6.06h5.81v12.9ZM88.73,153.34v-2.79h-3.43v1.12c0,.52-.02,1.09-.03,1.66h3.46ZM85.3,146.75v2.67h3.43v-2.67h-3.43Z" style="fill:#333;"/><path d="M51.34,57.82c-.5-.46-1.27-.69-2.31-.69-1.58,0-2.86.61-3.85,1.82-.99,1.21-1.75,3.21-2.29,6.01.68-.88,1.56-1.56,2.66-2.04,1.09-.48,2.21-.72,3.38-.72,1.72,0,3.08.48,4.08,1.44s1.5,2.3,1.5,4.02c0,.66-.05,1.24-.15,1.74-.24,1.4-.73,2.65-1.48,3.75s-1.72,1.96-2.91,2.59-2.55.95-4.06.95c-2.3,0-3.95-.58-4.95-1.73-1-1.15-1.5-2.83-1.5-5.05,0-1.28.16-2.83.48-4.65,1.28-7.32,4.5-10.98,9.66-10.98,1.36,0,2.48.25,3.36.76.88.51,1.51,1.19,1.9,2.04.39.85.56,1.79.5,2.81h-3.15c-.06-.92-.34-1.61-.84-2.07ZM44.35,66.17c-.98.73-1.59,1.79-1.83,3.17-.06.36-.09.72-.09,1.08,0,1.06.32,1.9.96,2.5.64.61,1.58.92,2.82.92s2.33-.39,3.19-1.17c.87-.78,1.42-1.82,1.64-3.12.08-.38.12-.78.12-1.2,0-1.02-.29-1.82-.87-2.4-.58-.58-1.46-.87-2.64-.87s-2.32.37-3.3,1.09Z" style="fill:none; stroke:#fff; stroke-linecap:round; stroke-linejoin:round; stroke-width:3px;"/><path d="M73.96,57.46l-11.73,19.23h-3.75l12.09-18.93h-11.1l.48-2.85h14.46l-.45,2.55Z" style="fill:none; stroke:#fff; stroke-linecap:round; stroke-linejoin:round; stroke-width:3px;"/><path d="M82.18,72.24h-8.2v-1.12h1.63v-6.82h-1.41v-1.12h1.41v-2.03h1.14v2.03h3.04v-2.03h1.16v2.03h1.23v1.12h-1.23v6.82h1.23v1.12ZM77.49,72.92c-.6,1.29-1.56,2.57-2.49,3.39-.24-.2-.71-.55-1.01-.72.92-.76,1.8-1.88,2.3-2.99l1.19.32ZM76.75,64.3v1.48h3.04v-1.48h-3.04ZM76.75,68.43h3.04v-1.65h-3.04v1.65ZM76.75,71.12h3.04v-1.68h-3.04v1.68ZM79.66,72.6c.67.76,1.44,1.8,1.76,2.49l-1.01.59c-.3-.67-1.06-1.76-1.73-2.55l.97-.52ZM88.81,74.7c0,.74-.19,1.11-.64,1.31-.49.2-1.26.24-2.5.24-.05-.35-.22-.89-.39-1.21.89.02,1.73.02,1.97,0,.25,0,.35-.08.35-.35v-4.03h-3.54c-.17,2-.59,4.13-1.6,5.75-.2-.23-.71-.62-.99-.74,1.39-2.22,1.53-5.39,1.53-7.79v-6.06h5.81v12.9ZM87.6,69.52v-2.79h-3.43v1.12c0,.52-.02,1.09-.03,1.66h3.46ZM84.18,62.94v2.67h3.43v-2.67h-3.43Z" style="fill:none; stroke:#fff; stroke-linecap:round; stroke-linejoin:round; stroke-width:3px;"/><path d="M51.34,57.82c-.5-.46-1.27-.69-2.31-.69-1.58,0-2.86.61-3.85,1.82-.99,1.21-1.75,3.21-2.29,6.01.68-.88,1.56-1.56,2.66-2.04,1.09-.48,2.21-.72,3.38-.72,1.72,0,3.08.48,4.08,1.44s1.5,2.3,1.5,4.02c0,.66-.05,1.24-.15,1.74-.24,1.4-.73,2.65-1.48,3.75s-1.72,1.96-2.91,2.59-2.55.95-4.06.95c-2.3,0-3.95-.58-4.95-1.73-1-1.15-1.5-2.83-1.5-5.05,0-1.28.16-2.83.48-4.65,1.28-7.32,4.5-10.98,9.66-10.98,1.36,0,2.48.25,3.36.76.88.51,1.51,1.19,1.9,2.04.39.85.56,1.79.5,2.81h-3.15c-.06-.92-.34-1.61-.84-2.07ZM44.35,66.17c-.98.73-1.59,1.79-1.83,3.17-.06.36-.09.72-.09,1.08,0,1.06.32,1.9.96,2.5.64.61,1.58.92,2.82.92s2.33-.39,3.19-1.17c.87-.78,1.42-1.82,1.64-3.12.08-.38.12-.78.12-1.2,0-1.02-.29-1.82-.87-2.4-.58-.58-1.46-.87-2.64-.87s-2.32.37-3.3,1.09Z" style="fill:#333;"/><path d="M73.96,57.46l-11.73,19.23h-3.75l12.09-18.93h-11.1l.48-2.85h14.46l-.45,2.55Z" style="fill:#333;"/><path d="M82.18,72.24h-8.2v-1.12h1.63v-6.82h-1.41v-1.12h1.41v-2.03h1.14v2.03h3.04v-2.03h1.16v2.03h1.23v1.12h-1.23v6.82h1.23v1.12ZM77.49,72.92c-.6,1.29-1.56,2.57-2.49,3.39-.24-.2-.71-.55-1.01-.72.92-.76,1.8-1.88,2.3-2.99l1.19.32ZM76.75,64.3v1.48h3.04v-1.48h-3.04ZM76.75,68.43h3.04v-1.65h-3.04v1.65ZM76.75,71.12h3.04v-1.68h-3.04v1.68ZM79.66,72.6c.67.76,1.44,1.8,1.76,2.49l-1.01.59c-.3-.67-1.06-1.76-1.73-2.55l.97-.52ZM88.81,74.7c0,.74-.19,1.11-.64,1.31-.49.2-1.26.24-2.5.24-.05-.35-.22-.89-.39-1.21.89.02,1.73.02,1.97,0,.25,0,.35-.08.35-.35v-4.03h-3.54c-.17,2-.59,4.13-1.6,5.75-.2-.23-.71-.62-.99-.74,1.39-2.22,1.53-5.39,1.53-7.79v-6.06h5.81v12.9ZM87.6,69.52v-2.79h-3.43v1.12c0,.52-.02,1.09-.03,1.66h3.46ZM84.18,62.94v2.67h3.43v-2.67h-3.43Z" style="fill:#333;"/><path d="M50.17,100.46c-.5-.46-1.27-.69-2.31-.69-1.58,0-2.86.61-3.85,1.82-.99,1.21-1.75,3.21-2.29,6.01.68-.88,1.56-1.56,2.66-2.04,1.09-.48,2.21-.72,3.38-.72,1.72,0,3.08.48,4.08,1.44s1.5,2.3,1.5,4.02c0,.66-.05,1.24-.15,1.74-.24,1.4-.73,2.65-1.48,3.75s-1.72,1.96-2.91,2.59-2.55.95-4.06.95c-2.3,0-3.95-.58-4.95-1.73-1-1.15-1.5-2.83-1.5-5.05,0-1.28.16-2.83.48-4.65,1.28-7.32,4.5-10.98,9.66-10.98,1.36,0,2.48.25,3.36.76.88.51,1.51,1.19,1.9,2.04.39.85.56,1.79.5,2.81h-3.15c-.06-.92-.34-1.61-.84-2.07ZM43.19,108.81c-.98.73-1.59,1.79-1.83,3.17-.06.36-.09.72-.09,1.08,0,1.06.32,1.9.96,2.5.64.61,1.58.92,2.82.92s2.33-.39,3.19-1.17c.87-.78,1.42-1.82,1.64-3.12.08-.38.12-.78.12-1.2,0-1.02-.29-1.82-.87-2.4-.58-.58-1.46-.87-2.64-.87s-2.32.37-3.3,1.09Z" style="fill:none; stroke:#fff; stroke-linecap:round; stroke-linejoin:round; stroke-width:3px;"/><path d="M58.96,103.76c0-.34.03-.7.09-1.08.2-1.1.65-2.09,1.35-2.98.7-.89,1.63-1.6,2.8-2.13,1.17-.53,2.54-.79,4.1-.79,2.06,0,3.62.45,4.67,1.35,1.05.9,1.58,2.07,1.58,3.51,0,.34-.03.69-.09,1.05-.2,1.12-.66,2.11-1.38,2.96-.72.85-1.59,1.5-2.61,1.96.9.36,1.6.92,2.1,1.67s.75,1.65.75,2.69c0,.24-.04.64-.12,1.2-.24,1.36-.78,2.55-1.62,3.56s-1.9,1.79-3.18,2.34-2.67.83-4.17.83c-2.02,0-3.64-.49-4.84-1.46-1.21-.97-1.82-2.29-1.82-3.98,0-.46.04-.89.12-1.29.24-1.36.77-2.52,1.59-3.48.82-.96,1.83-1.65,3.03-2.07-1.56-.86-2.34-2.14-2.34-3.84ZM61.72,110.09c-.94.66-1.53,1.64-1.77,2.94-.04.18-.06.45-.06.81,0,.98.33,1.75,1.01,2.33.67.57,1.61.85,2.83.85,1.02,0,1.92-.21,2.7-.63.78-.42,1.39-1,1.83-1.74.44-.74.66-1.57.66-2.49,0-1-.34-1.76-1.02-2.28-.68-.52-1.61-.78-2.79-.78-1.32,0-2.45.33-3.39.99ZM63.79,100.52c-.8.6-1.3,1.47-1.5,2.61-.04.28-.06.48-.06.6,0,.84.3,1.52.92,2.03.61.51,1.42.76,2.44.76.84,0,1.61-.18,2.31-.55.7-.37,1.25-.87,1.67-1.5.41-.63.61-1.33.61-2.12,0-.88-.3-1.55-.88-2.02-.59-.47-1.43-.71-2.5-.71-1.2,0-2.2.3-3,.9Z" style="fill:none; stroke:#fff; stroke-linecap:round; stroke-linejoin:round; stroke-width:3px;"/><path d="M83.35,114.88h-8.2v-1.12h1.63v-6.82h-1.41v-1.12h1.41v-2.03h1.14v2.03h3.04v-2.03h1.16v2.03h1.23v1.12h-1.23v6.82h1.23v1.12ZM78.66,115.55c-.6,1.29-1.56,2.57-2.49,3.39-.24-.2-.71-.55-1.01-.72.92-.76,1.8-1.88,2.3-2.99l1.19.32ZM77.92,106.94v1.48h3.04v-1.48h-3.04ZM77.92,111.07h3.04v-1.65h-3.04v1.65ZM77.92,113.76h3.04v-1.68h-3.04v1.68ZM80.83,115.23c.67.76,1.44,1.8,1.76,2.49l-1.01.59c-.3-.67-1.06-1.76-1.73-2.55l.97-.52ZM89.98,117.34c0,.74-.19,1.11-.64,1.31-.49.2-1.26.24-2.5.24-.05-.35-.22-.89-.39-1.21.89.02,1.73.02,1.97,0,.25,0,.35-.08.35-.35v-4.03h-3.54c-.17,2-.59,4.13-1.6,5.75-.2-.23-.71-.62-.99-.74,1.39-2.22,1.53-5.39,1.53-7.79v-6.06h5.81v12.9ZM88.77,112.16v-2.79h-3.43v1.12c0,.52-.02,1.09-.03,1.66h3.46ZM85.35,105.58v2.67h3.43v-2.67h-3.43Z" style="fill:none; stroke:#fff; stroke-linecap:round; stroke-linejoin:round; stroke-width:3px;"/><path d="M50.17,100.46c-.5-.46-1.27-.69-2.31-.69-1.58,0-2.86.61-3.85,1.82-.99,1.21-1.75,3.21-2.29,6.01.68-.88,1.56-1.56,2.66-2.04,1.09-.48,2.21-.72,3.38-.72,1.72,0,3.08.48,4.08,1.44s1.5,2.3,1.5,4.02c0,.66-.05,1.24-.15,1.74-.24,1.4-.73,2.65-1.48,3.75s-1.72,1.96-2.91,2.59-2.55.95-4.06.95c-2.3,0-3.95-.58-4.95-1.73-1-1.15-1.5-2.83-1.5-5.05,0-1.28.16-2.83.48-4.65,1.28-7.32,4.5-10.98,9.66-10.98,1.36,0,2.48.25,3.36.76.88.51,1.51,1.19,1.9,2.04.39.85.56,1.79.5,2.81h-3.15c-.06-.92-.34-1.61-.84-2.07ZM43.19,108.81c-.98.73-1.59,1.79-1.83,3.17-.06.36-.09.72-.09,1.08,0,1.06.32,1.9.96,2.5.64.61,1.58.92,2.82.92s2.33-.39,3.19-1.17c.87-.78,1.42-1.82,1.64-3.12.08-.38.12-.78.12-1.2,0-1.02-.29-1.82-.87-2.4-.58-.58-1.46-.87-2.64-.87s-2.32.37-3.3,1.09Z" style="fill:#333;"/><path d="M58.96,103.76c0-.34.03-.7.09-1.08.2-1.1.65-2.09,1.35-2.98.7-.89,1.63-1.6,2.8-2.13,1.17-.53,2.54-.79,4.1-.79,2.06,0,3.62.45,4.67,1.35,1.05.9,1.58,2.07,1.58,3.51,0,.34-.03.69-.09,1.05-.2,1.12-.66,2.11-1.38,2.96-.72.85-1.59,1.5-2.61,1.96.9.36,1.6.92,2.1,1.67s.75,1.65.75,2.69c0,.24-.04.64-.12,1.2-.24,1.36-.78,2.55-1.62,3.56s-1.9,1.79-3.18,2.34-2.67.83-4.17.83c-2.02,0-3.64-.49-4.84-1.46-1.21-.97-1.82-2.29-1.82-3.98,0-.46.04-.89.12-1.29.24-1.36.77-2.52,1.59-3.48.82-.96,1.83-1.65,3.03-2.07-1.56-.86-2.34-2.14-2.34-3.84ZM61.72,110.09c-.94.66-1.53,1.64-1.77,2.94-.04.18-.06.45-.06.81,0,.98.33,1.75,1.01,2.33.67.57,1.61.85,2.83.85,1.02,0,1.92-.21,2.7-.63.78-.42,1.39-1,1.83-1.74.44-.74.66-1.57.66-2.49,0-1-.34-1.76-1.02-2.28-.68-.52-1.61-.78-2.79-.78-1.32,0-2.45.33-3.39.99ZM63.79,100.52c-.8.6-1.3,1.47-1.5,2.61-.04.28-.06.48-.06.6,0,.84.3,1.52.92,2.03.61.51,1.42.76,2.44.76.84,0,1.61-.18,2.31-.55.7-.37,1.25-.87,1.67-1.5.41-.63.61-1.33.61-2.12,0-.88-.3-1.55-.88-2.02-.59-.47-1.43-.71-2.5-.71-1.2,0-2.2.3-3,.9Z" style="fill:#333;"/><path d="M83.35,114.88h-8.2v-1.12h1.63v-6.82h-1.41v-1.12h1.41v-2.03h1.14v2.03h3.04v-2.03h1.16v2.03h1.23v1.12h-1.23v6.82h1.23v1.12ZM78.66,115.55c-.6,1.29-1.56,2.57-2.49,3.39-.24-.2-.71-.55-1.01-.72.92-.76,1.8-1.88,2.3-2.99l1.19.32ZM77.92,106.94v1.48h3.04v-1.48h-3.04ZM77.92,111.07h3.04v-1.65h-3.04v1.65ZM77.92,113.76h3.04v-1.68h-3.04v1.68ZM80.83,115.23c.67.76,1.44,1.8,1.76,2.49l-1.01.59c-.3-.67-1.06-1.76-1.73-2.55l.97-.52ZM89.98,117.34c0,.74-.19,1.11-.64,1.31-.49.2-1.26.24-2.5.24-.05-.35-.22-.89-.39-1.21.89.02,1.73.02,1.97,0,.25,0,.35-.08.35-.35v-4.03h-3.54c-.17,2-.59,4.13-1.6,5.75-.2-.23-.71-.62-.99-.74,1.39-2.22,1.53-5.39,1.53-7.79v-6.06h5.81v12.9ZM88.77,112.16v-2.79h-3.43v1.12c0,.52-.02,1.09-.03,1.66h3.46ZM85.35,105.58v2.67h3.43v-2.67h-3.43Z" style="fill:#333;"/><path d="M262.12,231.87c-.97,2.45-2.23,5-3.64,7.38v24.84h-4.03v-18.9c-.83,1.04-1.69,2.02-2.56,2.88-.36-1.04-1.48-3.35-2.23-4.43,3.35-3.1,6.62-8.06,8.53-13.07l3.92,1.3ZM258.78,261.13c1.51-1.4,2.81-3.64,3.46-5.65l3.31,1.33c-.79,2.23-1.94,4.82-3.64,6.48l-3.13-2.16ZM269.94,233.35v-2.63h4.28v2.63h8.82v3.1h-2.88c-.5.94-1.01,1.84-1.48,2.63h5.4v3.31h-23.79v-3.31h5.4c-.25-.79-.61-1.69-1.01-2.41l1.15-.22h-4.1v-3.1h8.21ZM281.63,254.15h-8.03c.94.76,1.8,1.55,2.34,2.23l-2.77,2.2c-.79-1.15-2.63-2.81-4.17-3.85l.76-.58h-6.8v-10.37h18.68v10.37ZM274.36,260.74c.86,0,1.04-.29,1.19-2.38.68.58,2.3,1.08,3.35,1.33-.4,3.46-1.44,4.36-4.1,4.36h-4.18c-3.74,0-4.57-1.04-4.57-4.25v-4.14h3.89v4.1c0,.86.14.97,1.26.97h3.17ZM277.39,246.34h-10.37v1.48h10.37v-1.48ZM277.39,250.08h-10.37v1.51h10.37v-1.51ZM274.69,239.07c.36-.83.72-1.76.97-2.63h-7.13c.47.86.9,1.84,1.15,2.63h5ZM279.94,255.12c1.8,1.8,3.78,4.36,4.61,6.19l-3.42,1.91c-.72-1.76-2.63-4.43-4.39-6.37l3.2-1.73Z" style="fill:#333;"/><path d="M99.7,252.17c-.36,3.38-1.12,6.98-2.16,9.29-.76-.47-2.34-1.22-3.28-1.55,1.04-2.12,1.62-5.33,1.91-8.35l3.53.61ZM127.7,236.59s0,1.44-.04,1.98c-.47,15.77-.97,21.45-2.48,23.36-1.01,1.37-1.94,1.76-3.46,1.98-1.3.22-3.53.18-5.62.11-.07-1.22-.65-3.09-1.44-4.32,2.27.22,4.32.22,5.29.22.68,0,1.08-.14,1.51-.61,1.08-1.12,1.62-6.37,2.02-18.65h-9.94c-.97,1.76-1.98,3.35-3.06,4.64-.72-.65-2.3-1.73-3.38-2.38,1.26,2.27,2.41,4.93,2.81,6.73l-3.24,1.51c-.11-.58-.29-1.22-.5-1.94l-2.05.14v14.79h-3.78v-14.51l-5.33.36-.36-3.74,2.66-.11c.54-.68,1.12-1.44,1.66-2.23-1.04-1.55-2.81-3.49-4.32-4.93l2.02-2.95c.29.25.58.5.86.76,1.01-1.98,2.05-4.39,2.63-6.26l3.78,1.33c-1.3,2.48-2.77,5.25-4.07,7.27.47.5.9,1.04,1.26,1.51,1.3-2.02,2.45-4.1,3.31-5.9l3.64,1.51c-2.02,3.17-4.54,6.84-6.88,9.75l3.64-.14c-.4-.86-.83-1.73-1.26-2.48l3.02-1.33.25.43c2.66-2.84,4.79-7.45,5.94-11.99l4.39.94c-.47,1.76-1.08,3.49-1.76,5.15h12.27ZM107.37,251.34c.97,2.12,1.91,4.93,2.34,6.77l-3.38,1.19c-.29-1.84-1.22-4.75-2.12-6.95l3.17-1.01ZM115.79,255.02c-.68-2.27-2.56-5.72-4.39-8.32l3.42-1.73c1.87,2.48,3.92,5.79,4.68,8.06l-3.71,1.98Z" style="fill:#333;"/><path d="M138.67,251.63v-9.9l29.43-42.12h14.67v41.04h7.92v10.98h-7.92v12.78h-12.6v-12.78h-31.5ZM170.98,213.11l-18.45,27.54h18.45v-27.54Z" style="fill:#333;"/><path d="M239.2,209.69h-29.16v15.39c1.26-1.56,3.06-2.83,5.4-3.83,2.34-.99,4.83-1.49,7.47-1.49,4.8,0,8.73,1.05,11.79,3.15,3.06,2.1,5.28,4.79,6.66,8.05,1.38,3.27,2.07,6.77,2.07,10.49,0,6.9-1.97,12.45-5.89,16.65-3.93,4.2-9.53,6.3-16.79,6.3-6.84,0-12.3-1.71-16.38-5.13-4.08-3.42-6.39-7.89-6.93-13.41h12.24c.54,2.4,1.76,4.32,3.65,5.76s4.3,2.16,7.25,2.16c3.54,0,6.21-1.11,8.01-3.33,1.8-2.22,2.7-5.16,2.7-8.82s-.92-6.55-2.75-8.5c-1.83-1.95-4.52-2.92-8.05-2.92-2.52,0-4.62.63-6.3,1.89-1.68,1.26-2.88,2.94-3.6,5.04h-12.06v-38.52h40.68v11.07Z" style="fill:#333;"/><rect x="73.83" y="198.44" width="55.37" height="28.35" style="fill:#333;"/><path d="M88.78,207.93c-.56-.67-1.4-1.08-2.27-1.08-1.92,0-3.55,1.48-3.63,5.86.86-1.06,2.09-1.71,3.21-1.71,2.38,0,3.9,1.48,3.9,4.42,0,2.73-1.84,4.57-4.03,4.57-2.71,0-4.7-2.32-4.7-6.97,0-5.51,2.48-7.62,5.2-7.62,1.46,0,2.51.61,3.28,1.44l-.96,1.09ZM88.34,215.42c0-1.9-.83-3.11-2.53-3.11-.88,0-1.96.5-2.88,1.8.21,2.92,1.27,4.51,3.03,4.51,1.34,0,2.38-1.29,2.38-3.21Z" style="fill:#fff;"/><path d="M92.91,217.45c.59.67,1.46,1.07,2.36,1.07,1.82,0,3.4-1.5,3.53-5.87-.84,1.06-2.05,1.75-3.24,1.75-2.34,0-3.88-1.52-3.88-4.43,0-2.73,1.84-4.57,4.03-4.57,2.71,0,4.72,2.23,4.72,6.7,0,5.7-2.46,7.89-5.11,7.89-1.52,0-2.59-.61-3.38-1.44l.96-1.09ZM98.78,211.21c-.19-2.9-1.27-4.43-3.07-4.43-1.34,0-2.38,1.27-2.38,3.19s.84,3.13,2.51,3.13c.94,0,2-.54,2.94-1.88Z" style="fill:#fff;"/><path d="M111.66,216.57h-9.37v-1.29h1.86v-7.79h-1.61v-1.29h1.61v-2.32h1.31v2.32h3.47v-2.32h1.32v2.32h1.4v1.29h-1.4v7.79h1.4v1.29ZM106.31,217.34c-.69,1.48-1.79,2.94-2.84,3.88-.27-.23-.81-.63-1.15-.83,1.06-.86,2.05-2.15,2.63-3.42l1.36.37ZM105.46,207.49v1.69h3.47v-1.69h-3.47ZM105.46,212.21h3.47v-1.88h-3.47v1.88ZM105.46,215.28h3.47v-1.92h-3.47v1.92ZM108.79,216.97c.77.86,1.65,2.05,2.02,2.84l-1.15.67c-.35-.77-1.21-2.02-1.98-2.92l1.11-.6ZM119.25,219.37c0,.84-.21,1.27-.73,1.5-.56.23-1.44.27-2.86.27-.06-.4-.25-1.02-.44-1.38,1.02.02,1.98.02,2.25,0,.29,0,.4-.1.4-.4v-4.61h-4.05c-.19,2.28-.67,4.72-1.82,6.57-.23-.27-.81-.71-1.13-.84,1.59-2.53,1.75-6.16,1.75-8.91v-6.93h6.64v14.74ZM117.86,213.46v-3.19h-3.92v1.29c0,.6-.02,1.25-.04,1.9h3.95ZM113.95,205.94v3.05h3.92v-3.05h-3.92Z" style="fill:#fff;"/><path d="M235.61,34.3h-6.51c1.02,3.24,2.92,5.82,4.84,5.8.59,0,.83-.81.94-2.9.31.27.77.52,1.13.63-.23,2.8-.81,3.57-2.15,3.57-2.71,0-4.99-3.11-6.1-7.1h-6.05v5.03c1.94-.27,4.17-.59,6.32-.92l.06,1.19c-3.28.56-6.78,1.13-8.93,1.46-.04.15-.15.25-.29.27l-.52-1.55c.6-.08,1.29-.15,2.04-.27v-14.93h13.76v5.72h-5.64l-.1.02c.04.92.17,1.86.37,2.76h6.83v1.23ZM232.87,25.77h-11.15v3.3h11.15v-3.3ZM221.72,33.07h5.74c-.19-.9-.33-1.84-.4-2.78h-5.34v2.78Z" style="fill:#333;"/><path d="M245.27,31h-5.72v10.38h-1.27v-17.01h6.99v6.62ZM244.05,25.39h-4.49v1.77h4.49v-1.77ZM239.55,29.98h4.49v-1.84h-4.49v1.84ZM249.8,39.54h-6.05v1.02h-1.19v-8.04h7.24v7.03ZM248.58,33.55h-4.82v1.92h4.82v-1.92ZM243.76,38.5h4.82v-2.02h-4.82v2.02ZM254.26,24.37v15.2c0,1.71-.75,1.79-4.07,1.79-.04-.36-.25-.98-.44-1.34.61.02,1.23.04,1.71.04,1.4,0,1.52,0,1.52-.48v-8.56h-5.87v-6.64h7.16ZM252.97,25.39h-4.63v1.77h4.63v-1.77ZM248.35,30h4.63v-1.86h-4.63v1.86Z" style="fill:#333;"/><path d="M266.53,23.53c-.06.17-.21.25-.4.29,1.86,2.75,5.36,5.76,8.37,7.33-.31.33-.65.75-.86,1.13-3.07-1.8-6.53-4.84-8.29-7.51-1.57,2.53-4.78,5.62-8.12,7.62-.17-.27-.54-.71-.81-.98,3.4-1.96,6.72-5.26,8.24-8l1.88.12ZM266.2,34.55v5.05h7.54v1.19h-16.6v-1.19h2.55v-7.31l1.65.1c-.02.13-.13.23-.38.27v6.95h3.9v-10.85l1.73.1c-.02.13-.13.23-.38.27v4.26h5.7v1.17h-5.7Z" style="fill:#333;"/><path d="M293.14,36.68h-6.66c1.79,1.48,4.59,2.71,7.12,3.26-.29.27-.67.79-.86,1.13-2.67-.75-5.62-2.28-7.51-4.11v4.4h-1.29v-4.3c-1.88,1.75-4.84,3.21-7.45,3.95-.17-.33-.56-.83-.84-1.09,2.5-.58,5.26-1.8,7.04-3.24h-6.55v-1.11h7.79v-1.55h-5.95v-1.04h5.95v-1.54h-6.93v-1.08h4.38c-.19-.59-.59-1.42-1-2.04l.75-.15h-4.91v-1.13h3.23c-.29-.81-.98-2.01-1.61-2.92l1.09-.38c.69.88,1.42,2.11,1.71,2.92l-1.02.38h2.51v-3.53l1.63.1c-.02.19-.17.29-.42.33v3.11h2.5v-3.53l1.67.1c-.02.19-.19.29-.44.33v3.11h2.42c-.25-.1-.54-.21-.71-.27.56-.83,1.23-2.11,1.57-2.99l1.52.52c-.04.12-.19.17-.4.17-.4.75-1.02,1.8-1.55,2.57h3.15v1.13h-4.34l.56.17c-.06.13-.21.19-.4.17-.27.52-.69,1.27-1.08,1.84h4.55v1.08h-7.12v1.54h6.18v1.04h-6.18v1.55h7.91v1.11ZM286.55,30.25c.35-.56.79-1.4,1.08-2.07h-5.97c.44.63.86,1.48,1.06,2.05l-.59.13h4.74l-.31-.12Z" style="fill:#333;"/><path d="M128.57,25.87h7.49v4.11h-1.32v-2.88h-13.63v2.88h-1.29v-4.11h7.41v-2.36l1.73.12c-.02.13-.12.23-.38.27v1.98ZM123.87,33.7v1.8h10.5v5.74h-1.29v-.67h-9.21v.79h-1.29v-12.55h10.25v4.89h-8.96ZM131.55,29.96h-7.68v2.59h7.68v-2.59ZM133.08,36.68h-9.21v2.73h9.21v-2.73Z" style="fill:#333;"/><path d="M145.35,24.68c-.06.13-.21.19-.44.19-1.27,2.9-3.28,5.82-5.34,7.68-.27-.27-.79-.69-1.13-.88,2.05-1.71,4.03-4.63,5.22-7.56l1.69.58ZM147.39,31.05c-.06.15-.23.25-.48.25-.9,2.28-2.32,5.36-3.61,7.68,2.71-.08,5.91-.19,9-.31-.92-1.3-2-2.71-2.96-3.84l1.21-.58c1.79,2.04,3.82,4.74,4.8,6.49l-1.29.71c-.25-.48-.6-1.04-1-1.65-4.82.29-9.94.5-13.13.63-.04.15-.17.25-.31.27l-.54-1.61,2.75-.08c1.34-2.38,2.88-5.89,3.76-8.45l1.79.48ZM150.44,24.1c1.32,2.59,3.8,5.72,5.6,7.35-.35.27-.83.75-1.07,1.09-1.8-1.84-4.28-5.18-5.78-7.93l1.25-.52Z" style="fill:#333;"/><path d="M167.55,25.97h7.54v1.25h-14.9v4.07c0,2.92-.23,7.16-1.88,10.04-.23-.23-.81-.6-1.11-.71,1.57-2.74,1.71-6.58,1.71-9.35v-5.3h7.31v-2.44l1.71.12c-.02.13-.13.23-.38.27v2.05ZM161.39,31.61v-1.23h13.57v1.23h-5.85v8.12c0,.84-.19,1.25-.86,1.44-.67.21-1.82.21-3.67.21-.08-.37-.29-.9-.48-1.27.75.02,1.44.04,2.02.04q1.69,0,1.69-.44v-8.1h-6.41Z" style="fill:#333;"/><rect x="134.48" y="21.78" width="28.35" height="88.13" transform="translate(82.81 214.49) rotate(-90)" style="fill:#014098; opacity:.4;"/><rect x="243.39" y="-.25" width="28.35" height="132.19" transform="translate(191.73 323.41) rotate(-90)" style="fill:#014098;"/><path d="M130.57,70.26l.31-1.81,8.84-10.12h2.9l-1.72,9.85h1.95l-.38,2.08h-1.95l-.57,3.19h-2.35l.57-3.19h-7.6ZM139.95,60.77l-6.26,7.41h4.95l1.3-7.41Z" style="fill:#014098;"/><path d="M147.46,60.18c1.06-1.36,2.59-2.04,4.59-2.04,1.55,0,2.67.42,3.36,1.27s1.03,2.03,1.03,3.54c0,.81-.09,1.75-.27,2.81-.42,2.38-1.16,4.25-2.21,5.61s-2.59,2.04-4.59,2.04c-1.55,0-2.67-.42-3.36-1.27s-1.03-2.03-1.03-3.56c0-.78.09-1.72.27-2.81.42-2.36,1.16-4.23,2.21-5.58ZM154.08,63.17c0-.9-.18-1.59-.55-2.09-.36-.5-.99-.75-1.87-.75s-1.59.25-2.13.73c-.54.49-.95,1.12-1.23,1.89-.28.77-.52,1.71-.71,2.81-.2,1.08-.29,1.95-.29,2.6,0,.91.18,1.61.55,2.11.36.5.99.75,1.89.75s1.59-.25,2.13-.74c.54-.49.95-1.12,1.23-1.89.28-.77.52-1.71.71-2.83.18-1.12.27-1.99.27-2.6Z" style="fill:#014098;"/><path d="M157.74,64.12c0-2.16.97-3.38,2.44-3.38s2.45,1.22,2.45,3.38-.97,3.42-2.45,3.42-2.44-1.25-2.44-3.42ZM161.62,64.12c0-1.72-.59-2.56-1.44-2.56s-1.43.84-1.43,2.56.59,2.59,1.43,2.59,1.44-.87,1.44-2.59ZM166.44,60.74h.91l-5.95,11.17h-.9l5.94-11.17ZM165.23,68.5c0-2.16.98-3.38,2.45-3.38s2.44,1.22,2.44,3.38-.97,3.41-2.44,3.41-2.45-1.23-2.45-3.41ZM169.11,68.5c0-1.72-.59-2.56-1.43-2.56s-1.44.84-1.44,2.56.59,2.59,1.44,2.59,1.43-.87,1.43-2.59Z" style="fill:#014098;"/><path d="M251.22,60.25c-.35-.32-.89-.48-1.62-.48-1.11,0-2,.42-2.7,1.27-.69.85-1.23,2.25-1.61,4.21.48-.62,1.09-1.09,1.86-1.43s1.55-.5,2.36-.5c1.2,0,2.16.34,2.85,1.01.7.67,1.05,1.61,1.05,2.81,0,.46-.04.87-.1,1.22-.17.98-.51,1.85-1.04,2.62-.53.77-1.2,1.38-2.04,1.82-.83.44-1.78.66-2.84.66-1.61,0-2.76-.4-3.46-1.21-.7-.8-1.05-1.98-1.05-3.54,0-.9.11-1.98.34-3.25.9-5.12,3.15-7.68,6.76-7.68.95,0,1.74.18,2.35.54.62.36,1.06.83,1.33,1.43.27.59.39,1.25.35,1.96h-2.2c-.04-.64-.24-1.13-.59-1.45ZM246.33,66.09c-.69.51-1.11,1.25-1.28,2.21-.04.25-.06.5-.06.75,0,.74.22,1.33.67,1.75.45.43,1.11.64,1.97.64s1.63-.27,2.24-.82c.61-.55.99-1.27,1.14-2.18.06-.27.08-.55.08-.84,0-.71-.2-1.27-.61-1.68-.41-.41-1.02-.61-1.85-.61s-1.62.26-2.31.77Z" style="fill:#fff;"/><path d="M258.55,60.18c1.06-1.36,2.59-2.04,4.59-2.04,1.55,0,2.67.42,3.36,1.27.69.85,1.03,2.03,1.03,3.54,0,.81-.09,1.75-.27,2.81-.42,2.38-1.16,4.25-2.21,5.61-1.06,1.36-2.59,2.04-4.59,2.04-1.55,0-2.67-.42-3.36-1.27s-1.03-2.03-1.03-3.56c0-.78.09-1.72.27-2.81.42-2.36,1.16-4.23,2.21-5.58ZM265.18,63.17c0-.9-.18-1.59-.55-2.09-.36-.5-.99-.75-1.87-.75s-1.59.25-2.13.73c-.54.49-.95,1.12-1.23,1.89-.28.77-.52,1.71-.71,2.81-.2,1.08-.29,1.95-.29,2.6,0,.91.18,1.61.55,2.11.36.5.99.75,1.89.75s1.59-.25,2.13-.74c.54-.49.95-1.12,1.23-1.89.28-.77.52-1.71.71-2.83.18-1.12.27-1.99.27-2.6Z" style="fill:#fff;"/><path d="M268.84,64.12c0-2.16.97-3.38,2.44-3.38s2.45,1.22,2.45,3.38-.97,3.42-2.45,3.42-2.44-1.25-2.44-3.42ZM272.71,64.12c0-1.72-.59-2.56-1.44-2.56s-1.43.84-1.43,2.56.59,2.59,1.43,2.59,1.44-.87,1.44-2.59ZM277.54,60.74h.91l-5.95,11.17h-.9l5.94-11.17ZM276.33,68.5c0-2.16.98-3.38,2.45-3.38s2.44,1.22,2.44,3.38-.97,3.41-2.44,3.41-2.45-1.23-2.45-3.41ZM280.21,68.5c0-1.72-.59-2.56-1.42-2.56s-1.44.84-1.44,2.56.59,2.59,1.44,2.59,1.42-.87,1.42-2.59Z" style="fill:#fff;"/><rect x="134.48" y="105.25" width="28.35" height="88.13" transform="translate(-.66 297.97) rotate(-90)" style="fill:#014098; opacity:.4;"/><rect x="243.39" y="83.22" width="28.35" height="132.19" transform="translate(108.25 406.88) rotate(-90)" style="fill:#014098;"/><path d="M130.57,153.74l.31-1.81,8.84-10.12h2.9l-1.72,9.85h1.95l-.38,2.08h-1.95l-.57,3.19h-2.35l.57-3.19h-7.6ZM139.95,144.25l-6.26,7.41h4.95l1.3-7.41Z" style="fill:#014098;"/><path d="M147.46,143.66c1.06-1.36,2.59-2.04,4.59-2.04,1.55,0,2.67.42,3.36,1.27s1.03,2.03,1.03,3.54c0,.81-.09,1.75-.27,2.81-.42,2.38-1.16,4.25-2.21,5.61-1.06,1.36-2.59,2.04-4.59,2.04-1.55,0-2.67-.42-3.36-1.27s-1.03-2.03-1.03-3.56c0-.78.09-1.72.27-2.81.42-2.36,1.16-4.23,2.21-5.58ZM154.08,146.64c0-.9-.18-1.59-.55-2.09-.36-.5-.99-.75-1.87-.75s-1.59.25-2.13.73c-.54.49-.95,1.12-1.23,1.89-.28.77-.52,1.71-.71,2.81-.2,1.08-.29,1.95-.29,2.6,0,.91.18,1.61.55,2.11.36.5.99.75,1.89.75s1.59-.25,2.13-.73c.54-.49.95-1.12,1.23-1.89.28-.77.52-1.71.71-2.83.18-1.12.27-1.99.27-2.6Z" style="fill:#014098;"/><path d="M157.74,147.6c0-2.16.97-3.38,2.44-3.38s2.45,1.22,2.45,3.38-.97,3.42-2.45,3.42-2.44-1.25-2.44-3.42ZM161.62,147.6c0-1.72-.59-2.56-1.44-2.56s-1.43.84-1.43,2.56.59,2.59,1.43,2.59,1.44-.87,1.44-2.59ZM166.44,144.22h.91l-5.95,11.17h-.9l5.94-11.17ZM165.23,151.98c0-2.16.98-3.38,2.45-3.38s2.44,1.22,2.44,3.38-.97,3.41-2.44,3.41-2.45-1.23-2.45-3.41ZM169.11,151.98c0-1.72-.59-2.56-1.43-2.56s-1.44.84-1.44,2.56.59,2.59,1.44,2.59,1.43-.87,1.43-2.59Z" style="fill:#014098;"/><path d="M251.22,143.72c-.35-.32-.89-.48-1.62-.48-1.11,0-2,.42-2.7,1.27-.69.85-1.23,2.25-1.61,4.21.48-.62,1.09-1.09,1.86-1.43s1.55-.5,2.36-.5c1.2,0,2.16.34,2.85,1.01.7.67,1.05,1.61,1.05,2.81,0,.46-.04.87-.1,1.22-.17.98-.51,1.85-1.04,2.62-.53.77-1.2,1.38-2.04,1.82-.83.44-1.78.66-2.84.66-1.61,0-2.76-.4-3.46-1.21-.7-.8-1.05-1.98-1.05-3.54,0-.9.11-1.98.34-3.25.9-5.12,3.15-7.68,6.76-7.68.95,0,1.74.18,2.35.54.62.36,1.06.83,1.33,1.43.27.59.39,1.25.35,1.96h-2.2c-.04-.64-.24-1.13-.59-1.45ZM246.33,149.57c-.69.51-1.11,1.25-1.28,2.21-.04.25-.06.5-.06.76,0,.74.22,1.33.67,1.75.45.43,1.11.64,1.97.64s1.63-.27,2.24-.82c.61-.55.99-1.27,1.14-2.18.06-.27.08-.55.08-.84,0-.71-.2-1.27-.61-1.68-.41-.41-1.02-.61-1.85-.61s-1.62.26-2.31.77Z" style="fill:#fff;"/><path d="M258.55,143.66c1.06-1.36,2.59-2.04,4.59-2.04,1.55,0,2.67.42,3.36,1.27.69.85,1.03,2.03,1.03,3.54,0,.81-.09,1.75-.27,2.81-.42,2.38-1.16,4.25-2.21,5.61-1.06,1.36-2.59,2.04-4.59,2.04-1.55,0-2.67-.42-3.36-1.27s-1.03-2.03-1.03-3.56c0-.78.09-1.72.27-2.81.42-2.36,1.16-4.23,2.21-5.58ZM265.18,146.64c0-.9-.18-1.59-.55-2.09-.36-.5-.99-.75-1.87-.75s-1.59.25-2.13.73-.95,1.12-1.23,1.89c-.28.77-.52,1.71-.71,2.81-.2,1.08-.29,1.95-.29,2.6,0,.91.18,1.61.55,2.11.36.5.99.75,1.89.75s1.59-.25,2.13-.73c.54-.49.95-1.12,1.23-1.89.28-.77.52-1.71.71-2.83.18-1.12.27-1.99.27-2.6Z" style="fill:#fff;"/><path d="M268.84,147.6c0-2.16.97-3.38,2.44-3.38s2.45,1.22,2.45,3.38-.97,3.42-2.45,3.42-2.44-1.25-2.44-3.42ZM272.71,147.6c0-1.72-.59-2.56-1.44-2.56s-1.43.84-1.43,2.56.59,2.59,1.43,2.59,1.44-.87,1.44-2.59ZM277.54,144.22h.91l-5.95,11.17h-.9l5.94-11.17ZM276.33,151.98c0-2.16.98-3.38,2.45-3.38s2.44,1.22,2.44,3.38-.97,3.41-2.44,3.41-2.45-1.23-2.45-3.41ZM280.21,151.98c0-1.72-.59-2.56-1.42-2.56s-1.44.84-1.44,2.56.59,2.59,1.44,2.59,1.42-.87,1.42-2.59Z" style="fill:#fff;"/><rect x="134.48" y="64.08" width="28.35" height="88.13" transform="translate(40.51 256.79) rotate(-90)" style="fill:#014098; opacity:.4;"/><rect x="243.39" y="42.05" width="28.35" height="132.19" transform="translate(149.43 365.71) rotate(-90)" style="fill:#014098;"/><path d="M130.57,112.56l.31-1.81,8.84-10.12h2.9l-1.72,9.85h1.95l-.38,2.08h-1.95l-.57,3.19h-2.35l.57-3.19h-7.6ZM139.95,103.07l-6.26,7.41h4.95l1.3-7.41Z" style="fill:#014098;"/><path d="M147.46,102.48c1.06-1.36,2.59-2.04,4.59-2.04,1.55,0,2.67.42,3.36,1.27s1.03,2.03,1.03,3.54c0,.81-.09,1.75-.27,2.81-.42,2.38-1.16,4.25-2.21,5.61s-2.59,2.04-4.59,2.04c-1.55,0-2.67-.42-3.36-1.27s-1.03-2.03-1.03-3.56c0-.78.09-1.72.27-2.81.42-2.36,1.16-4.23,2.21-5.58ZM154.08,105.47c0-.9-.18-1.59-.55-2.09-.36-.5-.99-.75-1.87-.75s-1.59.25-2.13.73c-.54.49-.95,1.12-1.23,1.89-.28.77-.52,1.71-.71,2.81-.2,1.08-.29,1.95-.29,2.6,0,.91.18,1.61.55,2.11.36.5.99.75,1.89.75s1.59-.25,2.13-.74c.54-.49.95-1.12,1.23-1.89.28-.77.52-1.71.71-2.83.18-1.12.27-1.99.27-2.6Z" style="fill:#014098;"/><path d="M157.74,106.42c0-2.16.97-3.38,2.44-3.38s2.45,1.22,2.45,3.38-.97,3.42-2.45,3.42-2.44-1.25-2.44-3.42ZM161.62,106.42c0-1.72-.59-2.56-1.44-2.56s-1.43.84-1.43,2.56.59,2.59,1.43,2.59,1.44-.87,1.44-2.59ZM166.44,103.04h.91l-5.95,11.17h-.9l5.94-11.17ZM165.23,110.8c0-2.16.98-3.38,2.45-3.38s2.44,1.22,2.44,3.38-.97,3.41-2.44,3.41-2.45-1.23-2.45-3.41ZM169.11,110.8c0-1.72-.59-2.56-1.43-2.56s-1.44.84-1.44,2.56.59,2.59,1.44,2.59,1.43-.87,1.43-2.59Z" style="fill:#014098;"/><path d="M251.22,102.55c-.35-.32-.89-.48-1.62-.48-1.11,0-2,.42-2.7,1.27-.69.85-1.23,2.25-1.61,4.21.48-.62,1.09-1.09,1.86-1.43s1.55-.5,2.36-.5c1.2,0,2.16.34,2.85,1.01.7.67,1.05,1.61,1.05,2.81,0,.46-.04.87-.1,1.22-.17.98-.51,1.85-1.04,2.62-.53.77-1.2,1.38-2.04,1.82-.83.44-1.78.66-2.84.66-1.61,0-2.76-.4-3.46-1.21-.7-.8-1.05-1.98-1.05-3.54,0-.9.11-1.98.34-3.25.9-5.12,3.15-7.68,6.76-7.68.95,0,1.74.18,2.35.54.62.36,1.06.83,1.33,1.43.27.59.39,1.25.35,1.96h-2.2c-.04-.64-.24-1.13-.59-1.45ZM246.33,108.39c-.69.51-1.11,1.25-1.28,2.21-.04.25-.06.5-.06.75,0,.74.22,1.33.67,1.75.45.43,1.11.64,1.97.64s1.63-.27,2.24-.82c.61-.55.99-1.27,1.14-2.18.06-.27.08-.55.08-.84,0-.71-.2-1.27-.61-1.68-.41-.41-1.02-.61-1.85-.61s-1.62.26-2.31.77Z" style="fill:#fff;"/><path d="M258.55,102.48c1.06-1.36,2.59-2.04,4.59-2.04,1.55,0,2.67.42,3.36,1.27.69.85,1.03,2.03,1.03,3.54,0,.81-.09,1.75-.27,2.81-.42,2.38-1.16,4.25-2.21,5.61-1.06,1.36-2.59,2.04-4.59,2.04-1.55,0-2.67-.42-3.36-1.27s-1.03-2.03-1.03-3.56c0-.78.09-1.72.27-2.81.42-2.36,1.16-4.23,2.21-5.58ZM265.18,105.47c0-.9-.18-1.59-.55-2.09-.36-.5-.99-.75-1.87-.75s-1.59.25-2.13.73c-.54.49-.95,1.12-1.23,1.89-.28.77-.52,1.71-.71,2.81-.2,1.08-.29,1.95-.29,2.6,0,.91.18,1.61.55,2.11.36.5.99.75,1.89.75s1.59-.25,2.13-.74c.54-.49.95-1.12,1.23-1.89.28-.77.52-1.71.71-2.83.18-1.12.27-1.99.27-2.6Z" style="fill:#fff;"/><path d="M268.84,106.42c0-2.16.97-3.38,2.44-3.38s2.45,1.22,2.45,3.38-.97,3.42-2.45,3.42-2.44-1.25-2.44-3.42ZM272.71,106.42c0-1.72-.59-2.56-1.44-2.56s-1.43.84-1.43,2.56.59,2.59,1.43,2.59,1.44-.87,1.44-2.59ZM277.54,103.04h.91l-5.95,11.17h-.9l5.94-11.17ZM276.33,110.8c0-2.16.98-3.38,2.45-3.38s2.44,1.22,2.44,3.38-.97,3.41-2.44,3.41-2.45-1.23-2.45-3.41ZM280.21,110.8c0-1.72-.59-2.56-1.42-2.56s-1.44.84-1.44,2.56.59,2.59,1.44,2.59,1.42-.87,1.42-2.59Z" style="fill:#fff;"/></svg>