<?xml version="1.0" encoding="UTF-8"?><svg id="_レイヤー_1" xmlns="http://www.w3.org/2000/svg" viewBox="0 0 360 288"><rect width="360" height="288" style="fill:none;"/><path d="M228.14,124l-39.33-97.34c12.85-5.19,25.47-7.64,39.33-7.64v104.99Z" style="fill:#014098; opacity:.38;"/><path d="M228.14,124l-104.84-5.49c2.18-41.63,26.86-76.23,65.52-91.85l39.33,97.34Z" style="fill:#014098; fill-rule:evenodd; opacity:.7;"/><path d="M228.14,124l-60.22,86c-30.35-21.25-46.56-54.5-44.63-91.5l104.84,5.49Z" style="fill:#014098; fill-rule:evenodd; opacity:.25;"/><path d="M228.14,124l14.61,103.97c-27.5,3.87-52.08-2.03-74.83-17.97l60.22-86Z" style="fill:#014098; fill-rule:evenodd; opacity:.75;"/><path d="M228.14,124l81.59,66.07c-17.48,21.58-39.48,34.03-66.98,37.9l-14.61-103.97Z" style="fill:#014098; fill-rule:evenodd; opacity:.5;"/><path d="M228.14,124l12.79-104.21c57.55,7.07,98.48,59.45,91.41,117-2.54,20.66-9.51,37.1-22.61,53.28l-81.59-66.07Z" style="fill:#014098; fill-rule:evenodd; opacity:.13;"/><path d="M228.14,124V19.02c4.58,0,8.25.22,12.79.78l-12.79,104.21Z" style="fill:#014098; fill-rule:evenodd;"/><path d="M157.76,262.51c-1.03,3.08-2.49,5.84-4.28,8.19.9,1.69,1.76,2.69,2.45,2.69.63,0,.93-1.33,1.06-4.28.76.66,1.92,1.39,2.82,1.73-.53,4.84-1.69,6-4.15,6-1.66,0-3.25-1.29-4.58-3.42-1.33,1.29-2.82,2.42-4.35,3.35-.56-.7-1.89-2.02-2.65-2.65,1.99-1.06,3.78-2.39,5.31-4.01-1.09-2.62-1.92-5.84-2.45-9.29h-12.17v2.62c0,3.98-.53,9.72-3.28,13.4-.6-.7-2.16-1.89-2.95-2.29,2.39-3.28,2.62-7.83,2.62-11.15v-5.67h15.39c-.07-.76-.13-1.53-.17-2.29h-16.88v-3.15h4.94v-5.01h3.65v5.01h5.01v-6.47h3.82v1.89h9.42v2.79h-9.42v1.79h12.14v3.15h-4.34c1,.73,2.02,1.56,2.62,2.19l-.13.1h1.73v3.08h-8.43c.37,2.19.9,4.21,1.43,6,.96-1.56,1.76-3.25,2.32-5.11l3.52.8ZM139.15,267.25c-.63,2.26-1.66,4.64-2.75,6.14-.53-.43-1.76-1.16-2.46-1.49,1.09-1.39,1.92-3.35,2.39-5.24l2.82.6ZM142.63,265.46v7.76c0,1.39-.17,2.19-1.06,2.65-.83.53-1.96.56-3.42.56-.13-.93-.56-2.12-.96-2.95.86.03,1.66.03,1.89.03.33,0,.4-.1.4-.4v-7.66h-3.62v-2.89h10.42v2.89h-3.65ZM144.79,272.19c-.27-1.23-1.13-3.22-1.92-4.71l2.49-.9c.83,1.39,1.76,3.35,2.09,4.58l-2.65,1.03ZM149.93,255.44c.03.76.1,1.53.17,2.29h3.12c-.6-.5-1.23-1-1.76-1.36l1.26-.93h-2.79Z" style="fill:#333;"/><path d="M25.62,265.27v-9.12l27.12-38.82h13.52v37.82h7.3v10.12h-7.3v11.78h-11.61v-11.78h-29.03ZM55.4,229.77l-17,25.38h17v-25.38Z" style="fill:#333;"/><path d="M84.59,263.94c5.31-4.42,9.54-8.11,12.69-11.07,3.15-2.96,5.78-6.04,7.88-9.25,2.1-3.21,3.15-6.36,3.15-9.46,0-2.82-.66-5.03-1.99-6.64-1.33-1.6-3.37-2.41-6.14-2.41s-4.89.93-6.39,2.78c-1.49,1.85-2.27,4.38-2.32,7.59h-11.28c.22-6.64,2.2-11.67,5.93-15.1,3.73-3.43,8.47-5.14,14.22-5.14,6.3,0,11.14,1.67,14.51,5.02,3.37,3.35,5.06,7.75,5.06,13.23,0,4.31-1.16,8.43-3.48,12.36-2.32,3.93-4.98,7.34-7.96,10.24-2.99,2.9-6.88,6.4-11.7,10.49h24.47v9.62h-40.97v-8.63l4.31-3.65Z" style="fill:#333;"/><path d="M40.8,200.42h-7.54v6.33h-2.38v-6.33h-7.47v-2.32h7.47v-5.82h-6.47v-2.26h15.28v2.26h-6.43v5.82h7.54v2.32ZM27.67,192.9c.63,1.23,1.32,2.84,1.54,3.92l-2.23.69c-.19-1.02-.79-2.71-1.4-3.99l2.09-.61ZM34.79,196.89c.61-1.11,1.31-2.8,1.67-4.05l2.44.61c-.69,1.48-1.48,3.03-2.11,4.01l-2-.58Z" style="fill:#333;"/><path d="M59.9,191.88s-.02.79-.02,1.09c-.25,8.54-.52,11.61-1.29,12.63-.52.73-1.02.94-1.8,1.08-.69.12-1.8.1-2.9.06-.04-.67-.35-1.65-.77-2.32,1.11.1,2.13.1,2.63.1.33,0,.56-.06.79-.35.56-.59.83-3.38,1.04-10.12h-6.08c-.35.63-.69,1.21-1.06,1.75h5.28v2.04h-5.6v-1.59c-.19.25-.37.48-.56.69-.42-.4-1.4-1.13-1.96-1.46l.21-.21h-.98v4.43c.65-.27,1.3-.52,1.94-.79l.5,2.11c-2.15.96-4.49,1.96-6.32,2.73l-.81-2.32c.69-.23,1.56-.54,2.48-.88v-5.28h-2.05v-2.15h2.05v-4.05h2.21v4.05h1.8v1.11c1.06-1.5,1.9-3.46,2.42-5.43l2.32.52c-.25.88-.54,1.75-.88,2.57h7.41ZM56.31,201.27c-2.15.9-4.49,1.84-6.32,2.57l-.9-2.15c1.69-.52,4.34-1.44,6.83-2.34l.38,1.92Z" style="fill:#333;"/><path d="M79.26,202.67h-6.57v4.11h-2.36v-4.11h-8.64v-2.19h3.03v-5.03h5.61v-2.3h-4.11c-.79,1.36-1.71,2.59-2.61,3.49-.44-.38-1.42-1.15-1.98-1.48,1.73-1.46,3.21-3.92,4.03-6.39l2.32.59c-.17.54-.38,1.06-.63,1.57h10.85v2.21h-5.51v2.3h5.07v2.11h-5.07v2.92h6.57v2.19ZM70.33,200.48v-2.92h-3.32v2.92h3.32Z" style="fill:#333;"/><path d="M91.72,195.24c-.4.48-.83.92-1.27,1.27-.12-.31-.29-.69-.48-1.06h-9.25v-1.92h1.08v-3.69h1.92v3.69h1.23v-4.68h2.11v1.46h2.78v1.8h-2.78v1.42h3.26v.13c1.19-1.34,2.19-3.28,2.69-4.82h2.05c.88,2.07,2.3,4.38,3.82,5.39-.4.58-.83,1.46-1.11,2.17-.4-.33-.81-.71-1.17-1.15v1.46h-4.88v-1.48ZM88.24,195.95h1.77v10.56h-1.77v-.92h-5.22v1.15h-1.69v-10.79h1.69v7.91h5.22v-7.91ZM84.96,201.48c-.34.71-.79,1.34-1.25,1.77-.12-.4-.38-1.04-.6-1.4.48-.37.98-1.02,1.34-1.69h-1.11v-1.32h1.61v-2.69h1.34v2.69h1.59v1.32h-1.36c.5.48,1.34,1.31,1.59,1.57l-.83.96c-.19-.33-.61-.86-1-1.36v2.25h-1.34v-2.09ZM83.77,198.64c-.08-.48-.31-1.27-.58-1.84l1.02-.31c.29.56.54,1.32.63,1.8l-1.07.35ZM88.17,196.87c-.33.67-.63,1.29-.9,1.75l-.92-.27c.25-.52.56-1.29.71-1.8l1.11.33ZM97.96,202.82c0,.9-.13,1.46-.71,1.82-.58.34-1.27.38-2.23.38-.08-.61-.36-1.48-.61-2.04.52.02,1.08.02,1.25.02s.23-.08.23-.23v-2.73h-1.73v6.72h-2.11v-6.72h-1.42v-1.98h7.33v4.74ZM96.19,194.78c-.88-1.13-1.61-2.46-2.07-3.57-.44,1.09-1.15,2.42-2.02,3.57h4.09Z" style="fill:#333;"/><path d="M251.77,170.85c1.2-.83,2.62-1.25,4.25-1.25,1.49,0,2.63.34,3.43,1.03.8.69,1.2,1.58,1.2,2.69,0,.27-.02.55-.07.84-.18.99-.58,1.84-1.22,2.54-.64.71-1.36,1.18-2.16,1.42v.1c.74.24,1.3.64,1.7,1.21.4.57.6,1.29.6,2.17,0,.4-.03.77-.1,1.1-.26,1.44-.96,2.62-2.1,3.53-1.14.91-2.6,1.37-4.38,1.37-1.57,0-2.82-.37-3.77-1.12-.94-.74-1.42-1.81-1.42-3.2,0-.37.02-.65.05-.84h2.64c-.02.08-.02.2-.02.36,0,.75.25,1.36.74,1.82.5.46,1.21.7,2.14.7.99,0,1.8-.27,2.42-.8s1.01-1.23,1.15-2.08c.05-.27.07-.51.07-.72,0-.85-.32-1.46-.96-1.82s-1.62-.55-2.93-.55h-.62l.41-2.26h.65c1.3-.02,2.32-.23,3.07-.65s1.21-1.07,1.37-1.97c.03-.25.05-.44.05-.55,0-.61-.21-1.09-.62-1.44s-1.02-.53-1.82-.53c-.9,0-1.64.23-2.22.68-.58.46-.98,1.02-1.19,1.69h-2.66c.35-1.49,1.13-2.65,2.33-3.48Z" style="fill:#014098;"/><path d="M265.51,172.34c1.21-1.55,2.96-2.33,5.24-2.33,1.78,0,3.06.48,3.84,1.45.78.97,1.18,2.32,1.18,4.04,0,.93-.1,2-.31,3.21-.48,2.72-1.32,4.86-2.53,6.41-1.21,1.55-2.96,2.33-5.24,2.33-1.78,0-3.06-.48-3.84-1.45-.78-.97-1.18-2.32-1.18-4.07,0-.9.1-1.97.31-3.22.48-2.7,1.32-4.83,2.53-6.38ZM273.09,175.74c0-1.02-.21-1.82-.62-2.39-.42-.57-1.13-.85-2.14-.85s-1.82.28-2.44.84c-.62.56-1.08,1.28-1.4,2.16-.32.88-.59,1.95-.82,3.21-.22,1.23-.34,2.22-.34,2.98,0,1.04.21,1.84.62,2.41s1.14.85,2.16.85,1.82-.28,2.44-.84c.62-.56,1.08-1.28,1.4-2.16.32-.88.59-1.96.82-3.24.21-1.28.31-2.27.31-2.97Z" style="fill:#014098;"/><path d="M283.06,172.03c-.49,1.18-1.11,2.3-1.8,3.39v11.36h-1.26v-9.56c-.72.94-1.48,1.76-2.25,2.47-.13-.3-.5-.92-.72-1.21,1.92-1.63,3.76-4.18,4.86-6.82l1.18.37ZM287.5,177.71c.57,4.45,1.66,7.46,3.46,7.63.49.03.76-.96.92-2.89.25.23.79.54,1.04.65-.37,2.87-1.04,3.75-1.92,3.7-2.75-.2-4.1-3.68-4.74-8.92l-4.03.5-.17-1.18,4.07-.5c-.13-1.56-.25-3.22-.32-4.97h1.24c.05,1.7.15,3.33.32,4.8l5.02-.64.17,1.18-5.07.64ZM291.28,175.19c-.54-.76-1.71-1.93-2.7-2.75l.91-.6c1.01.79,2.2,1.93,2.77,2.69l-.97.67Z" style="fill:#014098;"/><path d="M174.67,98.7c-.4-.37-1.02-.55-1.85-.55-1.26,0-2.29.48-3.08,1.45s-1.4,2.57-1.84,4.81c.54-.7,1.25-1.25,2.12-1.63.87-.38,1.77-.58,2.7-.58,1.38,0,2.46.38,3.26,1.15s1.2,1.84,1.2,3.22c0,.53-.04.99-.12,1.39-.19,1.12-.59,2.12-1.19,3-.6.88-1.38,1.57-2.33,2.08-.95.5-2.04.76-3.25.76-1.84,0-3.16-.46-3.96-1.38s-1.2-2.27-1.2-4.04c0-1.02.13-2.26.38-3.72,1.02-5.86,3.6-8.78,7.73-8.78,1.09,0,1.98.2,2.69.61.7.41,1.21.95,1.52,1.63.31.68.44,1.43.4,2.24h-2.52c-.05-.74-.27-1.29-.67-1.66ZM169.08,105.39c-.78.58-1.27,1.43-1.46,2.53-.05.29-.07.58-.07.86,0,.85.26,1.52.77,2,.51.49,1.26.73,2.26.73s1.86-.31,2.56-.94,1.13-1.46,1.31-2.5c.06-.3.1-.62.1-.96,0-.82-.23-1.46-.7-1.92s-1.17-.7-2.11-.7-1.86.29-2.64.88Z" style="fill:#fff;"/><path d="M183.06,98.63c1.21-1.55,2.96-2.33,5.24-2.33,1.78,0,3.06.48,3.84,1.45.78.97,1.18,2.32,1.18,4.04,0,.93-.1,2-.31,3.22-.48,2.72-1.32,4.86-2.53,6.41-1.21,1.55-2.96,2.33-5.24,2.33-1.78,0-3.06-.48-3.84-1.45-.78-.97-1.18-2.32-1.18-4.07,0-.9.1-1.97.31-3.22.48-2.7,1.32-4.83,2.53-6.38ZM190.63,102.04c0-1.02-.21-1.82-.62-2.39-.42-.57-1.13-.85-2.14-.85s-1.82.28-2.44.84c-.62.56-1.08,1.28-1.4,2.16s-.59,1.95-.82,3.22c-.22,1.23-.34,2.22-.34,2.98,0,1.04.21,1.84.62,2.41.42.57,1.14.85,2.16.85s1.82-.28,2.44-.84c.62-.56,1.08-1.28,1.4-2.16.32-.88.59-1.96.82-3.24.21-1.28.31-2.27.31-2.98Z" style="fill:#fff;"/><path d="M200.61,98.33c-.49,1.18-1.11,2.3-1.8,3.39v11.36h-1.26v-9.56c-.72.94-1.48,1.76-2.25,2.47-.13-.3-.5-.92-.72-1.21,1.92-1.63,3.76-4.18,4.86-6.82l1.18.37ZM205.04,104.01c.57,4.45,1.66,7.46,3.46,7.63.49.03.76-.96.92-2.89.25.23.79.54,1.04.65-.37,2.87-1.04,3.75-1.92,3.7-2.75-.2-4.1-3.68-4.74-8.92l-4.03.5-.17-1.18,4.07-.5c-.13-1.56-.25-3.23-.32-4.97h1.24c.05,1.7.15,3.33.32,4.81l5.02-.64.17,1.18-5.07.64ZM208.82,101.49c-.54-.76-1.71-1.93-2.7-2.75l.91-.6c1.01.79,2.2,1.93,2.77,2.69l-.97.67Z" style="fill:#fff;"/><path d="M37.44,22.25l-9.38,15.38h-3l9.67-15.14h-8.88l.38-2.28h11.57l-.36,2.04Z" style="fill:#014098;"/><path d="M41.18,22.47c1.21-1.55,2.96-2.33,5.24-2.33,1.78,0,3.06.48,3.84,1.45.78.97,1.18,2.32,1.18,4.04,0,.93-.1,2-.31,3.22-.48,2.72-1.32,4.86-2.53,6.41-1.21,1.55-2.96,2.33-5.24,2.33-1.78,0-3.06-.48-3.84-1.45-.78-.97-1.18-2.32-1.18-4.07,0-.9.1-1.97.31-3.22.48-2.7,1.32-4.83,2.53-6.38ZM48.75,25.88c0-1.02-.21-1.82-.62-2.39-.42-.57-1.13-.85-2.14-.85s-1.82.28-2.44.84c-.62.56-1.08,1.28-1.4,2.16s-.59,1.95-.82,3.22c-.22,1.23-.34,2.22-.34,2.98,0,1.04.21,1.84.62,2.41.42.57,1.14.85,2.16.85s1.82-.28,2.44-.84c.62-.56,1.08-1.28,1.4-2.16.32-.88.59-1.96.82-3.24.21-1.28.31-2.27.31-2.98Z" style="fill:#014098;"/><path d="M58.73,22.17c-.49,1.18-1.11,2.3-1.8,3.39v11.36h-1.26v-9.56c-.72.94-1.48,1.76-2.25,2.47-.13-.3-.5-.92-.72-1.21,1.92-1.63,3.76-4.18,4.86-6.82l1.18.37ZM63.16,27.84c.57,4.45,1.66,7.46,3.46,7.63.49.03.76-.96.92-2.89.25.23.79.54,1.04.66-.37,2.87-1.04,3.75-1.92,3.7-2.75-.2-4.1-3.68-4.74-8.92l-4.03.5-.17-1.18,4.07-.5c-.13-1.56-.25-3.23-.32-4.97h1.24c.05,1.7.15,3.33.32,4.81l5.02-.64.17,1.18-5.07.64ZM66.94,25.32c-.54-.76-1.71-1.93-2.7-2.75l.91-.6c1.01.79,2.2,1.93,2.77,2.69l-.97.67Z" style="fill:#014098;"/><path d="M263.87,7.72l.46-2.5h4.99l-3.02,17.04h-2.76l2.57-14.54h-2.23Z" style="fill:#014098;"/><path d="M274.16,7.1c1.21-1.55,2.96-2.33,5.24-2.33,1.78,0,3.06.48,3.84,1.45.78.97,1.18,2.32,1.18,4.04,0,.93-.1,2-.31,3.22-.48,2.72-1.32,4.86-2.53,6.41-1.21,1.55-2.96,2.33-5.24,2.33-1.78,0-3.06-.48-3.84-1.45-.78-.97-1.18-2.32-1.18-4.07,0-.9.1-1.97.31-3.22.48-2.7,1.32-4.83,2.53-6.38ZM281.73,10.5c0-1.02-.21-1.82-.62-2.39-.42-.57-1.13-.85-2.14-.85s-1.82.28-2.44.84c-.62.56-1.08,1.28-1.4,2.16s-.59,1.95-.82,3.22c-.22,1.23-.34,2.22-.34,2.98,0,1.04.21,1.84.62,2.41.42.57,1.14.85,2.16.85s1.82-.28,2.44-.84c.62-.56,1.08-1.28,1.4-2.16.32-.88.59-1.96.82-3.24.21-1.28.31-2.27.31-2.98Z" style="fill:#014098;"/><path d="M291.71,6.79c-.49,1.18-1.11,2.3-1.8,3.39v11.36h-1.26v-9.56c-.72.94-1.48,1.76-2.25,2.47-.13-.3-.5-.92-.72-1.21,1.92-1.63,3.76-4.18,4.86-6.82l1.18.37ZM296.14,12.47c.57,4.45,1.66,7.46,3.46,7.63.49.03.76-.96.92-2.89.25.23.79.54,1.04.66-.37,2.87-1.04,3.75-1.92,3.7-2.75-.2-4.1-3.68-4.74-8.92l-4.03.5-.17-1.18,4.07-.5c-.13-1.56-.25-3.23-.32-4.97h1.24c.05,1.7.15,3.33.32,4.81l5.02-.64.17,1.18-5.07.64ZM299.92,9.95c-.54-.76-1.71-1.93-2.7-2.75l.91-.6c1.01.79,2.2,1.93,2.77,2.69l-.97.67Z" style="fill:#014098;"/><path d="M193.96,228.35v-5.85h10.2v26.87h-6.55v-21.02h-3.64Z" style="fill:none; stroke:#fff; stroke-linecap:round; stroke-linejoin:round; stroke-width:3px;"/><path d="M209.38,243.41c2.4-1.99,4.3-3.62,5.69-4.89,1.39-1.28,2.56-2.61,3.52-4.01.96-1.4,1.43-2.76,1.43-4.09,0-1.01-.23-1.79-.7-2.36s-1.17-.85-2.1-.85-1.66.35-2.19,1.05c-.53.7-.79,1.69-.79,2.96h-6.07c.05-2.08.5-3.83,1.34-5.23.85-1.4,1.96-2.43,3.35-3.09,1.39-.66,2.93-.99,4.62-.99,2.92,0,5.12.75,6.61,2.25s2.23,3.45,2.23,5.85c0,2.62-.9,5.06-2.69,7.31s-4.07,4.43-6.85,6.57h9.94v5.12h-18.48v-4.67c.83-.66,1.21-.97,1.14-.92Z" style="fill:none; stroke:#fff; stroke-linecap:round; stroke-linejoin:round; stroke-width:3px;"/><path d="M228.64,235.77c0-3.81,1.91-6,4.64-6s4.66,2.19,4.66,6-1.93,6.08-4.66,6.08-4.64-2.24-4.64-6.08ZM235.26,235.77c0-2.81-.88-3.86-1.98-3.86s-1.96,1.06-1.96,3.86.85,3.94,1.96,3.94,1.98-1.13,1.98-3.94ZM244.28,229.77h2.24l-10.38,19.78h-2.21l10.35-19.78ZM242.5,243.47c0-3.84,1.93-6.03,4.64-6.03s4.66,2.19,4.66,6.03-1.96,6.08-4.66,6.08-4.64-2.27-4.64-6.08ZM249.12,243.47c0-2.81-.88-3.89-1.98-3.89s-1.98,1.08-1.98,3.89.88,3.91,1.98,3.91,1.98-1.11,1.98-3.91Z" style="fill:none; stroke:#fff; stroke-linecap:round; stroke-linejoin:round; stroke-width:3px;"/><path d="M193.96,228.35v-5.85h10.2v26.87h-6.55v-21.02h-3.64Z" style="fill:#333;"/><path d="M209.38,243.41c2.4-1.99,4.3-3.62,5.69-4.89,1.39-1.28,2.56-2.61,3.52-4.01.96-1.4,1.43-2.76,1.43-4.09,0-1.01-.23-1.79-.7-2.36s-1.17-.85-2.1-.85-1.66.35-2.19,1.05c-.53.7-.79,1.69-.79,2.96h-6.07c.05-2.08.5-3.83,1.34-5.23.85-1.4,1.96-2.43,3.35-3.09,1.39-.66,2.93-.99,4.62-.99,2.92,0,5.12.75,6.61,2.25s2.23,3.45,2.23,5.85c0,2.62-.9,5.06-2.69,7.31s-4.07,4.43-6.85,6.57h9.94v5.12h-18.48v-4.67c.83-.66,1.21-.97,1.14-.92Z" style="fill:#333;"/><path d="M228.64,235.77c0-3.81,1.91-6,4.64-6s4.66,2.19,4.66,6-1.93,6.08-4.66,6.08-4.64-2.24-4.64-6.08ZM235.26,235.77c0-2.81-.88-3.86-1.98-3.86s-1.96,1.06-1.96,3.86.85,3.94,1.96,3.94,1.98-1.13,1.98-3.94ZM244.28,229.77h2.24l-10.38,19.78h-2.21l10.35-19.78ZM242.5,243.47c0-3.84,1.93-6.03,4.64-6.03s4.66,2.19,4.66,6.03-1.96,6.08-4.66,6.08-4.64-2.27-4.64-6.08ZM249.12,243.47c0-2.81-.88-3.89-1.98-3.89s-1.98,1.08-1.98,3.89.88,3.91,1.98,3.91,1.98-1.11,1.98-3.91Z" style="fill:#333;"/><path d="M36.15,51.39c-.49-.45-1.19-.68-2.1-.68-1.4,0-2.41.61-3.02,1.82-.61,1.21-.93,3.14-.96,5.76.54-.86,1.32-1.53,2.34-2.02,1.02-.49,2.14-.74,3.37-.74,2.4,0,4.34.76,5.8,2.28,1.46,1.52,2.19,3.64,2.19,6.37,0,1.79-.36,3.36-1.09,4.71-.72,1.35-1.78,2.41-3.17,3.17-1.39.76-3.02,1.14-4.91,1.14-3.78,0-6.4-1.18-7.88-3.55-1.47-2.37-2.21-5.77-2.21-10.21,0-4.66.78-8.13,2.34-10.4,1.56-2.27,4.05-3.4,7.49-3.4,1.84,0,3.39.36,4.66,1.09,1.26.72,2.22,1.67,2.87,2.85.65,1.18,1.04,2.47,1.16,3.86h-5.85c-.2-.91-.54-1.59-1.03-2.04ZM31.64,61.43c-.7.63-1.05,1.52-1.05,2.67s.33,2.1.98,2.76c.65.66,1.58.99,2.78.99,1.08,0,1.93-.33,2.56-.98.63-.65.94-1.54.94-2.67s-.31-2.06-.92-2.72-1.5-.99-2.65-.99c-1.05,0-1.93.31-2.63.94Z" style="fill:none; stroke:#fff; stroke-linecap:round; stroke-linejoin:round; stroke-width:3px;"/><path d="M46.51,59.44c0-3.81,1.91-6,4.64-6s4.66,2.19,4.66,6-1.93,6.08-4.66,6.08-4.64-2.24-4.64-6.08ZM53.12,59.44c0-2.81-.88-3.86-1.98-3.86s-1.96,1.06-1.96,3.86.85,3.94,1.96,3.94,1.98-1.13,1.98-3.94ZM62.14,53.44h2.24l-10.38,19.78h-2.21l10.35-19.78ZM60.36,67.14c0-3.84,1.93-6.03,4.64-6.03s4.66,2.19,4.66,6.03-1.96,6.08-4.66,6.08-4.64-2.27-4.64-6.08ZM66.98,67.14c0-2.81-.88-3.89-1.98-3.89s-1.98,1.08-1.98,3.89.88,3.92,1.98,3.92,1.98-1.11,1.98-3.92Z" style="fill:none; stroke:#fff; stroke-linecap:round; stroke-linejoin:round; stroke-width:3px;"/><path d="M36.15,51.39c-.49-.45-1.19-.68-2.1-.68-1.4,0-2.41.61-3.02,1.82-.61,1.21-.93,3.14-.96,5.76.54-.86,1.32-1.53,2.34-2.02,1.02-.49,2.14-.74,3.37-.74,2.4,0,4.34.76,5.8,2.28,1.46,1.52,2.19,3.64,2.19,6.37,0,1.79-.36,3.36-1.09,4.71-.72,1.35-1.78,2.41-3.17,3.17-1.39.76-3.02,1.14-4.91,1.14-3.78,0-6.4-1.18-7.88-3.55-1.47-2.37-2.21-5.77-2.21-10.21,0-4.66.78-8.13,2.34-10.4,1.56-2.27,4.05-3.4,7.49-3.4,1.84,0,3.39.36,4.66,1.09,1.26.72,2.22,1.67,2.87,2.85.65,1.18,1.04,2.47,1.16,3.86h-5.85c-.2-.91-.54-1.59-1.03-2.04ZM31.64,61.43c-.7.63-1.05,1.52-1.05,2.67s.33,2.1.98,2.76c.65.66,1.58.99,2.78.99,1.08,0,1.93-.33,2.56-.98.63-.65.94-1.54.94-2.67s-.31-2.06-.92-2.72-1.5-.99-2.65-.99c-1.05,0-1.93.31-2.63.94Z" style="fill:#333;"/><path d="M46.51,59.44c0-3.81,1.91-6,4.64-6s4.66,2.19,4.66,6-1.93,6.08-4.66,6.08-4.64-2.24-4.64-6.08ZM53.12,59.44c0-2.81-.88-3.86-1.98-3.86s-1.96,1.06-1.96,3.86.85,3.94,1.96,3.94,1.98-1.13,1.98-3.94ZM62.14,53.44h2.24l-10.38,19.78h-2.21l10.35-19.78ZM60.36,67.14c0-3.84,1.93-6.03,4.64-6.03s4.66,2.19,4.66,6.03-1.96,6.08-4.66,6.08-4.64-2.27-4.64-6.08ZM66.98,67.14c0-2.81-.88-3.89-1.98-3.89s-1.98,1.08-1.98,3.89.88,3.92,1.98,3.92,1.98-1.11,1.98-3.92Z" style="fill:#333;"/><path d="M311.03,26.59c2.4-1.99,4.3-3.62,5.69-4.9,1.39-1.28,2.56-2.61,3.52-4.01.96-1.4,1.43-2.76,1.43-4.09,0-1.01-.23-1.79-.7-2.36s-1.17-.85-2.1-.85-1.66.35-2.19,1.05c-.53.7-.79,1.69-.79,2.96h-6.07c.05-2.08.5-3.83,1.34-5.23.85-1.4,1.96-2.43,3.35-3.09,1.39-.66,2.93-.99,4.62-.99,2.92,0,5.12.75,6.61,2.25,1.48,1.5,2.23,3.45,2.23,5.85,0,2.63-.9,5.06-2.69,7.31-1.79,2.25-4.07,4.44-6.85,6.57h9.94v5.12h-18.48v-4.67c.83-.66,1.21-.97,1.14-.92Z" style="fill:none; stroke:#fff; stroke-linecap:round; stroke-linejoin:round; stroke-width:3px;"/><path d="M330.29,18.95c0-3.81,1.91-6,4.64-6s4.66,2.19,4.66,6-1.93,6.08-4.66,6.08-4.64-2.24-4.64-6.08ZM336.91,18.95c0-2.81-.88-3.86-1.98-3.86s-1.96,1.06-1.96,3.86.85,3.94,1.96,3.94,1.98-1.13,1.98-3.94ZM345.93,12.95h2.24l-10.38,19.78h-2.21l10.35-19.78ZM344.15,26.65c0-3.84,1.93-6.03,4.64-6.03s4.66,2.19,4.66,6.03-1.96,6.08-4.66,6.08-4.64-2.27-4.64-6.08ZM350.77,26.65c0-2.81-.88-3.89-1.98-3.89s-1.98,1.08-1.98,3.89.88,3.92,1.98,3.92,1.98-1.11,1.98-3.92Z" style="fill:none; stroke:#fff; stroke-linecap:round; stroke-linejoin:round; stroke-width:3px;"/><path d="M311.03,26.59c2.4-1.99,4.3-3.62,5.69-4.9,1.39-1.28,2.56-2.61,3.52-4.01.96-1.4,1.43-2.76,1.43-4.09,0-1.01-.23-1.79-.7-2.36s-1.17-.85-2.1-.85-1.66.35-2.19,1.05c-.53.7-.79,1.69-.79,2.96h-6.07c.05-2.08.5-3.83,1.34-5.23.85-1.4,1.96-2.43,3.35-3.09,1.39-.66,2.93-.99,4.62-.99,2.92,0,5.12.75,6.61,2.25,1.48,1.5,2.23,3.45,2.23,5.85,0,2.63-.9,5.06-2.69,7.31-1.79,2.25-4.07,4.44-6.85,6.57h9.94v5.12h-18.48v-4.67c.83-.66,1.21-.97,1.14-.92Z" style="fill:#333;"/><path d="M330.29,18.95c0-3.81,1.91-6,4.64-6s4.66,2.19,4.66,6-1.93,6.08-4.66,6.08-4.64-2.24-4.64-6.08ZM336.91,18.95c0-2.81-.88-3.86-1.98-3.86s-1.96,1.06-1.96,3.86.85,3.94,1.96,3.94,1.98-1.13,1.98-3.94ZM345.93,12.95h2.24l-10.38,19.78h-2.21l10.35-19.78ZM344.15,26.65c0-3.84,1.93-6.03,4.64-6.03s4.66,2.19,4.66,6.03-1.96,6.08-4.66,6.08-4.64-2.27-4.64-6.08ZM350.77,26.65c0-2.81-.88-3.89-1.98-3.89s-1.98,1.08-1.98,3.89.88,3.92,1.98,3.92,1.98-1.11,1.98-3.92Z" style="fill:#333;"/><path d="M272.11,213.84v-5.85h10.2v26.87h-6.55v-21.02h-3.64Z" style="fill:none; stroke:#fff; stroke-linecap:round; stroke-linejoin:round; stroke-width:3px;"/><path d="M287.53,228.9c2.4-1.99,4.3-3.62,5.69-4.9,1.39-1.28,2.56-2.61,3.52-4.01.96-1.4,1.43-2.76,1.43-4.08,0-1.01-.23-1.79-.7-2.36s-1.17-.85-2.1-.85-1.66.35-2.19,1.05c-.53.7-.79,1.69-.79,2.96h-6.07c.05-2.08.5-3.83,1.34-5.23.85-1.4,1.96-2.43,3.35-3.09,1.39-.66,2.93-.99,4.62-.99,2.92,0,5.12.75,6.61,2.24,1.48,1.5,2.23,3.45,2.23,5.85,0,2.63-.9,5.06-2.69,7.31-1.79,2.25-4.07,4.44-6.85,6.57h9.94v5.12h-18.48v-4.67c.83-.66,1.21-.97,1.14-.92Z" style="fill:none; stroke:#fff; stroke-linecap:round; stroke-linejoin:round; stroke-width:3px;"/><path d="M306.79,221.26c0-3.81,1.91-6,4.64-6s4.66,2.19,4.66,6-1.93,6.08-4.66,6.08-4.64-2.24-4.64-6.08ZM313.41,221.26c0-2.81-.88-3.86-1.98-3.86s-1.96,1.06-1.96,3.86.85,3.94,1.96,3.94,1.98-1.13,1.98-3.94ZM322.43,215.26h2.24l-10.38,19.78h-2.21l10.35-19.78ZM320.65,228.96c0-3.84,1.93-6.03,4.64-6.03s4.66,2.19,4.66,6.03-1.96,6.08-4.66,6.08-4.64-2.27-4.64-6.08ZM327.27,228.96c0-2.81-.88-3.89-1.98-3.89s-1.98,1.08-1.98,3.89.88,3.92,1.98,3.92,1.98-1.11,1.98-3.92Z" style="fill:none; stroke:#fff; stroke-linecap:round; stroke-linejoin:round; stroke-width:3px;"/><path d="M272.11,213.84v-5.85h10.2v26.87h-6.55v-21.02h-3.64Z" style="fill:#333;"/><path d="M287.53,228.9c2.4-1.99,4.3-3.62,5.69-4.9,1.39-1.28,2.56-2.61,3.52-4.01.96-1.4,1.43-2.76,1.43-4.08,0-1.01-.23-1.79-.7-2.36s-1.17-.85-2.1-.85-1.66.35-2.19,1.05c-.53.7-.79,1.69-.79,2.96h-6.07c.05-2.08.5-3.83,1.34-5.23.85-1.4,1.96-2.43,3.35-3.09,1.39-.66,2.93-.99,4.62-.99,2.92,0,5.12.75,6.61,2.24,1.48,1.5,2.23,3.45,2.23,5.85,0,2.63-.9,5.06-2.69,7.31-1.79,2.25-4.07,4.44-6.85,6.57h9.94v5.12h-18.48v-4.67c.83-.66,1.21-.97,1.14-.92Z" style="fill:#333;"/><path d="M306.79,221.26c0-3.81,1.91-6,4.64-6s4.66,2.19,4.66,6-1.93,6.08-4.66,6.08-4.64-2.24-4.64-6.08ZM313.41,221.26c0-2.81-.88-3.86-1.98-3.86s-1.96,1.06-1.96,3.86.85,3.94,1.96,3.94,1.98-1.13,1.98-3.94ZM322.43,215.26h2.24l-10.38,19.78h-2.21l10.35-19.78ZM320.65,228.96c0-3.84,1.93-6.03,4.64-6.03s4.66,2.19,4.66,6.03-1.96,6.08-4.66,6.08-4.64-2.27-4.64-6.08ZM327.27,228.96c0-2.81-.88-3.89-1.98-3.89s-1.98,1.08-1.98,3.89.88,3.92,1.98,3.92,1.98-1.11,1.98-3.92Z" style="fill:#333;"/><path d="M119.28,178.7v-5.85h10.2v26.87h-6.55v-21.02h-3.64Z" style="fill:none; stroke:#fff; stroke-linecap:round; stroke-linejoin:round; stroke-width:3px;"/><path d="M146.04,178.06c-.49-.45-1.19-.68-2.1-.68-1.4,0-2.41.61-3.02,1.82-.61,1.21-.93,3.13-.96,5.76.54-.86,1.32-1.53,2.34-2.02,1.02-.49,2.14-.74,3.37-.74,2.4,0,4.34.76,5.8,2.28,1.46,1.52,2.19,3.64,2.19,6.37,0,1.79-.36,3.36-1.09,4.71s-1.78,2.41-3.17,3.17c-1.39.76-3.02,1.14-4.91,1.14-3.78,0-6.4-1.18-7.88-3.55-1.47-2.37-2.21-5.77-2.21-10.21,0-4.66.78-8.13,2.34-10.4,1.56-2.27,4.05-3.41,7.49-3.41,1.84,0,3.39.36,4.66,1.09,1.26.72,2.22,1.67,2.87,2.85s1.04,2.47,1.16,3.86h-5.85c-.2-.91-.54-1.59-1.03-2.04ZM141.53,188.11c-.7.63-1.05,1.52-1.05,2.67s.33,2.1.98,2.76,1.58.99,2.78.99c1.08,0,1.93-.33,2.56-.98s.94-1.54.94-2.67-.31-2.06-.92-2.72c-.61-.66-1.5-.99-2.65-.99-1.05,0-1.93.31-2.63.94Z" style="fill:none; stroke:#fff; stroke-linecap:round; stroke-linejoin:round; stroke-width:3px;"/><path d="M156.4,186.12c0-3.81,1.91-6,4.64-6s4.66,2.19,4.66,6-1.93,6.08-4.66,6.08-4.64-2.24-4.64-6.08ZM163.01,186.12c0-2.81-.88-3.86-1.98-3.86s-1.96,1.06-1.96,3.86.85,3.94,1.96,3.94,1.98-1.13,1.98-3.94ZM172.03,180.12h2.24l-10.38,19.78h-2.21l10.35-19.78ZM170.25,193.82c0-3.84,1.93-6.03,4.64-6.03s4.66,2.19,4.66,6.03-1.96,6.08-4.66,6.08-4.64-2.27-4.64-6.08ZM176.87,193.82c0-2.81-.88-3.89-1.98-3.89s-1.98,1.08-1.98,3.89.88,3.92,1.98,3.92,1.98-1.11,1.98-3.92Z" style="fill:none; stroke:#fff; stroke-linecap:round; stroke-linejoin:round; stroke-width:3px;"/><path d="M119.28,178.7v-5.85h10.2v26.87h-6.55v-21.02h-3.64Z" style="fill:#333;"/><path d="M146.04,178.06c-.49-.45-1.19-.68-2.1-.68-1.4,0-2.41.61-3.02,1.82-.61,1.21-.93,3.13-.96,5.76.54-.86,1.32-1.53,2.34-2.02,1.02-.49,2.14-.74,3.37-.74,2.4,0,4.34.76,5.8,2.28,1.46,1.52,2.19,3.64,2.19,6.37,0,1.79-.36,3.36-1.09,4.71s-1.78,2.41-3.17,3.17c-1.39.76-3.02,1.14-4.91,1.14-3.78,0-6.4-1.18-7.88-3.55-1.47-2.37-2.21-5.77-2.21-10.21,0-4.66.78-8.13,2.34-10.4,1.56-2.27,4.05-3.41,7.49-3.41,1.84,0,3.39.36,4.66,1.09,1.26.72,2.22,1.67,2.87,2.85s1.04,2.47,1.16,3.86h-5.85c-.2-.91-.54-1.59-1.03-2.04ZM141.53,188.11c-.7.63-1.05,1.52-1.05,2.67s.33,2.1.98,2.76,1.58.99,2.78.99c1.08,0,1.93-.33,2.56-.98s.94-1.54.94-2.67-.31-2.06-.92-2.72c-.61-.66-1.5-.99-2.65-.99-1.05,0-1.93.31-2.63.94Z" style="fill:#333;"/><path d="M156.4,186.12c0-3.81,1.91-6,4.64-6s4.66,2.19,4.66,6-1.93,6.08-4.66,6.08-4.64-2.24-4.64-6.08ZM163.01,186.12c0-2.81-.88-3.86-1.98-3.86s-1.96,1.06-1.96,3.86.85,3.94,1.96,3.94,1.98-1.13,1.98-3.94ZM172.03,180.12h2.24l-10.38,19.78h-2.21l10.35-19.78ZM170.25,193.82c0-3.84,1.93-6.03,4.64-6.03s4.66,2.19,4.66,6.03-1.96,6.08-4.66,6.08-4.64-2.27-4.64-6.08ZM176.87,193.82c0-2.81-.88-3.89-1.98-3.89s-1.98,1.08-1.98,3.89.88,3.92,1.98,3.92,1.98-1.11,1.98-3.92Z" style="fill:#333;"/><path d="M118.14,63.82v-5.85h10.2v26.87h-6.55v-21.02h-3.64Z" style="fill:none; stroke:#fff; stroke-linecap:round; stroke-linejoin:round; stroke-width:3px;"/><path d="M133.6,64.63c0-1.32.34-2.53,1.03-3.63.69-1.09,1.73-1.96,3.13-2.61,1.4-.65,3.12-.98,5.15-.98s3.75.33,5.13.98c1.39.65,2.42,1.52,3.11,2.61.69,1.09,1.03,2.3,1.03,3.63s-.31,2.48-.94,3.46-1.47,1.75-2.52,2.32c1.33.64,2.34,1.52,3.05,2.63.71,1.12,1.07,2.42,1.07,3.92,0,1.74-.44,3.25-1.32,4.51-.88,1.26-2.08,2.23-3.59,2.89s-3.18.99-5.02.99-3.51-.33-5.02-.99c-1.51-.66-2.71-1.62-3.59-2.89-.88-1.26-1.33-2.77-1.33-4.51,0-1.52.36-2.84,1.07-3.96.71-1.12,1.72-1.98,3.02-2.59-2.31-1.23-3.46-3.15-3.46-5.78ZM140.11,74.07c-.71.63-1.07,1.49-1.07,2.59,0,1.03.35,1.88,1.05,2.54s1.64.99,2.82.99,2.1-.33,2.78-.99c.67-.66,1.01-1.51,1.01-2.54s-.35-1.94-1.05-2.58c-.7-.64-1.61-.96-2.74-.96s-2.09.31-2.8.94ZM145.21,63.25c-.58-.55-1.34-.83-2.3-.83s-1.72.28-2.3.85c-.58.56-.87,1.35-.87,2.36s.29,1.71.88,2.26c.59.55,1.35.83,2.28.83s1.69-.28,2.28-.85.88-1.33.88-2.28c0-1.01-.29-1.79-.87-2.34Z" style="fill:none; stroke:#fff; stroke-linecap:round; stroke-linejoin:round; stroke-width:3px;"/><path d="M155.66,71.24c0-3.81,1.91-6,4.64-6s4.66,2.19,4.66,6-1.93,6.08-4.66,6.08-4.64-2.24-4.64-6.08ZM162.28,71.24c0-2.81-.88-3.86-1.98-3.86s-1.96,1.06-1.96,3.86.85,3.94,1.96,3.94,1.98-1.13,1.98-3.94ZM171.3,65.24h2.24l-10.38,19.78h-2.21l10.35-19.78ZM169.52,78.94c0-3.84,1.93-6.03,4.64-6.03s4.66,2.19,4.66,6.03-1.96,6.08-4.66,6.08-4.64-2.27-4.64-6.08ZM176.14,78.94c0-2.81-.88-3.89-1.98-3.89s-1.98,1.08-1.98,3.89.88,3.92,1.98,3.92,1.98-1.11,1.98-3.92Z" style="fill:none; stroke:#fff; stroke-linecap:round; stroke-linejoin:round; stroke-width:3px;"/><path d="M118.14,63.82v-5.85h10.2v26.87h-6.55v-21.02h-3.64Z" style="fill:#333;"/><path d="M133.6,64.63c0-1.32.34-2.53,1.03-3.63.69-1.09,1.73-1.96,3.13-2.61,1.4-.65,3.12-.98,5.15-.98s3.75.33,5.13.98c1.39.65,2.42,1.52,3.11,2.61.69,1.09,1.03,2.3,1.03,3.63s-.31,2.48-.94,3.46-1.47,1.75-2.52,2.32c1.33.64,2.34,1.52,3.05,2.63.71,1.12,1.07,2.42,1.07,3.92,0,1.74-.44,3.25-1.32,4.51-.88,1.26-2.08,2.23-3.59,2.89s-3.18.99-5.02.99-3.51-.33-5.02-.99c-1.51-.66-2.71-1.62-3.59-2.89-.88-1.26-1.33-2.77-1.33-4.51,0-1.52.36-2.84,1.07-3.96.71-1.12,1.72-1.98,3.02-2.59-2.31-1.23-3.46-3.15-3.46-5.78ZM140.11,74.07c-.71.63-1.07,1.49-1.07,2.59,0,1.03.35,1.88,1.05,2.54s1.64.99,2.82.99,2.1-.33,2.78-.99c.67-.66,1.01-1.51,1.01-2.54s-.35-1.94-1.05-2.58c-.7-.64-1.61-.96-2.74-.96s-2.09.31-2.8.94ZM145.21,63.25c-.58-.55-1.34-.83-2.3-.83s-1.72.28-2.3.85c-.58.56-.87,1.35-.87,2.36s.29,1.71.88,2.26c.59.55,1.35.83,2.28.83s1.69-.28,2.28-.85.88-1.33.88-2.28c0-1.01-.29-1.79-.87-2.34Z" style="fill:#333;"/><path d="M155.66,71.24c0-3.81,1.91-6,4.64-6s4.66,2.19,4.66,6-1.93,6.08-4.66,6.08-4.64-2.24-4.64-6.08ZM162.28,71.24c0-2.81-.88-3.86-1.98-3.86s-1.96,1.06-1.96,3.86.85,3.94,1.96,3.94,1.98-1.13,1.98-3.94ZM171.3,65.24h2.24l-10.38,19.78h-2.21l10.35-19.78ZM169.52,78.94c0-3.84,1.93-6.03,4.64-6.03s4.66,2.19,4.66,6.03-1.96,6.08-4.66,6.08-4.64-2.27-4.64-6.08ZM176.14,78.94c0-2.81-.88-3.89-1.98-3.89s-1.98,1.08-1.98,3.89.88,3.92,1.98,3.92,1.98-1.11,1.98-3.92Z" style="fill:#333;"/><path d="M195.01,204.35l.36-2.06,10.1-11.57h3.31l-1.97,11.26h2.23l-.43,2.38h-2.23l-.65,3.65h-2.69l.65-3.65h-8.69ZM205.74,193.5l-7.15,8.47h5.66l1.49-8.47Z" style="fill:#fff;"/><path d="M214.32,192.83c1.21-1.55,2.96-2.33,5.24-2.33,1.78,0,3.06.48,3.84,1.45.78.97,1.18,2.32,1.18,4.04,0,.93-.1,2-.31,3.22-.48,2.72-1.32,4.86-2.53,6.41-1.21,1.55-2.96,2.33-5.24,2.33-1.78,0-3.06-.48-3.84-1.45-.78-.97-1.18-2.32-1.18-4.07,0-.9.1-1.97.31-3.22.48-2.7,1.32-4.83,2.53-6.38ZM221.89,196.23c0-1.02-.21-1.82-.62-2.39-.42-.57-1.13-.85-2.14-.85s-1.82.28-2.44.84c-.62.56-1.08,1.28-1.4,2.16s-.59,1.95-.82,3.22c-.22,1.23-.34,2.22-.34,2.98,0,1.04.21,1.84.62,2.41s1.14.85,2.16.85,1.82-.28,2.44-.84c.62-.56,1.08-1.28,1.4-2.16.32-.88.59-1.96.82-3.24.21-1.28.31-2.27.31-2.98Z" style="fill:#fff;"/><path d="M231.87,192.52c-.49,1.18-1.11,2.3-1.8,3.39v11.36h-1.26v-9.56c-.72.94-1.48,1.76-2.25,2.47-.13-.3-.5-.92-.72-1.21,1.92-1.63,3.76-4.18,4.86-6.82l1.18.37ZM236.31,198.2c.57,4.45,1.66,7.46,3.46,7.63.49.03.76-.96.92-2.89.25.23.79.54,1.04.65-.37,2.87-1.04,3.75-1.92,3.7-2.75-.2-4.1-3.68-4.74-8.92l-4.03.5-.17-1.18,4.07-.5c-.13-1.56-.25-3.23-.32-4.97h1.24c.05,1.7.15,3.33.32,4.8l5.02-.64.17,1.18-5.07.64ZM240.09,195.68c-.54-.76-1.71-1.93-2.7-2.76l.91-.6c1.01.79,2.2,1.93,2.77,2.69l-.97.67Z" style="fill:#fff;"/><path d="M166.34,146.32h-8.04l-.84,4.78c.42-.45.98-.82,1.69-1.13.71-.3,1.44-.46,2.2-.46,1.65,0,2.84.42,3.59,1.27.74.85,1.12,1.92,1.12,3.22,0,.42-.04.86-.12,1.34-.32,1.82-1.1,3.3-2.34,4.43-1.24,1.13-2.84,1.69-4.79,1.69-1.74,0-3.06-.43-3.96-1.3-.9-.86-1.33-2.01-1.3-3.43h2.66c.05.75.34,1.35.86,1.79.53.44,1.25.66,2.16.66,1.14,0,2.05-.34,2.74-1.03s1.14-1.6,1.34-2.74c.06-.32.1-.65.1-.98,0-.83-.24-1.47-.73-1.92-.49-.45-1.2-.67-2.15-.67-.78,0-1.48.2-2.08.59-.6.39-1.08.92-1.45,1.6h-2.59l1.78-10.1h10.56l-.41,2.4Z" style="fill:#014098;"/><path d="M171.8,146.29c1.21-1.55,2.96-2.33,5.24-2.33,1.78,0,3.06.48,3.84,1.45.78.97,1.18,2.32,1.18,4.04,0,.93-.1,2-.31,3.22-.48,2.72-1.32,4.86-2.53,6.41-1.21,1.55-2.96,2.33-5.24,2.33-1.78,0-3.06-.48-3.84-1.45-.78-.97-1.18-2.32-1.18-4.07,0-.9.1-1.97.31-3.22.48-2.7,1.32-4.83,2.53-6.38ZM179.37,149.7c0-1.02-.21-1.82-.62-2.39-.42-.57-1.13-.85-2.14-.85s-1.82.28-2.44.84c-.62.56-1.08,1.28-1.4,2.16s-.59,1.95-.82,3.22c-.22,1.23-.34,2.22-.34,2.98,0,1.04.21,1.84.62,2.41.42.57,1.14.85,2.16.85s1.82-.28,2.44-.84c.62-.56,1.08-1.28,1.4-2.16.32-.88.59-1.96.82-3.24.21-1.28.31-2.27.31-2.98Z" style="fill:#014098;"/><path d="M189.35,145.99c-.49,1.18-1.11,2.3-1.8,3.39v11.36h-1.26v-9.56c-.72.94-1.48,1.76-2.25,2.47-.13-.3-.5-.92-.72-1.21,1.92-1.63,3.76-4.18,4.86-6.82l1.18.37ZM193.78,151.67c.57,4.45,1.66,7.46,3.46,7.63.49.03.76-.96.92-2.89.25.23.79.54,1.04.65-.37,2.87-1.04,3.75-1.92,3.7-2.75-.2-4.1-3.68-4.74-8.92l-4.03.5-.17-1.18,4.07-.5c-.13-1.56-.25-3.23-.32-4.97h1.24c.05,1.7.15,3.33.32,4.81l5.02-.64.17,1.18-5.07.64ZM197.56,149.15c-.54-.76-1.71-1.93-2.7-2.75l.91-.6c1.01.79,2.2,1.93,2.77,2.69l-.97.67Z" style="fill:#014098;"/><path d="M245.3,117.93c1.74-1.3,3.13-2.36,4.15-3.2,1.02-.84,1.91-1.71,2.65-2.62.74-.9,1.19-1.8,1.33-2.68.05-.27.07-.53.07-.77,0-.69-.19-1.22-.58-1.61s-.99-.58-1.82-.58c-.93,0-1.7.3-2.33.9-.62.6-1.05,1.4-1.27,2.41h-2.64c.37-1.82,1.16-3.22,2.38-4.19,1.21-.97,2.64-1.45,4.27-1.45,1.52,0,2.69.37,3.52,1.1s1.24,1.73,1.24,2.98c0,.38-.03.74-.1,1.08-.19,1.1-.67,2.18-1.44,3.22-.77,1.04-1.62,1.98-2.57,2.81-.94.83-2.14,1.8-3.6,2.9l-1.27.98h7.61l-.41,2.28h-11.66l.36-1.99,2.11-1.58Z" style="fill:#014098;"/><path d="M260.94,106.58c1.21-1.55,2.96-2.33,5.24-2.33,1.78,0,3.06.48,3.84,1.45.78.97,1.18,2.32,1.18,4.04,0,.93-.1,2-.31,3.22-.48,2.72-1.32,4.86-2.53,6.41-1.21,1.55-2.96,2.33-5.24,2.33-1.78,0-3.06-.48-3.84-1.45-.78-.97-1.18-2.32-1.18-4.07,0-.9.1-1.97.31-3.22.48-2.7,1.32-4.83,2.53-6.38ZM268.51,109.98c0-1.02-.21-1.82-.62-2.39-.42-.57-1.13-.85-2.14-.85s-1.82.28-2.44.84c-.62.56-1.08,1.28-1.4,2.16s-.59,1.95-.82,3.22c-.22,1.23-.34,2.22-.34,2.98,0,1.04.21,1.84.62,2.41.42.57,1.14.85,2.16.85s1.82-.28,2.44-.84c.62-.56,1.08-1.28,1.4-2.16.32-.88.59-1.96.82-3.24.21-1.28.31-2.27.31-2.98Z" style="fill:#014098;"/><path d="M278.49,106.27c-.49,1.18-1.11,2.3-1.8,3.39v11.36h-1.26v-9.56c-.72.94-1.48,1.76-2.25,2.47-.13-.3-.5-.92-.72-1.21,1.92-1.63,3.76-4.18,4.86-6.82l1.18.37ZM282.93,111.95c.57,4.45,1.66,7.46,3.46,7.63.49.03.76-.96.92-2.89.25.23.79.54,1.04.65-.37,2.87-1.04,3.75-1.92,3.7-2.75-.2-4.1-3.68-4.74-8.92l-4.03.5-.17-1.18,4.07-.5c-.13-1.56-.25-3.23-.32-4.97h1.24c.05,1.7.15,3.33.32,4.81l5.02-.64.17,1.18-5.07.64ZM286.7,109.43c-.54-.76-1.71-1.93-2.7-2.75l.91-.6c1.01.79,2.2,1.93,2.77,2.69l-.97.67Z" style="fill:#014098;"/><polyline points="209.07 30.77 189.72 11.42 23.51 11.42" style="fill:none; stroke:#333; stroke-miterlimit:10;"/><polyline points="232.66 28.27 251.52 1.3 354.04 1.3" style="fill:none; stroke:#333; stroke-miterlimit:10;"/><path d="M280.39,67.67c1.62-1.42,3.82-2.13,6.59-2.13,1.84,0,3.42.32,4.73.96,1.31.64,2.31,1.51,2.98,2.61.67,1.1,1.01,2.34,1.01,3.72,0,1.62-.4,2.94-1.21,3.96-.81,1.02-1.75,1.71-2.83,2.08v.15c1.4.47,2.5,1.24,3.31,2.32.81,1.08,1.21,2.47,1.21,4.16,0,1.52-.35,2.87-1.05,4.03-.7,1.17-1.72,2.08-3.05,2.74-1.34.66-2.93.99-4.77.99-2.94,0-5.29-.72-7.05-2.17-1.75-1.45-2.68-3.63-2.78-6.55h6.11c.02,1.08.33,1.93.92,2.56.59.63,1.45.94,2.58.94.96,0,1.7-.28,2.23-.83.53-.55.79-1.28.79-2.19,0-1.18-.37-2.03-1.12-2.56-.75-.53-1.95-.79-3.59-.79h-1.18v-5.12h1.18c1.25,0,2.26-.21,3.04-.64.77-.43,1.16-1.2,1.16-2.3,0-.88-.25-1.57-.74-2.06-.49-.49-1.17-.74-2.02-.74-.93,0-1.63.28-2.08.85-.46.56-.72,1.26-.79,2.1h-6.15c.1-2.63.96-4.65,2.58-6.07Z" style="fill:none; stroke:#fff; stroke-linecap:round; stroke-linejoin:round; stroke-width:3px;"/><path d="M300.01,88.25v-5.08l11.63-16.64h7.03v16.27h3.02v5.45h-3.02v4.78h-6.29v-4.78h-12.37ZM312.82,73.45l-6.18,9.35h6.18v-9.35Z" style="fill:none; stroke:#fff; stroke-linecap:round; stroke-linejoin:round; stroke-width:3px;"/><path d="M323.95,79.43c0-3.81,1.91-6,4.64-6s4.66,2.19,4.66,6-1.93,6.08-4.66,6.08-4.64-2.24-4.64-6.08ZM330.56,79.43c0-2.81-.88-3.86-1.98-3.86s-1.96,1.06-1.96,3.86.85,3.94,1.96,3.94,1.98-1.13,1.98-3.94ZM339.58,73.43h2.24l-10.38,19.78h-2.21l10.35-19.78ZM337.8,87.13c0-3.84,1.93-6.03,4.64-6.03s4.66,2.19,4.66,6.03-1.96,6.08-4.66,6.08-4.64-2.27-4.64-6.08ZM344.42,87.13c0-2.81-.88-3.89-1.98-3.89s-1.98,1.08-1.98,3.89.88,3.92,1.98,3.92,1.98-1.11,1.98-3.92Z" style="fill:none; stroke:#fff; stroke-linecap:round; stroke-linejoin:round; stroke-width:3px;"/><path d="M280.39,67.67c1.62-1.42,3.82-2.13,6.59-2.13,1.84,0,3.42.32,4.73.96,1.31.64,2.31,1.51,2.98,2.61.67,1.1,1.01,2.34,1.01,3.72,0,1.62-.4,2.94-1.21,3.96-.81,1.02-1.75,1.71-2.83,2.08v.15c1.4.47,2.5,1.24,3.31,2.32.81,1.08,1.21,2.47,1.21,4.16,0,1.52-.35,2.87-1.05,4.03-.7,1.17-1.72,2.08-3.05,2.74-1.34.66-2.93.99-4.77.99-2.94,0-5.29-.72-7.05-2.17-1.75-1.45-2.68-3.63-2.78-6.55h6.11c.02,1.08.33,1.93.92,2.56.59.63,1.45.94,2.58.94.96,0,1.7-.28,2.23-.83.53-.55.79-1.28.79-2.19,0-1.18-.37-2.03-1.12-2.56-.75-.53-1.95-.79-3.59-.79h-1.18v-5.12h1.18c1.25,0,2.26-.21,3.04-.64.77-.43,1.16-1.2,1.16-2.3,0-.88-.25-1.57-.74-2.06-.49-.49-1.17-.74-2.02-.74-.93,0-1.63.28-2.08.85-.46.56-.72,1.26-.79,2.1h-6.15c.1-2.63.96-4.65,2.58-6.07Z" style="fill:#333;"/><path d="M300.01,88.25v-5.08l11.63-16.64h7.03v16.27h3.02v5.45h-3.02v4.78h-6.29v-4.78h-12.37ZM312.82,73.45l-6.18,9.35h6.18v-9.35Z" style="fill:#333;"/><path d="M323.95,79.43c0-3.81,1.91-6,4.64-6s4.66,2.19,4.66,6-1.93,6.08-4.66,6.08-4.64-2.24-4.64-6.08ZM330.56,79.43c0-2.81-.88-3.86-1.98-3.86s-1.96,1.06-1.96,3.86.85,3.94,1.96,3.94,1.98-1.13,1.98-3.94ZM339.58,73.43h2.24l-10.38,19.78h-2.21l10.35-19.78ZM337.8,87.13c0-3.84,1.93-6.03,4.64-6.03s4.66,2.19,4.66,6.03-1.96,6.08-4.66,6.08-4.64-2.27-4.64-6.08ZM344.42,87.13c0-2.81-.88-3.89-1.98-3.89s-1.98,1.08-1.98,3.89.88,3.92,1.98,3.92,1.98-1.11,1.98-3.92Z" style="fill:#333;"/></svg>