<svg id="レイヤー_1" data-name="レイヤー 1" xmlns="http://www.w3.org/2000/svg" viewBox="0 0 390.09 34.8"><defs><style>.cls-1,.cls-5{fill:#fff;}.cls-2,.cls-4,.cls-6{fill:none;}.cls-2,.cls-6{stroke:#fff;}.cls-2{stroke-miterlimit:10;}.cls-3{fill:#e7211a;}.cls-3,.cls-5{fill-rule:evenodd;}.cls-4{stroke:#e7211a;}.cls-4,.cls-6{stroke-linecap:round;stroke-linejoin:round;stroke-width:0.06px;}</style></defs><path class="cls-1" d="M432.3,406.26l-3-5.19h-2.2v5.19h-1.55V394h3.83c2.49,0,4.27.88,4.27,3.43a3.32,3.32,0,0,1-2.77,3.44l3.14,5.35Zm-5.17-6.44h2.05c1.92,0,3-.76,3-2.35s-1-2.18-3-2.18h-2.05Z" transform="translate(-110.59 -382.18)"/><path class="cls-1" d="M436.17,394h7v1.3h-5.49v3.83h4.63v1.32h-4.63v4.45h5.68v1.32h-7.23Z" transform="translate(-110.59 -382.18)"/><path class="cls-1" d="M445.27,400.16c0-4,2.31-6.35,5.41-6.35a4.51,4.51,0,0,1,3.35,1.51l-.83,1a3.34,3.34,0,0,0-2.5-1.16c-2.32,0-3.85,1.9-3.85,4.95s1.47,5,3.8,5a3.69,3.69,0,0,0,2.83-1.36l.85,1a4.69,4.69,0,0,1-3.75,1.75C447.55,406.47,445.27,404.12,445.27,400.16Z" transform="translate(-110.59 -382.18)"/><path class="cls-1" d="M463.32,406.26l-3-5.19h-2.2v5.19H456.6V394h3.83c2.49,0,4.27.88,4.27,3.43a3.32,3.32,0,0,1-2.77,3.44l3.14,5.35Zm-5.17-6.44h2.05c1.92,0,3-.76,3-2.35s-1.05-2.18-3-2.18h-2.05Z" transform="translate(-110.59 -382.18)"/><path class="cls-1" d="M467.13,401.21V394h1.55v7.22c0,2.95,1.25,3.86,2.84,3.86s2.91-.91,2.91-3.86V394h1.49v7.17c0,3.93-1.9,5.26-4.4,5.26S467.13,405.14,467.13,401.21Z" transform="translate(-110.59 -382.18)"/><path class="cls-1" d="M479.2,394h1.55v12.22H479.2Z" transform="translate(-110.59 -382.18)"/><path class="cls-1" d="M486.64,395.34h-3.7V394h8.94v1.3h-3.69v10.92h-1.55Z" transform="translate(-110.59 -382.18)"/><rect class="cls-2" x="303.63" y="7.12" width="85.96" height="22.08"/><path class="cls-3" d="M145.36,399.56A17.37,17.37,0,1,0,128,417,17.38,17.38,0,0,0,145.36,399.56Z" transform="translate(-110.59 -382.18)"/><path class="cls-4" d="M145.36,399.56A17.37,17.37,0,1,0,128,417,17.38,17.38,0,0,0,145.36,399.56Z" transform="translate(-110.59 -382.18)"/><path class="cls-5" d="M144.18,399.56A16.2,16.2,0,1,0,128,415.77,16.19,16.19,0,0,0,144.18,399.56Z" transform="translate(-110.59 -382.18)"/><path class="cls-6" d="M144.18,399.56A16.2,16.2,0,1,0,128,415.77,16.19,16.19,0,0,0,144.18,399.56Z" transform="translate(-110.59 -382.18)"/><polygon class="cls-3" points="17.41 17.41 22.64 31.56 23.2 31.34 17.41 17.41"/><polygon class="cls-4" points="17.41 17.41 22.64 31.56 23.2 31.34 17.41 17.41"/><polygon class="cls-3" points="17.41 17.41 23.2 31.34 23.74 31.09 17.41 17.41"/><polygon class="cls-4" points="17.41 17.41 23.2 31.34 23.74 31.09 17.41 17.41"/><polygon class="cls-3" points="17.41 17.41 23.74 31.09 24.28 30.83 17.41 17.41"/><polygon class="cls-4" points="17.41 17.41 23.74 31.09 24.28 30.83 17.41 17.41"/><polygon class="cls-3" points="17.41 17.41 24.28 30.83 24.82 30.53 17.41 17.41"/><polygon class="cls-4" points="17.41 17.41 24.28 30.83 24.82 30.53 17.41 17.41"/><polygon class="cls-3" points="17.41 17.41 24.82 30.53 25.33 30.24 17.41 17.41"/><polygon class="cls-4" points="17.41 17.41 24.82 30.53 25.33 30.24 17.41 17.41"/><polygon class="cls-3" points="17.41 17.41 25.33 30.24 25.85 29.92 17.41 17.41"/><polygon class="cls-4" points="17.41 17.41 25.33 30.24 25.85 29.92 17.41 17.41"/><polygon class="cls-3" points="17.41 17.41 25.85 29.92 26.34 29.55 17.41 17.41"/><polygon class="cls-4" points="17.41 17.41 25.85 29.92 26.34 29.55 17.41 17.41"/><polygon class="cls-3" points="17.41 17.41 26.34 29.55 26.8 29.18 17.41 17.41"/><polygon class="cls-4" points="17.41 17.41 26.34 29.55 26.8 29.18 17.41 17.41"/><polygon class="cls-3" points="17.41 17.41 26.8 29.18 27.27 28.82 17.41 17.41"/><polygon class="cls-4" points="17.41 17.41 26.8 29.18 27.27 28.82 17.41 17.41"/><polygon class="cls-3" points="17.41 17.41 27.27 28.82 27.74 28.4 17.41 17.41"/><polygon class="cls-4" points="17.41 17.41 27.27 28.82 27.74 28.4 17.41 17.41"/><polygon class="cls-3" points="17.41 17.41 27.74 28.4 28.15 27.98 17.41 17.41"/><polygon class="cls-4" points="17.41 17.41 27.74 28.4 28.15 27.98 17.41 17.41"/><polygon class="cls-3" points="17.41 17.41 28.15 27.98 28.57 27.54 17.41 17.41"/><polygon class="cls-4" points="17.41 17.41 28.15 27.98 28.57 27.54 17.41 17.41"/><polygon class="cls-3" points="17.41 17.41 28.57 27.54 28.96 27.1 17.41 17.41"/><polygon class="cls-4" points="17.41 17.41 28.57 27.54 28.96 27.1 17.41 17.41"/><polygon class="cls-3" points="17.41 17.41 28.96 27.1 29.36 26.63 17.41 17.41"/><polygon class="cls-4" points="17.41 17.41 28.96 27.1 29.36 26.63 17.41 17.41"/><polygon class="cls-3" points="17.41 17.41 29.36 26.63 29.7 26.14 17.41 17.41"/><polygon class="cls-4" points="17.41 17.41 29.36 26.63 29.7 26.14 17.41 17.41"/><polygon class="cls-3" points="17.41 17.41 29.7 26.14 30.04 25.65 17.41 17.41"/><polygon class="cls-4" points="17.41 17.41 29.7 26.14 30.04 25.65 17.41 17.41"/><polygon class="cls-3" points="17.41 17.41 30.04 25.65 30.36 25.14 17.41 17.41"/><polygon class="cls-4" points="17.41 17.41 30.04 25.65 30.36 25.14 17.41 17.41"/><polygon class="cls-3" points="17.41 17.41 30.36 25.14 30.65 24.6 17.41 17.41"/><polygon class="cls-4" points="17.41 17.41 30.36 25.14 30.65 24.6 17.41 17.41"/><polygon class="cls-3" points="17.41 17.41 30.65 24.6 30.92 24.08 17.41 17.41"/><polygon class="cls-4" points="17.41 17.41 30.65 24.6 30.92 24.08 17.41 17.41"/><polygon class="cls-3" points="17.41 17.41 30.92 24.08 31.19 23.52 17.41 17.41"/><polygon class="cls-4" points="17.41 17.41 30.92 24.08 31.19 23.52 17.41 17.41"/><polygon class="cls-3" points="17.41 17.41 31.19 23.52 31.41 22.98 17.41 17.41"/><polygon class="cls-4" points="17.41 17.41 31.19 23.52 31.41 22.98 17.41 17.41"/><polygon class="cls-3" points="17.41 17.41 31.41 22.98 31.64 22.42 17.41 17.41"/><polygon class="cls-4" points="17.41 17.41 31.41 22.98 31.64 22.42 17.41 17.41"/><polygon class="cls-3" points="17.41 17.41 31.64 22.42 31.83 21.83 17.41 17.41"/><polygon class="cls-4" points="17.41 17.41 31.64 22.42 31.83 21.83 17.41 17.41"/><polygon class="cls-3" points="17.41 17.41 31.83 21.83 31.98 21.26 17.41 17.41"/><polygon class="cls-4" points="17.41 17.41 31.83 21.83 31.98 21.26 17.41 17.41"/><polygon class="cls-3" points="17.41 17.41 31.98 21.26 32.13 20.68 17.41 17.41"/><polygon class="cls-4" points="17.41 17.41 31.98 21.26 32.13 20.68 17.41 17.41"/><polygon class="cls-3" points="17.41 17.41 32.13 20.68 32.25 20.09 17.41 17.41"/><polygon class="cls-4" points="17.41 17.41 32.13 20.68 32.25 20.09 17.41 17.41"/><polygon class="cls-3" points="17.41 17.41 32.25 20.09 32.35 19.5 17.41 17.41"/><polygon class="cls-4" points="17.41 17.41 32.25 20.09 32.35 19.5 17.41 17.41"/><polygon class="cls-3" points="17.41 17.41 32.35 19.5 32.42 18.89 17.41 17.41"/><polygon class="cls-4" points="17.41 17.41 32.35 19.5 32.42 18.89 17.41 17.41"/><polygon class="cls-3" points="17.41 17.41 32.42 18.89 32.44 18.3 17.41 17.41"/><polygon class="cls-4" points="17.41 17.41 32.42 18.89 32.44 18.3 17.41 17.41"/><polygon class="cls-3" points="17.41 17.41 32.44 18.3 32.47 17.68 17.41 17.41"/><polygon class="cls-4" points="17.41 17.41 32.44 18.3 32.47 17.68 17.41 17.41"/><polygon class="cls-3" points="17.41 17.41 32.47 17.68 32.47 17.09 17.41 17.41"/><polygon class="cls-4" points="17.41 17.41 32.47 17.68 32.47 17.09 17.41 17.41"/><polygon class="cls-3" points="17.41 17.41 32.47 17.09 32.44 16.48 17.41 17.41"/><polygon class="cls-4" points="17.41 17.41 32.47 17.09 32.44 16.48 17.41 17.41"/><polygon class="cls-3" points="17.41 17.41 32.44 16.48 32.4 15.89 17.41 17.41"/><polygon class="cls-4" points="17.41 17.41 32.44 16.48 32.4 15.89 17.41 17.41"/><polygon class="cls-3" points="17.41 17.41 32.4 15.89 32.32 15.3 17.41 17.41"/><polygon class="cls-4" points="17.41 17.41 32.4 15.89 32.32 15.3 17.41 17.41"/><polygon class="cls-3" points="17.41 17.41 32.32 15.3 32.22 14.72 17.41 17.41"/><polygon class="cls-4" points="17.41 17.41 32.32 15.3 32.22 14.72 17.41 17.41"/><polygon class="cls-3" points="17.41 17.41 32.22 14.72 32.1 14.13 17.41 17.41"/><polygon class="cls-4" points="17.41 17.41 32.22 14.72 32.1 14.13 17.41 17.41"/><polygon class="cls-3" points="17.41 17.41 32.1 14.13 31.95 13.54 17.41 17.41"/><polygon class="cls-4" points="17.41 17.41 32.1 14.13 31.95 13.54 17.41 17.41"/><polygon class="cls-3" points="17.41 17.41 31.95 13.54 31.81 12.95 17.41 17.41"/><polygon class="cls-4" points="17.41 17.41 31.95 13.54 31.81 12.95 17.41 17.41"/><polygon class="cls-3" points="17.41 17.41 31.81 12.95 31.61 12.39 17.41 17.41"/><polygon class="cls-4" points="17.41 17.41 31.81 12.95 31.61 12.39 17.41 17.41"/><polygon class="cls-3" points="17.41 17.41 31.61 12.39 31.39 11.82 17.41 17.41"/><polygon class="cls-4" points="17.41 17.41 31.61 12.39 31.39 11.82 17.41 17.41"/><polygon class="cls-3" points="17.41 17.41 31.39 11.82 31.14 11.28 17.41 17.41"/><polygon class="cls-4" points="17.41 17.41 31.39 11.82 31.14 11.28 17.41 17.41"/><polygon class="cls-3" points="17.41 17.41 31.14 11.28 30.9 10.72 17.41 17.41"/><polygon class="cls-4" points="17.41 17.41 31.14 11.28 30.9 10.72 17.41 17.41"/><polygon class="cls-3" points="17.41 17.41 30.9 10.72 30.63 10.21 17.41 17.41"/><polygon class="cls-4" points="17.41 17.41 30.9 10.72 30.63 10.21 17.41 17.41"/><polygon class="cls-3" points="17.41 17.41 30.63 10.21 30.31 9.67 17.41 17.41"/><polygon class="cls-4" points="17.41 17.41 30.63 10.21 30.31 9.67 17.41 17.41"/><polygon class="cls-3" points="17.41 17.41 30.31 9.67 29.99 9.15 17.41 17.41"/><polygon class="cls-4" points="17.41 17.41 30.31 9.67 29.99 9.15 17.41 17.41"/><polygon class="cls-3" points="17.41 17.41 29.99 9.15 29.65 8.66 17.41 17.41"/><polygon class="cls-4" points="17.41 17.41 29.99 9.15 29.65 8.66 17.41 17.41"/><polygon class="cls-3" points="17.41 17.41 29.65 8.66 29.31 8.2 17.41 17.41"/><polygon class="cls-4" points="17.41 17.41 29.65 8.66 29.31 8.2 17.41 17.41"/><polygon class="cls-3" points="17.41 17.41 29.31 8.2 28.91 7.73 17.41 17.41"/><polygon class="cls-4" points="17.41 17.41 29.31 8.2 28.91 7.73 17.41 17.41"/><polygon class="cls-3" points="17.41 17.41 28.91 7.73 28.52 7.26 17.41 17.41"/><polygon class="cls-4" points="17.41 17.41 28.91 7.73 28.52 7.26 17.41 17.41"/><polygon class="cls-3" points="17.41 17.41 28.52 7.26 28.1 6.82 17.41 17.41"/><polygon class="cls-4" points="17.41 17.41 28.52 7.26 28.1 6.82 17.41 17.41"/><polygon class="cls-3" points="17.41 17.41 28.1 6.82 27.66 6.41 17.41 17.41"/><polygon class="cls-4" points="17.41 17.41 28.1 6.82 27.66 6.41 17.41 17.41"/><polygon class="cls-3" points="17.41 17.41 27.66 6.41 27.22 6.01 17.41 17.41"/><polygon class="cls-4" points="17.41 17.41 27.66 6.41 27.22 6.01 17.41 17.41"/><polygon class="cls-3" points="17.41 17.41 27.22 6.01 26.76 5.62 17.41 17.41"/><polygon class="cls-4" points="17.41 17.41 27.22 6.01 26.76 5.62 17.41 17.41"/><polygon class="cls-3" points="17.41 17.41 26.76 5.62 26.27 5.28 17.41 17.41"/><polygon class="cls-4" points="17.41 17.41 26.76 5.62 26.27 5.28 17.41 17.41"/><polygon class="cls-3" points="17.41 17.41 26.27 5.28 25.77 4.91 17.41 17.41"/><polygon class="cls-4" points="17.41 17.41 26.27 5.28 25.77 4.91 17.41 17.41"/><polygon class="cls-3" points="17.41 17.41 25.77 4.91 25.26 4.59 17.41 17.41"/><polygon class="cls-4" points="17.41 17.41 25.77 4.91 25.26 4.59 17.41 17.41"/><polygon class="cls-3" points="17.41 17.41 25.26 4.59 24.75 4.3 17.41 17.41"/><polygon class="cls-4" points="17.41 17.41 25.26 4.59 24.75 4.3 17.41 17.41"/><polygon class="cls-3" points="17.41 17.41 24.75 4.3 24.21 4 17.41 17.41"/><polygon class="cls-4" points="17.41 17.41 24.75 4.3 24.21 4 17.41 17.41"/><polygon class="cls-3" points="17.41 17.41 24.21 4 23.67 3.76 17.41 17.41"/><polygon class="cls-4" points="17.41 17.41 24.21 4 23.67 3.76 17.41 17.41"/><polygon class="cls-3" points="17.41 17.41 23.67 3.76 23.13 3.51 17.41 17.41"/><polygon class="cls-4" points="17.41 17.41 23.67 3.76 23.13 3.51 17.41 17.41"/><polygon class="cls-3" points="17.41 17.41 23.13 3.51 22.64 3.32 17.41 17.41"/><polygon class="cls-4" points="17.41 17.41 23.13 3.51 22.64 3.32 17.41 17.41"/><polygon class="cls-3" points="17.41 17.41 12.22 3.32 11.65 3.54 17.41 17.41"/><polygon class="cls-4" points="17.41 17.41 12.22 3.32 11.65 3.54 17.41 17.41"/><polygon class="cls-3" points="17.41 17.41 11.65 3.54 11.09 3.78 17.41 17.41"/><polygon class="cls-4" points="17.41 17.41 11.65 3.54 11.09 3.78 17.41 17.41"/><polygon class="cls-3" points="17.41 17.41 11.09 3.78 10.55 4.05 17.41 17.41"/><polygon class="cls-4" points="17.41 17.41 11.09 3.78 10.55 4.05 17.41 17.41"/><polygon class="cls-3" points="17.41 17.41 10.55 4.05 10.03 4.32 17.41 17.41"/><polygon class="cls-4" points="17.41 17.41 10.55 4.05 10.03 4.32 17.41 17.41"/><polygon class="cls-3" points="17.41 17.41 10.03 4.32 9.52 4.64 17.41 17.41"/><polygon class="cls-4" points="17.41 17.41 10.03 4.32 9.52 4.64 17.41 17.41"/><polygon class="cls-3" points="17.41 17.41 9.52 4.64 9 4.96 17.41 17.41"/><polygon class="cls-4" points="17.41 17.41 9.52 4.64 9 4.96 17.41 17.41"/><polygon class="cls-3" points="17.41 17.41 9 4.96 8.51 5.3 17.41 17.41"/><polygon class="cls-4" points="17.41 17.41 9 4.96 8.51 5.3 17.41 17.41"/><polygon class="cls-3" points="17.41 17.41 8.51 5.3 8.02 5.67 17.41 17.41"/><polygon class="cls-4" points="17.41 17.41 8.51 5.3 8.02 5.67 17.41 17.41"/><polygon class="cls-3" points="17.41 17.41 8.02 5.67 7.56 6.06 17.41 17.41"/><polygon class="cls-4" points="17.41 17.41 8.02 5.67 7.56 6.06 17.41 17.41"/><polygon class="cls-3" points="17.41 17.41 7.56 6.06 7.12 6.48 17.41 17.41"/><polygon class="cls-4" points="17.41 17.41 7.56 6.06 7.12 6.48 17.41 17.41"/><polygon class="cls-3" points="17.41 17.41 7.12 6.48 6.7 6.89 17.41 17.41"/><polygon class="cls-4" points="17.41 17.41 7.12 6.48 6.7 6.89 17.41 17.41"/><polygon class="cls-3" points="17.41 17.41 6.7 6.89 6.28 7.34 17.41 17.41"/><polygon class="cls-4" points="17.41 17.41 6.7 6.89 6.28 7.34 17.41 17.41"/><polygon class="cls-3" points="17.41 17.41 6.28 7.34 5.89 7.78 17.41 17.41"/><polygon class="cls-4" points="17.41 17.41 6.28 7.34 5.89 7.78 17.41 17.41"/><polygon class="cls-3" points="17.41 17.41 5.89 7.78 5.5 8.24 17.41 17.41"/><polygon class="cls-4" points="17.41 17.41 5.89 7.78 5.5 8.24 17.41 17.41"/><polygon class="cls-3" points="17.41 17.41 5.5 8.24 5.15 8.73 17.41 17.41"/><polygon class="cls-4" points="17.41 17.41 5.5 8.24 5.15 8.73 17.41 17.41"/><polygon class="cls-3" points="17.41 17.41 5.15 8.73 4.81 9.22 17.41 17.41"/><polygon class="cls-4" points="17.41 17.41 5.15 8.73 4.81 9.22 17.41 17.41"/><polygon class="cls-3" points="17.41 17.41 4.81 9.22 4.49 9.74 17.41 17.41"/><polygon class="cls-4" points="17.41 17.41 4.81 9.22 4.49 9.74 17.41 17.41"/><polygon class="cls-3" points="17.41 17.41 4.49 9.74 4.2 10.25 17.41 17.41"/><polygon class="cls-4" points="17.41 17.41 4.49 9.74 4.2 10.25 17.41 17.41"/><polygon class="cls-3" points="17.41 17.41 4.2 10.25 3.9 10.79 17.41 17.41"/><polygon class="cls-4" points="17.41 17.41 4.2 10.25 3.9 10.79 17.41 17.41"/><polygon class="cls-3" points="17.41 17.41 3.9 10.79 3.66 11.36 17.41 17.41"/><polygon class="cls-4" points="17.41 17.41 3.9 10.79 3.66 11.36 17.41 17.41"/><polygon class="cls-3" points="17.41 17.41 3.66 11.36 3.41 11.9 17.41 17.41"/><polygon class="cls-4" points="17.41 17.41 3.66 11.36 3.41 11.9 17.41 17.41"/><polygon class="cls-3" points="17.41 17.41 3.41 11.9 3.22 12.46 17.41 17.41"/><polygon class="cls-4" points="17.41 17.41 3.41 11.9 3.22 12.46 17.41 17.41"/><polygon class="cls-3" points="17.41 17.41 3.22 12.46 3.02 13.05 17.41 17.41"/><polygon class="cls-4" points="17.41 17.41 3.22 12.46 3.02 13.05 17.41 17.41"/><polygon class="cls-3" points="17.41 17.41 3.02 13.05 2.85 13.61 17.41 17.41"/><polygon class="cls-4" points="17.41 17.41 3.02 13.05 2.85 13.61 17.41 17.41"/><polygon class="cls-3" points="17.41 17.41 2.85 13.61 2.73 14.2 17.41 17.41"/><polygon class="cls-4" points="17.41 17.41 2.85 13.61 2.73 14.2 17.41 17.41"/><polygon class="cls-3" points="17.41 17.41 2.73 14.2 2.6 14.79 17.41 17.41"/><polygon class="cls-4" points="17.41 17.41 2.73 14.2 2.6 14.79 17.41 17.41"/><polygon class="cls-3" points="17.41 17.41 2.6 14.79 2.51 15.38 17.41 17.41"/><polygon class="cls-4" points="17.41 17.41 2.6 14.79 2.51 15.38 17.41 17.41"/><polygon class="cls-3" points="17.41 17.41 2.51 15.38 2.43 15.99 17.41 17.41"/><polygon class="cls-4" points="17.41 17.41 2.51 15.38 2.43 15.99 17.41 17.41"/><polygon class="cls-3" points="17.41 17.41 2.43 15.99 2.38 16.56 17.41 17.41"/><polygon class="cls-4" points="17.41 17.41 2.43 15.99 2.38 16.56 17.41 17.41"/><polygon class="cls-3" points="17.41 17.41 2.38 16.56 2.36 17.17 17.41 17.41"/><polygon class="cls-4" points="17.41 17.41 2.38 16.56 2.36 17.17 17.41 17.41"/><polygon class="cls-3" points="17.41 17.41 2.36 17.17 2.36 17.76 17.41 17.41"/><polygon class="cls-4" points="17.41 17.41 2.36 17.17 2.36 17.76 17.41 17.41"/><polygon class="cls-3" points="17.41 17.41 2.36 17.76 2.38 18.37 17.41 17.41"/><polygon class="cls-4" points="17.41 17.41 2.36 17.76 2.38 18.37 17.41 17.41"/><polygon class="cls-3" points="17.41 17.41 2.38 18.37 2.43 18.96 17.41 17.41"/><polygon class="cls-4" points="17.41 17.41 2.38 18.37 2.43 18.96 17.41 17.41"/><polygon class="cls-3" points="17.41 17.41 2.43 18.96 2.51 19.57 17.41 17.41"/><polygon class="cls-4" points="17.41 17.41 2.43 18.96 2.51 19.57 17.41 17.41"/><polygon class="cls-3" points="17.41 17.41 2.51 19.57 2.6 20.16 17.41 17.41"/><polygon class="cls-4" points="17.41 17.41 2.51 19.57 2.6 20.16 17.41 17.41"/><polygon class="cls-3" points="17.41 17.41 2.6 20.16 2.73 20.75 17.41 17.41"/><polygon class="cls-4" points="17.41 17.41 2.6 20.16 2.73 20.75 17.41 17.41"/><polygon class="cls-3" points="17.41 17.41 2.73 20.75 2.87 21.34 17.41 17.41"/><polygon class="cls-4" points="17.41 17.41 2.73 20.75 2.87 21.34 17.41 17.41"/><polygon class="cls-3" points="17.41 17.41 2.87 21.34 3.05 21.9 17.41 17.41"/><polygon class="cls-4" points="17.41 17.41 2.87 21.34 3.05 21.9 17.41 17.41"/><polygon class="cls-3" points="17.41 17.41 3.05 21.9 3.24 22.49 17.41 17.41"/><polygon class="cls-4" points="17.41 17.41 3.05 21.9 3.24 22.49 17.41 17.41"/><polygon class="cls-3" points="17.41 17.41 3.24 22.49 3.46 23.05 17.41 17.41"/><polygon class="cls-4" points="17.41 17.41 3.24 22.49 3.46 23.05 17.41 17.41"/><polygon class="cls-3" points="17.41 17.41 3.46 23.05 3.68 23.59 17.41 17.41"/><polygon class="cls-4" points="17.41 17.41 3.46 23.05 3.68 23.59 17.41 17.41"/><polygon class="cls-3" points="17.41 17.41 3.68 23.59 3.95 24.16 17.41 17.41"/><polygon class="cls-4" points="17.41 17.41 3.68 23.59 3.95 24.16 17.41 17.41"/><polygon class="cls-3" points="17.41 17.41 3.95 24.16 4.22 24.67 17.41 17.41"/><polygon class="cls-4" points="17.41 17.41 3.95 24.16 4.22 24.67 17.41 17.41"/><polygon class="cls-3" points="17.41 17.41 4.22 24.67 4.52 25.21 17.41 17.41"/><polygon class="cls-4" points="17.41 17.41 4.22 24.67 4.52 25.21 17.41 17.41"/><polygon class="cls-3" points="17.41 17.41 4.52 25.21 4.86 25.7 17.41 17.41"/><polygon class="cls-4" points="17.41 17.41 4.52 25.21 4.86 25.7 17.41 17.41"/><polygon class="cls-3" points="17.41 17.41 4.86 25.7 5.18 26.22 17.41 17.41"/><polygon class="cls-4" points="17.41 17.41 4.86 25.7 5.18 26.22 17.41 17.41"/><polygon class="cls-3" points="17.41 17.41 5.18 26.22 5.55 26.68 17.41 17.41"/><polygon class="cls-4" points="17.41 17.41 5.18 26.22 5.55 26.68 17.41 17.41"/><polygon class="cls-3" points="17.41 17.41 5.55 26.68 5.94 27.15 17.41 17.41"/><polygon class="cls-4" points="17.41 17.41 5.55 26.68 5.94 27.15 17.41 17.41"/><polygon class="cls-3" points="17.41 17.41 5.94 27.15 6.33 27.61 17.41 17.41"/><polygon class="cls-4" points="17.41 17.41 5.94 27.15 6.33 27.61 17.41 17.41"/><polygon class="cls-3" points="17.41 17.41 6.33 27.61 6.75 28.05 17.41 17.41"/><polygon class="cls-4" points="17.41 17.41 6.33 27.61 6.75 28.05 17.41 17.41"/><polygon class="cls-3" points="17.41 17.41 6.75 28.05 7.19 28.47 17.41 17.41"/><polygon class="cls-4" points="17.41 17.41 6.75 28.05 7.19 28.47 17.41 17.41"/><polygon class="cls-3" points="17.41 17.41 7.19 28.47 7.63 28.86 17.41 17.41"/><polygon class="cls-4" points="17.41 17.41 7.19 28.47 7.63 28.86 17.41 17.41"/><polygon class="cls-3" points="17.41 17.41 7.63 28.86 8.1 29.26 17.41 17.41"/><polygon class="cls-4" points="17.41 17.41 7.63 28.86 8.1 29.26 17.41 17.41"/><polygon class="cls-3" points="17.41 17.41 8.1 29.26 8.56 29.6 17.41 17.41"/><polygon class="cls-4" points="17.41 17.41 8.1 29.26 8.56 29.6 17.41 17.41"/><polygon class="cls-3" points="17.41 17.41 8.56 29.6 9.08 29.94 17.41 17.41"/><polygon class="cls-4" points="17.41 17.41 8.56 29.6 9.08 29.94 17.41 17.41"/><polygon class="cls-3" points="17.41 17.41 9.08 29.94 9.57 30.29 17.41 17.41"/><polygon class="cls-4" points="17.41 17.41 9.08 29.94 9.57 30.29 17.41 17.41"/><polygon class="cls-3" points="17.41 17.41 9.57 30.29 10.11 30.58 17.41 17.41"/><polygon class="cls-4" points="17.41 17.41 9.57 30.29 10.11 30.58 17.41 17.41"/><polygon class="cls-3" points="17.41 17.41 10.11 30.58 10.62 30.88 17.41 17.41"/><polygon class="cls-4" points="17.41 17.41 10.11 30.58 10.62 30.88 17.41 17.41"/><polygon class="cls-3" points="17.41 17.41 10.62 30.88 11.16 31.12 17.41 17.41"/><polygon class="cls-4" points="17.41 17.41 10.62 30.88 11.16 31.12 17.41 17.41"/><polygon class="cls-3" points="17.41 17.41 11.16 31.12 11.73 31.36 17.41 17.41"/><polygon class="cls-4" points="17.41 17.41 11.16 31.12 11.73 31.36 17.41 17.41"/><polygon class="cls-3" points="17.41 17.41 11.73 31.36 12.22 31.56 17.41 17.41"/><polygon class="cls-4" points="17.41 17.41 11.73 31.36 12.22 31.56 17.41 17.41"/><polygon class="cls-3" points="12.22 12.24 22.64 12.24 12.22 31.56 12.22 3.32 12.22 12.24"/><polygon class="cls-4" points="12.22 12.24 22.64 12.24 12.22 31.56 12.22 3.32 12.22 12.24"/><polygon class="cls-3" points="22.64 12.24 22.64 3.32 12.22 22.64 12.22 31.56 22.64 12.24"/><polygon class="cls-4" points="22.64 12.24 22.64 3.32 12.22 22.64 12.22 31.56 22.64 12.24"/><polygon class="cls-3" points="22.64 3.32 22.64 31.56 22.64 22.64 12.22 22.64 22.64 3.32"/><polygon class="cls-4" points="22.64 3.32 22.64 31.56 22.64 22.64 12.22 22.64 22.64 3.32"/><polygon class="cls-3" points="22.64 17.41 22.64 31.56 23.2 31.34 22.64 17.41"/><polygon class="cls-4" points="22.64 17.41 22.64 31.56 23.2 31.34 22.64 17.41"/><polygon class="cls-3" points="22.64 17.41 23.2 31.34 23.74 31.09 22.64 17.41"/><polygon class="cls-4" points="22.64 17.41 23.2 31.34 23.74 31.09 22.64 17.41"/><polygon class="cls-3" points="22.64 17.41 23.74 31.09 24.28 30.83 22.64 17.41"/><polygon class="cls-4" points="22.64 17.41 23.74 31.09 24.28 30.83 22.64 17.41"/><polygon class="cls-3" points="22.64 17.41 24.28 30.83 24.82 30.53 22.64 17.41"/><polygon class="cls-4" points="22.64 17.41 24.28 30.83 24.82 30.53 22.64 17.41"/><polygon class="cls-3" points="22.64 17.41 24.82 30.53 25.33 30.24 22.64 17.41"/><polygon class="cls-4" points="22.64 17.41 24.82 30.53 25.33 30.24 22.64 17.41"/><polygon class="cls-3" points="22.64 17.41 25.33 30.24 25.85 29.92 22.64 17.41"/><polygon class="cls-4" points="22.64 17.41 25.33 30.24 25.85 29.92 22.64 17.41"/><polygon class="cls-3" points="22.64 17.41 25.85 29.92 26.34 29.55 22.64 17.41"/><polygon class="cls-4" points="22.64 17.41 25.85 29.92 26.34 29.55 22.64 17.41"/><polygon class="cls-3" points="22.64 17.41 26.34 29.55 26.8 29.18 22.64 17.41"/><polygon class="cls-4" points="22.64 17.41 26.34 29.55 26.8 29.18 22.64 17.41"/><polygon class="cls-3" points="22.64 17.41 26.8 29.18 27.27 28.82 22.64 17.41"/><polygon class="cls-4" points="22.64 17.41 26.8 29.18 27.27 28.82 22.64 17.41"/><polygon class="cls-3" points="22.64 17.41 27.27 28.82 27.74 28.4 22.64 17.41"/><polygon class="cls-4" points="22.64 17.41 27.27 28.82 27.74 28.4 22.64 17.41"/><polygon class="cls-3" points="22.64 17.41 27.74 28.4 28.15 27.98 22.64 17.41"/><polygon class="cls-4" points="22.64 17.41 27.74 28.4 28.15 27.98 22.64 17.41"/><polygon class="cls-3" points="22.64 17.41 28.15 27.98 28.57 27.54 22.64 17.41"/><polygon class="cls-4" points="22.64 17.41 28.15 27.98 28.57 27.54 22.64 17.41"/><polygon class="cls-3" points="22.64 17.41 28.57 27.54 28.96 27.1 22.64 17.41"/><polygon class="cls-4" points="22.64 17.41 28.57 27.54 28.96 27.1 22.64 17.41"/><polygon class="cls-3" points="22.64 17.41 28.96 27.1 29.36 26.63 22.64 17.41"/><polygon class="cls-4" points="22.64 17.41 28.96 27.1 29.36 26.63 22.64 17.41"/><polygon class="cls-3" points="22.64 17.41 29.36 26.63 29.7 26.14 22.64 17.41"/><polygon class="cls-4" points="22.64 17.41 29.36 26.63 29.7 26.14 22.64 17.41"/><polygon class="cls-3" points="22.64 17.41 29.7 26.14 30.04 25.65 22.64 17.41"/><polygon class="cls-4" points="22.64 17.41 29.7 26.14 30.04 25.65 22.64 17.41"/><polygon class="cls-3" points="22.64 17.41 30.04 25.65 30.36 25.14 22.64 17.41"/><polygon class="cls-4" points="22.64 17.41 30.04 25.65 30.36 25.14 22.64 17.41"/><polygon class="cls-3" points="22.64 17.41 30.36 25.14 30.65 24.6 22.64 17.41"/><polygon class="cls-4" points="22.64 17.41 30.36 25.14 30.65 24.6 22.64 17.41"/><polygon class="cls-3" points="22.64 17.41 30.65 24.6 30.92 24.08 22.64 17.41"/><polygon class="cls-4" points="22.64 17.41 30.65 24.6 30.92 24.08 22.64 17.41"/><polygon class="cls-3" points="22.64 17.41 30.92 24.08 31.19 23.52 22.64 17.41"/><polygon class="cls-4" points="22.64 17.41 30.92 24.08 31.19 23.52 22.64 17.41"/><polygon class="cls-3" points="22.64 17.41 31.19 23.52 31.41 22.98 22.64 17.41"/><polygon class="cls-4" points="22.64 17.41 31.19 23.52 31.41 22.98 22.64 17.41"/><polygon class="cls-3" points="22.64 17.41 31.41 22.98 31.64 22.42 22.64 17.41"/><polygon class="cls-4" points="22.64 17.41 31.41 22.98 31.64 22.42 22.64 17.41"/><polygon class="cls-3" points="22.64 17.41 31.64 22.42 31.83 21.83 22.64 17.41"/><polygon class="cls-4" points="22.64 17.41 31.64 22.42 31.83 21.83 22.64 17.41"/><polygon class="cls-3" points="22.64 17.41 31.83 21.83 31.98 21.26 22.64 17.41"/><polygon class="cls-4" points="22.64 17.41 31.83 21.83 31.98 21.26 22.64 17.41"/><polygon class="cls-3" points="22.64 17.41 31.98 21.26 32.13 20.68 22.64 17.41"/><polygon class="cls-4" points="22.64 17.41 31.98 21.26 32.13 20.68 22.64 17.41"/><polygon class="cls-3" points="22.64 17.41 32.13 20.68 32.25 20.09 22.64 17.41"/><polygon class="cls-4" points="22.64 17.41 32.13 20.68 32.25 20.09 22.64 17.41"/><polygon class="cls-3" points="22.64 17.41 32.25 20.09 32.35 19.5 22.64 17.41"/><polygon class="cls-4" points="22.64 17.41 32.25 20.09 32.35 19.5 22.64 17.41"/><polygon class="cls-3" points="22.64 17.41 32.35 19.5 32.42 18.89 22.64 17.41"/><polygon class="cls-4" points="22.64 17.41 32.35 19.5 32.42 18.89 22.64 17.41"/><polygon class="cls-3" points="22.64 17.41 32.42 18.89 32.44 18.3 22.64 17.41"/><polygon class="cls-4" points="22.64 17.41 32.42 18.89 32.44 18.3 22.64 17.41"/><polygon class="cls-3" points="22.64 17.41 32.44 18.3 32.47 17.68 22.64 17.41"/><polygon class="cls-4" points="22.64 17.41 32.44 18.3 32.47 17.68 22.64 17.41"/><polygon class="cls-3" points="22.64 17.41 32.47 17.68 32.47 17.09 22.64 17.41"/><polygon class="cls-4" points="22.64 17.41 32.47 17.68 32.47 17.09 22.64 17.41"/><polygon class="cls-3" points="22.64 17.41 32.47 17.09 32.44 16.48 22.64 17.41"/><polygon class="cls-4" points="22.64 17.41 32.47 17.09 32.44 16.48 22.64 17.41"/><polygon class="cls-3" points="22.64 17.41 32.44 16.48 32.4 15.89 22.64 17.41"/><polygon class="cls-4" points="22.64 17.41 32.44 16.48 32.4 15.89 22.64 17.41"/><polygon class="cls-3" points="22.64 17.41 32.4 15.89 32.32 15.3 22.64 17.41"/><polygon class="cls-4" points="22.64 17.41 32.4 15.89 32.32 15.3 22.64 17.41"/><polygon class="cls-3" points="22.64 17.41 32.32 15.3 32.22 14.72 22.64 17.41"/><polygon class="cls-4" points="22.64 17.41 32.32 15.3 32.22 14.72 22.64 17.41"/><polygon class="cls-3" points="22.64 17.41 32.22 14.72 32.1 14.13 22.64 17.41"/><polygon class="cls-4" points="22.64 17.41 32.22 14.72 32.1 14.13 22.64 17.41"/><polygon class="cls-3" points="22.64 17.41 32.1 14.13 31.95 13.54 22.64 17.41"/><polygon class="cls-4" points="22.64 17.41 32.1 14.13 31.95 13.54 22.64 17.41"/><polygon class="cls-3" points="22.64 17.41 31.95 13.54 31.81 12.95 22.64 17.41"/><polygon class="cls-4" points="22.64 17.41 31.95 13.54 31.81 12.95 22.64 17.41"/><polygon class="cls-3" points="22.64 17.41 31.81 12.95 31.61 12.39 22.64 17.41"/><polygon class="cls-4" points="22.64 17.41 31.81 12.95 31.61 12.39 22.64 17.41"/><polygon class="cls-3" points="22.64 17.41 31.61 12.39 31.39 11.82 22.64 17.41"/><polygon class="cls-4" points="22.64 17.41 31.61 12.39 31.39 11.82 22.64 17.41"/><polygon class="cls-3" points="22.64 17.41 31.39 11.82 31.14 11.28 22.64 17.41"/><polygon class="cls-4" points="22.64 17.41 31.39 11.82 31.14 11.28 22.64 17.41"/><polygon class="cls-3" points="22.64 17.41 31.14 11.28 30.9 10.72 22.64 17.41"/><polygon class="cls-4" points="22.64 17.41 31.14 11.28 30.9 10.72 22.64 17.41"/><polygon class="cls-3" points="22.64 17.41 30.9 10.72 30.63 10.21 22.64 17.41"/><polygon class="cls-4" points="22.64 17.41 30.9 10.72 30.63 10.21 22.64 17.41"/><polygon class="cls-3" points="22.64 17.41 30.63 10.21 30.31 9.67 22.64 17.41"/><polygon class="cls-4" points="22.64 17.41 30.63 10.21 30.31 9.67 22.64 17.41"/><polygon class="cls-3" points="22.64 17.41 30.31 9.67 29.99 9.15 22.64 17.41"/><polygon class="cls-4" points="22.64 17.41 30.31 9.67 29.99 9.15 22.64 17.41"/><polygon class="cls-3" points="22.64 17.41 29.99 9.15 29.65 8.66 22.64 17.41"/><polygon class="cls-4" points="22.64 17.41 29.99 9.15 29.65 8.66 22.64 17.41"/><polygon class="cls-3" points="22.64 17.41 29.65 8.66 29.31 8.2 22.64 17.41"/><polygon class="cls-4" points="22.64 17.41 29.65 8.66 29.31 8.2 22.64 17.41"/><polygon class="cls-3" points="22.64 17.41 29.31 8.2 28.91 7.73 22.64 17.41"/><polygon class="cls-4" points="22.64 17.41 29.31 8.2 28.91 7.73 22.64 17.41"/><polygon class="cls-3" points="22.64 17.41 28.91 7.73 28.52 7.26 22.64 17.41"/><polygon class="cls-4" points="22.64 17.41 28.91 7.73 28.52 7.26 22.64 17.41"/><polygon class="cls-3" points="22.64 17.41 28.52 7.26 28.1 6.82 22.64 17.41"/><polygon class="cls-4" points="22.64 17.41 28.52 7.26 28.1 6.82 22.64 17.41"/><polygon class="cls-3" points="22.64 17.41 28.1 6.82 27.66 6.41 22.64 17.41"/><polygon class="cls-4" points="22.64 17.41 28.1 6.82 27.66 6.41 22.64 17.41"/><polygon class="cls-3" points="22.64 17.41 27.66 6.41 27.22 6.01 22.64 17.41"/><polygon class="cls-4" points="22.64 17.41 27.66 6.41 27.22 6.01 22.64 17.41"/><polygon class="cls-3" points="22.64 17.41 27.22 6.01 26.76 5.62 22.64 17.41"/><polygon class="cls-4" points="22.64 17.41 27.22 6.01 26.76 5.62 22.64 17.41"/><polygon class="cls-3" points="22.64 17.41 26.76 5.62 26.27 5.28 22.64 17.41"/><polygon class="cls-4" points="22.64 17.41 26.76 5.62 26.27 5.28 22.64 17.41"/><polygon class="cls-3" points="22.64 17.41 26.27 5.28 25.77 4.91 22.64 17.41"/><polygon class="cls-4" points="22.64 17.41 26.27 5.28 25.77 4.91 22.64 17.41"/><polygon class="cls-3" points="22.64 17.41 25.77 4.91 25.26 4.59 22.64 17.41"/><polygon class="cls-4" points="22.64 17.41 25.77 4.91 25.26 4.59 22.64 17.41"/><polygon class="cls-3" points="22.64 17.41 25.26 4.59 24.75 4.3 22.64 17.41"/><polygon class="cls-4" points="22.64 17.41 25.26 4.59 24.75 4.3 22.64 17.41"/><polygon class="cls-3" points="22.64 17.41 24.75 4.3 24.21 4 22.64 17.41"/><polygon class="cls-4" points="22.64 17.41 24.75 4.3 24.21 4 22.64 17.41"/><polygon class="cls-3" points="22.64 17.41 24.21 4 23.67 3.76 22.64 17.41"/><polygon class="cls-4" points="22.64 17.41 24.21 4 23.67 3.76 22.64 17.41"/><polygon class="cls-3" points="22.64 17.41 23.67 3.76 23.13 3.51 22.64 17.41"/><polygon class="cls-4" points="22.64 17.41 23.67 3.76 23.13 3.51 22.64 17.41"/><polygon class="cls-3" points="22.64 17.41 23.13 3.51 22.64 3.32 22.64 17.41"/><polygon class="cls-4" points="22.64 17.41 23.13 3.51 22.64 3.32 22.64 17.41"/><polygon class="cls-3" points="12.22 17.41 12.22 3.32 11.65 3.54 12.22 17.41"/><polygon class="cls-4" points="12.22 17.41 12.22 3.32 11.65 3.54 12.22 17.41"/><polygon class="cls-3" points="12.22 17.41 11.65 3.54 11.09 3.78 12.22 17.41"/><polygon class="cls-4" points="12.22 17.41 11.65 3.54 11.09 3.78 12.22 17.41"/><polygon class="cls-3" points="12.22 17.41 11.09 3.78 10.55 4.05 12.22 17.41"/><polygon class="cls-4" points="12.22 17.41 11.09 3.78 10.55 4.05 12.22 17.41"/><polygon class="cls-3" points="12.22 17.41 10.55 4.05 10.03 4.32 12.22 17.41"/><polygon class="cls-4" points="12.22 17.41 10.55 4.05 10.03 4.32 12.22 17.41"/><polygon class="cls-3" points="12.22 17.41 10.03 4.32 9.52 4.64 12.22 17.41"/><polygon class="cls-4" points="12.22 17.41 10.03 4.32 9.52 4.64 12.22 17.41"/><polygon class="cls-3" points="12.22 17.41 9.52 4.64 9 4.96 12.22 17.41"/><polygon class="cls-4" points="12.22 17.41 9.52 4.64 9 4.96 12.22 17.41"/><polygon class="cls-3" points="12.22 17.41 9 4.96 8.51 5.3 12.22 17.41"/><polygon class="cls-4" points="12.22 17.41 9 4.96 8.51 5.3 12.22 17.41"/><polygon class="cls-3" points="12.22 17.41 8.51 5.3 8.02 5.67 12.22 17.41"/><polygon class="cls-4" points="12.22 17.41 8.51 5.3 8.02 5.67 12.22 17.41"/><polygon class="cls-3" points="12.22 17.41 8.02 5.67 7.56 6.06 12.22 17.41"/><polygon class="cls-4" points="12.22 17.41 8.02 5.67 7.56 6.06 12.22 17.41"/><polygon class="cls-3" points="12.22 17.41 7.56 6.06 7.12 6.48 12.22 17.41"/><polygon class="cls-4" points="12.22 17.41 7.56 6.06 7.12 6.48 12.22 17.41"/><polygon class="cls-3" points="12.22 17.41 7.12 6.48 6.7 6.89 12.22 17.41"/><polygon class="cls-4" points="12.22 17.41 7.12 6.48 6.7 6.89 12.22 17.41"/><polygon class="cls-3" points="12.22 17.41 6.7 6.89 6.28 7.34 12.22 17.41"/><polygon class="cls-4" points="12.22 17.41 6.7 6.89 6.28 7.34 12.22 17.41"/><polygon class="cls-3" points="12.22 17.41 6.28 7.34 5.89 7.78 12.22 17.41"/><polygon class="cls-4" points="12.22 17.41 6.28 7.34 5.89 7.78 12.22 17.41"/><polygon class="cls-3" points="12.22 17.41 5.89 7.78 5.5 8.24 12.22 17.41"/><polygon class="cls-4" points="12.22 17.41 5.89 7.78 5.5 8.24 12.22 17.41"/><polygon class="cls-3" points="12.22 17.41 5.5 8.24 5.15 8.73 12.22 17.41"/><polygon class="cls-4" points="12.22 17.41 5.5 8.24 5.15 8.73 12.22 17.41"/><polygon class="cls-3" points="12.22 17.41 5.15 8.73 4.81 9.22 12.22 17.41"/><polygon class="cls-4" points="12.22 17.41 5.15 8.73 4.81 9.22 12.22 17.41"/><polygon class="cls-3" points="12.22 17.41 4.81 9.22 4.49 9.74 12.22 17.41"/><polygon class="cls-4" points="12.22 17.41 4.81 9.22 4.49 9.74 12.22 17.41"/><polygon class="cls-3" points="12.22 17.41 4.49 9.74 4.2 10.25 12.22 17.41"/><polygon class="cls-4" points="12.22 17.41 4.49 9.74 4.2 10.25 12.22 17.41"/><polygon class="cls-3" points="12.22 17.41 4.2 10.25 3.9 10.79 12.22 17.41"/><polygon class="cls-4" points="12.22 17.41 4.2 10.25 3.9 10.79 12.22 17.41"/><polygon class="cls-3" points="12.22 17.41 3.9 10.79 3.66 11.36 12.22 17.41"/><polygon class="cls-4" points="12.22 17.41 3.9 10.79 3.66 11.36 12.22 17.41"/><polygon class="cls-3" points="12.22 17.41 3.66 11.36 3.41 11.9 12.22 17.41"/><polygon class="cls-4" points="12.22 17.41 3.66 11.36 3.41 11.9 12.22 17.41"/><polygon class="cls-3" points="12.22 17.41 3.41 11.9 3.22 12.46 12.22 17.41"/><polygon class="cls-4" points="12.22 17.41 3.41 11.9 3.22 12.46 12.22 17.41"/><polygon class="cls-3" points="12.22 17.41 3.22 12.46 3.02 13.05 12.22 17.41"/><polygon class="cls-4" points="12.22 17.41 3.22 12.46 3.02 13.05 12.22 17.41"/><polygon class="cls-3" points="12.22 17.41 3.02 13.05 2.85 13.61 12.22 17.41"/><polygon class="cls-4" points="12.22 17.41 3.02 13.05 2.85 13.61 12.22 17.41"/><polygon class="cls-3" points="12.22 17.41 2.85 13.61 2.73 14.2 12.22 17.41"/><polygon class="cls-4" points="12.22 17.41 2.85 13.61 2.73 14.2 12.22 17.41"/><polygon class="cls-3" points="12.22 17.41 2.73 14.2 2.6 14.79 12.22 17.41"/><polygon class="cls-4" points="12.22 17.41 2.73 14.2 2.6 14.79 12.22 17.41"/><polygon class="cls-3" points="12.22 17.41 2.6 14.79 2.51 15.38 12.22 17.41"/><polygon class="cls-4" points="12.22 17.41 2.6 14.79 2.51 15.38 12.22 17.41"/><polygon class="cls-3" points="12.22 17.41 2.51 15.38 2.43 15.99 12.22 17.41"/><polygon class="cls-4" points="12.22 17.41 2.51 15.38 2.43 15.99 12.22 17.41"/><polygon class="cls-3" points="12.22 17.41 2.43 15.99 2.38 16.56 12.22 17.41"/><polygon class="cls-4" points="12.22 17.41 2.43 15.99 2.38 16.56 12.22 17.41"/><polygon class="cls-3" points="12.22 17.41 2.38 16.56 2.36 17.17 12.22 17.41"/><polygon class="cls-4" points="12.22 17.41 2.38 16.56 2.36 17.17 12.22 17.41"/><polygon class="cls-3" points="12.22 17.41 2.36 17.17 2.36 17.76 12.22 17.41"/><polygon class="cls-4" points="12.22 17.41 2.36 17.17 2.36 17.76 12.22 17.41"/><polygon class="cls-3" points="12.22 17.41 2.36 17.76 2.38 18.37 12.22 17.41"/><polygon class="cls-4" points="12.22 17.41 2.36 17.76 2.38 18.37 12.22 17.41"/><polygon class="cls-3" points="12.22 17.41 2.38 18.37 2.43 18.96 12.22 17.41"/><polygon class="cls-4" points="12.22 17.41 2.38 18.37 2.43 18.96 12.22 17.41"/><polygon class="cls-3" points="12.22 17.41 2.43 18.96 2.51 19.57 12.22 17.41"/><polygon class="cls-4" points="12.22 17.41 2.43 18.96 2.51 19.57 12.22 17.41"/><polygon class="cls-3" points="12.22 17.41 2.51 19.57 2.6 20.16 12.22 17.41"/><polygon class="cls-4" points="12.22 17.41 2.51 19.57 2.6 20.16 12.22 17.41"/><polygon class="cls-3" points="12.22 17.41 2.6 20.16 2.73 20.75 12.22 17.41"/><polygon class="cls-4" points="12.22 17.41 2.6 20.16 2.73 20.75 12.22 17.41"/><polygon class="cls-3" points="12.22 17.41 2.73 20.75 2.87 21.34 12.22 17.41"/><polygon class="cls-4" points="12.22 17.41 2.73 20.75 2.87 21.34 12.22 17.41"/><polygon class="cls-3" points="12.22 17.41 2.87 21.34 3.05 21.9 12.22 17.41"/><polygon class="cls-4" points="12.22 17.41 2.87 21.34 3.05 21.9 12.22 17.41"/><polygon class="cls-3" points="12.22 17.41 3.05 21.9 3.24 22.49 12.22 17.41"/><polygon class="cls-4" points="12.22 17.41 3.05 21.9 3.24 22.49 12.22 17.41"/><polygon class="cls-3" points="12.22 17.41 3.24 22.49 3.46 23.05 12.22 17.41"/><polygon class="cls-4" points="12.22 17.41 3.24 22.49 3.46 23.05 12.22 17.41"/><polygon class="cls-3" points="12.22 17.41 3.46 23.05 3.68 23.59 12.22 17.41"/><polygon class="cls-4" points="12.22 17.41 3.46 23.05 3.68 23.59 12.22 17.41"/><polygon class="cls-3" points="12.22 17.41 3.68 23.59 3.95 24.16 12.22 17.41"/><polygon class="cls-4" points="12.22 17.41 3.68 23.59 3.95 24.16 12.22 17.41"/><polygon class="cls-3" points="12.22 17.41 3.95 24.16 4.22 24.67 12.22 17.41"/><polygon class="cls-4" points="12.22 17.41 3.95 24.16 4.22 24.67 12.22 17.41"/><polygon class="cls-3" points="12.22 17.41 4.22 24.67 4.52 25.21 12.22 17.41"/><polygon class="cls-4" points="12.22 17.41 4.22 24.67 4.52 25.21 12.22 17.41"/><polygon class="cls-3" points="12.22 17.41 4.52 25.21 4.86 25.7 12.22 17.41"/><polygon class="cls-4" points="12.22 17.41 4.52 25.21 4.86 25.7 12.22 17.41"/><polygon class="cls-3" points="12.22 17.41 4.86 25.7 5.18 26.22 12.22 17.41"/><polygon class="cls-4" points="12.22 17.41 4.86 25.7 5.18 26.22 12.22 17.41"/><polygon class="cls-3" points="12.22 17.41 5.18 26.22 5.55 26.68 12.22 17.41"/><polygon class="cls-4" points="12.22 17.41 5.18 26.22 5.55 26.68 12.22 17.41"/><polygon class="cls-3" points="12.22 17.41 5.55 26.68 5.94 27.15 12.22 17.41"/><polygon class="cls-4" points="12.22 17.41 5.55 26.68 5.94 27.15 12.22 17.41"/><polygon class="cls-3" points="12.22 17.41 5.94 27.15 6.33 27.61 12.22 17.41"/><polygon class="cls-4" points="12.22 17.41 5.94 27.15 6.33 27.61 12.22 17.41"/><polygon class="cls-3" points="12.22 17.41 6.33 27.61 6.75 28.05 12.22 17.41"/><polygon class="cls-4" points="12.22 17.41 6.33 27.61 6.75 28.05 12.22 17.41"/><polygon class="cls-3" points="12.22 17.41 6.75 28.05 7.19 28.47 12.22 17.41"/><polygon class="cls-4" points="12.22 17.41 6.75 28.05 7.19 28.47 12.22 17.41"/><polygon class="cls-3" points="12.22 17.41 7.19 28.47 7.63 28.86 12.22 17.41"/><polygon class="cls-4" points="12.22 17.41 7.19 28.47 7.63 28.86 12.22 17.41"/><polygon class="cls-3" points="12.22 17.41 7.63 28.86 8.1 29.26 12.22 17.41"/><polygon class="cls-4" points="12.22 17.41 7.63 28.86 8.1 29.26 12.22 17.41"/><polygon class="cls-3" points="12.22 17.41 8.1 29.26 8.56 29.6 12.22 17.41"/><polygon class="cls-4" points="12.22 17.41 8.1 29.26 8.56 29.6 12.22 17.41"/><polygon class="cls-3" points="12.22 17.41 8.56 29.6 9.08 29.94 12.22 17.41"/><polygon class="cls-4" points="12.22 17.41 8.56 29.6 9.08 29.94 12.22 17.41"/><polygon class="cls-3" points="12.22 17.41 9.08 29.94 9.57 30.29 12.22 17.41"/><polygon class="cls-4" points="12.22 17.41 9.08 29.94 9.57 30.29 12.22 17.41"/><polygon class="cls-3" points="12.22 17.41 9.57 30.29 10.11 30.58 12.22 17.41"/><polygon class="cls-4" points="12.22 17.41 9.57 30.29 10.11 30.58 12.22 17.41"/><polygon class="cls-3" points="12.22 17.41 10.11 30.58 10.62 30.88 12.22 17.41"/><polygon class="cls-4" points="12.22 17.41 10.11 30.58 10.62 30.88 12.22 17.41"/><polygon class="cls-3" points="12.22 17.41 10.62 30.88 11.16 31.12 12.22 17.41"/><polygon class="cls-4" points="12.22 17.41 10.62 30.88 11.16 31.12 12.22 17.41"/><polygon class="cls-3" points="12.22 17.41 11.16 31.12 11.73 31.36 12.22 17.41"/><polygon class="cls-4" points="12.22 17.41 11.16 31.12 11.73 31.36 12.22 17.41"/><polygon class="cls-3" points="12.22 17.41 11.73 31.36 12.22 31.56 12.22 17.41"/><polygon class="cls-4" points="12.22 17.41 11.73 31.36 12.22 31.56 12.22 17.41"/><rect class="cls-1" x="12.22" y="3.32" width="10.42" height="8.92"/><rect class="cls-6" x="12.22" y="3.32" width="10.42" height="8.92"/><rect class="cls-1" x="12.22" y="22.64" width="10.42" height="8.92"/><rect class="cls-6" x="12.22" y="22.64" width="10.42" height="8.92"/><path class="cls-1" d="M164.65,386.67h17.17v8H167.94v8a12.53,12.53,0,0,1-5.53,10.47l-2.11-2.82a10.48,10.48,0,0,0,2.11-2,9.72,9.72,0,0,0,1.89-3.06l-7.18,3.53a1,1,0,0,1-.23.71.57.57,0,0,1-.48,0,1.38,1.38,0,0,1-.47-.59l-1.17-3.3,3.88-1.41v-8.82h-2.94v-3.06h2.94v-6h2.82c.94.07,1.1.39.47.94v5.05h2.36v3.06h-2.36V403l2.24-.94.47,1.76Zm3.29,2.82v2.35h10.59v-2.35ZM173.47,409v-5.64h-4.71v-6.94h2.59c.94.08,1.1.39.47.94v3.18h1.65V395h2.59c.94.08,1.09.39.47.94v4.59h1.76v-4.24h2.59c.94.08,1.1.4.47.94v6.12h-4.82V409h2.94v-4.82h2.58c.95.08,1.1.4.48.94v7.77h-3.06v-1.06H171v1.53h-3.06v-9.18h2.59c.94.08,1.1.4.47.94V409Z" transform="translate(-110.59 -382.18)"/><path class="cls-1" d="M211.63,411.6h-3.77v-1.17h-15.4V412h-3.77V388.31h22.94Zm-19.17-20v6h5.76v-6Zm0,9.29v6.23h5.76V400.9Zm9.52-9.29v6h5.88v-6Zm0,9.29v6.23h5.88V400.9Z" transform="translate(-110.59 -382.18)"/><path class="cls-1" d="M226.74,388.79c.39.31.5.58.35.82a.55.55,0,0,1-.59.12l-2.82,5.76h3.53v2.12a30.74,30.74,0,0,1-.24,3.88,16.71,16.71,0,0,1-1.41,5.64,7.92,7.92,0,0,0,5.17,2.12h14.59l-.71,3.29H230.15a9.57,9.57,0,0,1-1.41-.11,9.41,9.41,0,0,1-4.94-2.59,11.43,11.43,0,0,1-.83.94,18.25,18.25,0,0,1-3.53,2.82L217.33,411a21,21,0,0,0,4.35-3.64,26.86,26.86,0,0,1-3.18-6.24l2.94-.58a16.91,16.91,0,0,0,1.88,3.76,35.8,35.8,0,0,0,.83-5.76h-1.88l-1.06,1.64-2.82-1.41,4.46-8.23h-4.58v-3.06h5.53l.58-.59Zm9.64-2.36v1.88h6.12v4h2.35v2.83H242.5v4h-6.12v.94h6.35v2.58h-6.35V404h7.76v2.82h-7.76v2.12h-3.06v-2.12h-6.58V404h6.58v-1.3h-5.06v-2.58h5.06v-.94h-4.94v-2.83h4.94v-1.17h-7v-2.83h7v-1.17h-4.94v-2.83h4.94v-2.82h2.59C236.85,385.57,237,385.89,236.38,386.43Zm0,4.71v1.17h3.06v-1.17Zm0,4v1.17h3.06v-1.17Z" transform="translate(-110.59 -382.18)"/><path class="cls-1" d="M259.84,393.61H248.55v-3.06h11.29Zm11.41.11a.76.76,0,0,0,.11.48.75.75,0,0,0,.47.11h.36c.31.08.51-.15.59-.7L273,392l3.29.82-.47,2.71c-.08.23-.15.47-.23.7a1.83,1.83,0,0,1-1.88,1.18h-3.53a1.92,1.92,0,0,1-.59-.12,2.1,2.1,0,0,1-1.29-1.06,2.41,2.41,0,0,1-.36-1.29v-5.17H264.9v2.7a6.31,6.31,0,0,1-.24,1.77,7.34,7.34,0,0,1-3.18,4.35h10l.47-.47,1.77,1.64c.54.47.51.79-.12.94a31.72,31.72,0,0,1-2.12,4.59,10.07,10.07,0,0,1-1.76,2.12,10.85,10.85,0,0,0,2.35,1.17,36.3,36.3,0,0,0,4.59,1.3l-1.18,3.53a23,23,0,0,1-3.29-1.06,19.87,19.87,0,0,1-4.71-2.71,10,10,0,0,1-1.06.94,28.64,28.64,0,0,1-6,3.3l-1.18-2.24v1.3h-3.06v-.47h-3.64v1.05h-3.06V403.13h9.76v7.3a13.1,13.1,0,0,0,2-.71,19.9,19.9,0,0,0,3.88-2.23,15.24,15.24,0,0,1-3.06-5.88h-1.64v-2.95l-1.77-2a7.28,7.28,0,0,0,1.65-1.42,5.13,5.13,0,0,0,1.29-3.41v-5.17h9.65Zm-12.71-4.35h-8.46v-3.05h8.46Zm0,8.24h-8.46v-2.83h8.46Zm0,4.35h-8.46v-2.82h8.46Zm-6,4v3.64h3.64V406Zm12.58-4.35a5.41,5.41,0,0,0,.35.94,9.57,9.57,0,0,0,1.89,2.94,16,16,0,0,0,2.35-3.88Z" transform="translate(-110.59 -382.18)"/><path class="cls-1" d="M287.06,386.55v4.94h3.29v1.76a12.36,12.36,0,0,0,.83-1.29,22.69,22.69,0,0,0,1.64-4.35l2.59,1.06a1.45,1.45,0,0,1,.59.35.45.45,0,0,1,0,.71.75.75,0,0,1-.47.11c-.16.4-.32.79-.47,1.18h1.29v-5.41h2.82c.94.08,1.1.39.47.94V391h5.41v3.29h-5.41v2.94h7.41v3.3h-6.94a15.28,15.28,0,0,0,1.65,2.23,20.81,20.81,0,0,0,6.23,4.71l-1.88,3.41a20.07,20.07,0,0,1-3.88-3.06,15,15,0,0,1-2.59-3.06v8.82h-3.29v-8.47a16.2,16.2,0,0,1-2.82,3.53,26.38,26.38,0,0,1-3.88,3.29L287.77,409a36.54,36.54,0,0,0,5.76-5.05,12.07,12.07,0,0,0,2.35-3.41h-5.53l.94.94-2.47,2.58a13.13,13.13,0,0,0-1.76-1.88v11.29h-3.29V403.25a22.08,22.08,0,0,1-2.71,4.12l-2.12-2.94c.55-.71,1.06-1.37,1.53-2a15.7,15.7,0,0,0,3.06-7.65h-3.76v-3.29h4v-5.88h2.82C287.53,385.69,287.69,386,287.06,386.55Zm6.59,7.76c-.63,1-1.26,2-1.89,2.83l-2.7-1.77a4.34,4.34,0,0,1,.47-.59h-2.47v3.06c.86.63,1.72,1.3,2.59,2v-2.59h6.7v-2.94Z" transform="translate(-110.59 -382.18)"/><path class="cls-1" d="M329.92,386.55a1.23,1.23,0,0,1-.47.47v4.12h3.41a12.55,12.55,0,0,0-3.05-2.35l2.35-2.12a13.19,13.19,0,0,1,3.76,2.59l-2,1.88h3.77v3.53h-8.12a57.68,57.68,0,0,0,.71,7.05,13.54,13.54,0,0,0,2.82,6,2.82,2.82,0,0,0,.71.71c.31.23.5-.08.58-.94l.24-2,3.53,1.53-.36,2.35a5.59,5.59,0,0,1-.35,1.41,3.17,3.17,0,0,1-1.29,1.65,3.62,3.62,0,0,1-4-.59,14.74,14.74,0,0,1-4.47-6.35A35.76,35.76,0,0,1,326,394.9H311.69v-3.53h14.24V386H329C329.77,386,330.08,386.16,329.92,386.55ZM324.87,401h-4.12v5.41l6.23-.94.36,3.17-13.65,2.59c-.08.39-.19.63-.35.7a.6.6,0,0,1-.59-.11,2,2,0,0,1-.47-1.06l-.59-3.18,5.77-.7V401H313V398h11.88Z" transform="translate(-110.59 -382.18)"/><path class="cls-1" d="M357.5,387.26a11.67,11.67,0,0,0,2.23,2.7,20.2,20.2,0,0,0,9.88,4.82L368,398.31a13.77,13.77,0,0,1-5.06-2.12v2.24H348.68v-1.88a27.17,27.17,0,0,1-5.65,2.7l-1.76-3.41a20.37,20.37,0,0,0,6.82-3.06,15.28,15.28,0,0,0,5.76-7l3.18.35C358.28,386.47,358.44,386.86,357.5,387.26ZM368,403.72h-7.88a45.9,45.9,0,0,1,8,7.53l-2.94,2a32.69,32.69,0,0,0-2.23-2.47l-16.7,1.88a1.2,1.2,0,0,1-.47.71.85.85,0,0,1-.59,0c-.32-.08-.55-.44-.71-1.06l-.94-3.3,5.18-.23a33.82,33.82,0,0,0,2.7-5.06h-8v-3.53H368Zm-17.18-8.82h9.88a24.25,24.25,0,0,1-5.05-5.17A32.63,32.63,0,0,1,350.79,394.9Zm4.47,8.82q-1.29,2.47-2.82,4.82l7.65-.58a34.31,34.31,0,0,0-2.83-2.47l2.47-1.77Z" transform="translate(-110.59 -382.18)"/><path class="cls-1" d="M381,386.79v4.11h2.23l.47-.47,2,2c.63.63.55.9-.23.82a21.57,21.57,0,0,1-3.77,5.53,51.29,51.29,0,0,1,4.94,2.71l-1.76,3.06a19.49,19.49,0,0,0-3.41-2.36v11.18h-3.3V402.43c-1.17.94-2.47,1.88-3.88,2.82L372.61,402a19.2,19.2,0,0,0,3.76-2.35,17.1,17.1,0,0,0,4.94-5.65h-7.65V390.9h4v-5.06h2.83C381.43,385.92,381.58,386.24,381,386.79Zm13.76.35a1.39,1.39,0,0,1-.47.47v6.11h4.82v3.53h-4.82v11.29h6.23v3.53H384v-3.53h6.47V397.25H385.9v-3.53h4.58v-7.17h3.3C394.56,386.55,394.87,386.75,394.72,387.14Z" transform="translate(-110.59 -382.18)"/></svg>