<svg id="レイヤー_1" data-name="レイヤー 1" xmlns="http://www.w3.org/2000/svg" viewBox="0 0 696.03 116.65"><defs><style>.cls-1{fill:#fff;}.cls-2{fill:#e7211a;fill-rule:evenodd;}.cls-3{fill:#16346b;}</style></defs><circle class="cls-1" cx="41.06" cy="41.06" r="41.06"/><path class="cls-2" d="M114.38,239.74a41.06,41.06,0,1,0,41.06,41.06A41.06,41.06,0,0,0,114.38,239.74Zm0,79.45a38.39,38.39,0,1,1,38.39-38.39,38.39,38.39,0,0,1-38.39,38.39Z" transform="translate(-73.31 -239.74)"/><polygon class="cls-2" points="76.55 37.06 76.2 34.62 75.62 32.18 74.92 29.74 74.11 27.41 73.07 25.21 71.91 23 70.51 20.91 69 18.82 67.38 16.96 65.63 15.22 63.77 13.59 61.8 12.08 59.71 10.69 57.5 9.41 55.29 8.36 53.44 7.67 53.44 28.69 42.12 28.69 36.55 28.69 28.81 28.69 28.81 7.67 26.48 8.6 24.28 9.64 22.07 10.92 19.98 12.31 18 13.94 16.26 15.57 14.52 17.43 12.89 19.28 11.38 21.37 10.11 23.46 8.95 25.67 8.02 28 7.09 30.32 6.5 32.76 5.92 35.2 5.58 37.64 5.46 40.08 5.46 42.63 5.69 45.07 6.04 47.63 6.62 50.07 7.32 52.39 8.13 54.71 9.18 57.04 10.46 59.24 11.73 61.33 13.24 63.31 14.87 65.17 16.61 67.03 18.47 68.65 20.45 70.16 22.54 71.56 24.74 72.72 26.95 73.88 28.81 74.58 28.81 53.44 40.16 53.44 45.65 53.44 53.44 53.44 53.44 74.58 55.76 73.65 58.08 72.49 60.17 71.21 62.26 69.81 64.24 68.3 66.1 66.56 67.72 64.82 69.35 62.84 70.86 60.87 72.14 58.78 73.3 56.57 74.34 54.25 75.16 51.92 75.86 49.49 76.32 47.05 76.67 44.61 76.78 42.05 76.78 39.61 76.55 37.06"/><path class="cls-3" d="M199.92,249.42h41.46v19.32H207.87V288q0,15.33-13.34,25.28l-5.12-6.82a24.71,24.71,0,0,0,5.12-4.83,23,23,0,0,0,4.54-7.38l-17.32,8.52a2.26,2.26,0,0,1-.57,1.7,1.21,1.21,0,0,1-1.14,0,3,3,0,0,1-1.13-1.42l-2.84-8,9.37-3.41V270.44h-7.1v-7.39h7.1V248.57h6.81c2.28.19,2.65,1,1.14,2.27v12.21h5.68v7.39h-5.68v18.45l5.4-2.27,1.13,4.26Zm8,6.82v5.68h25.56v-5.68Zm13.35,47.14V289.74H209.86V273h6.25q3.4.27,1.13,2.27v7.67h4V269.58h6.25c2.28.19,2.65.95,1.13,2.27v11.08h4.26V272.74h6.25q3.41.27,1.14,2.27v14.73H228.6v13.63h7.1V291.74H242q3.42.27,1.14,2.28v18.72H235.7v-2.56H215.26v3.69h-7.39V291.74h6.25q3.4.27,1.14,2.28v9.37Z" transform="translate(-73.31 -239.74)"/><path class="cls-3" d="M313.36,309.62h-9.09v-2.88h-37.2v3.7H258v-57h55.38Zm-46.29-48.27v14.48H281V261.35Zm0,22.43v15H281v-15Zm23-22.43v14.48h14.2V261.35Zm0,22.43v15h14.2v-15Z" transform="translate(-73.31 -239.74)"/><path class="cls-3" d="M349.83,254.53c.95.76,1.23,1.42.85,2a1.29,1.29,0,0,1-1.41.28l-6.82,13.93H351v5.11a73.42,73.42,0,0,1-.57,9.37A39.89,39.89,0,0,1,347,298.83,19.13,19.13,0,0,0,359.53,304H394.7l-1.7,8H358.07a20.57,20.57,0,0,1-3.41-.29Q347,310,342.73,305.43a21.61,21.61,0,0,1-2,2.28,44.79,44.79,0,0,1-8.52,6.81l-5.12-6.25a50.1,50.1,0,0,0,10.51-8.8,66,66,0,0,1-7.6-15.12l7.1-1.42a40.7,40.7,0,0,0,4.55,9.09,87.27,87.27,0,0,0,2-13.92H339l-2.55,4-6.82-3.41,10.79-19.88h-11v-7.38h13.34l1.42-1.42Zm23.29-5.68v4.55h14.77v9.65h5.68v6.82h-5.68v9.65H373.12v2.27h15.33V288H373.12v3.13h18.74V298H373.12v5.11h-7.38V298H349.83v-6.81h15.91V288H353.52v-6.25h12.22v-2.27H353.81v-6.78h11.93V269.9h-17v-6.82h17v-2.84H353.81v-6.81h11.93v-6.82H372c2.26.13,2.63.92,1.12,2.24Zm0,11.36v2.84h7.38v-2.84Zm0,9.66v2.87h7.38V269.9Z" transform="translate(-73.31 -239.74)"/><path class="cls-3" d="M429.76,266.18H402.5v-7.39h27.26Zm27.54.28a1.71,1.71,0,0,0,.29,1.14,1.62,1.62,0,0,0,1.13.28h.86c.75.19,1.23-.38,1.42-1.7l.56-4,8,2-1.18,6.56-.57,1.7a4.42,4.42,0,0,1-4.54,2.84h-8.52a5,5,0,0,1-1.42-.28,5.22,5.22,0,0,1-3.13-2.56,6.12,6.12,0,0,1-.85-3.12v-12.5H442v6.54a15.35,15.35,0,0,1-.57,4.26,17.67,17.67,0,0,1-7.67,10.5H457.9L459,277l4.26,4c1.32,1.14,1.23,1.9-.29,2.27a75.55,75.55,0,0,1-5.11,11.08,22.94,22.94,0,0,1-4.26,5.11,25.79,25.79,0,0,0,5.68,2.84,88.43,88.43,0,0,0,11.08,3.12l-2.84,8.52a55.32,55.32,0,0,1-7.95-2.55,48.44,48.44,0,0,1-11.36-6.53,30.74,30.74,0,0,1-2.56,2.27,69.82,69.82,0,0,1-14.48,7.95l-2.84-5.4v3.07H421V311.6h-8.8v2.56h-7.38v-25h23.57v17.58a29.13,29.13,0,0,0,4.83-1.7,48.17,48.17,0,0,0,9.37-5.39,36.68,36.68,0,0,1-7.39-14.2h-4v-7.1l-4.26-4.83a17.43,17.43,0,0,0,4-3.41,12.38,12.38,0,0,0,3.13-8.23v-12.5H457.3ZM426.63,256H406.19v-7.38h20.44Zm0,19.88H406.19V269h20.44Zm0,10.51H406.19v-6.82h20.44ZM412.15,296v8.81H421V296Zm30.39-10.5a10.9,10.9,0,0,0,.85,2.27,23.19,23.19,0,0,0,4.54,7.1,37.24,37.24,0,0,0,5.68-9.37Z" transform="translate(-73.31 -239.74)"/><path class="cls-3" d="M495.49,249.14v11.92h7.95v4.26a30,30,0,0,0,2-3.12,53.67,53.67,0,0,0,4-10.51l6.25,2.56a3.44,3.44,0,0,1,1.42.85,1.06,1.06,0,0,1,.22,1.48,1.15,1.15,0,0,1-.22.22,1.69,1.69,0,0,1-1.14.29c-.38,1-.76,1.89-1.13,2.84H518V246.86h6.82c2.27.2,2.64.95,1.13,2.28v10.79H539v7.95h-13.1V275h17.89v7.95H527a35.75,35.75,0,0,0,4,5.4,50.57,50.57,0,0,0,15,11.41L541.46,308a47.78,47.78,0,0,1-9.37-7.38,35.92,35.92,0,0,1-6.25-7.39v21.3h-8V294a39.12,39.12,0,0,1-6.82,8.51,63.36,63.36,0,0,1-9.37,8l-4.54-7.1A88.33,88.33,0,0,0,511,291.21q4.54-5.13,5.68-8.24H503.44l2.27,2.27-6,6.25a30.45,30.45,0,0,0-4.25-4.54v27.26h-8V289.46a52.31,52.31,0,0,1-6.53,9.94l-5.11-7.1c1.32-1.7,2.56-3.31,3.69-4.83A38.14,38.14,0,0,0,487,269h-9.09v-8h9.65v-14.2h6.82C496.62,247.06,497,247.81,495.49,249.14Zm15.9,18.74c-1.52,2.46-3,4.73-4.55,6.82l-6.53-4.26a9.85,9.85,0,0,1,1.14-1.42h-6v7.38c2.08,1.52,4.16,3.12,6.24,4.83V275h16.19v-7.1Z" transform="translate(-73.31 -239.74)"/><path class="cls-3" d="M599,249.14a3.22,3.22,0,0,1-1.13,1.13v9.94h8.23a31.39,31.39,0,0,0-7.38-5.68l5.68-5.11a31.91,31.91,0,0,1,9.08,6.25l-4.82,4.54h9.08v8.53H598.13a142.67,142.67,0,0,0,1.7,17,33,33,0,0,0,6.82,14.48,6.91,6.91,0,0,0,1.7,1.71c.76.56,1.23-.19,1.42-2.27l.57-4.83,8.52,3.69L618,304.2a14.94,14.94,0,0,1-.85,3.41,7.62,7.62,0,0,1-3.13,4,8.71,8.71,0,0,1-9.65-1.42,35.64,35.64,0,0,1-10.79-15.33,86.27,86.27,0,0,1-4-25.56H555v-8.56h34.37v-13h7.38C598.6,247.74,599.36,248.19,599,249.14Zm-12.21,34.93h-9.94v13.06l15-2.27.85,7.66-32.91,6.22c-.19,1-.47,1.52-.85,1.71a1.47,1.47,0,0,1-1.42-.29,4.57,4.57,0,0,1-1.13-2.55L555,300l13.92-1.71V284.07H558.09v-7.39h28.68Z" transform="translate(-73.31 -239.74)"/><path class="cls-3" d="M665.56,250.84a28,28,0,0,0,5.4,6.53Q680,265.89,694.81,269l-4,8.51a33.4,33.4,0,0,1-12.21-5.11v5.4H644.26v-4.55q-3.39,2.57-13.63,6.54l-4.26-8.24a49.83,49.83,0,0,0,16.47-7.38,37,37,0,0,0,13.92-17l7.66.85Q669,249.42,665.56,250.84Zm25.27,39.76h-19a111.63,111.63,0,0,1,19.29,18.14l-7.1,4.83c-1.71-2.09-3.51-4.07-5.4-6l-40.32,4.54a2.71,2.71,0,0,1-1.14,1.7,1.84,1.84,0,0,1-1.42,0c-.76-.19-1.32-1-1.7-2.55l-2.27-7.95,12.49-.57a82.27,82.27,0,0,0,6.53-12.21H631.48V282h59.35Zm-41.46-21.3h23.86A58.46,58.46,0,0,1,661,256.8a77.36,77.36,0,0,1-11.63,12.5Zm10.79,21.3q-3.12,6-6.81,11.64l18.46-1.42a84.56,84.56,0,0,0-6.82-6l6-4.26Z" transform="translate(-73.31 -239.74)"/><path class="cls-3" d="M722.2,249.74v9.94h5.4l1.13-1.13,4.83,4.83q2.28,2.25-.57,2a52.13,52.13,0,0,1-9.09,13.35,119.87,119.87,0,0,1,11.93,6.53l-4.26,7.39a46,46,0,0,0-8.23-5.68v27h-8v-26.5q-4.26,3.42-9.37,6.82l-4-8a45.65,45.65,0,0,0,9.08-5.68Q720.14,273.28,723,267H704.59v-7.39h9.66V247.43h6.81C723.34,247.62,723.71,248.38,722.2,249.74Zm33.22.86a3.06,3.06,0,0,1-1.13,1.13V266.5h11.64V275H754.29v27.22h15.05v8.5H729.58v-8.5H745.2V275H734.13v-8.52H745.2V249.14h7.95c1.85,0,2.65.47,2.27,1.42Z" transform="translate(-73.31 -239.74)"/><path class="cls-3" d="M214.53,352.57c-1.81.57-6.12.6-8.48.6s-5.89-.06-8-1.5a3.65,3.65,0,0,1-1.46-4.68,9.3,9.3,0,0,1,4.2-4.29,9.12,9.12,0,0,0-1.66,2.55c-1.89,4.71,4.11,4.74,6.38,4.74a36.94,36.94,0,0,0,7.75-.81,4.53,4.53,0,0,1,.89-.12c1.16,0,3,.75,2.48,1.95A3.15,3.15,0,0,1,214.53,352.57Zm2.71-16.14c-2.62,0-4.43,0-10.7,2.19l0-.21c.68-.39,3.77-2.07,4.4-2.43.12-.06.47-.27.51-.39s-.15-.18-.4-.21c-2.58-.33-4-1.11-4.69-2a2.6,2.6,0,0,1-.21-2.61c1.24,1.5,2.64,2,7.16,2,.55,0,3.11-.09,3.63-.09,2.32,0,3.58,1.29,3.1,2.49S218.05,336.43,217.24,336.43Z" transform="translate(-73.31 -239.74)"/><path class="cls-3" d="M241.24,352.36c-4.14,0-2.65-3.72-2.28-4.65.32-.78,1.41-2.88,2.55-5s2.18-4.17,2.46-4.86.81-2-.64-2c-2.13,0-8.53,4.44-11.07,6.51-.66,1.65-1.56,4.14-2.18,5.85-.16.48-.78,2.58-.94,3-.11.27-1.59,3.48-3.17,3.48-.49,0-1.07-.09-.67-1.41a6.39,6.39,0,0,0,.3-3.66l.12-.06c.08.06.79.69,1.12.69s.46-.6.64-1.05c.26-.63,1.3-3.39,1.52-4-.51.48-5.87,6-6,6.15-.53.6-1,1.05-1.65,1.05-.9,0-.8-1.23-.46-2.07s.64-1.11,2.79-2.79a60,60,0,0,0,7.3-7.17c.17-.42.29-.63.73-1.59-1.25.54-2.51,1.2-3.49,1.71a3.09,3.09,0,0,1-1.48.54c-.9,0-1.52-1.44-1-2.7a5.07,5.07,0,0,1,1.25-1.68,1.52,1.52,0,0,0,1.48,1.32,20.23,20.23,0,0,0,4.19-1.11c.24-.51,1.36-2.82,1.55-3.3.86-2.16-.34-2.31-2.07-2.49a4.57,4.57,0,0,1,2.9-1.2c1.84,0,3.77,1.17,3.32,2.28a5.6,5.6,0,0,1-1.21,1.65,12.78,12.78,0,0,0-1.67,2.16c.47.36.9.81.76,1.17s-2.6,2.55-3.05,3c-.11.27-.18.36-.31.69a58.33,58.33,0,0,1,7.53-5c2.41-1.35,3.52-1.62,4.62-1.62,1.29,0,3.34.63,2.1,3.72a44.39,44.39,0,0,1-3,5.79,30.37,30.37,0,0,0-1.82,3.6c-.33.81-.75,1.86.8,1.86s5.25-1.23,7.86-2.76l.14.15C248.38,349.3,245.28,352.36,241.24,352.36Z" transform="translate(-73.31 -239.74)"/><path class="cls-3" d="M277.91,335.17a63.13,63.13,0,0,1-8.12,1.71c-.7,1.5-.89,2-1.52,3.57.71-.18,4.22-1.2,4.58-1.2,1,0,2.19.42,1.8,1.41a1.72,1.72,0,0,1-1.17.9,58.9,58.9,0,0,1-6.12,1.23,24.34,24.34,0,0,0-1.53,5.61c4.66.78,6.17,2.76,5.58,4.23a2.46,2.46,0,0,1-2.08,1.56,2.37,2.37,0,0,1-1.5-.78,15,15,0,0,0-2.84-2.19c-.72,1.32-2.17,4-7.63,4-3.2,0-5.13-1.56-4.31-3.6,1.1-2.76,5.37-3.81,10.12-3.57.56-1.95,1.22-3.93,1.59-4.86a42.09,42.09,0,0,1-4.3.24c-.77,0-3.77,0-3.17-1.53a5.33,5.33,0,0,1,3.49-2.25,3.24,3.24,0,0,0-.91,1c-.27.66.67.66,1.64.66a29.12,29.12,0,0,0,4.06-.3c.77-1.92.87-2.16,1.52-3.72a39.59,39.59,0,0,1-4.61.39c-1.59,0-4.66,0-4.73-3.21a9,9,0,0,0,4.68,1.08,36.69,36.69,0,0,0,5.63-.51c1.18-2.79,1.32-3.15,1-3.69a3.08,3.08,0,0,0-2.16-.9,4.44,4.44,0,0,1,3-1.14c.74,0,4.1.33,3.38,2.13a8,8,0,0,1-1.14,1.56,10.9,10.9,0,0,0-1,1.47,45.27,45.27,0,0,0,4.73-1.32,3.06,3.06,0,0,1,1.08-.27c1.1,0,2.25.66,1.89,1.56A1.33,1.33,0,0,1,277.91,335.17Zm-19,14.67c-.81,0-3.88.15-4.5,1.71-.3.75.49,1.44,2.59,1.44,4,0,4.87-1.74,5.26-2.73A9.59,9.59,0,0,0,258.92,349.84Z" transform="translate(-73.31 -239.74)"/><path class="cls-3" d="M307.08,334.87c-2.72,0-5.36,0-8.18,1.2a17.7,17.7,0,0,0-8.52,8.55c-1.66,4.14,2.28,5.61,4.72,5.88,2.2.24,4.06.45,3.28,2.4a2.46,2.46,0,0,1-2.51,1.5c-4.33,0-10.67-2.25-8-8.82,2.34-5.85,8.9-9.24,11.52-10.62-2.89.18-10.55,2.85-11.9,3.48-1.62.75-2.06,1-2.71,1-1.32,0-2.81-1.38-1.94-3.54a5.57,5.57,0,0,1,1.67-2.25c.08,1.35.46,2.1,1.88,2.1,2.36,0,17.85-3.51,18.94-3.81a9.77,9.77,0,0,1,2.46-.48c.77,0,3.12.6,2.5,2.13C309.73,334.87,308.4,334.87,307.08,334.87ZM303.51,342c-.68,0-.72-.15-.95-1.59a8,8,0,0,0-1.4-3.12c1.45.33,4.92,1.26,4,3.45A1.92,1.92,0,0,1,303.51,342Zm4.32-1.35c-.65,0-.71-.24-.95-1.59a4.48,4.48,0,0,0-1.72-2.88c2,.12,5.11,1.2,4.32,3.18A2,2,0,0,1,307.83,340.66Z" transform="translate(-73.31 -239.74)"/><path class="cls-3" d="M319.06,353.44l0-.21c5.44-1.71,12.28-5.25,14.88-11.73,1.74-4.35.27-8-6-8a5,5,0,0,0-1.62.18c2.31,1.41,1.8,2.7,1.64,3.09-.43,1.08-5.46,6.63-8.84,9.81-4,3.78-5.62,4.77-6.75,4.77s-1.15-.45-1.57-1.89a2.42,2.42,0,0,0-.76-1.26c-.69-.78-.57-2.22,0-3.63,2.65-6.63,11-12.09,19.05-12.09,6.24,0,11,3.39,8.39,9.81C333.76,351.61,321.78,353.11,319.06,353.44Zm6.11-19.62c-4.13,1-10.19,5.34-12.18,10.32-.49,1.23-1.05,4.17.31,4.17s4.13-3.06,6.5-5.67c1.36-1.47,4.69-5.1,5.4-6.87A2.2,2.2,0,0,0,325.17,333.82Z" transform="translate(-73.31 -239.74)"/><path class="cls-3" d="M359.55,345.37a15.87,15.87,0,0,1-5.16-1.32c-3.34-1.26-5.14-1.95-6.75-1.95-2.72,0-5.36,1.44-6.63,2.1l-.22-.57c4.42-3.06,7.27-4.2,9.73-4.2a15.89,15.89,0,0,1,5.19,1.32c3.34,1.26,5.13,1.95,6.75,1.95,2.71,0,5.36-1.44,6.62-2.1l.23.57C364.88,344.23,362,345.37,359.55,345.37Z" transform="translate(-73.31 -239.74)"/><path class="cls-3" d="M368.49,354.48l.42-1.06h1.6a3.41,3.41,0,0,0,3-2l7-17.39c.48-1.19,0-1.85-1.25-1.85h-1.56l.35-.89a22.46,22.46,0,0,0,6.56-1,10.35,10.35,0,0,1,1.43-.46c.21,0,.22.16.12.39l-8.48,21.22c-.44,1.09-.06,2,1.36,2h1.63l-.42,1.06Z" transform="translate(-73.31 -239.74)"/><path class="cls-3" d="M391.87,355.1c-5,0-5.46-6.16-2.86-12.67S397,329.8,402,329.8s5.5,6.07,2.87,12.63S396.92,355.1,391.87,355.1Zm11-23.16c-.16-.59-.42-1.19-1.27-1.19-3.2,0-6.95,8.85-8.08,11.68s-4.46,11.69-1.26,11.69,6.94-8.85,8.08-11.69C400.71,341.54,403.48,334.61,402.88,331.94Z" transform="translate(-73.31 -239.74)"/><path class="cls-3" d="M409.64,355.1c-5,0-5.46-6.16-2.86-12.67s7.94-12.63,13-12.63,5.5,6.07,2.87,12.63S414.69,355.1,409.64,355.1Zm11-23.16c-.16-.59-.42-1.19-1.27-1.19-3.2,0-6.95,8.85-8.08,11.68s-4.46,11.69-1.26,11.69,6.95-8.85,8.08-11.69C418.48,341.54,421.25,334.61,420.65,331.94Z" transform="translate(-73.31 -239.74)"/><path class="cls-3" d="M451.57,347.56H440.64c-.67,1.68-1,2.64-1.83,5-.31.87-.61,1.77-.64,1.86a3.22,3.22,0,0,1-3.25,2c-1.13,0-1.25-.51-.84-1.53.15-.39,1.69-3.9,2-4.62,0-.12,1.07-2.61,1.1-2.67h-10a21.77,21.77,0,0,0-3.57.21l-.08-1.11c1.87.18,4.16.18,4.52.18h1.55c2.82-7,2.91-7.26,3.13-8.7l3.36,1.29h4.36c.53-1.41,1.44-3.69,2.18-5.52h-5.37c-2.51,2.07-7,5.34-10.88,6.84l-.09-.18c5.39-3.93,9.79-8.64,11.86-12.27l3.54,1.74c.1.06.38.18.28.42s-.15.39-1.81.81c-.54.54-1.07,1.05-2.06,1.92H451l2.27-2c.19-.15.45-.39.64-.39s.23.09.45.33l2,2a.38.38,0,0,1,.14.45.58.58,0,0,1-.62.33h-9.72c-.35.87-1.93,4.74-2.25,5.52h3.63l2.2-2a1.07,1.07,0,0,1,.64-.39c.2,0,.32.18.45.33l1.77,2a.44.44,0,0,1,.14.45.59.59,0,0,1-.61.33h-8.5c-.84,2.1-1.79,4.47-2.65,6.69h5.66l2.6-2.22c.1-.09.45-.39.64-.39s.34.21.45.33l1.76,2.22c.14.21.2.3.13.48S451.79,347.56,451.57,347.56Zm-11.39-7.41h-4.65l-2.68,6.69h4.62c.63-1.56,1.09-2.64,2.08-5.1Z" transform="translate(-73.31 -239.74)"/><path class="cls-3" d="M506.56,352.57c-1.81.57-6.12.6-8.48.6s-5.89-.06-8-1.5a3.66,3.66,0,0,1-1.45-4.68,9.3,9.3,0,0,1,4.2-4.29,9.12,9.12,0,0,0-1.66,2.55c-1.89,4.71,4.11,4.74,6.37,4.74a37,37,0,0,0,7.76-.81,4.53,4.53,0,0,1,.89-.12c1.16,0,3,.75,2.48,1.95A3.15,3.15,0,0,1,506.56,352.57Zm2.71-16.14c-2.62,0-4.43,0-10.7,2.19l-.05-.21c.67-.39,3.77-2.07,4.4-2.43a1.54,1.54,0,0,0,.51-.39c.06-.15-.15-.18-.4-.21-2.58-.33-4-1.11-4.69-2a2.6,2.6,0,0,1-.22-2.61c1.25,1.5,2.65,2,7.17,2,.55,0,3.11-.09,3.62-.09,2.33,0,3.59,1.29,3.11,2.49S510.08,336.43,509.27,336.43Z" transform="translate(-73.31 -239.74)"/><path class="cls-3" d="M533.27,352.36c-4.14,0-2.65-3.72-2.28-4.65.31-.78,1.41-2.88,2.54-5s2.19-4.17,2.46-4.86.82-2-.63-2c-2.14,0-8.54,4.44-11.08,6.51-.66,1.65-1.55,4.14-2.17,5.85-.16.48-.78,2.58-1,3-.1.27-1.58,3.48-3.17,3.48-.48,0-1.06-.09-.66-1.41a6.39,6.39,0,0,0,.3-3.66l.12-.06c.07.06.79.69,1.12.69s.46-.6.64-1.05c.25-.63,1.29-3.39,1.52-4-.51.48-5.87,6-6,6.15-.53.6-1,1.05-1.65,1.05-.9,0-.8-1.23-.46-2.07s.63-1.11,2.79-2.79a60,60,0,0,0,7.3-7.17c.17-.42.28-.63.73-1.59-1.25.54-2.51,1.2-3.49,1.71a3.09,3.09,0,0,1-1.48.54c-.91,0-1.52-1.44-1-2.7a5.07,5.07,0,0,1,1.25-1.68A1.52,1.52,0,0,0,520.5,338a20.4,20.4,0,0,0,4.19-1.11c.24-.51,1.36-2.82,1.55-3.3.86-2.16-.34-2.31-2.08-2.49a4.59,4.59,0,0,1,2.91-1.2c1.84,0,3.76,1.17,3.32,2.28a5.84,5.84,0,0,1-1.21,1.65,12.29,12.29,0,0,0-1.67,2.16c.47.36.9.81.76,1.17s-2.61,2.55-3.06,3c-.1.27-.17.36-.31.69a59.26,59.26,0,0,1,7.54-5c2.41-1.35,3.52-1.62,4.62-1.62,1.29,0,3.33.63,2.1,3.72a44.39,44.39,0,0,1-3,5.79,32,32,0,0,0-1.83,3.6c-.32.81-.74,1.86.81,1.86s5.25-1.23,7.86-2.76l.14.15C540.41,349.3,537.31,352.36,533.27,352.36Z" transform="translate(-73.31 -239.74)"/><path class="cls-3" d="M556.81,353.2a7.38,7.38,0,0,1-3.77,1.59c-1.17,0-1-.51-.63-1.83a6.31,6.31,0,0,0-.48-4l.12-.15a10,10,0,0,0,3.13,1.71,2,2,0,0,0,1.44-.69,30.45,30.45,0,0,0,5.89-8.67c.88-2.19.63-2.94-.73-2.94a12.65,12.65,0,0,0-1.83.21c-4.78,5.49-8.82,9.78-10.5,11.55-3.41,3.6-4,3.9-4.79,3.9-1,0-1-1.11-.67-1.95.43-1.08.86-1.44,2.7-2.88a79.75,79.75,0,0,0,10.11-9.93,28.35,28.35,0,0,0-5.39,2.16,3.23,3.23,0,0,1-1.33.42c-1.1,0-2.11-1.5-1.48-3.09a3.94,3.94,0,0,1,1.56-1.8c0,1.41.38,1.65,1.15,1.65,1.07,0,6-1,7-1.2a20.53,20.53,0,0,0,3-4.23c.53-1.32-.51-1.71-1.65-2.1a6,6,0,0,1,2.8-.87c1.39,0,3.33,1.38,2.87,2.52a5.87,5.87,0,0,1-1.61,1.86c-.68.63-1.34,1.32-2.38,2.46a12.14,12.14,0,0,1,1.29-.06c2.91,0,3.52,1.53,2.17,4.92C563.62,344.74,560.1,350.8,556.81,353.2Zm15.49-6.66c-.58,0-.7-.18-1.21-1.08s-2.34-1.44-4-1.56l.1-.24a31.93,31.93,0,0,0,3.84-.81,1.32,1.32,0,0,0,.45-.54,5.75,5.75,0,0,0-.78-3.48,9.26,9.26,0,0,0-2.35-2.61c9.08,1.47,6.51,7.89,6.34,8.31A2.91,2.91,0,0,1,572.3,346.54Z" transform="translate(-73.31 -239.74)"/><path class="cls-3" d="M581.1,354.58c-.77,0-1.25,0-1.82-.06l.1-.24a31.24,31.24,0,0,0,10-3.39c2.5-1.32,4.36-2.82,5.22-4.95.45-1.14.79-3.6-2.22-3.6-5.39,0-11.22,5.28-12.2,6.18-.52.51-1.28,1.2-1.9,1.2-1,0-1.67-1.47-1.13-2.82.23-.57,1.82-3.09,2.1-3.63.85-1.56,1.75-3.66,2.71-5.82.63-1.41,1.33-3,6-3.75a12.59,12.59,0,0,0,1.5-.21.28.28,0,0,0,.17-.18.22.22,0,0,0-.07-.3,3,3,0,0,1-.78-4.11c1.25,1.41,1.53,1.5,4.18,2.4,2.44.84,2,2.67,1.78,3.3A2.05,2.05,0,0,1,592.9,336a2.61,2.61,0,0,1-1.36-.48,8.93,8.93,0,0,0-4.12-.87c-.58,0-2.85,0-3.32,1.2a1.88,1.88,0,0,0,.16,1.53,2.17,2.17,0,0,1,0,1.5,8,8,0,0,1-1.33,1.95,27.56,27.56,0,0,0-2.29,3.63c-.09.21-.17.51.18.51s2.7-1.26,3.21-1.47a24.6,24.6,0,0,1,9.07-2.31c4,0,5.82,2.58,4.58,5.67C595.94,351.34,589.15,354.58,581.1,354.58Z" transform="translate(-73.31 -239.74)"/><path class="cls-3" d="M611.71,353.44v-.21c5.44-1.71,12.29-5.25,14.88-11.73,1.74-4.35.27-8-6-8a5,5,0,0,0-1.62.18c2.31,1.41,1.8,2.7,1.64,3.09-.43,1.08-5.46,6.63-8.84,9.81-4,3.78-5.62,4.77-6.75,4.77s-1.15-.45-1.57-1.89a2.36,2.36,0,0,0-.76-1.26c-.69-.78-.57-2.22,0-3.63,2.65-6.63,11-12.09,19-12.09,6.24,0,11,3.39,8.39,9.81C626.4,351.61,614.42,353.11,611.71,353.44Zm6.1-19.62c-4.12,1-10.18,5.34-12.18,10.32-.49,1.23-1,4.17.31,4.17s4.13-3.06,6.5-5.67c1.36-1.47,4.69-5.1,5.4-6.87A2.16,2.16,0,0,0,617.81,333.82Z" transform="translate(-73.31 -239.74)"/><path class="cls-3" d="M652.19,345.37a15.93,15.93,0,0,1-5.16-1.32c-3.34-1.26-5.13-1.95-6.75-1.95-2.71,0-5.36,1.44-6.63,2.1l-.22-.57c4.42-3.06,7.27-4.2,9.73-4.2a15.83,15.83,0,0,1,5.19,1.32c3.34,1.26,5.14,1.95,6.75,1.95,2.72,0,5.36-1.44,6.63-2.1l.22.57C657.53,344.23,654.68,345.37,652.19,345.37Z" transform="translate(-73.31 -239.74)"/><path class="cls-3" d="M661.13,354.48l.42-1.06h1.6a3.44,3.44,0,0,0,3-2l7-17.39c.48-1.19,0-1.85-1.25-1.85H670.3l.35-.89a22.46,22.46,0,0,0,6.56-1,11.3,11.3,0,0,1,1.43-.46c.21,0,.22.16.13.39l-8.49,21.22c-.44,1.09-.06,2,1.36,2h1.64l-.42,1.06Z" transform="translate(-73.31 -239.74)"/><path class="cls-3" d="M684.51,355.1c-5,0-5.45-6.16-2.86-12.67s7.94-12.63,13-12.63,5.5,6.07,2.87,12.63S689.56,355.1,684.51,355.1Zm11-23.16c-.16-.59-.42-1.19-1.27-1.19-3.2,0-7,8.85-8.08,11.68s-4.46,11.69-1.26,11.69,7-8.85,8.08-11.69C693.35,341.54,696.12,334.61,695.52,331.94Z" transform="translate(-73.31 -239.74)"/><path class="cls-3" d="M702.28,355.1c-5,0-5.45-6.16-2.85-12.67s7.93-12.63,13-12.63,5.49,6.07,2.87,12.63S707.33,355.1,702.28,355.1Zm11-23.16c-.15-.59-.41-1.19-1.27-1.19-3.2,0-6.95,8.85-8.08,11.68s-4.46,11.69-1.26,11.69,7-8.85,8.08-11.69C711.12,341.54,713.89,334.61,713.29,331.94Z" transform="translate(-73.31 -239.74)"/><path class="cls-3" d="M744.21,347.56H733.29c-.68,1.68-1,2.64-1.83,5-.32.87-.62,1.77-.65,1.86a3.22,3.22,0,0,1-3.25,2c-1.13,0-1.25-.51-.84-1.53.15-.39,1.69-3.9,2-4.62,0-.12,1.07-2.61,1.1-2.67h-10a21.77,21.77,0,0,0-3.57.21l-.08-1.11c1.87.18,4.17.18,4.52.18h1.55c2.82-7,2.91-7.26,3.13-8.7l3.36,1.29h4.36c.53-1.41,1.45-3.69,2.18-5.52h-5.37c-2.5,2.07-7,5.34-10.88,6.84l-.09-.18c5.39-3.93,9.79-8.64,11.86-12.27l3.54,1.74c.1.06.38.18.28.42s-.15.39-1.81.81c-.54.54-1.06,1.05-2.06,1.92h12.86l2.28-2c.18-.15.44-.39.64-.39s.22.09.45.33l2,2a.38.38,0,0,1,.14.45.57.57,0,0,1-.61.33h-9.73c-.35.87-1.93,4.74-2.24,5.52h3.62l2.2-2A1.07,1.07,0,0,1,743,337c.2,0,.32.18.45.33l1.77,2a.42.42,0,0,1,.14.45.59.59,0,0,1-.61.33h-8.5c-.84,2.1-1.79,4.47-2.65,6.69h5.66l2.6-2.22c.1-.09.45-.39.64-.39s.34.21.45.33l1.76,2.22c.14.21.21.3.13.48S744.44,347.56,744.21,347.56Zm-11.39-7.41h-4.65l-2.68,6.69h4.63c.62-1.56,1.08-2.64,2.07-5.1Z" transform="translate(-73.31 -239.74)"/></svg>