<?xml version="1.0" encoding="UTF-8"?><svg id="_レイヤー_1" xmlns="http://www.w3.org/2000/svg" viewBox="0 0 100 100"><defs><style>.cls-1{fill:#164667;}.cls-1,.cls-2{stroke-width:0px;}.cls-2{fill:#fff;}</style></defs><rect class="cls-1" width="100" height="100"/><path class="cls-2" d="m8.714,12.464c-.173.094-.675.291-1.507.589-.659.22-1.075.369-1.248.447v-2.707c.533-.204,1.181-.518,1.942-.942.761-.424,1.298-.808,1.612-1.153h2.848v19.068h-3.649v-15.301Z"/><path class="cls-2" d="m19.707,11.476h-5.179v-2.778h8.734v2.378l-4.025,16.69h-3.531l4.002-16.29Z"/><path class="cls-2" d="m75.532,60.697c0-7.055-5.612-12.819-12.604-13.074-1.798-5.079-6.649-8.728-12.337-8.728s-10.536,3.649-12.337,8.728c-6.991.255-12.601,6.02-12.601,13.074,0,4.186,1.979,7.917,5.049,10.314-.333,1.154-.517,2.372-.517,3.632,0,7.212,5.87,13.082,13.085,13.082,2.738,0,5.281-.847,7.385-2.291,2.079,1.391,4.575,2.204,7.259,2.204,7.214,0,13.084-5.87,13.084-13.082,0-1.235-.175-2.428-.496-3.56,3.057-2.398,5.029-6.122,5.029-10.299m-14.49-8.718c0,5.238-3.876,9.574-8.909,10.323-.082-.525-.136-1.059-.136-1.605,0-5.238,3.876-9.575,8.908-10.324.082.524.137,1.058.137,1.606m-10.402,30.062c-1.956-1.9-3.176-4.552-3.176-7.485,0-2.889,1.18-5.508,3.08-7.401,1.955,1.9,3.176,4.552,3.176,7.488,0,2.887-1.179,5.505-3.08,7.398m-10.361-31.668c5.032.748,8.909,5.086,8.909,10.324,0,.547-.055,1.081-.137,1.605-5.033-.749-8.909-5.085-8.909-10.323,0-.548.055-1.082.137-1.607m7.791,14.998c-1.719,3.419-5.251,5.776-9.332,5.776-1.731,0-3.362-.431-4.8-1.178,1.719-3.419,5.253-5.775,9.334-5.775,1.731,0,3.36.43,4.799,1.178m5.01-.07c1.448-.759,3.089-1.195,4.834-1.195,4.108,0,7.66,2.389,9.368,5.846-1.449.76-3.092,1.195-4.834,1.195-4.11,0-7.662-2.389-9.368-5.846m-2.489-23.771c4.282,0,7.966,2.589,9.579,6.284-4.251.75-7.8,3.556-9.579,7.353-1.777-3.798-5.327-6.604-9.578-7.353,1.614-3.694,5.297-6.284,9.578-6.284m-22.304,19.167c0-5.385,4.093-9.828,9.329-10.39-.069.548-.11,1.106-.11,1.672,0,3.825,1.651,7.271,4.275,9.666-4.34.494-8.042,3.117-10.032,6.799-2.119-1.913-3.462-4.674-3.462-7.747m4.533,13.946c0-.743.079-1.467.229-2.165,1.722.834,3.651,1.303,5.689,1.303,2.291,0,4.443-.593,6.318-1.631-.146.78-.226,1.584-.226,2.407,0,3.534,1.413,6.743,3.699,9.1-1.547.906-3.34,1.434-5.257,1.434-5.764,0-10.45-4.688-10.45-10.448m35.544-.087c0,5.76-4.688,10.448-10.45,10.448-1.875,0-3.63-.503-5.153-1.371,2.223-2.346,3.593-5.512,3.593-8.99,0-.857-.086-1.693-.244-2.504,1.879,1.044,4.038,1.641,6.337,1.641,2.044,0,3.981-.472,5.705-1.313.139.676.212,1.374.212,2.089m-8.882-12.988c2.577-2.391,4.194-5.804,4.194-9.589,0-.566-.04-1.124-.11-1.672,5.237.561,9.331,5.005,9.331,10.39,0,3.059-1.33,5.807-3.434,7.72-1.969-3.69-5.653-6.328-9.982-6.848"/><path class="cls-2" d="m33.31,10.559c-.058.37-.142.731-.236,1.084-.327,1.269-.817,2.501-1.572,3.425-.249-.24-.534-.434-.798-.637,1.175-1.363,1.502-2.88,1.738-4.835l.953.713c.029.019.043.064.043.102,0,.082-.07.128-.127.147Zm2.696,4.176c-.333-1.527-.946-3.251-1.707-4.499l.754-.633c.704,1.142,1.48,2.974,1.799,4.382l-.845.75Zm.149-4.787c-.404,0-.731-.425-.731-.954s.327-.953.731-.953c.406,0,.735.435.735.953s-.328.954-.735.954Zm0-1.463c-.214,0-.383.231-.383.509s.169.509.383.509c.216,0,.392-.24.392-.509,0-.278-.177-.509-.392-.509Z"/><path class="cls-2" d="m42.403,12.334c-.398-.025-.714-.025-1.039-.025-.37-.011-2.763,0-3.652.033-.014-.353-.035-.802-.043-1.065-.007-.132.05-.14.092-.132.12.036.344.052.406.062.428.026,1.073.019,1.564.019,1.016,0,1.571-.028,2.706-.045-.021.352-.028.801-.034,1.153Z"/><path class="cls-2" d="m47.041,13.011c-.645-.554-1.325-1.029-2.055-1.4,0,.144-.005.283-.005.415v1.974c0,.518.014,1.047.021,1.565h-.981c.047-1.127.056-2.255.056-3.381,0-1.311-.01-2.624-.035-3.927l1.008.114c.05.01.097.036.097.106,0,.08-.062.132-.112.158-.021.802-.034,1.603-.049,2.404.092-.139.177-.282.245-.431.836.379,1.634.846,2.363,1.48-.189.309-.371.618-.553.923Z"/><path class="cls-2" d="m54.213,11.409c-.344,0-.686-.007-1.029-.007h-1.115c-.02,1.918-.511,3.424-1.991,4.207-.245-.254-.518-.458-.79-.66,1.366-.669,1.83-1.77,1.864-3.558-.806.036-1.612.073-2.411.115,0-.361-.007-.721-.028-1.083.448.017.897.026,1.338.026h.856c.092,0,.175,0,.26-.01.005-.125.005-.246.005-.378,0-.598-.02-1.197-.049-1.797l.974.124c.042.01.106.036.106.106,0,.062-.05.114-.085.14l-.021,1.797c.716-.026,1.431-.053,2.154-.106,0,.36-.031.721-.037,1.083Z"/><path class="cls-2" d="m59.868,12.334c-.399-.025-.716-.025-1.036-.025-.372-.011-2.497,0-3.388.033-.012-.353-.033-.802-.04-1.065-.007-.132.05-.14.09-.132.12.036.345.052.407.062.428.026,1.521.019,2.011.019,1.017,0,.857-.028,1.992-.045-.022.352-.027.801-.036,1.153Z"/><path class="cls-2" d="m62.964,12.159c-.487-.515-1.031-.916-1.588-1.278.172-.292.328-.591.491-.883.569.317,1.133.745,1.605,1.253l-.508.908Zm-1.044,3.166c-.047-.103-.468-.944-.468-.986,0-.061.068-.069.096-.078.434-.102.861-.214,1.274-.393,1.343-.584,2.618-1.647,3.664-2.856.027.437.067.876.115,1.304-1.342,1.534-2.916,2.514-4.681,3.011Zm1.987-5.113c-.461-.42-.949-.763-1.471-1.047.155-.282.305-.582.447-.883.545.24,1.08.601,1.534,1.038-.157.309-.332.6-.509.893Z"/><path class="cls-2" d="m68.845,12.889c-.122-.662-.326-1.278-.557-1.887l.759-.308c.238.599.421,1.234.536,1.877-.244.121-.496.216-.739.319Zm3.703-1.956c-.218,1.219-.529,2.454-1.2,3.406-.49.686-1.194,1.202-1.893,1.467-.192-.239-.393-.464-.59-.704,1.959-.592,2.658-2.307,2.868-4.717l.862.334c.027.018.048.034.048.077,0,.069-.055.12-.095.137Zm-2.421,1.494c-.137-.626-.298-1.243-.535-1.818.251-.087.499-.171.752-.266.229.584.406,1.184.515,1.817-.244.078-.49.171-.732.267Z"/><path class="cls-2" d="m78.424,10.171c-.491,1.748-1.052,3.156-2.272,4.28-.388.36-.842.686-1.304.883-.257-.282-.535-.549-.814-.796,1.688-.542,2.869-2.122,3.35-4.222-1.186.017-2.373.102-3.56.162-.02-.351-.035-.702-.04-1.054.317.008.637.026.955.026.625,0,1.248-.018,1.871-.026.321-.007.645,0,.965-.025.156-.018.209-.018.352-.128.082.086.624.676.624.744,0,.07-.096.122-.129.157Zm.405-.68c-.385,0-.697-.393-.697-.872,0-.5.312-.884.697-.884s.7.395.7.884c0,.479-.319.872-.7.872Zm0-1.347c-.203,0-.373.207-.373.474,0,.256.169.454.373.454.198,0,.373-.207.373-.454,0-.259-.168-.474-.373-.474Z"/><path class="cls-2" d="m85.269,9.686c-.03-.001-.054-.018-.084-.019-.276-.009-.615.061-.884.172-.829.347-1.458,1.426-1.502,2.573-.064,1.687,1.115,1.923,2.114,1.959-.055.319-.122.641-.196.958-.044-.002-.092-.004-.141-.006-.434-.015-.958-.133-1.36-.342-.763-.395-1.227-1.242-1.185-2.35.037-.986.295-1.768.76-2.543-.749.129-1.483.28-2.22.468-.025-.328-.068-.648-.092-.975.673-.082,1.338-.171,2.004-.279.9-.156,1.809-.327,2.688-.663.03.14.186.88.183.967-.002.067-.039.081-.083.08Zm-.571,2.125c-.119-.403-.252-.807-.395-1.187l.481-.253c.152.38.266.768.367,1.172l-.452.269Zm.778-.298c-.106-.435-.237-.856-.399-1.255l.475-.266c.144.404.277.808.396,1.219l-.472.302Z"/><path class="cls-2" d="m31.435,26.62v-7.324h4.698v7.324h-4.698Zm3.875-6.455h-3.084v1.282h3.084v-1.282Zm0,2.135h-3.084v1.266h3.084v-1.266Zm0,2.07h-3.084v1.415h3.084v-1.415Z"/><path class="cls-2" d="m39.427,23.596c-.097-.145-.198-.275-.282-.43v3.544h-.742v-3.295c-.117.336-.33.713-.543.962l-.508-.61c.446-.582.899-1.62,1.002-2.419h-.721v-.773h.762v-1.672l.75.061c.048,0,.116.035.116.113,0,.068-.069.119-.116.135v1.363h.42v.773h-.427v.421c.172.429.44.789.693,1.14-.137.233-.266.465-.404.687Zm1.393,1.656c-.288.472-.604.893-.996,1.235l-.522-.531c.399-.309.77-.781.961-1.32l.674.462c.02.018.026.043.026.069,0,.094-.089.103-.145.086Zm1.588-5.293v.531h1.078v2.068h-3.744v-2.068h.983v-.531h-1.202v-.704h4.181v.704h-1.296Zm-.363,4.563c0,.396.006.799.006,1.192,0,.817-.474.988-1.024,1.073l-.425-.653c.287-.059.658-.059.658-.541v-1.072h-1.695v-.668h4.16v.668h-1.681Zm-1.973-.969v-.644h3.118v.644h-3.118Zm.68-2.412h-.357v.817h.357v-.817Zm.995-1.183h-.377v.531h.377v-.531Zm0,1.183h-.377v.817h.377v-.817Zm1.67,5.371c-.42-.385-.811-.866-1.12-1.391l.632-.436c.275.515.613.908,1.017,1.262l-.529.565Zm-.633-5.371h-.397v.817h.397v-.817Z"/><path class="cls-2" d="m50.504,22.981c-.033,0-.068-.019-.101-.044-.497.181-1.451.584-1.903.806v1.322l-.812-.008c.007-.12.007-.248.007-.395v-.48c-.548.273-.824.626-.824,1.02,0,.343.316.524.941.524.679,0,1.298-.095,1.999-.342l-.028,1.002c-.604.215-1.271.248-1.725.248-1.345,0-2.018-.453-2.018-1.373,0-.446.192-.857.563-1.235.234-.231.584-.48,1.043-.738-.015-.386-.123-.584-.322-.584-.256,0-.487.105-.709.327-.137.138-.314.319-.529.582-.253.301-.41.508-.508.61-.123-.155-.315-.385-.57-.702.77-.644,1.348-1.425,1.733-2.325-.365.052-.771.087-1.21.112-.027-.327-.068-.628-.111-.893.645,0,1.175-.025,1.574-.086.083-.248.157-.643.233-1.184l.927.222c.056.018.083.052.083.103,0,.052-.033.095-.111.128-.034.146-.095.37-.185.661.314-.042.783-.172,1.284-.317l-.076.942c-.378.086-.886.172-1.518.267-.095.257-.253.574-.426.857.166-.051.303-.059.393-.059.418,0,.692.301.817.918.549-.309,1.174-.626,1.854-.952l.315.96c0,.069-.026.105-.082.105Z"/><path class="cls-2" d="m57.617,26.597c-.356.007-.711.025-1.068.025-1.335,0-2.456-.151-3.651-.965-.142.352-.301.746-.511,1.04l-.583-.436c.644-.805.759-2.297.766-3.387h-.847v-.746h1.618c-.007.805-.073,1.921-.269,2.684.987.972,2.412,1.023,3.611,1.023.385,0,.774-.033,1.156-.051l-.222.814Zm-4.651-5.836c-.349-.31-.693-.63-1.069-.881l.537-.78c.289.259.732.702.966,1.03l-.435.63Zm3.947.637c-.088.208-.168.428-.248.647h1.087v.661h-1.794v.395h1.426v.644h-1.426v.361h1.82v.679h-1.813v.806h-.73v-.806h-1.685v-.679h1.685v-.361h-1.324v-.644h1.324v-.395h-1.698v-.661h.974c-.061-.219-.114-.439-.189-.647h-.793v-.662h1.692v-.486h-1.476v-.713h1.471v-.688l.751.059c.061.006.129,0,.129.101,0,.065-.068.1-.108.125v.403h1.585v.713h-1.591v.486h1.813v.662h-.879Zm-1.84-.017c.026.225.067.445.093.669h.848c.04-.225.086-.445.12-.669h-1.06Z"/><path class="cls-2" d="m64.87,26.747c-.625-.45-1.04-.918-1.501-1.625-.442.68-1.006,1.244-1.652,1.571l-.556-.581c.728-.417,1.338-.928,1.793-1.792-.461-.998-.679-2.103-.801-3.249h-1.65v.045c0,.326.005.644.005.971h1.603c-.014.662-.014,1.332-.088,1.986-.13,1.077-.441,1.421-1.271,1.509l-.373-.698c.822-.106.93-.459.944-1.465l.008-.601h-.843c0,1.246-.175,2.958-.869,3.886l-.639-.504c.699-.884.746-2.347.746-3.539,0-.795-.042-1.599-.055-2.394h2.425c-.04-.522-.053-1.051-.067-1.571l.892.124c.046.008.14.034.14.124,0,.078-.074.158-.129.185-.007.212-.007.415-.007.626,0,.168,0,.345.007.512h2.174v.821h-2.14c.053.795.19,1.572.414,2.313.224-.556.389-1.28.476-1.899l.848.585c.04.025.083.096.083.157,0,.099-.136.134-.191.143-.202.68-.421,1.36-.74,1.961.406.687.999,1.147,1.582,1.537l-.57.863Zm-.204-7.399c-.162.292-.32.592-.489.875l-.623-.239c.149-.415.277-.839.378-1.279l.789.351c.048.027.109.073.109.152,0,.088-.109.132-.164.14Z"/><path class="cls-2" d="m70.357,25.913c-.542.404-1.188.584-1.82.584-.975,0-1.587-.694-1.641-1.911-.014-.164-.006-.327-.006-.491,0-.462.006-.926.02-1.399.02-1.107.034-2.22.049-3.327.212.034.432.077.645.127.089.018.185.026.267.061.055.026.123.061.123.138,0,.069-.056.12-.103.146-.083,1.493-.144,3.001-.144,4.494,0,.764.274,1.228.914,1.228.294,0,.597-.094.872-.25.63-.334,1.071-1.054,1.379-1.791l.503,1.114c-.247.473-.667.988-1.058,1.278Z"/><path class="cls-2" d="m77.371,26.187c-.48-.479-1.003-.891-1.558-1.218-.077,1.098-.681,1.432-1.483,1.432-.679,0-1.725-.429-1.725-1.458s.804-1.389,1.504-1.389c.288,0,.577.034.858.112,0-1.2-.047-2.41-.138-3.604-.027-.291-.041-.582-.09-.865l.914.145c.042.008.117.052.117.121,0,.051-.042.094-.075.12v.326c0,.376-.007.755.007,1.131h.082c.316,0,.632-.007.947-.051.25-.034.489-.094.729-.135,0,.333-.014.667-.02,1.011-.385.033-.777.058-1.16.058-.179,0-.356-.007-.544-.015.021.685.028,1.373.048,2.068.756.334,1.462.788,2.149,1.303l-.564.909Zm-2.396-1.622c-.274-.146-.612-.222-.907-.222-.24,0-.612.19-.612.541,0,.531.48.668.817.668.413,0,.701-.187.701-.745v-.241Z"/><path class="cls-2" d="m80.937,26.529c-.254-.247-.508-.505-.777-.729.687-.223,1.6-.704,1.978-1.494.186-.377.269-.822.269-1.259,0-.764-.234-1.2-.873-1.2-.447,0-1.538.624-1.944.916-.048-.127-.376-1.013-.376-1.089,0-.061.067-.052.096-.052.15,0,.687-.179.851-.248.536-.206,1.031-.436,1.6-.436,1.099,0,1.58.926,1.58,2.204,0,1.758-1.174,2.89-2.403,3.387Zm1.201-6.185c-.631-.317-1.269-.6-1.943-.771.13-.308.253-.618.383-.927.688.147,1.354.43,1.994.782-.139.309-.277.618-.435.916Z"/></svg>