<?xml version="1.0" encoding="UTF-8"?><svg id="_レイヤー_1" xmlns="http://www.w3.org/2000/svg" viewBox="0 0 100 100"><defs><style>.cls-1{fill:#f29f00;}.cls-1,.cls-2{stroke-width:0px;}.cls-2{fill:#fff;}</style></defs><rect class="cls-1" width="100" height="100"/><path class="cls-2" d="m8.714,12.464c-.173.094-.675.291-1.507.589-.659.22-1.075.369-1.248.447v-2.707c.533-.204,1.181-.518,1.942-.942.761-.424,1.298-.808,1.613-1.153h2.848v19.068h-3.649v-15.301Z"/><path class="cls-2" d="m16.694,12.464c-.173.094-.675.291-1.507.589-.659.22-1.075.369-1.248.447v-2.707c.533-.204,1.181-.518,1.942-.942.761-.424,1.298-.808,1.612-1.153h2.848v19.068h-3.649v-15.301Z"/><path class="cls-2" d="m17.053,76.251h15.111c.204,0,.371-.167.371-.372,0-.095-.038-.181-.097-.246l-.021-.022-7.518-9.727-.073-.081c-.068-.074-.165-.121-.274-.121-.093,0-.177.039-.243.095l-.045.052-.071.079-7.335,9.625-.113.138c-.04.058-.063.131-.063.207,0,.205.166.372.371.372Z"/><path class="cls-2" d="m32.119,77.623h-15.141c-.205,0-.371.166-.371.371v11.849c0,.205.166.372.371.372h4.873v-7.455c0-.206.165-.371.371-.371h4.523c.205,0,.371.165.371.371v7.455h5.003c.204,0,.371-.167.371-.372v-11.849c0-.205-.166-.371-.371-.371Z"/><path class="cls-2" d="m84.448,74.521h-14.986c-.202,0-.366.157-.366.356v15.133c0,.196.163.356.366.356h14.986c.204,0,.367-.16.367-.356v-15.133c0-.199-.163-.356-.367-.356m-8.2,9.879c0,.199-.163.358-.366.358h-4.477c-.204,0-.368-.16-.368-.358v-2.72c0-.199.165-.357.368-.357h4.477c.202,0,.366.159.366.357v2.72Zm0-5.028c0,.197-.163.357-.366.357h-4.477c-.204,0-.368-.16-.368-.357v-2.723c0-.196.165-.356.368-.356h4.477c.202,0,.366.16.366.356v2.723Zm6.843,5.028c0,.199-.163.358-.367.358h-4.476c-.204,0-.367-.16-.367-.358v-2.72c0-.199.163-.357.367-.357h4.476c.204,0,.367.159.367.357v2.72Zm0-5.028c0,.197-.163.357-.367.357h-4.476c-.204,0-.367-.16-.367-.357v-2.723c0-.196.163-.356.367-.356h4.476c.204,0,.367.16.367.356v2.723Z"/><path class="cls-2" d="m49.612,39.395h-14.666c-.196,0-.358.16-.358.36v50.12c0,.197.162.358.358.358h14.666c.196,0,.361-.161.361-.358v-50.12c0-.2-.165-.36-.361-.36m-8.724,45.129c0,.106-.087.193-.193.193h-3.358c-.106,0-.193-.086-.193-.193v-3.742c0-.106.087-.191.193-.191h3.358c.106,0,.193.085.193.191v3.742Zm0-8.595c0,.108-.087.193-.193.193h-3.358c-.106,0-.193-.084-.193-.193v-3.741c0-.109.087-.193.193-.193h3.358c.106,0,.193.084.193.193v3.741Zm0-8.592c0,.106-.087.193-.193.193h-3.358c-.106,0-.193-.087-.193-.193v-3.743c0-.106.087-.193.193-.193h3.358c.106,0,.193.087.193.193v3.743Zm0-8.595c0,.106-.087.193-.193.193h-3.358c-.106,0-.193-.087-.193-.193v-3.743c0-.106.087-.19.193-.19h3.358c.106,0,.193.084.193.19v3.743Zm0-8.592c0,.105-.087.191-.193.191h-3.358c-.106,0-.193-.087-.193-.191v-3.743c0-.107.087-.193.193-.193h3.358c.106,0,.193.086.193.193v3.743Zm6.585,34.374c0,.106-.086.193-.194.193h-3.357c-.107,0-.193-.086-.193-.193v-3.742c0-.106.085-.191.193-.191h3.357c.107,0,.194.085.194.191v3.742Zm0-8.595c0,.108-.086.193-.194.193h-3.357c-.107,0-.193-.084-.193-.193v-3.741c0-.109.085-.193.193-.193h3.357c.107,0,.194.084.194.193v3.741Zm0-8.592c0,.106-.086.193-.194.193h-3.357c-.107,0-.193-.087-.193-.193v-3.743c0-.106.085-.193.193-.193h3.357c.107,0,.194.087.194.193v3.743Zm0-8.595c0,.106-.086.193-.194.193h-3.357c-.107,0-.193-.087-.193-.193v-3.743c0-.106.085-.19.193-.19h3.357c.107,0,.194.084.194.19v3.743Zm0-8.592c0,.105-.086.191-.194.191h-3.357c-.107,0-.193-.087-.193-.191v-3.743c0-.107.085-.193.193-.193h3.357c.107,0,.194.086.194.193v3.743Z"/><path class="cls-2" d="m69.415,69.68h15.082c.166,0,.301.135.301.301v3.018c0,.166-.135.301-.301.301h-15.084c-.166,0-.301-.135-.301-.301v-3.017c0-.167.135-.302.302-.302Z"/><path class="cls-2" d="m67.327,48.86c-.049-.161-.191-.28-.368-.28-.079,0-.148.029-.21.069-.009.006-.018.011-.027.018l-.124.156-14.414,18.284-.066.089c-.074.073-.122.173-.125.285v22.469c0,.197.161.357.36.357h14.651c.199,0,.359-.16.359-.357v-40.941c0-.054-.014-.105-.035-.15Zm-6.068,9.93l.103-.129c.986-1.266,2.648-3.312,3.459-4.305l.106-.127c.077-.093.193-.152.322-.152.201,0,.361.145.4.335v4.626c0,.223-.177.402-.398.412-.007,0-.012.004-.018.004-.006,0-.011-.004-.018-.004h-3.602c-.007,0-.012.004-.018.004-.006,0-.012-.004-.018-.004-.221-.01-.398-.189-.398-.412,0-.093.03-.178.081-.247Zm-2.281,25.607c0,.199-.16.358-.358.358h-4.371c-.199,0-.358-.16-.358-.358v-2.736c0-.197.16-.357.358-.357h4.371c.199,0,.358.16.358.357v2.736Zm0-5.055c0,.199-.16.359-.358.359h-4.371c-.199,0-.358-.16-.358-.359v-2.736c0-.2.16-.358.358-.358h4.371c.199,0,.358.159.358.358v2.736Zm0-5.055c0,.196-.16.357-.358.357h-4.371c-.199,0-.358-.161-.358-.357v-2.737c0-.199.16-.358.358-.358h4.371c.199,0,.358.16.358.358v2.737Zm.012-11.078v6.027c0,.199-.162.358-.358.358h-4.37c-.2,0-.361-.16-.361-.358v-.758c.002-.048.011-.093.028-.134.007-.015.008-.021.022-.041.008-.017.021-.033.032-.048.011-.017.027-.039.041-.059.558-.8,3.08-3.905,4.139-5.204l.106-.128c.077-.093.193-.152.323-.152.201,0,.361.146.4.335v.162Zm6.67,21.189c0,.199-.162.358-.358.358h-4.37c-.2,0-.361-.16-.361-.358v-2.736c0-.197.161-.357.361-.357h4.37c.196,0,.358.16.358.357v2.736Zm0-5.055c0,.199-.162.359-.358.359h-4.37c-.2,0-.361-.16-.361-.359v-2.736c0-.2.161-.358.361-.358h4.37c.196,0,.358.159.358.358v2.736Zm0-5.055c0,.196-.162.357-.358.357h-4.37c-.2,0-.361-.161-.361-.357v-2.737c0-.199.161-.358.361-.358h4.37c.196,0,.358.16.358.358v2.737Zm0-5.056c0,.198-.162.357-.358.357h-4.37c-.2,0-.361-.16-.361-.357v-2.736c0-.199.161-.359.361-.359h4.37c.196,0,.358.16.358.359v2.736Zm0-5.056c0,.199-.162.359-.358.359h-4.37c-.2,0-.361-.16-.361-.359v-2.736c0-.2.161-.36.361-.36h4.37c.196,0,.358.16.358.36v2.736Z"/><path class="cls-2" d="m30.87,9.288c-.193.549-.418,1.071-.655,1.595v5.455h-.83v-4.048c-.139.283-.351.549-.55.781l-.543-.636c.829-.943,1.468-2.504,1.748-3.808l.947.411c.036.018.074.052.074.103,0,.095-.133.138-.191.146Zm-.228,6.828v-.738h1.834v-1.818h-1.475v-.745h1.475v-1.563h-1.695v-.796h4.287v.796h-1.732v1.563h1.505v.745h-1.505v1.818h1.915v.738h-4.609Zm2.349-5.704c-.419-.412-.872-.78-1.359-1.09l.587-.72c.243.18.479.395.707.6.206.179.411.36.595.566l-.53.644Z"/><path class="cls-2" d="m42.425,14.753c-.323-.25-.653-.508-.998-.713-.285.763-.866,1.716-1.513,2.093l-.762-.49c.696-.393,1.212-1.158,1.497-1.988-.44-.225-.903-.403-1.373-.498-.103.291-.221.584-.352.857-.316.686-.713,1.382-1.46,1.382-.617,0-1.05-.575-1.05-1.287,0-.909.647-1.552,1.357-1.741.294-.077.602-.087.896-.077.206-.515.433-1.467.535-2.034l-1.563.266-.17-.986h.082c.513,0,2.042-.121,2.474-.308.109.137.235.266.359.395-.153.522-.324,1.038-.484,1.561-.126.395-.244.788-.382,1.175.469.086.932.222,1.372.428.154-.548.22-1.14.244-1.714.292.197.586.385.865.599-.058.506-.132,1.013-.272,1.493.374.189.757.378,1.115.626-.131.317-.27.643-.418.962Zm-5.181-.687c0,.215.079.403.278.403.132,0,.221-.051.31-.155.233-.257.475-.909.593-1.261-.515.043-1.181.294-1.181,1.013Z"/><path class="cls-2" d="m45.165,13.924c-.114.676-.234,1.385-.499,2.003l-.63-.339c.247-.607.398-1.503.469-2.171l.708.297c.029.008.049.05.049.083,0,.068-.049.111-.097.127Zm4.652-.364v-.827h-2.347v.853h-.711v-.6l-.518.228c-.026-.093-.055-.194-.076-.288l-.134.026v3.387h-.738v-3.303c-.348.025-.704.065-1.051.109l-.092-.726c.114,0,.241-.017.355-.043.091-.025.126-.059.19-.144.191-.253.355-.532.527-.801-.313-.144-.617-.304-.944-.406v-.38c.467-.591.9-1.326,1.205-2.053l.765.422c.057.035.156.076.156.168,0,.145-.134.145-.219.137-.334.431-.66.87-1.021,1.275.135.086.275.153.412.246.133-.22.261-.449.389-.676l.667.472c.035.027.071.061.071.12,0,.116-.113.109-.184.109-.384.507-.746,1.032-1.149,1.512.206-.008.417-.017.624-.05-.051-.145-.078-.296-.143-.43l.569-.229c.126.396.226.803.338,1.209v-.82h3.854v1.503h-.796Zm-3.384,1.588c-.106-.464-.198-.937-.276-1.41l.547-.237c.083.473.177.953.29,1.418l-.561.228Zm2.03-1.757c-.036.473-.078.956-.228,1.402-.234.701-.66,1.318-1.228,1.664l-.638-.523c1.093-.685,1.271-1.513,1.314-2.898l.765.143c.043.008.099.034.099.102,0,.052-.05.093-.084.109Zm.497-3.032v.609h1.304v.683h-3.327v-.683h1.215v-.618h-1.547v-.733h1.539v-.981l.824.067c.049,0,.113.034.113.101,0,.069-.064.119-.113.135v.677h1.602v.743h-1.609Zm1.858,5.693c-.362.212-.845.314-1.249.314-.525,0-.866-.296-.866-.956v-2.373l.752.084c.043.008.114.025.114.093,0,.059-.056.102-.099.12v1.74c0,.412.05.522.411.522.305,0,.745-.261.993-.465l-.056.921Z"/><path class="cls-2" d="m53.759,15.593c-.244.038-.492.068-.736.09-.382-.97-.524-2.108-.511-3.164.014-1.097.152-2.184.373-3.246.218.052.445.113.666.175.095.026.196.044.284.087.045.018.089.034.089.091-.001.068-.068.115-.127.131-.31,1.118-.41,2.265-.425,3.437-.004.341-.009.731.073,1.073.146-.414.29-.837.436-1.25.165.234.339.461.527.672-.279.594-.529,1.248-.648,1.904Zm3.619-3.6c.002.373.002.748-.011,1.121-.018.466-.043.932-.155,1.385-.166.717-.521,1.379-1.074,1.797-.265-.157-.524-.327-.799-.453.909-.732,1.111-1.607,1.156-2.793.012-.341.012-.681.009-1.025-.443.035-.883.051-1.323.035-.138-.005-.279-.018-.418-.024-.033-.302-.05-.601-.075-.901.313.044.635.074.949.086.28.011.552.012.831-.004.003-.473-.038-.94-.056-1.406-.013-.25-.033-.51-.067-.768.235.042.468.069.702.101.094.011.203.017.291.052.051.009.103.036.1.103-.002.057-.056.107-.1.122.001.563.03,1.131.032,1.696.442-.025.885-.168,1.311-.309.009.316-.018.642-.007.957-.415.118-.864.184-1.294.227Z"/><path class="cls-2" d="m62.396,16.188c-.148.043-.295.074-.45.107-.071-.13-.459-.734-.459-.734,0-.026.03-.033.043-.033.376-.067.728-.155,1.092-.314.53-.233,1.079-.647,1.088-1.385.008-.66-.346-1.025-.906-1.032-.856-.011-1.64.914-1.923,1.802-.241-.044-.49-.1-.733-.137-.053-.439-.076-.869-.071-1.305.012-.935.134-1.877.298-2.784l.85.259c.043.008.087.043.086.102,0,.069-.068.12-.111.137-.156.685-.269,1.386-.283,2.082.588-.672,1.304-1.03,2.133-1.021.873.012,1.645.706,1.632,1.779-.02,1.562-1.151,2.156-2.286,2.476Zm.422-5.528c-.455-.555-.972-1.023-1.539-1.408.193-.22.374-.449.566-.67.569.272,1.223.864,1.641,1.383-.23.228-.447.467-.669.695Z"/><path class="cls-2" d="m71.284,15.516c-.66,0-.955-.498-.955-1.228,0-.763.117-1.517.169-2.281.009-.112.009-.232.009-.344,0-.163-.023-.317-.198-.317-.425,0-1.445.986-1.688,1.399,0,1.088.013,2.205.058,3.295l-.903.101c0-.9.008-1.817.008-2.726-.324.549-.669,1.071-.998,1.603-.228-.24-.428-.515-.647-.773.61-.746,1.145-1.577,1.601-2.47v-.412c-.412.078-.808.189-1.221.258-.05-.291-.094-.584-.161-.866.456-.052.919-.086,1.359-.222,0-.592-.022-1.185-.046-1.767.2.007.767.042.935.102.052.018.095.043.095.121,0,.042-.022.086-.059.094-.021.42-.045.832-.051,1.244.131-.036.257-.096.389-.138.052.223.095.446.147.66-.131.163-.249.342-.374.524l.015.025c.558-.524,1.13-1.011,1.878-1.011.493,0,.764.462.764,1.003,0,.429-.037.858-.086,1.295-.054.455-.119.909-.127,1.373v.026c-.007.189.015.462.228.462.456,0,.756-.738.939-1.149.111.395.221.788.324,1.185-.331.574-.801.934-1.403.934Z"/><path class="cls-2" d="m76.819,16.287c-.61,0-1.593-.259-1.593-1.191,0-.66.586-.97,1.057-.97.432,0,.858.302,1.013.8.045.159.066.32.073.49.514-.16.941-.642.941-1.316,0-.916-.581-1.361-1.285-1.361-1.108,0-1.747,1.059-2.438,1.938-.226-.241-.453-.48-.682-.719,1.058-1.104,1.998-2.366,2.781-3.753-.584.143-1.173.258-1.76.382l-.162-1.048c.081.009.155.009.234.009.332,0,.653-.045.977-.089.447-.063.903-.134,1.345-.251.154-.034.307-.096.461-.15.17.239.339.471.507.711-.072.062-.153.125-.22.195-.169.178-.33.401-.477.595-.353.481-.681.979-1.02,1.468.22-.062.448-.078.676-.078,1.02,0,1.953.639,1.953,1.998,0,1.656-1.167,2.34-2.379,2.34Zm-.625-1.45c-.139,0-.227.063-.227.24,0,.329.419.373.609.373-.037-.257-.11-.613-.382-.613Z"/><path class="cls-2" d="m34.208,26.542c-.53-.377-1.068-.746-1.66-.994-.007.462-.049.856-.412,1.134-.261.194-.696.334-1.003.329-.729-.011-1.832-.26-1.815-1.348.011-.748.641-1.175,1.214-1.244.191-.031.39-.019.581-.017.176.004.344.023.512.05.004-.275-.014-.549-.024-.814-.242.012-.493.018-.741.014-.566-.008-1.359-.063-1.346-.946.004-.259.083-.497.188-.711l.787-.039c-.061.16-.168.41-.17.589-.004.275.304.279.464.282.266.004.537.015.793-.024-.022-.411-.023-.832-.025-1.243-.83.004-1.653.078-2.476.195-.048-.303-.08-.601-.112-.903.859-.055,1.719-.103,2.579-.124-.005-.266,0-.532.004-.807l.005-.368c.206.029.411.049.615.077.103.019.22.021.324.048.037.011.081.027.08.088-.001.068-.053.111-.097.127-.02.266-.024.523-.028.789.655-.026,1.308-.04,1.96-.05l-.004.876c-.654-.009-1.308-.02-1.953.005-.007.422.002.832.01,1.254.631-.061,1.257-.162,1.877-.367l-.051.978c-.603.093-1.199.17-1.803.213.004.352.012.712.03,1.064.757.252,1.519.58,2.201,1.054-.165.28-.333.561-.504.833Zm-2.559-1.248c-.21-.097-.431-.135-.651-.139-.264-.004-.774.1-.78.504-.006.404.477.523.742.527.411.006.686-.188.693-.702,0-.061-.005-.128-.004-.189Z"/><path class="cls-2" d="m40.746,26.24c-.602.505-1.372.72-2.091.822-.156-.273-.28-.566-.449-.832.822-.076,2.321-.344,2.321-1.613,0-.633-.485-.883-.961-.883-.435,0-.941.232-1.293.524-.324.266-.58.694-.764,1.098l-.814-.437c.536-.746.864-1.991.984-2.943-.287.018-.565.026-.852.026h-.594c-.021-.319-.059-.628-.067-.942.352.042.711.068,1.073.068.174,0,.351,0,.527-.011.059-.538.082-1.08.082-1.628.22.033.439.059.66.094.097.018.2.018.294.051.052.017.109.044.109.121,0,.076-.073.145-.133.171-.029.378-.051.755-.102,1.123.756-.059,1.505-.232,2.238-.446l-.014,1.004c-.786.145-1.571.265-2.363.317-.089.506-.185,1.028-.345,1.509.497-.335,1.028-.462,1.599-.462.918,0,1.637.6,1.637,1.73,0,.601-.263,1.184-.683,1.537Z"/><path class="cls-2" d="m48.227,25.569c-.738.731-1.877,1.032-2.808,1.185-.221-.283-.427-.575-.655-.833.568-.076,1.146-.196,1.694-.393.818-.301,1.602-.84,1.602-2.007,0-1.131-.585-1.509-1.445-1.509-.904,0-1.693.48-2.525.84-.307.137-.619.248-.946.334-.036-.121-.357-1.097-.357-1.122,0-.087.093-.061.136-.061.597,0,1.222-.258,1.801-.456.703-.239,1.407-.462,2.146-.462,1.174,0,2.143.858,2.143,2.351,0,.858-.221,1.587-.784,2.135Zm-.896-4.726c-.22-.368-.475-.721-.739-1.046l.554-.326c.263.326.512.661.712,1.036l-.527.335Zm1.003-.276c-.228-.393-.47-.78-.753-1.114l.568-.319c.264.343.512.695.704,1.09l-.519.342Z"/><path class="cls-2" d="m54.23,26.943c-.629-.918-1.358-1.709-2.151-2.427-.201-.193-.407-.384-.622-.543-.127-.1-.256-.184-.357-.316-.1-.134-.135-.285-.135-.45,0-.32.135-.503.328-.71.343-.368.701-.71,1.034-1.085.5-.568,1.008-1.135,1.494-1.736.207.176.414.342.62.518.079.058.171.125.237.2.019.025.035.042.035.075,0,.117-.157.134-.235.117-.471.452-.957.894-1.436,1.353-.199.191-.384.401-.585.592-.094.093-.2.175-.285.276-.079.082-.172.208-.172.333,0,.118.058.185.129.251.301.284.635.526.943.793.685.61,1.327,1.294,1.898,2.045-.248.233-.491.483-.74.717Z"/><path class="cls-2" d="m58.253,24.75c-.25-.018-.506-.045-.751-.07-.202-.534-.311-1.361-.291-1.944.032-.926.186-1.847.297-2.763.221.033.448.077.671.111.078.02.184.024.263.052.034.018.063.037.062.089-.003.058-.055.101-.092.126-.2.8-.335,1.619-.365,2.451-.005.171-.004.344.004.516,0,.015-.007.061.02.062.021,0,.038-.069.046-.076.103-.273.211-.534.321-.796l.414.617c-.252.515-.466,1.048-.6,1.627Zm2.902-4.423c-.007,1.004-.014,2.035-.049,3.047-.056,1.613-.401,3.114-1.71,3.856-.21-.189-.527-.336-.767-.466-.021-.008-.043-.009-.042-.045.001-.035.038-.058.062-.075.173-.096.343-.193.499-.326.842-.699,1.035-1.86,1.075-3.009.038-1.133-.001-2.286-.078-3.413.221.008.458.059.672.094.114.021.25.026.357.063.042.012.07.038.067.099-.002.069-.046.126-.085.176Z"/><path class="cls-2" d="m68.682,23.435c-.035,0-.069-.015-.104-.043-.497.181-1.455.585-1.91.808v1.323l-.816-.008c.008-.12.008-.25.008-.395v-.481c-.552.275-.829.626-.829,1.021,0,.345.317.525.945.525.683,0,1.305-.094,2.009-.344l-.029,1.006c-.607.215-1.276.248-1.731.248-1.353,0-2.028-.455-2.028-1.376,0-.445.193-.857.566-1.235.234-.233.585-.483,1.048-.739-.013-.386-.124-.585-.324-.585-.255,0-.49.103-.71.327-.138.137-.318.317-.532.585-.254.301-.414.508-.51.609-.124-.155-.317-.386-.573-.704.774-.645,1.353-1.427,1.739-2.328-.366.051-.773.086-1.216.111-.027-.327-.068-.628-.109-.893.647,0,1.179-.026,1.58-.087.082-.25.158-.645.234-1.186l.932.222c.055.019.082.052.082.105,0,.05-.035.095-.11.128-.036.146-.098.368-.185.662.316-.043.786-.171,1.288-.319l-.076.947c-.379.084-.891.171-1.524.264-.097.26-.256.576-.428.862.165-.052.303-.061.393-.061.421,0,.696.3.821.919.552-.309,1.18-.626,1.864-.953l.316.962c0,.07-.027.103-.082.103Z"/></svg>