<?xml version="1.0" encoding="UTF-8"?><svg id="_レイヤー_1" xmlns="http://www.w3.org/2000/svg" viewBox="0 0 100 100"><defs><style>.cls-1{fill:#c60f28;}.cls-1,.cls-2{stroke-width:0px;}.cls-2{fill:#fff;}</style></defs><rect class="cls-1" width="100" height="100"/><path class="cls-2" d="m13.385,23.246h-5.744v-2.872l4.967-11.676h4.073v11.794h1.907v2.754h-1.907v4.52h-3.296v-4.52Zm0-2.754v-8.098l-2.896,8.098h2.896Z"/><polygon class="cls-2" points="44.317 53.635 26.3 43.232 26.3 76.887 44.317 82.323 44.317 53.635"/><polygon class="cls-2" points="46.298 53.704 46.298 82.335 64.433 76.883 64.433 43.233 46.298 53.704"/><polygon class="cls-2" points="74.843 76.29 74.314 76.29 76.446 83.741 78.575 76.29 78.046 76.29 78.575 76.29 78.575 46.347 78.046 46.347 77.517 46.347 76.956 46.347 75.895 46.347 75.372 46.347 74.843 46.347 74.313 46.347 74.313 76.29 74.843 76.29"/><polygon class="cls-2" points="68.303 44.677 66.371 43.151 66.371 77.8 46.352 84.269 45.425 84.269 45.242 84.269 44.317 84.269 24.387 78.701 24.387 43.151 22.454 44.677 22.454 80.056 44.225 86.083 45.242 86.083 45.425 86.083 46.442 86.083 66.529 79.705 68.303 79.184 68.303 44.677"/><path class="cls-2" d="m78.576,42.38c0-1.178-.955-2.133-2.13-2.133s-2.133.954-2.133,2.133v2.298h4.263v-2.298Z"/><path class="cls-2" d="m28.412,10.455l.008.926h-.78v-.951h-.492c-.065.65-.365,1.19-.807,1.586l-.624-.437c.633-.513.646-1.002.646-1.834,0-.319-.013-.636-.027-.953l.673.051c.368-.051,1.167-.239,1.455-.387l.594.723c0,.069-.074.094-.119.094-.05,0-.101-.025-.146-.051-.536.102-1.079.163-1.622.214,0,.12,0,.232-.007.352h2.62v.669h-1.373Zm3.098.077v.849h-.844v-.893h-.579c-.095.464-.354.859-.692,1.107h2.107v3.354h-.866c.405.361,1.293.549,1.799.618l-.543.808c-.801-.225-1.593-.542-2.327-.986.162-.156.345-.276.5-.44h-1.933c.065.078.447.44.447.508,0,.059-.058.086-.102.086-.028,0-.058-.008-.089-.018-.683.361-1.402.679-2.143.825l-.469-.704c.63-.13,1.249-.232,1.774-.696h-.796v-3.354h2.413c-.147-.084-.285-.187-.425-.282.471-.335.603-.644.603-1.278,0-.421-.009-.85-.03-1.271l.676.052c.358-.034,1.079-.189,1.445-.378l.676.695c.029.033.08.076.08.128,0,.069-.096.077-.132.077-.067,0-.132-.018-.192-.052-.58.07-1.16.13-1.74.155,0,.128,0,.25-.006.378h2.333v.712h-.947Zm-.88,1.672h-3.1v.351h3.1v-.351Zm.006.893h-3.106v.335h3.106v-.335Zm0,.883h-3.106v.343h3.106v-.343Z"/><path class="cls-2" d="m37.224,15.807c-.228-.248-.432-.515-.659-.755,1.159-.326,2.23-.798,2.23-2.427,0-1.105-.572-2.11-1.533-2.333-.199,1.484-.588,3.844-1.74,4.717-.214.163-.426.275-.683.275-.301,0-.595-.24-.786-.497-.345-.464-.47-1.158-.47-1.759,0-2.101,1.491-3.586,3.238-3.586,1.615,0,2.929,1.123,2.929,3.122,0,1.87-1.072,2.849-2.526,3.242Zm-2.583-3.954c-.14.37-.205.773-.205,1.175,0,.352.066,1.261.477,1.261.148,0,.271-.163.36-.275.691-.824.984-2.581,1.057-3.706-.66.138-1.417.825-1.688,1.544Z"/><path class="cls-2" d="m41.169,10.036v-.782h2.567v-.84l.92.061c.052,0,.117.026.117.103,0,.068-.074.128-.125.146v.53h2.651v.782h-6.13Zm4.704,6.228l-.557-.696c.513-.102.954-.171.954-.916v-1.571h-4.037v2.986h-.836v-3.654h5.739v2.299c0,1.003-.449,1.424-1.263,1.553Zm-3.619-4.179v-1.759h3.95v1.759h-3.95Zm.471,3.277v-1.896h3.069v1.896h-3.069Zm2.652-4.409h-2.322v.534h2.322v-.534Zm-.368,3.123h-1.512v.643h1.512v-.643Z"/><path class="cls-2" d="m50.254,15.817c-.213.006-.414-.09-.572-.25-.634-.653-.836-1.883-.861-2.826-.021-.789.037-1.58.148-2.356.036-.301.073-.593.122-.887.232.063.846.261,1.04.384.03.017.052.049.053.093.003.094-.084.149-.15.168-.147.441-.245,1.25-.283,1.732-.035.362-.026.721-.015,1.091.01.376.067.788.179,1.146.049.159.161.553.345.548.352-.009.792-1.146.944-1.494l.462,1.095c-.219.573-.831,1.542-1.412,1.557Zm3.583-1.392c-.162-1.377-.5-2.51-1.244-3.623.305-.145.586-.315.891-.453.658.942,1.124,2.441,1.295,3.63-.311.163-.623.307-.942.446Z"/><path class="cls-2" d="m60.04,9.478c-.263.556-.552,1.114-.894,1.613h.475v.694h-.94c-.109.137-.212.275-.329.411h1.013v.592c-.248.301-.508.585-.793.841v.214c.403-.068.814-.137,1.218-.232l-.066.79c-.367.103-.741.162-1.108.239v.506c0,.817-.397,1.175-1.035,1.339l-.543-.626c.632-.181.762-.301.762-1.082-.33.077-.668.146-.998.223-.007.051-.052.145-.103.145-.045,0-.067-.033-.08-.077l-.337-.874c.497-.061.997-.149,1.489-.241,0-.273-.015-.557-.015-.833l.449.027c.102-.113.196-.24.278-.386h-.676c-.396.395-.83.73-1.3.986l-.506-.584c.631-.352,1.225-.798,1.717-1.389h-1.534v-.713h1.233v-.737h-.946v-.788h.94v-1.065l.873.078c.044,0,.088.025.088.084,0,.07-.06.13-.109.156v.755h1.06l-.503.496c.184-.42.352-.839.484-1.286l.802.49c.042.025.086.068.086.138,0,.094-.102.102-.153.094Zm-1.792.832v.763c.162-.239.317-.498.456-.763h-.456Zm4.272,5.987c-.425-.308-.961-.959-1.27-1.432-.483.636-1.151,1.184-1.812,1.526l-.536-.668c.713-.283,1.445-.849,1.856-1.595-.257-.541-.432-1.116-.571-1.708-.089.164-.186.326-.295.472l-.506-.548c.639-.996,1.042-2.642,1.161-3.87l.931.292c.052.015.096.086.096.144,0,.078-.109.147-.162.165-.102.403-.212.813-.336,1.209h1.843v.764h-.404c-.081,1.011-.288,2.22-.757,3.096.368.6.874,1.064,1.402,1.45l-.639.702Zm-1.716-5.249l-.075.189c.09.702.273,1.38.509,2.031.233-.704.365-1.465.41-2.22h-.844Z"/><path class="cls-2" d="m68.708,10.077c.448.524.924,1.014,1.35,1.561l-.66.603c-.191-.266-.374-.523-.597-.755-1.512.138-3.03.179-4.551.273l-.176-.831h.757c.102,0,.204-.044.285-.12.221-.197.397-.481.573-.731h-1.858v-.738h2.688v-.882l1.033.068c.052,0,.089.061.089.121,0,.076-.102.146-.153.171v.522h2.709v.738h-1.491Zm-.58,6.212l-.53-.636c.492-.086.794-.179.794-.84h-2.812v1.407h-.828v-4.171h4.5v2.934c0,.857-.426,1.236-1.123,1.305Zm-2.555-3.587v.386h2.819l.008-.386h-2.827Zm2.827,1.021h-2.827v.421h2.827v-.421Zm-1.455-3.646c-.309.292-.601.618-.932.884.742-.025,1.49-.077,2.231-.12-.132-.12-.257-.257-.38-.386.212-.119.425-.24.631-.378h-1.55Z"/><path class="cls-2" d="m77.201,12.764c-.035,0-.072-.018-.108-.043-.531.178-1.55.584-2.034.805v1.322l-.866-.008c.008-.119.008-.248.008-.393v-.48c-.588.273-.882.625-.882,1.02,0,.344.338.523,1.006.523.726,0,1.388-.094,2.137-.342l-.029,1.003c-.647.213-1.36.248-1.843.248-1.439,0-2.16-.453-2.16-1.373,0-.446.207-.856.603-1.235.25-.231.624-.48,1.116-.737-.014-.386-.133-.584-.345-.584-.272,0-.521.102-.755.327-.149.137-.338.316-.566.581-.272.302-.441.508-.543.611-.133-.156-.338-.386-.611-.704.824-.644,1.441-1.424,1.852-2.325-.389.051-.824.087-1.292.112-.029-.326-.074-.626-.118-.891.689,0,1.256-.026,1.681-.087.088-.25.169-.644.25-1.185l.991.225c.059.015.089.051.089.102s-.036.094-.118.128c-.037.146-.102.37-.197.66.336-.043.836-.17,1.372-.316l-.081.942c-.403.087-.947.172-1.621.267-.104.257-.273.574-.457.857.176-.051.323-.059.418-.059.448,0,.743.301.874.918.587-.309,1.256-.626,1.982-.952l.338.96c0,.069-.029.103-.089.103Z"/><path class="cls-2" d="m32.085,25.697c-.324-.257-.654-.525-.998-.738-.286.793-.867,1.78-1.512,2.171l-.763-.508c.697-.41,1.211-1.2,1.496-2.064-.441-.231-.903-.418-1.372-.517-.103.303-.221.605-.354.891-.316.711-.712,1.432-1.46,1.432-.616,0-1.049-.595-1.049-1.336,0-.944.647-1.612,1.357-1.808.294-.08.601-.087.895-.08.206-.534.433-1.521.537-2.108l-1.564.275-.169-1.023h.082c.514,0,2.041-.125,2.473-.322.111.145.235.278.361.412-.155.542-.324,1.076-.486,1.618-.125.411-.242.821-.382,1.222.47.089.933.231,1.374.447.155-.572.22-1.186.242-1.783.294.203.586.401.866.623-.059.527-.133,1.049-.272,1.55.373.195.757.391,1.115.65-.131.328-.272.668-.418.996Zm-5.182-.712c0,.223.08.42.277.42.133,0,.222-.053.309-.16.235-.267.477-.942.594-1.31-.513.046-1.181.303-1.181,1.051Z"/><path class="cls-2" d="m37.538,27.023c-.976,0-.903-1.041-.903-1.852v-.801c0-.238.007-.525-.265-.525-.067,0-.132.017-.197.035-1.102.32-1.52,2.026-1.867,3.1-.292-.159-.578-.32-.865-.481.301-.836.638-1.646.984-2.466.387-.913.769-1.835,1.166-2.748.221-.506.425-1.022.661-1.521.272.127.675.314.926.475.028.014.05.042.05.084,0,.067-.065.108-.123.108-.493.853-.932,1.759-1.381,2.636-.043.086-.087.162-.133.238.301-.168.639-.321.977-.321.711,0,.934.548.934,1.284,0,.44-.009.87-.009,1.31,0,.221.03.525.279.525.324,0,.691-.304.926-.542.299-.311.536-.718.748-1.115.117.406.234.803.339,1.209-.492.819-1.374,1.369-2.246,1.369Z"/><path class="cls-2" d="m44.371,21.442c-.36.102-.711.189-1.072.257-.381,1.322-.911,2.883-1.601,4.023-.272-.137-.545-.3-.808-.462.625-1.047,1.138-2.239,1.469-3.457-.36.061-.727.086-1.095.093-.037-.298-.081-.599-.118-.908.133.018.265.018.404.018.338,0,.682-.018,1.022-.07.109-.479.168-.985.198-1.482.345.051.683.094,1.021.171-.088.395-.175.799-.294,1.192.301-.068.589-.188.882-.294,0,.303-.009.611-.009.92Zm2.052,5.246c-.304-.316-.614-.642-.975-.883.005.095,0,.189-.002.282-.033.885-.606,1.124-1.269,1.124-.235,0-.468-.032-.695-.111-.441-.172-.887-.618-.864-1.218.032-.865.65-1.303,1.34-1.303.198,0,.404.015.601.05-.007-.403-.021-.806-.007-1.21.008-.204.036-.385.11-.582h.661c.044,0,.258-.035.254.069,0,.017,0,.025-.008.035-.094.153-.145.342-.152.523-.017.454-.004.9.016,1.355.529.214,1.131.61,1.556,1.021-.179.292-.365.584-.567.849Zm-1.827-1.235c-.159-.075-.343-.094-.527-.094-.279,0-.629.086-.643.488-.015.396.405.575.693.575.271,0,.472-.061.485-.429.007-.18-.001-.36-.008-.541Zm1.962-2.869c-.514-.472-1.154-.806-1.786-.986l.425-.857c.632.188,1.315.496,1.83.986l-.469.857Z"/><path class="cls-2" d="m49.977,26.951c-.268.026-.534.062-.809.095-.333-1.052-.385-2.192-.385-3.306,0-1.247.163-2.501.385-3.721l.645.149c.096.027.223.036.319.081.045.015.083.043.083.113,0,.069-.067.113-.119.113-.297,1.222-.431,2.598-.431,3.862,0,.316.015.624.015.94.133-.396.259-.799.4-1.194.186.168.372.342.556.51-.326.78-.562,1.481-.658,2.36Zm4.799-.251c-.409.089-.943.088-1.355.075-1.06-.032-2.048-.202-2.177-1.796.25-.184.5-.379.757-.556.002.905.43,1.312,1.122,1.334.545.017,1.147-.017,1.671-.198-.006.38-.011.756-.017,1.142Zm-.185-4.868c-.572-.12-1.136-.153-1.719-.103-.399.032-.795.111-1.189.203-.031-.314-.052-.702-.091-1.016.554-.152,1.117-.151,1.683-.2.467-.038.933.004,1.4.069-.027.347-.048.7-.084,1.047Z"/></svg>