<?xml version="1.0" encoding="UTF-8"?><svg id="_レイヤー_1" xmlns="http://www.w3.org/2000/svg" viewBox="0 0 100 100"><defs><style>.cls-1{fill:#f9c00b;}.cls-1,.cls-2{stroke-width:0px;}.cls-2{fill:#fff;}</style></defs><rect class="cls-1" width="100" height="100"/><path class="cls-2" d="m13.385,11.476h-5.179v-2.778h8.734v2.378l-4.025,16.69h-3.531l4.002-16.29Z"/><path class="cls-2" d="m50.037,48.72c-8.131,0-14.722,6.592-14.722,14.723s6.591,14.725,14.722,14.725,14.722-6.59,14.722-14.725-6.591-14.723-14.722-14.723m-1.09,5.817c0-.49.492-1.03,1.096-1.03s1.091.54,1.091,1.03v5.055c0,.488-.488,1.022-1.091,1.022s-1.096-.534-1.096-1.022v-5.055Zm1.093,16.452c-4.229,0-7.658-3.428-7.658-7.658,0-3.438,2.263-6.345,5.382-7.315v2.851c-1.624.829-2.737,2.514-2.737,4.463,0,2.769,2.244,5.013,5.013,5.013s5.013-2.244,5.013-5.013c0-1.955-1.119-3.643-2.75-4.47v-2.848c3.125.965,5.396,3.875,5.396,7.318,0,4.23-3.429,7.658-7.659,7.658"/><path class="cls-2" d="m33.135,63.314c0-.668-.591-1.208-1.131-1.208h-6.448c-.544,0-1.141.541-1.141,1.208s.597,1.213,1.141,1.213h6.448c.54,0,1.131-.544,1.131-1.213"/><path class="cls-2" d="m75.664,63.314c0-.668-.591-1.208-1.132-1.208h-6.448c-.543,0-1.14.541-1.14,1.208s.597,1.213,1.14,1.213h6.448c.54,0,1.132-.544,1.132-1.213"/><path class="cls-2" d="m50.043,88.94c.666,0,1.208-.591,1.208-1.131v-6.447c0-.543-.541-1.141-1.208-1.141s-1.214.597-1.214,1.141v6.447c0,.54.545,1.131,1.214,1.131"/><path class="cls-2" d="m72.28,76.042c.331-.579.087-1.342-.382-1.611l-5.596-3.202c-.472-.27-1.259-.097-1.59.483-.332.58-.085,1.349.387,1.619l5.596,3.202c.469.268,1.251.09,1.584-.491"/><path class="cls-2" d="m37.315,85.557c.579.331,1.342.087,1.61-.382l3.202-5.595c.27-.472.097-1.259-.482-1.591-.58-.332-1.35-.084-1.619.387l-3.202,5.596c-.268.468-.09,1.253.491,1.585"/><path class="cls-2" d="m62.815,85.528c.579-.333.753-1.115.484-1.583l-3.214-5.59c-.272-.471-1.038-.719-1.617-.386-.58.333-.754,1.122-.482,1.594l3.213,5.589c.269.468,1.035.709,1.615.376"/><path class="cls-2" d="m27.829,76.092c.332.578,1.114.752,1.583.483l5.589-3.214c.472-.271.721-1.037.386-1.616-.332-.58-1.122-.754-1.592-.483l-5.589,3.214c-.468.269-.71,1.036-.376,1.616"/><path class="cls-2" d="m50.043,46.412c.666,0,1.208-.591,1.208-1.131v-6.448c0-.544-.541-1.14-1.208-1.14s-1.214.596-1.214,1.14v6.448c0,.539.545,1.131,1.214,1.131"/><path class="cls-2" d="m35.369,54.918c.332-.58.088-1.342-.382-1.611l-5.596-3.202c-.472-.271-1.258-.098-1.59.482-.332.581-.084,1.349.388,1.62l5.596,3.202c.468.268,1.252.09,1.584-.491"/><path class="cls-2" d="m58.439,48.646c.579.331,1.341.087,1.61-.382l3.202-5.596c.271-.473.097-1.259-.482-1.591-.58-.333-1.35-.084-1.62.388l-3.202,5.595c-.268.469-.09,1.253.491,1.585"/><path class="cls-2" d="m41.615,48.661c.578-.333.753-1.115.483-1.583l-3.214-5.59c-.272-.471-1.037-.718-1.616-.385-.581.333-.754,1.122-.482,1.593l3.213,5.589c.27.468,1.035.71,1.616.377"/><path class="cls-2" d="m64.696,54.892c.332.578,1.114.752,1.583.483l5.589-3.214c.472-.271.721-1.038.388-1.616-.334-.58-1.122-.754-1.594-.483l-5.589,3.214c-.468.269-.71,1.036-.376,1.616"/><path class="cls-2" d="m24.733,16.38v-.992h2.155v-3.746h-1.795v-.993h4.495v.993h-1.8v3.746h2.188v.992h-5.243Z"/><path class="cls-2" d="m34.091,13.487v1.038c0,.787.006,1.577.006,2.358h-.854c0-.858,0-1.714.007-2.568-.453.465-1.169.941-1.707,1.179-.19-.314-.399-.6-.621-.875,1.065-.343,2.583-1.504,3.102-2.9-.774.008-1.551.096-2.326.142-.015-.371-.028-.733-.048-1.104.997,0,2.003-.007,3.001-.058.149,0,.289-.028.438-.066l.251.494c-.399.809-.756,1.647-1.249,2.359Zm-.303-3.004c-.419-.409-.876-.724-1.343-1.019.15-.285.291-.558.439-.844.499.273.978.627,1.438,1.036-.171.286-.345.56-.534.827Zm2.024,4.915c-.412-.666-.918-1.178-1.43-1.673l.493-.759c.539.368,1.099.979,1.523,1.577l-.586.856Z"/><path class="cls-2" d="m39.034,10.7c-.041,1.982.174,3.821-.79,5.467-.182.316-.412.597-.653.809-.217-.194-.54-.493-.703-.645,1.06-.934,1.276-2.126,1.276-3.813,0-.711-.015-1.461-.028-2.176l.898.116c.04.011.074.029.074.098,0,.056-.041.114-.074.144Zm2.497,5.337c-.358.279-.748.491-1.126.721-.182-.165-.371-.308-.532-.501.04-.153.067-.308.067-.471v-1.185c0-1.482-.02-2.993-.042-4.475l.939.153c.039.01.073.048.073.115,0,.077-.06.136-.101.164-.012.413-.007.818-.007,1.231,0,1.165-.013,2.359-.033,3.523.534-.317,1.134-.884,1.558-1.433.141-.173.27-.377.404-.568.015-.019.028-.049.048-.049.034,0,.034.096.034.116.028.404.074.788.129,1.183-.418.579-.899,1.068-1.411,1.474Z"/><path class="cls-2" d="m47.213,14.525c.043.873.08,1.735.136,2.609-.29.029-.58.04-.87.08-.03-.882-.074-1.754-.097-2.634-.762.026-1.517.054-2.275.108-.007-.326-.013-.654-.021-.981.174.013.344.017.521.022.579.014,1.153-.038,1.727-.052-.023-.509-.04-1.007-.072-1.515-.519.005-1.033.037-1.553.062-.007-.326-.034-.664-.048-.992.506.012,1.019.007,1.533-.017-.029-.545-.066-1.082-.109-1.628l.922.112c.053.01.113.058.111.14-.001.081-.057.145-.113.169.007.399.021.791.024,1.19.547-.014,1.088-.055,1.628-.125-.007.347,0,.681-.006,1.017-.526-.002-1.052.002-1.573.017.024.499.04.999.07,1.501.724-.029,1.452-.075,2.176-.148.007.337-.007.672.001,1-.702-.009-1.412.039-2.114.067Zm.995-3.813c-.115-.525-.28-1.025-.447-1.524l.642-.27c.163.466.289.962.402,1.452l-.597.342Zm1.051-.229c-.127-.536-.264-1.066-.44-1.565l.617-.245c.173.49.308.935.414,1.449l-.592.362Z"/><path class="cls-2" d="m55.804,14.016c-.411-.026-.735-.026-1.068-.026-.382-.01-3.012,0-3.93.036-.015-.353-.035-.802-.041-1.066-.009-.132.05-.14.094-.132.122.037.352.052.418.062.44.026.908.019,1.414.019,1.047,0,1.98-.028,3.15-.044-.023.352-.029.799-.038,1.152Z"/><path class="cls-2" d="m62.243,13.325c-.03,0-.062-.017-.093-.044-.449.184-1.313.6-1.725.829v1.36l-.734-.008c.006-.125.006-.256.006-.407v-.494c-.5.284-.747.645-.747,1.049,0,.354.286.537.854.537.615,0,1.175-.096,1.811-.352l-.026,1.033c-.547.221-1.151.258-1.562.258-1.22,0-1.829-.469-1.829-1.414,0-.459.173-.882.51-1.271.212-.238.529-.494.947-.757-.013-.399-.113-.601-.292-.601-.232,0-.443.107-.642.336-.125.141-.286.326-.481.6-.229.309-.373.521-.459.628-.113-.16-.286-.398-.517-.724.696-.662,1.219-1.464,1.567-2.39-.329.051-.697.087-1.095.113-.025-.336-.062-.645-.099-.918.584,0,1.063-.026,1.426-.089.073-.254.142-.661.211-1.217l.841.23c.048.017.075.054.075.105,0,.054-.032.097-.1.131-.031.153-.089.381-.168.682.286-.045.708-.177,1.165-.327l-.07.969c-.342.09-.803.178-1.375.275-.088.266-.23.591-.386.882.15-.052.275-.059.355-.059.379,0,.628.307.741.943.497-.316,1.064-.644,1.681-.979l.286.988c0,.071-.024.106-.075.106Z"/><path class="cls-2" d="m68.584,15.674c-.275-.277-.554-.562-.847-.794-.27.821-.798,1.84-1.371,2.239l-.648-.548c.615-.413,1.082-1.233,1.353-2.128-.377-.25-.767-.456-1.186-.568-.101.311-.201.626-.324.923-.291.736-.691,1.481-1.363,1.464-.554-.014-.926-.65-.907-1.42.024-.987.621-1.669,1.263-1.858.267-.078.543-.08.807-.064.157-.622.399-1.496.557-2.157l-1.387.099-.098-.969.071.007c.464.05,1.866.039,2.268-.111.072.159.161.314.247.468-.211.542-.377.926-.533,1.489-.12.425-.227.852-.363,1.267.419.105.804.263,1.18.494.148-.59.223-1.233.257-1.855.25.221.499.434.734.672-.063.548-.14,1.095-.274,1.613.319.213.647.429.953.704-.125.342-.253.693-.39,1.034Zm-4.55-.862c-.006.234.062.44.242.445.118.004.198-.05.28-.159.219-.275.452-.976.568-1.354-.461.033-1.069.289-1.089,1.068Z"/><path class="cls-2" d="m73.493,16.876c-.888.004-.821-1.046-.822-1.866v-.814c0-.239.005-.53-.243-.528-.059,0-.118.017-.178.034-1.001.329-1.381,2.056-1.694,3.144-.266-.162-.528-.323-.788-.484.273-.846.58-1.669.894-2.5.352-.925.699-1.856,1.059-2.781.198-.515.385-1.038.6-1.542.245.127.613.313.84.474.026.018.046.043.046.085,0,.07-.059.112-.113.113-.445.866-.845,1.78-1.252,2.672-.04.086-.079.164-.119.241.273-.174.579-.328.886-.33.648-.003.849.553.849,1.295,0,.446-.007.882-.006,1.326,0,.222.028.527.254.527.293,0,.536-.225.749-.464.275-.317.395-.642.588-1.045.107.408.214.811.308,1.221-.447.831-1.064,1.218-1.859,1.221Z"/><path class="cls-2" d="m79.261,11.429c-.328.06-.603.105-.926.133-.349,1.18-.807,2.707-1.463,3.792-.235-.144-.468-.311-.695-.48.595-.997,1.036-2.227,1.365-3.315-.322.018-.736.005-1.058-.026.004-.294.002-.59.007-.892.114.031.229.045.352.061.297.036.601.056.904.042.119-.497.159-.861.204-1.345.355,0,.674.031.926.049-.039.295-.196.935-.305,1.279.272-.033.539-.118.808-.188-.036.291-.08.589-.118.889Zm1.917,5.229c-.264-.342-.536-.695-.854-.965-.002.097-.009.193-.016.286-.067.894-.603,1.097-1.209,1.051-.213-.017-.428-.068-.631-.166-.398-.206-.787-.688-.741-1.295.066-.877.65-1.277,1.283-1.227.182.014.37.047.549.094.01-.41-.047-.812-.029-1.218.01-.209.037-.392.109-.588.202.009.403.018.607.028.04.002.238-.026.233.078,0,.019-.001.028-.009.035-.089.152-.136.343-.145.525-.022.461.026.933.026,1.397.475.256,1.01.698,1.383,1.146-.174.283-.359.565-.556.82Zm-1.623-1.383c-.141-.089-.307-.12-.476-.133-.256-.02-.579.042-.61.45-.03.399.346.613.609.632.251.021.436-.027.464-.399.013-.183.015-.365.013-.55Zm1.859-2.98c-.454-.459-1.019-.616-1.577-.789l.377-.836c.557.185,1.161.311,1.615.79l-.415.836Z"/><path class="cls-2" d="m34.765,27.52c-.498.404-1.09.584-1.669.584-.894,0-1.455-.695-1.505-1.916-.012-.164-.006-.327-.006-.49,0-.464.006-.928.018-1.4.02-1.109.032-2.228.045-3.337.195.035.396.079.593.13.081.015.169.025.246.061.049.026.111.059.111.136,0,.069-.05.121-.094.146-.075,1.497-.131,3.009-.131,4.505,0,.764.252,1.229.838,1.229.27,0,.548-.093.799-.249.579-.334.98-1.058,1.265-1.796l.46,1.117c-.228.472-.612.988-.969,1.28Z"/><path class="cls-2" d="m41.035,22.209c-.024-.001-.052-.011-.076-.012-.278-.011-.573.02-.851.144-.794.355-1.403,1.474-1.447,2.677-.064,1.778,1.076,2.033,2.04,2.073-.059.333-.12.675-.198,1.007-.042-.001-.087-.004-.128-.005-.426-.018-.925-.143-1.313-.365-.737-.417-1.302-1.608-1.26-2.785.037-1.038.302-1.827.819-2.593-.724.061-1.451.149-2.168.272,0-.343-.013-.685-.008-1.022,1.245-.04,2.483-.108,3.724-.317.294-.055.58-.116.866-.207.014.133.089.985.087,1.053-.002.07-.045.084-.086.083Z"/><path class="cls-2" d="m47.45,22.876c-.102.344-.19.698-.305,1.03-.424,1.211-.864,2.137-1.612,3.005-.533.61-1.14,1.105-1.787,1.431-.223-.278-.458-.554-.694-.812.358-.182.715-.364,1.046-.619.404-.334.809-.687,1.139-1.155.559-.789.958-1.688,1.221-2.746l-1.498.029c-.398.782-.884,1.534-1.437,2.117-.202-.236-.404-.485-.62-.706.932-.954,1.591-2.327,1.977-3.845l.843.393c.04.018.081.067.081.133,0,.086-.075.124-.122.124-.095.257-.175.524-.289.763.539,0,1.077-.009,1.617-.009.109,0,.23-.01.345-.046.079.16.168.304.243.468-.047.15-.102.303-.147.446Z"/><path class="cls-2" d="m50.378,21.63v.36c0,1.149,0,2.308.006,3.457h-.91c.007-.214.015-.43.015-.635v-1.269c0-.755-.008-1.509-.035-2.256l.964.102c.034,0,.067.033.067.078,0,.076-.059.128-.106.162Zm2.692.011c0,.522.014,1.036.014,1.559,0,1.511-.028,2.969-.823,4.194-.245.37-.534.688-.892.919-.236-.196-.492-.429-.748-.592.289-.214.628-.498.85-.824.668-.952.708-2.093.708-3.303,0-.789-.04-1.578-.081-2.358l.958.111c.054.009.115.044.115.12,0,.077-.053.138-.101.173Z"/><path class="cls-2" d="m59.641,25.019c-.408-.026-.731-.026-1.06-.026-.381-.007-2.923,0-3.835.036-.014-.343-.037-.78-.043-1.039-.007-.128.052-.138.095-.128.121.034.351.051.414.061.438.025,1.291.017,1.792.017,1.041,0,1.512-.026,2.671-.043-.021.342-.027.782-.034,1.123Z"/><path class="cls-2" d="m62.583,27.324c-.358.213-.721.386-1.106.497-.038-.111-.432-1.149-.432-1.149,0-.037.031-.037.049-.037.088,0,.182-.019.27-.046.697-.183,1.375-.598,2.003-1.085.847-.655,1.638-1.483,2.34-2.44.052.452.113.902.171,1.355-.974,1.278-2.084,2.198-3.296,2.906Zm-.145-3.717c-.376-.636-.784-1.215-1.255-1.714.246-.257.477-.532.716-.8.453.479.854,1.049,1.211,1.684-.2.313-.432.569-.672.83Z"/><path class="cls-2" d="m68.731,27.961c-.242.027-.482.062-.731.097-.301-1.071-.348-2.234-.348-3.371,0-1.271.147-2.55.348-3.794l.583.15c.088.029.201.037.288.082.041.017.075.045.075.116,0,.07-.06.115-.107.115-.269,1.244-.389,2.648-.389,3.936,0,.322.013.636.013.959.12-.404.235-.815.362-1.219.167.172.336.349.502.519-.294.796-.508,1.511-.595,2.408Zm4.26-.42c-.37.09-.852.089-1.224.075-.958-.033-1.851-.206-1.968-1.83.226-.189.452-.389.684-.569.002.922.39,1.338,1.014,1.36.493.017,1.035-.017,1.509-.202-.004.387-.01.772-.015,1.166Zm-.244-4.795c-.517-.122-1.026-.157-1.553-.108-.36.034-.717.112-1.073.209-.028-.321-.047-.718-.082-1.037.5-.155,1.008-.153,1.519-.203.423-.04.843.003,1.265.07-.024.352-.043.713-.076,1.068Z"/><path class="cls-2" d="m84.208,16.789c-.236.027-.469.062-.712.096-.292-1.069-.338-2.227-.338-3.361,0-1.268.143-2.543.338-3.783l.567.15c.085.028.196.037.28.081.04.017.073.045.073.116,0,.07-.059.115-.105.115-.261,1.241-.379,2.641-.379,3.925,0,.321.013.634.013.957.117-.403.229-.812.352-1.215.162.171.327.348.488.518-.286.794-.494,1.507-.579,2.401Zm4.216-.521c-.36.089-.829.088-1.192.074-.932-.033-1.801-.204-1.915-1.824.22-.188.44-.388.666-.567.002.92.379,1.334.986,1.356.48.017,1.008-.018,1.469-.202-.004.386-.01.77-.014,1.163Zm-.238-4.782c-.503-.121-.999-.156-1.512-.107-.35.033-.698.112-1.044.209-.028-.32-.046-.716-.08-1.035.487-.153.981-.152,1.478-.202.411-.04.82.004,1.231.07-.023.352-.041.711-.074,1.065Z"/><path class="cls-2" d="m27.725,24.46c-.398.298-.669,1.11-.553,1.789.136.808,1.041.897,1.515.888.15-.002.308-.016.465-.034-.067.314-.146.622-.212.93l-.138.002c-.925.02-2.253-.131-2.402-1.67-.091-.944.143-1.688.502-2.138-.772.137-1.543.342-2.288.624-.049-.313-.119-.62-.182-.926.398-.105.831-.14,1.21-.339.391-.206,1.241-1.329,1.556-1.756-.461.051-.925.085-1.38.069-.004-.29-.011-.582-.034-.868.684.044,1.398.08,2.08-.057.183-.036.351-.124.518-.212.138.257.275.525.398.789-.676.534-1.346,1.315-1.955,1.977.97-.156,1.946-.272,2.916-.362-.005.332.002.666-.009.997-.575-.056-1.49-.084-2.008.298Z"/></svg>