<?xml version="1.0" encoding="UTF-8"?><svg id="_レイヤー_1" xmlns="http://www.w3.org/2000/svg" xmlns:xlink="http://www.w3.org/1999/xlink" viewBox="0 0 403.94 102.05"><defs><clipPath id="clippath"><path d="M45.8,80.78c8.09.57,15.57,2.47,22.93,4.92-1.97,1.93-3.82,3.84-5.52,5.74,8.26,3.04,16.37,7.02,24.9,10.6,3.24-1.78,6.7-3.62,10.38-5.57-10.34-3.3-20.01-7.52-29.75-10.77,1.96-1.93,4.05-3.89,6.27-5.86-8.29-2.49-16.62-4.52-25.59-5.09-1.31,2.03-2.52,4.03-3.61,6.03M75,79.84c11.33,3.43,22.72,7.75,35.04,10.41,4.02-2.22,8.25-4.58,12.68-7.12-14.47-1.53-27.72-5.75-40.75-9.29-2.45,2.03-4.77,4.03-6.97,6.01M32.67,69.79c-1.2,2.07-2.28,4.11-3.23,6.12,7.21-1.26,13.78-1.54,19.97-1.16,1.31-2.03,2.73-4.07,4.26-6.13-1.77-.1-3.56-.16-5.39-.16-4.93,0-10.1.4-15.61,1.32M15.13,68.8c-1.2,2.12-2.26,4.22-3.19,6.27,7.55-2.54,14.4-4.24,20.73-5.28,1.2-2.06,2.52-4.15,3.94-6.26-6.58,1.03-13.67,2.72-21.49,5.27M53.67,68.62c9.84.59,19.04,2.73,28.3,5.21,2.42-2.03,4.96-4.09,7.62-6.19-10.28-2.4-20.36-4.63-31.07-5.25-1.72,2.09-3.34,4.16-4.86,6.22M3.59,67.79C2.25,69.98,1.05,72.14,0,74.26c5.36-2.15,10.39-3.95,15.13-5.46,1.2-2.12,2.53-4.27,3.98-6.45-4.87,1.5-10.02,3.3-15.52,5.44M89.59,67.65c14.84,3.53,30.09,7.4,46.83,7.15,4.69-3.03,9.55-6.3,14.58-9.88-19.05,2.83-36.43-.33-53.18-3.69-2.86,2.18-5.6,4.32-8.24,6.42M41.21,57.15c-1.64,2.14-3.17,4.27-4.6,6.38,7.85-1.25,15.05-1.51,21.91-1.13,1.71-2.09,3.51-4.2,5.4-6.32-2.03-.11-4.09-.17-6.18-.17-5.27,0-10.74.37-16.54,1.24M23.82,55.76c-1.68,2.22-3.25,4.42-4.7,6.59,8.02-2.53,15.32-4.19,22.1-5.2,1.63-2.14,3.36-4.3,5.18-6.48-6.95.97-14.4,2.6-22.58,5.09M63.93,56.08c11.57.64,22.57,2.94,33.91,5.15,2.83-2.19,5.77-4.42,8.81-6.71-12.45-1.9-24.38-4.21-36.82-4.86-2.05,2.16-4.02,4.3-5.9,6.43M52.11,44.09c-1.99,2.21-3.9,4.4-5.72,6.58,8.31-1.18,16.01-1.38,23.44-1.02,2.04-2.16,4.16-4.34,6.36-6.54-2.24-.1-4.49-.15-6.77-.15-5.56,0-11.29.32-17.3,1.13M115.99,47.44c-3.22,2.42-6.33,4.78-9.35,7.08,18.75,2.98,38.34,4.97,59.62-1.48,5.11-4.37,10.33-9.13,15.64-14.37-23.26,11.32-45.08,11.08-65.91,8.76M76.18,43.12c13.31.64,26.21,2.9,39.81,4.32,3.18-2.44,6.45-4.95,9.83-7.54-14.78-.74-28.68-2.85-42.86-3.44-2.33,2.24-4.59,4.46-6.77,6.66M136.08,31.8c-3.51,2.8-6.93,5.49-10.26,8.1,22.95,1.31,46.96-.94,71.71-18.68,5.05-6.44,10.09-13.48,15.08-21.22-25.45,26.02-51.45,31.66-76.52,31.8" style="fill:none;"/></clipPath><linearGradient id="_名称未設定グラデーション_3" x1="-228.26" y1="339.04" x2="-227.26" y2="339.04" gradientTransform="translate(48527.96 72129.39) scale(212.6 -212.6)" gradientUnits="userSpaceOnUse"><stop offset="0" stop-color="#cae2ad"/><stop offset=".05" stop-color="#cae2ad"/><stop offset=".95" stop-color="#00ab9f"/><stop offset="1" stop-color="#00ab9f"/></linearGradient></defs><g style="clip-path:url(#clippath);"><rect width="212.6" height="102.05" style="fill:url(#_名称未設定グラデーション_3);"/></g><path d="M217.27,50.62c0,.46,0,1.53-1.17,1.53s-1.15-1.05-1.15-1.53v-10.71c-.75.96-1.26,1.56-1.39,1.69-.14.14-.25.21-.43.21-.27,0-.53-.23-.53-.5,0-.16.05-.21.25-.57,1.51-2.61,2.7-5.38,3.2-8.33.11-.66.25-1.46,1.33-1.46.66,0,1.46.46,1.46,1.21,0,.82-1.35,3.57-1.58,4.03v14.44ZM233.54,50.65c.23,0,.64.07.64.52,0,.48-.43.53-.64.53h-5.95c-3.69,0-5.22-.57-6.64-1.99-.91,1.15-2.13,2.22-2.47,2.22-.32,0-.53-.25-.53-.5,0-.23.04-.3.36-.6.98-.96,1.49-1.9,1.7-2.29-1.76-2.74-1.92-5.72-1.92-5.79,0-.69.52-1.05,1.19-1.05.76,0,.89.6.94,1.05.07.98.19,2.06.64,3.5.36-1.62.52-3.34.52-5.01,0-.5-.28-.55-.55-.55h-.98c-1.35,0-1.35-.78-1.35-.92,0-.18.18-.68.36-1.14l1.7-4.35c.02-.07.11-.3.11-.37,0-.3-.3-.3-.41-.3h-.85c-.21,0-.64-.07-.64-.53s.46-.53.64-.53h2.38c.76,0,1.35.32,1.35.91,0,.23-.16.6-.3.96l-1.76,4.49c-.07.2-.16.34-.16.43,0,.27.34.27.43.27h.64c1.35,0,1.55.69,1.55,1.4,0,2.33-.57,5.33-1.74,7.37.55.82,1.26,1.4,2.08,1.67,1.33.46,2.7.57,3.39.57h6.24ZM223.79,37.69c-.23,0-.64-.04-.64-.5,0-.48.43-.53.64-.53h3.39v-2.38h-2.47c-.2,0-.64-.07-.64-.53s.43-.52.64-.52h2.47v-.75c0-.3,0-1.38,1.14-1.38.96,0,1.14.71,1.14,1.38v.75h1.38c1.69,0,2.08.73,2.08,1.81v1.62h.48c.21,0,.64.05.64.51s-.43.52-.64.52h-.48v1.72c0,1.24-.55,1.81-2.08,1.81h-1.38v2.04h2.63c.21,0,.64.07.64.53s-.43.52-.64.52h-2.63v1.99h3.94c.21,0,.64.04.64.5,0,.48-.46.53-.64.53h-3.94v1.33c0,.57-.13,1.4-1.12,1.4-1.12,0-1.17-.96-1.17-1.4v-1.33h-3.21c-.23,0-.64-.04-.64-.5,0-.48.43-.53.64-.53h3.21v-1.99h-2.27c-.2,0-.64-.07-.64-.52,0-.48.46-.53.64-.53h2.27v-2.04h-2.52c-.21,0-.64-.07-.64-.52,0-.48.46-.53.64-.53h2.52v-2.47h-3.39ZM230.93,36.66v-1.42c0-.75-.11-.96-.94-.96h-.53v2.38h1.46ZM229.46,37.69v2.47h.53c.83,0,.94-.2.94-.96v-1.51h-1.46Z" style="fill:#231815;"/><path d="M247.62,33.07v-.62c0-.52,0-1.46,1.23-1.46s1.24.96,1.24,1.46v.62h8.4c.18,0,.64.02.64.52s-.43.53-.64.53h-15.38c-.91,0-1.14.21-1.14,1.14v6.87c0,1.51-.09,5.19-2.49,8.67-.3.41-.73,1.05-1.12,1.05-.28,0-.53-.23-.53-.51,0-.11.05-.23.11-.34.34-.62.53-.99.76-1.69.5-1.62.8-3.5.8-6.68v-7.32c0-1.51.71-2.24,2.45-2.24h5.68ZM251.24,49.89c0,1.35-.48,2.13-2.22,2.13h-2.36c-.18,0-.71,0-.71-.53s.5-.52.71-.52h1.17c.83,0,.99-.23.99-.98v-2.1c-2.1,1.37-5.77,3.34-6.32,3.34s-.96-.57-.96-1.12c0-.6.11-.69,1.6-1.17,1.12-.37,2.88-.99,4.69-1.76.16-.07.69-.32.8-.32.07,0,.12.02.18.04v-3.13h-4.99c-.2,0-.64-.05-.64-.51s.46-.52.64-.52h4.99v-2.22h-5.9c-.23,0-.64-.07-.64-.52,0-.48.43-.53.64-.53h5.9v-2.17h-4.99c-.2,0-.64-.05-.64-.5,0-.48.43-.53.64-.53h4.99v-.41c0-.32,0-1.47,1.21-1.47s1.22,1.03,1.22,1.47v.41h3.07c1.62,0,2.26.62,2.26,2.04v1.17h1.97c.23,0,.64.07.64.53,0,.48-.43.52-.64.52h-1.97v1.22c0,1.58-.83,2.04-2.26,2.04h-2.77c.39,1.03,1.23,2.29,1.78,2.95.91-.59,1.62-1.17,2.24-1.76.62-.62.73-.69,1.05-.69.57,0,1.14.51,1.14,1.17,0,.34-.16.57-.41.76-.68.51-2.63,1.35-3.11,1.56,1.28,1.26,2.15,1.81,4.3,2.84.16.07.43.21.43.55,0,.32-.25.53-.5.53-.3,0-4.12-1.3-7.23-4.23v2.47ZM245.65,44.85c1.01.64,1.28.85,1.28,1.33,0,.64-.68,1.08-1.15,1.08-.57,0-.76-.32-1.42-1.44-.07-.14-.43-.64-.55-.83-.05-.09-.07-.18-.07-.25,0-.25.23-.52.52-.52.32,0,1.01.41,1.37.64M251.24,39.45h2.79v-1.17c0-.76-.16-1.01-.99-1.01h-1.81v2.17ZM251.24,42.73h1.81c.83,0,.99-.25.99-.98v-1.24h-2.79v2.22Z" style="fill:#231815;"/><path d="M266.99,42.38c-.39.09-2.61.6-2.86.6-.46,0-.89-.46-.89-1.03,0-.96.67-.98,2.04-1.01.53-.62,1.35-1.62,1.88-2.33-.28-.07-.41-.16-.69-.6-.94-1.49-1.12-1.81-2.06-2.81-.75-.8-.85-.89-.85-1.07,0-.3.25-.53.51-.53s1.42.85,1.76,1.1c.8-1.26,1.12-2.02,1.21-2.27.53-1.24.64-1.49,1.33-1.49s1.28.53,1.28,1.1c0,.46-.16.62-1.51,2.1-.41.46-1.05,1.08-1.28,1.33.57.48,1.26,1.05,1.46,1.42.39-.62.78-1.24,1.21-2.11.2-.43.43-.92,1.1-.92.73,0,1.37.6,1.37,1.21,0,.57-.59,1.21-1.69,2.43-1.55,1.72-2.47,2.59-3.27,3.34.87-.05,2.59-.21,3.25-.3-.09-.25-.55-1.38-.55-1.54,0-.27.21-.5.51-.5s.91.8,1.19,1.14c.09.14,1.35,1.76,1.35,2.42s-.57,1.14-1.14,1.14c-.66,0-.76-.36-1.08-1.69-.18.05-1.15.3-1.35.35v8.81c0,.41,0,1.44-1.12,1.44s-1.1-1.05-1.1-1.42v-8.33ZM263.28,50.21c0-.23.35-1.24.39-1.44.34-1.44.39-2.52.43-3.78.02-.5.04-1.33,1.03-1.33.37,0,1.21.23,1.21,1.03,0,.48-.48,2.45-1.47,4.55-.25.55-.68,1.46-1.1,1.46-.32,0-.51-.27-.51-.5M270.55,47.3c-.11-.98-.28-1.78-.5-2.56-.02-.07-.21-.66-.21-.8,0-.25.21-.48.51-.48.32,0,.55.39,1.03,1.14.46.71,1.42,2.49,1.42,3.09,0,.71-.73,1.1-1.21,1.1-.87,0-.91-.59-1.03-1.49M276.89,45.33h-3.5c-.2,0-.64-.04-.64-.52s.46-.53.64-.53h3.5v-1.6c0-.39,0-1.55,1.24-1.55s1.26,1.14,1.26,1.55v1.6h3.5c.23,0,.64.07.64.53,0,.48-.41.52-.64.52h-3.5v5.1h4.51c.23,0,.64.07.64.53s-.41.52-.64.52h-12.11c-.21,0-.64-.05-.64-.52,0-.51.46-.53.64-.53h5.1v-5.1ZM273.07,32.88c-.21,0-.64-.04-.64-.5,0-.5.43-.53.64-.53h8.76c.92,0,1.58.41,1.58,1.15,0,.82-1.56,3.32-3.94,5.26,1.58,1.35,3.16,1.88,4.76,2.43.34.11.46.2.46.48,0,.3-.25.53-.51.53-.11,0-.23,0-.48-.07-2.81-.69-4.58-1.72-5.58-2.36-2.27,1.56-4.55,2.33-4.92,2.33-.27,0-.5-.25-.5-.53,0-.32.25-.46.41-.52,1.6-.73,2.42-1.12,3.77-2.2-1.67-1.4-2.72-3.3-2.72-3.92s.68-1.1,1.33-1.1c.71,0,.89.46,1.15,1.1.55,1.42,1.26,2.26,1.62,2.65,1.78-1.88,2.38-3.68,2.38-3.84,0-.23-.18-.37-.46-.37h-7.12Z" style="fill:#231815;"/><path d="M290.51,38.47c0,.43,0,1.44-1.19,1.44s-1.19-1.08-1.19-1.44v-1.19c0-1.46.69-1.92,2.22-1.92h15.63c1.65,0,2.24.57,2.24,1.92v1.19c0,.46,0,1.44-1.19,1.44s-1.21-1.05-1.21-1.44v-1.01c0-.85-.18-1.08-1.08-1.08h-13.16c-.87,0-1.07.23-1.07,1.08v1.01ZM299.23,43.62c-.73.94-1.23,1.49-1.72,1.94h7.1c1.42,0,2.26.46,2.26,2.04v2.01c0,1.42-.66,2.04-2.26,2.04h-12.86c-1.42,0-2.26-.48-2.26-2.04v-2.01c0-1.44.66-2.04,2.26-2.04h3.91c.34-.73.62-1.65.71-1.94h-2.86c-1.44,0-2.08-.48-2.08-1.81v-1.62c0-1.21.5-1.81,2.08-1.81h9.38c1.4,0,2.08.46,2.08,1.81v1.62c0,1.17-.48,1.81-2.08,1.81h-3.66ZM292.75,35.2c-.69,0-.87-.39-1.19-1.05-.21-.41-.55-1.03-1.12-1.88-.23-.34-.3-.46-.3-.55,0-.3.27-.5.53-.5s3.45,1.65,3.45,2.84c0,.71-.75,1.15-1.37,1.15M304.38,47.6c0-.73-.14-.99-.98-.99h-10.44c-.84,0-.98.25-.98.99v2.01c0,.73.14.98.98.98h10.44c.84,0,.98-.25.98-.98v-2.01ZM302.5,40.3c0-.71-.13-.87-.87-.87h-6.94c-.73,0-.87.16-.87.87v1.4c0,.73.14.89.87.89h6.94c.73,0,.87-.16.87-.89v-1.4ZM297.97,35.04c-.71,0-.8-.27-1.28-1.42-.32-.8-.64-1.3-.96-1.85-.12-.18-.12-.28-.12-.35,0-.3.25-.5.53-.5.32,0,3.18,1.88,3.18,2.95,0,.57-.55,1.17-1.35,1.17M305.62,32.38c0,1.03-2.95,2.93-3.34,2.93-.27,0-.55-.2-.55-.48,0-.09.14-.3.39-.71.48-.78.73-1.4.96-1.99.3-.75.85-.89,1.19-.89.71,0,1.35.48,1.35,1.14" style="fill:#231815;"/><path d="M316.24,50.62c0,.55,0,1.51-1.12,1.51s-1.15-1.01-1.15-1.51v-10.87c-.64.82-1.44,1.85-1.81,1.85-.27,0-.52-.25-.52-.5,0-.18,1.05-1.95,1.23-2.29,1.35-2.47,2.01-4.07,2.61-6.73.09-.41.25-1.1,1.21-1.1.66,0,1.44.46,1.44,1.17,0,.8-1.3,3.2-1.9,4.23v14.24ZM328.6,34.08c1.17,0,1.94.34,1.94,1.67v3.94h.57c.59,0,1.58.07,1.58,1.23v.69c0,.8-.57,1.07-1.01,1.07-1.06,0-1.06-.89-1.06-1.53,0-.39-.11-.48-.71-.48h-9.93c-.3,0-.73,0-.73.36,0,.76,0,1.65-1.03,1.65-.57,0-1.03-.39-1.03-1.07v-.69c0-1.21,1.12-1.23,1.58-1.23h.68v-3.94c0-1.35.8-1.67,1.95-1.67h1.55c.21-.41.46-1.03.55-1.28h-4.23c-.2,0-.64-.05-.64-.5s.43-.52.64-.52h12.59c.23,0,.64.07.64.5,0,.48-.46.53-.64.53h-5.72c-.66.89-.76.98-.98,1.28h3.43ZM321.34,42.38c0-.6.28-1.08.94-1.08s.94.48.94,1.08v.69c0,.66.11.87.87.87h1.94c.53,0,.73-.14.89-.57.25-.69.37-.94.87-.94.41,0,.94.3.94.78,0,.32-.27.87-.6,1.28-.27.34-.66.41-1.49.41h-1.78c-.73.69-.92.85-1.3,1.14h4.99c.64,0,1.08.28,1.08.8,0,.66-2.11,2.11-3.07,2.7,2.06.89,3.57,1.12,6.13,1.49.16.02.57.07.57.53,0,.3-.23.53-.59.53-.94,0-4.69-.39-7.62-1.77-1.92.9-4.9,1.74-6.84,1.74-.46,0-.57-.34-.57-.52,0-.32.23-.48.59-.53,1.9-.23,3.59-.71,5.29-1.53-.55-.35-1.37-.89-2.1-1.92-1.74,1.05-2.84,1.37-3,1.37-.28,0-.5-.23-.5-.53,0-.25.2-.43.3-.48,2.15-1.08,3.23-2.24,3.87-3.13-.73-.27-.73-.89-.73-1.38v-1.03ZM320.43,42.48c0,.2-.3,1.17-.66,1.97-.36.78-.57,1.15-1.05,1.15s-1.01-.36-1.01-.91c0-.23.14-.39.78-1.1.43-.48.68-.85.98-1.35.09-.14.25-.27.43-.27.37,0,.53.3.53.53M328.28,35.93c.02-.73-.16-.87-.87-.87h-4.83c-.69,0-.87.14-.87.87h6.57ZM328.28,36.87h-6.57v.92h6.57v-.92ZM328.28,38.74h-6.57v.94h6.57v-.94ZM323.22,47.05c.3.41.78.94,1.74,1.6.55-.36,1.47-1.07,1.47-1.35,0-.25-.23-.25-.35-.25h-2.86ZM324.46,40.97c.11,0,1.92.73,1.92,1.51,0,.52-.46.89-.94.89-.41,0-.5-.16-.91-.85-.07-.11-.39-.57-.48-.71-.07-.09-.11-.21-.11-.34,0-.3.27-.5.52-.5M331.94,44.42c0,.57-.5,1.05-.98,1.05-.41,0-.53-.23-1.01-1.26-.14-.27-.87-1.54-.87-1.67,0-.27.18-.55.52-.55.3,0,2.33,1.76,2.33,2.42" style="fill:#231815;"/><path d="M347.19,43.41c.23.71.71,2.04,1.9,3.48,1.67-.99,3.04-1.92,3.75-2.54.91-.78,1.16-.94,1.49-.94.71,0,1.28.6,1.28,1.26s-.46.87-1.3,1.28c-1.7.8-3.53,1.49-4.42,1.81,1.06,1.03,3.39,2.56,6.34,3.13.32.07.55.21.55.53,0,.23-.16.53-.55.53-.46,0-3.2-.46-5.83-1.81-3.21-1.62-5.24-4.37-6-6.73h-3.04v5.81c.96-.16,2.61-.46,3.25-.6.14-.02,1.44-.3,1.56-.3.25,0,.5.23.5.52,0,.39-.14.46-1.44.89-2.74.94-7.96,2.17-8.49,2.17-.43,0-.89-.43-.89-1.03,0-.32.11-.78.59-.89.3-.07,1.7-.27,2.43-.36v-13.98c0-1.58.71-2.17,2.4-2.17h3.8v-1.21c0-1.23,1.06-1.3,1.26-1.3.71,0,1.26.48,1.26,1.22v1.3h3.71c1.53,0,2.42.46,2.42,2.17v5.61c0,1.58-.76,2.15-2.42,2.15h-4.1ZM341.36,37.87h9.84v-2.26c0-.87-.21-1.07-1.05-1.07h-7.71c-.87,0-1.08.2-1.08,1.07v2.26ZM351.2,38.91h-9.84v3.48h8.79c.85,0,1.05-.2,1.05-1.07v-2.4Z" style="fill:#231815;"/><path d="M363.15,41.08c-.43,0-.53-.07-1.49-1.23-.46-.57-1.21-1.31-1.9-1.94-.11-.09-.2-.23-.2-.39,0-.23.16-.48.5-.48.25,0,1.3.41,2.04.76,1.92.91,2.29,1.35,2.29,1.92,0,.87-.64,1.37-1.24,1.37M365.24,43.25c0,.25-.96,3.09-1.83,5.33-1.12,2.95-1.35,3.27-2.1,3.27-.71,0-1.33-.67-1.33-1.33,0-.51.16-.71,1.26-2.2,1.19-1.6,2.13-3.43,2.93-5.24.09-.2.27-.34.51-.34.25,0,.57.21.57.5M364.37,34.92c-.48,0-.69-.25-1.42-1.1-.55-.67-1.3-1.33-1.97-1.86-.09-.09-.23-.23-.23-.41,0-.32.27-.52.51-.52s1.44.41,2.56.96c1.42.69,1.76,1.05,1.76,1.6,0,.83-.6,1.33-1.21,1.33M365.42,41.93c-.23,0-.64-.04-.64-.5,0-.48.43-.53.64-.53h6.04v-4.97h-5.05c-.23,0-.64-.07-.64-.5,0-.48.43-.53.64-.53h5.05v-2.33c0-.39,0-1.6,1.26-1.6s1.28,1.19,1.28,1.6v2.33h5.24c.18,0,.64.02.64.53,0,.48-.43.5-.64.5h-5.24v4.97h6.04c.18,0,.64.02.64.53,0,.48-.46.5-.64.5h-6.52c-1.42,2.63-3.11,5.06-4.92,7.42,3.36-.35,5.29-.57,8.38-1.01-.94-1.81-1.88-3.16-2.11-3.5-.2-.3-.23-.37-.23-.48,0-.27.23-.5.52-.5.74,0,5.43,5.15,5.43,6.59,0,.76-.78,1.28-1.42,1.28-.53,0-.83-.32-1.01-.69-.11-.27-.6-1.42-.71-1.67-3.66.85-11.65,2.2-12.11,2.2-.53,0-.94-.48-.94-1.03,0-.51.32-.83.62-.87.3-.05,1.28-.16,1.95-.21.27-.37,2.22-3.27,3.66-7.53h-5.22Z" style="fill:#231815;"/><path d="M392.13,32.52c0-.71.14-1.62,1.28-1.62,1.03,0,1.3.71,1.3,1.62v4.3c0,2.54.73,5.97,2.06,8.22,1.17,1.95,3.34,4.26,6.57,5.72.34.16.6.25.6.6,0,.32-.3.53-.53.53-.14,0-7.6-2.1-9.93-8.88-2.56,6.59-9.84,8.9-10.04,8.9-.25,0-.53-.23-.53-.53,0-.35.23-.43.64-.62,2.2-1.05,5.1-3,6.94-6.43.39-.73,1.65-3.07,1.65-8.33v-3.48Z" style="fill:#231815;"/><polygon points="228.75 58.66 227.23 58.66 224.35 61.37 224.35 58.66 223.23 58.66 223.23 66.77 224.35 66.77 224.35 63.37 227.5 66.72 227.54 66.77 229.01 66.77 224.83 62.32 228.75 58.66" style="fill:#231815;"/><polygon points="230.4 66.77 235.16 66.77 235.16 65.68 231.5 65.68 231.5 62.94 235.16 62.94 235.16 61.86 231.5 61.86 231.5 59.75 235.19 59.75 235.19 58.66 230.4 58.66 230.4 66.77" style="fill:#231815;"/><polygon points="242.49 64.37 237.54 58.66 237.14 58.66 237.14 66.77 238.26 66.77 238.26 61.14 243.18 66.77 243.58 66.77 243.58 58.66 242.49 58.66 242.49 64.37" style="fill:#231815;"/><polygon points="251.54 58.66 250.03 58.66 247.14 61.37 247.14 58.66 246.02 58.66 246.02 66.77 247.14 66.77 247.14 63.37 250.29 66.72 250.34 66.77 251.8 66.77 247.62 62.32 251.54 58.66" style="fill:#231815;"/><path d="M258.64,59.02c-.66-.37-1.38-.56-2.15-.56s-1.49.19-2.14.56c-.65.37-1.17.9-1.55,1.56-.37.66-.56,1.38-.56,2.16s.19,1.47.57,2.12c.38.65.9,1.17,1.56,1.54.66.37,1.38.56,2.15.56s1.49-.19,2.14-.56c.66-.37,1.18-.9,1.55-1.55.37-.65.56-1.38.56-2.14s-.19-1.49-.57-2.14c-.38-.65-.91-1.18-1.57-1.55M259.65,62.72c0,.92-.31,1.68-.91,2.28-.61.6-1.35.9-2.22.9s-1.61-.31-2.22-.92c-.61-.61-.92-1.37-.92-2.25s.3-1.64.89-2.26c.59-.61,1.34-.92,2.23-.92s1.61.31,2.23.92c.61.61.93,1.37.93,2.25" style="fill:#231815;"/><rect x="266.93" y="58.66" width="1.1" height="8.11" style="fill:#231815;"/><path d="M274.72,60.92c-.37-.25-.8-.38-1.26-.38-.76,0-1.44.31-2,.91v-.76h-1.07v6.08h1.07v-2.28c0-.77.03-1.29.09-1.54.06-.24.18-.48.35-.7.17-.23.38-.4.63-.53.49-.25,1.05-.23,1.4-.07.17.08.31.19.42.33.11.15.2.33.26.55.06.23.09.67.09,1.33v2.9h1.05v-3.12c0-.75-.08-1.33-.23-1.73-.16-.41-.42-.74-.8-1" style="fill:#231815;"/><polygon points="279.85 64.84 278.03 60.69 276.9 60.69 279.7 66.97 280.03 66.97 282.81 60.69 281.67 60.69 279.85 64.84" style="fill:#231815;"/><path d="M289.98,63.81c-.02-1-.34-1.8-.93-2.39-.6-.59-1.34-.88-2.22-.88s-1.62.32-2.22.95c-.59.63-.89,1.39-.89,2.27s.3,1.64.89,2.26c.59.63,1.36.95,2.27.95,1.27,0,2.25-.61,2.9-1.82l.08-.14-.91-.47-.07.14c-.46.87-1.13,1.29-2.05,1.29-.56,0-1.01-.19-1.4-.59-.35-.36-.55-.83-.6-1.41h5.18v-.16ZM284.93,63.01c.33-.97.96-1.44,1.91-1.44.49,0,.93.15,1.3.43.33.26.55.59.66,1.01h-3.88Z" style="fill:#231815;"/><path d="M293.22,61.55c.33,0,.69.18,1.05.53l.11.11.7-.71-.11-.11c-.56-.55-1.11-.83-1.65-.83s-.97.16-1.3.48c-.33.32-.5.71-.5,1.16s.12.81.36,1.1c.23.27.57.53,1.02.75.42.21.71.4.89.56.15.14.23.32.23.54s-.09.41-.27.57c-.18.17-.4.25-.65.25-.37,0-.74-.2-1.09-.59l-.12-.13-.67.75.08.1c.22.28.5.5.82.65.32.15.66.23,1.01.23.53,0,.99-.18,1.35-.54.37-.36.55-.81.55-1.34,0-.42-.13-.78-.38-1.07-.24-.28-.59-.54-1.04-.77-.42-.22-.72-.41-.88-.56-.15-.13-.22-.29-.22-.47s.07-.33.2-.46c.14-.13.3-.19.51-.19" style="fill:#231815;"/><path d="M298.63,58.46h-1.07v2.23h-1.02v.95h1.02v4.19c0,.38.09.67.27.86.18.19.46.29.83.29.19,0,.44-.03.74-.08l.13-.02v-.92h-.6c-.21,0-.28-.01-.28-.01,0-.01-.02-.07-.02-.23v-4.07h1.17v-.95h-1.17v-2.23Z" style="fill:#231815;"/><path d="M308.46,60.54c-.51,0-.97.13-1.36.38-.3.2-.57.46-.79.79-.14-.32-.35-.58-.62-.78-.36-.26-.78-.39-1.24-.39-.71,0-1.32.28-1.82.85v-.69h-1.05v6.08h1.05v-2.6c0-.76.08-1.31.23-1.61.15-.31.36-.55.62-.73.26-.17.54-.26.83-.26s.53.08.73.23c.2.16.32.35.38.58.06.25.09.68.09,1.28v3.11h1.04v-2.42c0-.73.06-1.27.17-1.62.11-.34.3-.61.59-.84.29-.22.58-.33.91-.33s.58.07.77.22c.19.15.31.33.37.54.06.24.09.62.09,1.13v3.31h1.08v-3.31c0-1.16-.21-1.92-.64-2.32-.42-.4-.9-.6-1.42-.6" style="fill:#231815;"/><path d="M318.38,63.81c-.02-1-.34-1.8-.93-2.39-.6-.59-1.34-.88-2.22-.88s-1.62.32-2.22.95c-.59.63-.89,1.39-.89,2.27s.3,1.64.89,2.26c.59.63,1.36.95,2.27.95,1.27,0,2.25-.61,2.9-1.82l.08-.14-.91-.47-.07.14c-.46.87-1.13,1.29-2.05,1.29-.56,0-1.01-.19-1.4-.59-.35-.36-.55-.83-.6-1.41h5.18v-.16ZM313.33,63.01c.33-.97.96-1.44,1.91-1.44.49,0,.93.15,1.31.43.33.26.55.59.66,1.01h-3.88Z" style="fill:#231815;"/><path d="M324.34,60.92c-.37-.25-.8-.38-1.26-.38-.76,0-1.44.31-2,.91v-.76h-1.07v6.08h1.07v-2.28c0-.77.03-1.29.09-1.54.06-.24.18-.48.35-.7.17-.23.38-.4.63-.53.49-.25,1.05-.23,1.4-.07.17.08.31.19.42.33.11.15.2.33.26.55.06.23.09.67.09,1.33v2.9h1.05v-3.12c0-.75-.08-1.33-.23-1.73-.16-.41-.42-.74-.8-1" style="fill:#231815;"/><path d="M328.84,58.46h-1.07v2.23h-1.02v.95h1.02v4.19c0,.38.09.67.27.86.18.19.46.29.83.29.19,0,.44-.03.74-.08l.13-.02v-.92h-.6c-.21,0-.28-.01-.28-.01,0-.01-.02-.07-.02-.23v-4.07h1.17v-.95h-1.17v-2.23Z" style="fill:#231815;"/><path d="M337.49,58.46c-.45,0-.79.14-1,.42-.21.27-.32.68-.32,1.22v.59h-.75v.95h.75v5.14h1.07v-5.14h1.2v-.95h-1.2v-.47c0-.37.04-.54.08-.62.02-.03.06-.12.29-.12.2,0,.43.06.69.17l.22.1v-1.09l-.11-.03c-.36-.11-.67-.16-.91-.16" style="fill:#231815;"/><path d="M342.67,60.54c-.88,0-1.63.32-2.24.95-.61.63-.92,1.4-.92,2.28s.31,1.63.91,2.26c.61.63,1.36.94,2.25.94s1.64-.32,2.25-.94c.6-.63.91-1.39.91-2.27s-.31-1.64-.92-2.27c-.61-.63-1.37-.95-2.24-.95M342.67,61.58c.57,0,1.05.21,1.47.65.41.44.62.96.62,1.55s-.2,1.11-.61,1.54c-.41.43-.9.63-1.49.63s-1.08-.2-1.48-.62c-.4-.42-.6-.92-.6-1.53s.2-1.12.62-1.56c.41-.44.89-.65,1.47-.65" style="fill:#231815;"/><path d="M348.97,60.81c-.11.09-.22.21-.33.35v-.48h-1.08v6.08h1.08v-2.11c0-.95.05-1.6.14-1.95.09-.34.22-.62.41-.83.25-.29.51-.37.77-.22l.13.08.56-.9-.15-.08c-.53-.29-1.1-.3-1.53.06" style="fill:#231815;"/><polygon points="361 61.93 357.35 61.93 357.35 58.66 356.24 58.66 356.24 66.77 357.35 66.77 357.35 63 361 63 361 66.77 362.1 66.77 362.1 58.66 361 58.66 361 61.93" style="fill:#231815;"/><path d="M370.28,63.81c-.02-1-.34-1.8-.93-2.39-.6-.59-1.34-.88-2.22-.88s-1.62.32-2.22.95c-.59.63-.89,1.39-.89,2.27s.3,1.64.89,2.26c.59.63,1.36.95,2.27.95,1.27,0,2.25-.61,2.9-1.82l.08-.14-.91-.47-.07.14c-.46.87-1.13,1.29-2.05,1.29-.56,0-1.01-.19-1.4-.59-.35-.36-.55-.83-.6-1.41h5.18v-.16ZM365.22,63.01c.33-.97.96-1.44,1.91-1.44.49,0,.93.15,1.31.43.33.26.55.59.66,1.01h-3.88Z" style="fill:#231815;"/><path d="M376.99,61.46c-.57-.61-1.29-.92-2.13-.92s-1.6.32-2.22.94c-.61.62-.92,1.38-.92,2.26s.31,1.64.92,2.27c.61.63,1.37.95,2.26.95.77,0,1.48-.31,2.1-.93v.74h1.04v-6.08h-1.04v.77ZM376.41,62.2c.41.43.62.94.62,1.56s-.2,1.16-.63,1.58c-.42.42-.91.63-1.5.63s-1.08-.21-1.5-.65c-.42-.43-.63-.95-.63-1.55s.21-1.11.62-1.55c.42-.44.91-.65,1.51-.65s1.1.21,1.51.63" style="fill:#231815;"/><rect x="380.28" y="58.46" width="1.05" height="8.31" style="fill:#231815;"/><path d="M385.11,58.46h-1.07v2.23h-1.02v.95h1.02v4.19c0,.38.09.67.27.86.18.19.46.29.83.29.19,0,.44-.03.74-.08l.13-.02v-.92h-.6c-.21,0-.28-.01-.28-.01,0-.01-.02-.07-.02-.23v-4.07h1.17v-.95h-1.17v-2.23Z" style="fill:#231815;"/><path d="M393.08,61.92c-.16-.41-.42-.74-.8-1-.37-.25-.8-.38-1.26-.38-.76,0-1.44.3-2,.91v-2.98h-1.07v8.31h1.07v-2.28c0-.77.03-1.29.09-1.54.06-.24.18-.47.35-.7.17-.23.38-.4.63-.53.49-.25,1.08-.23,1.45-.05.18.09.32.23.43.4.11.18.18.38.22.58.03.22.05.62.05,1.2v2.9h1.06v-3.12c0-.75-.08-1.34-.23-1.73" style="fill:#231815;"/><rect x="212.6" y="73.35" width="191.34" height="14.88" style="fill:#00ab9f;"/><path d="M265.21,85.27c0,.49,0,.56-.11.72-.13.19-.42.31-.71.31-.19,0-.42-.05-.6-.19-.22-.17-.22-.34-.22-.84v-2.49h-3.05c-.91,0-1.25-.5-1.25-1.15v-3.31c0-.64.32-1.15,1.25-1.15h3.05v-1.08c0-.48,0-.56.11-.72.12-.18.41-.31.7-.31.19,0,.42.06.6.19.23.17.23.35.23.84v1.08h3.07c.92,0,1.25.5,1.25,1.15v3.31c0,.64-.31,1.15-1.25,1.15h-3.07v2.49ZM263.57,77.82h-2.23c-.23,0-.4.24-.4.4v3.5c0,.19.19.4.4.4h2.23v-4.29ZM265.21,82.11h2.27c.19,0,.4-.2.4-.4v-3.5c0-.15-.17-.4-.4-.4h-2.27v4.29Z" style="fill:#fff;"/><path d="M274.53,78.37c0,.63-1.05,2.79-1.75,3.92-.3.49-1.21,1.77-1.57,1.77-.19,0-.32-.16-.34-.32,0-.09.02-.11.14-.32.95-1.72,1.37-3.35,1.56-4.62.13-.9.19-1.26.97-1.26.46,0,.98.36.98.83M275.37,85.53c.38,0,.47-.18.47-.48v-8.95c0-.44,0-1.03.83-1.03s.84.61.84,1.03v8.93c0,.64-.31,1.15-1.25,1.15h-2.12c-.15,0-.41-.04-.41-.32,0-.31.28-.34.41-.34h1.23ZM281.19,83.67c-.59,0-.67-.33-.83-1.04-.29-1.24-.65-2.45-1.1-3.62-.09-.2-.53-1.23-.53-1.31,0-.14.12-.32.34-.32.11,0,.19,0,.67.64,1.63,2.15,2.53,4.36,2.53,4.64,0,.72-.62,1.02-1.08,1.02" style="fill:#fff;"/><path d="M285.2,75.95c0-.25,0-.9.8-.9s.82.62.82.9v1.29h1c.13,0,.41.02.41.32s-.29.34-.41.34h-1v2.26h1.15c.12,0,.4.04.4.34s-.28.34-.4.34h-1.13c.2,1.65,1.08,2.63,1.41,2.95.06.07.13.14.13.28,0,.18-.13.34-.34.34-.18,0-.98-.54-1.75-1.69-.13.35-.5,1.35-1.62,2.52-.23.24-.8.83-1.03.83-.18,0-.34-.15-.34-.34,0-.13.08-.22.14-.28,1.44-1.64,1.63-3.49,1.7-4.6h-1.26c-.14,0-.41-.05-.41-.34s.28-.34.41-.34h1.28c.01-.71.01-.72.01-1.13v-1.13h-1.09c-.14,0-.41-.04-.41-.34s.28-.32.41-.32h1.09v-1.29ZM290.83,82.41c-.02.6-.19,1.91-1.4,2.83-1.12.86-2.3,1.08-2.4,1.08-.18,0-.34-.14-.34-.34,0-.23.18-.29.3-.34,2.22-.86,2.25-2.63,2.27-3.3-.68-.18-.74-.82-.74-1.09v-4.66c0-.64.32-1.15,1.25-1.15h3.13c.92,0,1.25.53,1.25,1.15v4.66c0,1.15-1,1.15-1.34,1.15v2.73c0,.21,0,.32.25.32.37.01.44-.11.49-.77.06-.77.07-1.02.58-1.02.38,0,.7.2.7.6,0,1.03-.26,1.85-1.28,1.85h-1.17c-.71,0-1.01-.37-1.01-.91v-2.81h-.52ZM290.16,77.5h2.3v-1.04c0-.22-.1-.34-.34-.34h-1.63c-.25,0-.34.12-.34.34v1.04ZM292.46,78.17h-2.3v1.43h2.3v-1.43ZM292.46,80.27h-2.3v1.15c0,.22.08.34.34.34h1.63c.25,0,.34-.12.34-.34v-1.15Z" style="fill:#fff;"/><path d="M298.95,85.38c0,.41,0,.96-.78.96s-.79-.54-.79-.96v-3.5c-.38.72-.86,1.31-.95,1.38-.06.06-.12.1-.23.1-.19,0-.34-.15-.34-.34,0-.07.02-.14.07-.21.55-.91,1.14-2.36,1.39-4.45h-.82c-.14,0-.41-.05-.41-.34s.28-.34.41-.34h.86v-1.65c0-.4,0-.95.78-.95s.79.53.79.95v1.65h.73c.12,0,.41.04.41.34s-.29.34-.41.34h-.71c.36,1.76.97,2.74,1.23,3.15.05.07.07.14.07.2,0,.18-.16.34-.34.34-.29,0-.73-.66-1-1.07v4.4ZM299.97,83.19c-.16,0-.4-.05-.4-.32,0-.3.25-.34.4-.34h2.57c.06-.3.1-.54.11-.82h-1.28c-.61,0-1.03-.28-1.03-.91v-2.05c0-.58.35-.91,1.03-.91h4.25c.6,0,1.03.26,1.03.91v2.05c0,.58-.35.91-1.03.91h-1.31c-.04.43-.09.67-.12.82h2.73c.14,0,.4.04.4.32s-.26.34-.4.34h-2.41c.49,1.08,1.61,1.95,2.67,2.42.16.07.19.2.19.31,0,.19-.14.34-.32.34-.6,0-2.65-.95-3.62-2.12-1.32,1.76-3.62,2.12-3.73,2.12-.16,0-.31-.14-.31-.34,0-.23.16-.29.3-.35.52-.2,1.96-.83,2.63-2.39h-2.34ZM304.13,76.1c0-.44,0-1.01.76-1.01s.79.54.79,1.01h1.22c.14,0,.41.04.41.32s-.28.34-.41.34h-1.22c0,.44,0,1.01-.77,1.01s-.78-.54-.78-1.01h-1.28c0,.46,0,1.01-.76,1.01s-.79-.54-.79-1.01h-1.28c-.14,0-.41-.04-.41-.34s.28-.32.41-.32h1.28c0-.44,0-1.01.78-1.01s.77.54.77,1.01h1.28ZM305.09,79.4v-.59c0-.23-.06-.3-.3-.3h-2.57c-.25,0-.3.08-.3.3v.59h3.17ZM301.92,80.07v.67c0,.22.05.3.3.3h2.57c.24,0,.3-.07.3-.3v-.67h-3.17Z" style="fill:#fff;"/><path d="M310.79,80.66c-.32,0-.42-.13-.72-.59-.48-.71-.94-1.14-1.17-1.37-.06-.05-.12-.11-.12-.23,0-.18.17-.31.31-.31.12,0,.72.18,1.43.54,1.02.52,1.09.74,1.09,1,0,.71-.5.96-.82.96M311.92,81.62c0,.1-.49,1.68-1.21,3.44-.42,1.01-.55,1.18-.91,1.18-.42,0-.85-.41-.85-.85,0-.26.03-.31.44-.83,1.08-1.35,1.66-2.66,1.85-3.07.04-.08.1-.2.3-.2.13,0,.38.11.38.34M311.35,77.53c-.31,0-.36-.07-.84-.71-.29-.37-.52-.59-1.16-1.21-.04-.04-.1-.08-.1-.2,0-.17.16-.33.35-.33.11,0,.77.19,1.44.53.98.48,1.12.7,1.12,1,0,.66-.48.93-.8.93M315,80.19v-2.45h-2.42c-.12,0-.41-.04-.41-.34s.27-.32.41-.32h2.42v-.98c0-.48,0-1.05.83-1.05s.84.62.84,1.05v.98h2.57c.12,0,.4.03.4.32s-.28.34-.4.34h-2.57v2.45h2.97c.12,0,.41.02.41.34s-.27.32-.41.32h-3.2c-.65,1.2-2.03,3.07-2.6,3.8,1.84-.14,2.99-.31,4.03-.46-.17-.37-.47-.98-.98-1.79-.12-.19-.15-.2-.15-.29,0-.17.15-.34.34-.34.43,0,2.91,2.7,2.91,3.48,0,.51-.59.84-.96.84-.08,0-.41-.02-.56-.35-.05-.12-.25-.73-.3-.86-3.49.86-5.99,1.2-6.14,1.2-.37,0-.62-.38-.62-.73,0-.14.05-.36.23-.48.13-.1.24-.1,1.22-.15.46-.79,1.09-2.14,1.68-3.88h-2.42c-.13,0-.41-.02-.41-.34,0-.29.26-.32.41-.32h2.89Z" style="fill:#fff;"/><path d="M326.3,76.06c0-.49,0-1.08.83-1.08.88,0,.88.53.88,1.08v1.12c0,3.35.77,6.36,4.54,8.38.08.05.24.13.24.32,0,.2-.17.34-.32.34-.24,0-4.14-1.51-5.31-4.73-1.16,3.21-5.08,4.73-5.31,4.73-.16,0-.32-.13-.32-.34,0-.19.16-.28.24-.32,3.78-2.03,4.55-5.04,4.55-8.38v-1.12Z" style="fill:#fff;"/><path d="M339.82,80c.15,0,.41.05.41.33s-.28.34-.41.34h-5.49c-.14,0-.41-.05-.41-.34s.27-.33.41-.33h5.49ZM336.41,76.51v-.65c0-.28,0-.44.17-.6.18-.17.44-.24.66-.24.32,0,.64.16.76.38.06.12.06.25.06.46v.65h1.55c.13,0,.41.03.41.33s-.26.32-.41.32h-4.82c-.13,0-.41-.04-.41-.34s.26-.32.41-.32h1.63ZM339.73,85.05c0,.71-.52.91-1.06.91h-2.95c-.61,0-1.05-.26-1.05-.91v-2.53c0-.71.49-.91,1.05-.91h2.95c.61,0,1.06.26,1.06.91v2.53ZM335.82,79.87c-.56,0-.59-.23-.7-1.13-.01-.12-.11-.51-.19-.85-.04-.12-.11-.27-.11-.36,0-.17.16-.32.35-.32.38,0,1.6,1.39,1.6,1.82,0,.53-.47.84-.95.84M338.21,82.59c0-.24-.06-.31-.31-.31h-1.38c-.26,0-.31.07-.31.31v2.39c0,.24.05.31.31.31h1.38c.26,0,.31-.07.31-.31v-2.39ZM339.67,77.99c0,.71-1.44,1.97-1.67,1.97s-.38-.16-.38-.32c0-.08.2-.73.33-1.22.03-.11.09-.59.12-.68.11-.34.32-.42.68-.42.22,0,.91.18.91.68M342.12,85.32c0,.4,0,1.01-.79,1.01s-.78-.56-.78-1.01v-8.86c0-.71.51-.91,1.05-.91h2.42c.54,0,.96.21.96.67,0,.13-.03.3-.24.78l-1.2,2.76c-.04.08-.09.19-.09.23,0,.04.14.18.17.22,1.34,1.43,1.52,2.65,1.52,3.23,0,1.85-1.2,1.85-1.68,1.85h-.81c-.14,0-.41-.04-.41-.34,0-.32.31-.32.47-.32.49,0,.79-.19.79-1.15,0-.36,0-1.27-.98-2.93-.19-.31-.23-.37-.23-.51,0-.08.01-.13.13-.56l.79-2.79c.05-.18.05-.2.05-.24,0-.22-.19-.22-.29-.22h-.55c-.26,0-.31.07-.31.32v8.79Z" style="fill:#fff;"/><path d="M348.59,85.27c0,.4,0,.96-.78.96s-.8-.59-.8-.96v-8.93c0-.71.52-.91,1.05-.91h2.66c.61,0,1.05.26,1.05.91v2.88c0,.71-.52.91-1.05.91h-2.14v5.15ZM350.24,77.43v-1.02c0-.23-.06-.31-.31-.31h-1.03c-.26,0-.31.11-.31.31v1.02h1.66ZM348.59,78.08v1.37h1.34c.28,0,.31-.12.31-.31v-1.06h-1.66ZM353.56,80.12c-.61,0-1.05-.26-1.05-.91v-2.88c0-.71.53-.91,1.05-.91h2.64c.61,0,1.06.26,1.06.91v8.68c0,.62-.31,1.15-1.25,1.15h-1.98c-.16,0-.41-.05-.41-.34s.26-.34.41-.34h1.19c.38,0,.47-.17.47-.47v-4.91h-2.12ZM355.68,77.43v-1.02c0-.23-.06-.31-.31-.31h-1.07c-.26,0-.32.11-.32.31v1.02h1.7ZM353.98,78.08v1.06c0,.21.06.31.32.31h1.38v-1.37h-1.7Z" style="fill:#fff;"/><path d="M370.91,23.05l3.16-3.08c1.22-1.22,1.85-1.89,1.85-2.94,0-1.13-.7-1.81-1.76-1.81s-1.85.62-2.45,1.63l-.74-1.28c.79-1.17,1.97-1.76,3.33-1.76,1.96,0,3.26,1.22,3.26,3.06,0,1.53-.87,2.5-2.49,4.05l-2.02,1.93h4.61v1.42h-6.76v-1.22Z" style="fill:#231815;"/><path d="M379.31,19.14c0-3.43,1.39-5.31,3.64-5.31s3.64,1.88,3.64,5.31-1.39,5.31-3.64,5.31-3.64-1.88-3.64-5.31M384.94,19.14c0-2.68-.73-3.94-1.98-3.94s-1.98,1.26-1.98,3.94.73,3.94,1.98,3.94,1.98-1.24,1.98-3.94" style="fill:#231815;"/><path d="M388,23.05l3.16-3.08c1.22-1.22,1.85-1.89,1.85-2.94,0-1.13-.7-1.81-1.76-1.81s-1.85.62-2.45,1.63l-.74-1.28c.79-1.17,1.97-1.76,3.33-1.76,1.96,0,3.27,1.22,3.27,3.06,0,1.53-.87,2.5-2.49,4.05l-2.02,1.93h4.61v1.42h-6.76v-1.22Z" style="fill:#231815;"/><path d="M396.93,22.08c.75.62,1.7.98,2.76.98,1.36,0,2.14-.6,2.14-1.84,0-1.15-.66-1.84-2.62-1.84-.73,0-1.45.1-1.94.25v-5.62h5.7v1.41h-4.29v2.73c.36-.05.83-.08,1.24-.08,2.21,0,3.55,1.04,3.55,3.11s-1.45,3.28-3.72,3.28c-1.26,0-2.33-.35-3.11-.89l.29-1.49Z" style="fill:#231815;"/></svg>