<?xml version="1.0" encoding="UTF-8"?><svg id="_レイヤー_1" xmlns="http://www.w3.org/2000/svg" viewBox="0 0 360 288"><rect width="360" height="288" style="fill:none;"/><path d="M202.73,244.62h-7.31v3.17h-3.96v-27.64h11.27v24.48ZM195.42,223.96v6.33h3.31v-6.33h-3.31ZM198.73,240.81v-6.77h-3.31v6.77h3.31ZM220.18,232.39v3.1h3.46v3.71h-3.46v7.85c0,2.05-.4,3.13-1.8,3.78-1.4.61-3.35.72-6.01.72-.14-1.19-.79-2.88-1.37-4.03,1.73.07,3.74.07,4.28.07.58,0,.76-.14.76-.65v-7.74h-12.63v-3.71h12.63v-3.1h-12.71v-3.74h8.14v-3.17h-6.91v-3.74h6.91v-3.78h4.21v3.78h7.2v3.74h-7.2v3.17h8.21v3.74h-3.71ZM208.27,239.62c1.66,1.76,3.6,4.14,4.36,5.9l-3.67,2.12c-.65-1.66-2.48-4.21-4.1-6.05l3.42-1.98Z" style="fill:#333;"/><path d="M232.28,232.31v19.26h-4.25v-32.25h13.79v12.99h-9.54ZM232.28,222.41v1.91h5.54v-1.91h-5.54ZM237.83,229.25v-2.05h-5.54v2.05h5.54ZM258.42,246.5c0,2.3-.47,3.56-1.91,4.25-1.4.72-3.49.83-6.59.83-.11-.9-.5-2.23-.94-3.35h-8.93v1.84h-3.89v-15.59h13.86v12.78c1.4.04,2.74.04,3.2,0,.65,0,.86-.22.86-.79v-14.07h-9.79v-13.07h14.11v27.18ZM240.06,237.64v2.16h5.94v-2.16h-5.94ZM246,245.09v-2.23h-5.94v2.23h5.94ZM248.37,222.41v1.91h5.72v-1.91h-5.72ZM254.1,229.33v-2.12h-5.72v2.12h5.72Z" style="fill:#333;"/><path d="M99.08,197.58v-11.61h21.69v65.61h-12.96v-54h-8.73Z" style="fill:#333;"/><path d="M138.81,193.53c3.75-5.88,9.97-8.82,18.67-8.82s14.92,2.94,18.68,8.82c3.75,5.88,5.62,14.01,5.62,24.39s-1.88,18.63-5.62,24.57c-3.75,5.94-9.98,8.91-18.68,8.91s-14.93-2.97-18.67-8.91c-3.75-5.94-5.62-14.13-5.62-24.57s1.87-18.51,5.62-24.39ZM168.51,206.72c-.57-3.03-1.71-5.5-3.42-7.42-1.71-1.92-4.25-2.88-7.6-2.88s-5.9.96-7.6,2.88c-1.71,1.92-2.85,4.4-3.42,7.42-.57,3.03-.85,6.77-.85,11.21s.27,8.39.81,11.47c.54,3.09,1.68,5.58,3.42,7.47,1.74,1.89,4.29,2.83,7.65,2.83s5.91-.95,7.65-2.83c1.74-1.89,2.88-4.38,3.42-7.47.54-3.09.81-6.91.81-11.47s-.29-8.17-.85-11.21Z" style="fill:#333;"/><path d="M153.44,127.3c18.51,14.66,45.4,11.55,60.07-6.96,14.66-18.51,11.55-45.4-6.96-60.07-16.62-13.17-40.38-12.17-55.83,2.36l11.8,11.8c2.34,2.34.68,6.35-2.63,6.35h-33.78c-2.05,0-3.72-1.66-3.72-3.72v-33.78c0-3.31,4-4.97,6.35-2.63l11.47,11.47c10.71-10.26,24.98-15.98,39.81-15.96,31.79,0,57.57,25.74,57.63,57.52.06,31.78-25.84,57.72-57.59,57.74-13.18.03-25.96-4.48-36.21-12.76-2.39-1.94-2.76-5.45-.82-7.84.12-.15.25-.29.39-.43l2.62-2.62c1.99-2.01,5.18-2.21,7.41-.46h0Z" style="fill:#014098; isolation:isolate; opacity:.4;"/><path d="M187.44,69.62v24.25l9.46,7.35c2.43,1.89,2.87,5.39.98,7.83,0,0,0,0,0,0l-2.28,2.93c-1.89,2.43-5.39,2.87-7.83.98,0,0,0,0,0,0l-15.2-11.82v-31.52c0-3.08,2.5-5.58,5.58-5.58h3.72c3.08,0,5.58,2.5,5.58,5.58Z" style="fill:#014098;"/></svg>