<?xml version="1.0" encoding="UTF-8"?><svg id="_レイヤー_1" xmlns="http://www.w3.org/2000/svg" viewBox="0 0 360 288"><rect width="360" height="288" style="fill:none;"/><path d="M179.37,142.69l-112.34-13.79c7.01-57.08,54.83-99.39,112.34-99.39v113.18Z" style="fill:#014098; fill-rule:evenodd; opacity:.13;"/><path d="M179.37,142.69V29.51c62.51,0,113.18,50.67,113.18,113.18s-50.67,113.18-113.18,113.18-113.18-50.67-113.18-113.18c0-5,.23-8.83.84-13.79l112.34,13.79Z" style="fill:#014098; fill-rule:evenodd;"/><path d="M186.3,178.06l-2.9,1.03v7.25c0,1.73-.79,1.99-3.98,1.94-.07-.38-.31-1.06-.53-1.49,1.13.02,2.16.02,2.47.02.31-.02.46-.12.46-.46v-6.7c-1.13.38-2.16.74-2.98,1.01,0,.19-.12.34-.29.38l-.67-1.9c1.08-.29,2.45-.7,3.94-1.15v-5.64h-3.65v-1.51h3.65v-4.85l2.06.12c-.02.19-.14.29-.48.34v4.39h2.76v1.51h-2.76v5.14l2.69-.84.22,1.39ZM198.02,175.74l1.06.48c-.05.12-.14.19-.22.26-.96,2.95-2.57,5.35-4.58,7.25,1.75,1.44,3.86,2.54,6.29,3.19-.34.34-.82.96-1.06,1.39-2.5-.77-4.66-1.97-6.46-3.55-2.11,1.63-4.58,2.83-7.15,3.58-.17-.41-.58-1.08-.89-1.44,2.45-.62,4.85-1.7,6.89-3.26-1.56-1.66-2.78-3.65-3.65-5.98l1.13-.36h-2.47v-1.49h5.4v-4.27h-5.78v-1.54h5.78v-4.01l2.09.14c-.02.17-.14.29-.48.34v3.53h6.19v1.54h-6.19v4.27h3.82l.29-.07ZM189.71,177.3c.79,2.04,1.92,3.84,3.38,5.35,1.61-1.46,2.93-3.24,3.77-5.35h-7.15Z" style="fill:#fff;"/><path d="M208.14,166.71c-.1.17-.29.22-.5.19-1.1,1.61-3.1,3.82-4.8,5.3-.22-.34-.65-.86-.94-1.18,1.61-1.3,3.46-3.36,4.44-5.02l1.8.7ZM204.9,177.66c-.7,1.03-1.39,1.94-2.09,2.74-.17-.34-.6-1.01-.86-1.32,1.68-1.85,3.6-4.92,4.82-7.85l1.8.67c-.07.17-.24.24-.53.22-.48,1.06-1.06,2.14-1.66,3.17l.48.17c-.05.14-.17.26-.48.31v12.55h-1.49v-10.66ZM211.09,176.5c-.05.14-.19.24-.46.26-.29,3.17-.82,6.53-1.85,8.5-.26-.22-.77-.53-1.08-.7.94-1.87,1.39-5.18,1.61-8.45l1.78.38ZM217.74,172.97h-3.84v14.95h-1.51v-14.95h-3.77v-1.46h3.77v-5.16l1.97.12c-.02.17-.14.29-.46.34v4.7h3.84v1.46ZM215.8,166.66c.89.98,1.78,2.33,2.16,3.24l-1.15.62c-.38-.91-1.27-2.3-2.11-3.34l1.1-.53ZM216.57,183.68c-.14-1.99-.72-4.97-1.32-7.27.91-.17,1.08-.22,1.22-.24.65,2.33,1.22,5.28,1.39,7.25l-1.3.26ZM224.34,174.15v1.46h-2.23v10.73c0,1.85-.74,1.97-4.3,1.97-.05-.46-.26-1.1-.5-1.58.79.02,1.49.05,2.02.05,1.15,0,1.22,0,1.22-.43v-10.73h-2.93v-1.46h6.72ZM223.94,167.45v1.46h-5.76v-1.46h5.76Z" style="fill:#fff;"/><path d="M234.76,168.56h-1.61v19.75h-1.42v-4.87c-1.87.46-3.65.91-4.87,1.18-.02.19-.14.31-.29.36l-.62-1.73,1.51-.29v-14.4h-1.42v-1.49h8.71v1.49ZM231.74,172.16v-3.6h-2.88v3.6h2.88ZM231.74,177.22v-3.67h-2.88v3.67h2.88ZM228.85,178.59v4.1l2.88-.6v-3.5h-2.88ZM244.22,175.54c.12,1.9.26,3.65.46,5.18.65-1.3,1.18-2.69,1.58-4.2l1.73.46c-.05.17-.22.24-.5.26-.6,2.06-1.44,3.98-2.5,5.67.43,2.45,1.01,3.98,1.73,3.98.43,0,.67-1.18.77-3.72.29.34.74.7,1.06.82-.26,3.26-.67,4.34-1.99,4.34-1.22,0-2.06-1.46-2.66-3.89-1.18,1.54-2.57,2.81-4.15,3.79-.19-.31-.62-.79-.91-1.06,1.85-1.08,3.43-2.62,4.7-4.51-.34-2.02-.55-4.46-.7-7.13h-9.22v-1.34h9.14c-.12-2.59-.17-5.38-.19-8.18l1.92.1c0,.19-.14.29-.46.34-.02,2.64.02,5.3.14,7.75h4.2v1.34h-4.15ZM234.35,168.73h3v-2.74l1.87.12c-.02.17-.14.29-.46.34v2.28h3.12v1.3h-7.54v-1.3ZM241.19,185.24h-4.87v1.61h-1.34v-9.75h6.22v8.14ZM236.25,170.31c.5,1.1.86,2.57.94,3.53l-1.22.34c-.05-.98-.38-2.47-.84-3.6l1.13-.26ZM239.85,178.35h-3.53v2.18h3.53v-2.18ZM236.32,183.99h3.53v-2.28h-3.53v2.28ZM241.48,170.72c-.07.14-.22.22-.48.24-.26.89-.74,2.33-1.18,3.24,0,0-1.01-.36-1.03-.36.38-.98.84-2.54,1.06-3.6l1.63.48ZM245.78,166.9c1.1,1.2,2.16,2.86,2.62,3.98l-1.2.67c-.43-1.15-1.51-2.86-2.54-4.08l1.13-.58Z" style="fill:#fff;"/><path d="M121.41,105.81v1.32h-2.54v4.34h-1.63v-1.1h-6.1v1.63c0,1.08-.31,1.51-1.03,1.75-.74.24-2.02.24-4.06.24-.07-.38-.36-1.01-.58-1.39.89.02,1.78.05,2.42.05,1.46,0,1.61,0,1.61-.62v-1.66h-7.99v-1.27h7.99v-1.97h-10.06v-1.32h10.06v-1.82h-7.78v-1.22h7.78v-1.61h-7.06v-4.63h7.06v-1.51h-9.62v-1.37h9.62v-2.02l2.09.12c-.02.19-.14.31-.46.34v1.56h9.82v1.37h-9.82v1.51h7.39v4.63h-7.39v1.61h7.73v3.05h2.54ZM104.01,99.98h5.5v-2.28h-5.5v2.28ZM116.87,97.7h-5.74v2.28h5.74v-2.28ZM111.13,103.99v1.82h6.1v-1.82h-6.1ZM117.23,109.1v-1.97h-6.1v1.97h6.1Z" style="fill:#014098;"/><path d="M145.21,95.68h-2.02c-.67,1.8-1.68,3.34-2.95,4.63,1.56,1.18,3.38,2.06,5.38,2.59-.34.31-.77.94-1.01,1.37-2.04-.62-3.89-1.63-5.47-2.93-1.61,1.34-3.53,2.38-5.69,3.12-.17-.29-.48-.72-.74-1.06-.36,1.08-.77,2.09-1.2,2.88l-1.15-.58c.5-1.03,1.01-2.62,1.42-4.06h-2.52v10.37c0,1.75-.79,1.85-3.74,1.85-.07-.41-.29-1.08-.53-1.51.62.02,1.22.05,1.68.05.96,0,1.06,0,1.06-.38v-8.4c-.96,2.47-2.3,4.92-3.7,6.34-.17-.43-.58-1.08-.86-1.46,1.54-1.49,3.1-4.25,4.01-6.84h-3.82v-1.44h6.72c-1.2-1.13-3.55-2.59-5.52-3.48l1.01-1.03c.77.34,1.58.74,2.38,1.18,1.01-.72,2.02-1.68,2.78-2.59h-7.08v-1.42h8.33l.29-.07,1.2.74c-.05.1-.22.19-.34.22-.94,1.27-2.47,2.76-3.96,3.84.84.53,1.56,1.06,2.09,1.54l-.98,1.08h2.45l.86.05c0,.31-.6,2.26-.77,2.83,1.97-.65,3.74-1.56,5.21-2.76-.94-.96-1.78-2.04-2.45-3.22-.58.79-1.2,1.51-1.82,2.11-.31-.29-.89-.72-1.27-.96,1.7-1.49,3.26-4.03,4.13-6.65l1.97.58c-.05.17-.24.26-.5.24-.22.6-.48,1.2-.79,1.8h7.94v1.44ZM143.29,105.67l.94.19c0,.14-.02.34-.1.48-.43,4.49-.86,6.26-1.54,6.94-.53.53-1.06.62-2.47.62-.5,0-1.1,0-1.7-.05-.05-.46-.19-1.1-.46-1.51,1.08.1,2.09.12,2.47.12.41,0,.62-.05.84-.24.46-.46.82-1.82,1.15-5.11h-3.91c-.82,2.81-2.4,5.38-6,6.89-.17-.36-.62-.91-.96-1.2,3.05-1.2,4.54-3.29,5.33-5.69h-3.72v-1.39h4.08c.19-.84.31-1.73.41-2.59l2.06.19c-.05.19-.22.29-.5.34-.1.7-.19,1.37-.34,2.06h4.06l.36-.05ZM136.5,95.68l-.1.17c.67,1.3,1.58,2.47,2.69,3.5,1.01-1.06,1.85-2.26,2.42-3.67h-5.02Z" style="fill:#014098;"/><path d="M155.94,94.2h-1.61v19.75h-1.42v-4.87c-1.87.46-3.65.91-4.87,1.18-.02.19-.14.31-.29.36l-.62-1.73,1.51-.29v-14.4h-1.42v-1.49h8.71v1.49ZM152.92,97.8v-3.6h-2.88v3.6h2.88ZM152.92,102.86v-3.67h-2.88v3.67h2.88ZM150.04,104.23v4.1l2.88-.6v-3.5h-2.88ZM165.4,101.18c.12,1.9.26,3.65.46,5.18.65-1.3,1.18-2.69,1.58-4.2l1.73.46c-.05.17-.22.24-.5.26-.6,2.06-1.44,3.98-2.5,5.66.43,2.45,1.01,3.98,1.73,3.98.43,0,.67-1.18.77-3.72.29.34.74.7,1.06.82-.26,3.26-.67,4.34-1.99,4.34-1.22,0-2.06-1.46-2.66-3.89-1.18,1.54-2.57,2.81-4.15,3.79-.19-.31-.62-.79-.91-1.06,1.85-1.08,3.43-2.62,4.7-4.51-.34-2.02-.55-4.46-.7-7.13h-9.22v-1.34h9.14c-.12-2.59-.17-5.38-.19-8.18l1.92.1c0,.19-.14.29-.46.34-.02,2.64.02,5.3.14,7.75h4.2v1.34h-4.15ZM155.53,94.36h3v-2.74l1.87.12c-.02.17-.14.29-.46.34v2.28h3.12v1.3h-7.54v-1.3ZM162.37,110.88h-4.87v1.61h-1.34v-9.75h6.22v8.14ZM157.43,95.95c.5,1.1.86,2.57.94,3.53l-1.22.34c-.05-.98-.38-2.47-.84-3.6l1.13-.26ZM161.03,103.99h-3.53v2.18h3.53v-2.18ZM157.5,109.63h3.53v-2.28h-3.53v2.28ZM162.66,96.36c-.07.14-.22.22-.48.24-.26.89-.74,2.33-1.18,3.24,0,0-1.01-.36-1.03-.36.38-.98.84-2.54,1.06-3.6l1.63.48ZM166.96,92.54c1.1,1.2,2.16,2.86,2.62,3.98l-1.2.67c-.43-1.15-1.51-2.86-2.54-4.08l1.13-.58Z" style="fill:#014098;"/><path d="M34.49,64c3.61-2.98,6.45-5.43,8.53-7.34,2.08-1.91,3.84-3.92,5.27-6.02,1.44-2.1,2.15-4.14,2.15-6.13,0-1.51-.35-2.69-1.05-3.53-.7-.85-1.75-1.27-3.15-1.27s-2.49.52-3.28,1.57c-.79,1.05-1.19,2.53-1.19,4.44h-9.11c.07-3.13.75-5.74,2.01-7.84,1.27-2.1,2.94-3.64,5.02-4.64,2.08-.99,4.39-1.49,6.93-1.49,4.38,0,7.68,1.12,9.91,3.37,2.23,2.25,3.34,5.17,3.34,8.78,0,3.94-1.34,7.59-4.03,10.96-2.69,3.37-6.11,6.65-10.27,9.85h14.91v7.67h-27.71v-7.01c1.25-.99,1.82-1.45,1.71-1.38Z" style="fill:none; stroke:#fff; stroke-linecap:round; stroke-linejoin:round; stroke-width:3px;"/><path d="M68.83,34.9c2.43-2.13,5.72-3.2,9.88-3.2,2.76,0,5.12.48,7.09,1.44,1.97.96,3.46,2.26,4.47,3.92,1.01,1.66,1.52,3.52,1.52,5.58,0,2.43-.61,4.41-1.82,5.94-1.21,1.53-2.63,2.57-4.25,3.12v.22c2.1.7,3.75,1.86,4.97,3.48,1.21,1.62,1.82,3.7,1.82,6.24,0,2.28-.52,4.3-1.57,6.05-1.05,1.75-2.58,3.12-4.58,4.11-2.01.99-4.39,1.49-7.15,1.49-4.42,0-7.94-1.08-10.57-3.26-2.63-2.17-4.02-5.45-4.17-9.83h9.16c.04,1.62.5,2.9,1.38,3.84.88.94,2.17,1.41,3.86,1.41,1.44,0,2.55-.41,3.34-1.24.79-.83,1.19-1.92,1.19-3.29,0-1.77-.56-3.04-1.68-3.84-1.12-.79-2.92-1.19-5.38-1.19h-1.77v-7.67h1.77c1.88,0,3.4-.32,4.56-.97,1.16-.64,1.74-1.79,1.74-3.45,0-1.32-.37-2.35-1.1-3.09-.74-.74-1.75-1.1-3.04-1.1-1.4,0-2.44.42-3.12,1.27-.68.85-1.08,1.9-1.19,3.15h-9.22c.15-3.94,1.44-6.97,3.86-9.11Z" style="fill:none; stroke:#fff; stroke-linecap:round; stroke-linejoin:round; stroke-width:3px;"/><path d="M96.78,52.53c0-5.72,2.86-9.01,6.96-9.01s7,3.29,7,9.01-2.9,9.12-7,9.12-6.96-3.36-6.96-9.12ZM106.72,52.53c0-4.21-1.31-5.8-2.98-5.8s-2.94,1.58-2.94,5.8,1.28,5.91,2.94,5.91,2.98-1.7,2.98-5.91ZM120.25,43.53h3.36l-15.58,29.68h-3.32l15.54-29.68ZM117.58,64.09c0-5.76,2.9-9.04,6.96-9.04s7,3.29,7,9.04-2.94,9.12-7,9.12-6.96-3.4-6.96-9.12ZM127.51,64.09c0-4.21-1.31-5.84-2.98-5.84s-2.98,1.62-2.98,5.84,1.31,5.88,2.98,5.88,2.98-1.66,2.98-5.88Z" style="fill:none; stroke:#fff; stroke-linecap:round; stroke-linejoin:round; stroke-width:3px;"/><path d="M34.49,64c3.61-2.98,6.45-5.43,8.53-7.34,2.08-1.91,3.84-3.92,5.27-6.02,1.44-2.1,2.15-4.14,2.15-6.13,0-1.51-.35-2.69-1.05-3.53-.7-.85-1.75-1.27-3.15-1.27s-2.49.52-3.28,1.57c-.79,1.05-1.19,2.53-1.19,4.44h-9.11c.07-3.13.75-5.74,2.01-7.84,1.27-2.1,2.94-3.64,5.02-4.64,2.08-.99,4.39-1.49,6.93-1.49,4.38,0,7.68,1.12,9.91,3.37,2.23,2.25,3.34,5.17,3.34,8.78,0,3.94-1.34,7.59-4.03,10.96-2.69,3.37-6.11,6.65-10.27,9.85h14.91v7.67h-27.71v-7.01c1.25-.99,1.82-1.45,1.71-1.38Z" style="fill:#333;"/><path d="M68.83,34.9c2.43-2.13,5.72-3.2,9.88-3.2,2.76,0,5.12.48,7.09,1.44,1.97.96,3.46,2.26,4.47,3.92,1.01,1.66,1.52,3.52,1.52,5.58,0,2.43-.61,4.41-1.82,5.94-1.21,1.53-2.63,2.57-4.25,3.12v.22c2.1.7,3.75,1.86,4.97,3.48,1.21,1.62,1.82,3.7,1.82,6.24,0,2.28-.52,4.3-1.57,6.05-1.05,1.75-2.58,3.12-4.58,4.11-2.01.99-4.39,1.49-7.15,1.49-4.42,0-7.94-1.08-10.57-3.26-2.63-2.17-4.02-5.45-4.17-9.83h9.16c.04,1.62.5,2.9,1.38,3.84.88.94,2.17,1.41,3.86,1.41,1.44,0,2.55-.41,3.34-1.24.79-.83,1.19-1.92,1.19-3.29,0-1.77-.56-3.04-1.68-3.84-1.12-.79-2.92-1.19-5.38-1.19h-1.77v-7.67h1.77c1.88,0,3.4-.32,4.56-.97,1.16-.64,1.74-1.79,1.74-3.45,0-1.32-.37-2.35-1.1-3.09-.74-.74-1.75-1.1-3.04-1.1-1.4,0-2.44.42-3.12,1.27-.68.85-1.08,1.9-1.19,3.15h-9.22c.15-3.94,1.44-6.97,3.86-9.11Z" style="fill:#333;"/><path d="M96.78,52.53c0-5.72,2.86-9.01,6.96-9.01s7,3.29,7,9.01-2.9,9.12-7,9.12-6.96-3.36-6.96-9.12ZM106.72,52.53c0-4.21-1.31-5.8-2.98-5.8s-2.94,1.58-2.94,5.8,1.28,5.91,2.94,5.91,2.98-1.7,2.98-5.91ZM120.25,43.53h3.36l-15.58,29.68h-3.32l15.54-29.68ZM117.58,64.09c0-5.76,2.9-9.04,6.96-9.04s7,3.29,7,9.04-2.94,9.12-7,9.12-6.96-3.4-6.96-9.12ZM127.51,64.09c0-4.21-1.31-5.84-2.98-5.84s-2.98,1.62-2.98,5.84,1.31,5.88,2.98,5.88,2.98-1.66,2.98-5.88Z" style="fill:#333;"/><path d="M267.17,217.46l-13.86,33.24h-9.66l14.02-32.19h-17.17v-8.06h26.67v7.01Z" style="fill:none; stroke:#fff; stroke-linecap:round; stroke-linejoin:round; stroke-width:3px;"/><path d="M296.7,217.46l-13.86,33.24h-9.66l14.02-32.19h-17.17v-8.06h26.67v7.01Z" style="fill:none; stroke:#fff; stroke-linecap:round; stroke-linejoin:round; stroke-width:3px;"/><path d="M299.26,230.28c0-5.72,2.86-9.01,6.96-9.01s7,3.29,7,9.01-2.9,9.12-7,9.12-6.96-3.36-6.96-9.12ZM309.2,230.28c0-4.21-1.31-5.8-2.98-5.8s-2.94,1.58-2.94,5.8,1.28,5.91,2.94,5.91,2.98-1.7,2.98-5.91ZM322.72,221.28h3.36l-15.58,29.68h-3.32l15.54-29.68ZM320.06,241.84c0-5.76,2.9-9.04,6.96-9.04s7,3.29,7,9.04-2.94,9.12-7,9.12-6.96-3.4-6.96-9.12ZM329.99,241.84c0-4.21-1.31-5.84-2.98-5.84s-2.98,1.62-2.98,5.84,1.31,5.88,2.98,5.88,2.98-1.66,2.98-5.88Z" style="fill:none; stroke:#fff; stroke-linecap:round; stroke-linejoin:round; stroke-width:3px;"/><path d="M267.17,217.46l-13.86,33.24h-9.66l14.02-32.19h-17.17v-8.06h26.67v7.01Z" style="fill:#333;"/><path d="M296.7,217.46l-13.86,33.24h-9.66l14.02-32.19h-17.17v-8.06h26.67v7.01Z" style="fill:#333;"/><path d="M299.26,230.28c0-5.72,2.86-9.01,6.96-9.01s7,3.29,7,9.01-2.9,9.12-7,9.12-6.96-3.36-6.96-9.12ZM309.2,230.28c0-4.21-1.31-5.8-2.98-5.8s-2.94,1.58-2.94,5.8,1.28,5.91,2.94,5.91,2.98-1.7,2.98-5.91ZM322.72,221.28h3.36l-15.58,29.68h-3.32l15.54-29.68ZM320.06,241.84c0-5.76,2.9-9.04,6.96-9.04s7,3.29,7,9.04-2.94,9.12-7,9.12-6.96-3.4-6.96-9.12ZM329.99,241.84c0-4.21-1.31-5.84-2.98-5.84s-2.98,1.62-2.98,5.84,1.31,5.88,2.98,5.88,2.98-1.66,2.98-5.88Z" style="fill:#333;"/></svg>