<?xml version="1.0" encoding="UTF-8"?><svg id="_レイヤー_1" xmlns="http://www.w3.org/2000/svg" viewBox="0 0 360 288"><rect width="360" height="288" style="fill:none;"/><path d="M240.98,229.35h-12.31v7.7h-4.43v-7.7h-16.2v-4.1h5.69v-9.43h10.51v-4.32h-7.7c-1.48,2.56-3.2,4.86-4.9,6.55-.83-.72-2.66-2.16-3.71-2.77,3.24-2.74,6.01-7.34,7.56-11.99l4.36,1.12c-.32,1.01-.72,1.98-1.19,2.95h20.34v4.14h-10.33v4.32h9.5v3.96h-9.5v5.47h12.31v4.1ZM224.24,225.25v-5.47h-6.23v5.47h6.23Z" style="fill:#333;"/><path d="M123.45,182.05v-11.61h21.69v65.61h-12.96v-54h-8.73Z" style="fill:#333;"/><path d="M199.32,179.98l-23.94,56.07h-12.78l24.12-54.63h-30.78v-10.8h43.38v9.36Z" style="fill:#333;"/><path d="M196.61,90.94h49.4v37.05c0,6.59-5.76,12.35-12.35,12.35h-107.02c-6.59,0-12.35-5.76-12.35-12.35v-37.05h49.4v12.35c0,2.27,1.84,4.12,4.12,4.12h24.7c2.27,0,4.12-1.84,4.12-4.12v-12.35Z" style="fill:#014098; isolation:isolate; opacity:.4;"/><path d="M233.66,49.77h-20.58v-12.35c0-6.59-5.76-12.35-12.35-12.35h-41.16c-6.59,0-12.35,5.76-12.35,12.35v12.35h-20.58c-6.59,0-12.35,5.76-12.35,12.35v20.58h131.72v-20.58c0-6.59-5.76-12.35-12.35-12.35ZM196.61,49.77h-32.93v-8.23h32.93v8.23Z" style="fill:#014098;"/><path d="M116.05,267.8c4.42-3.86,6.45-6.66,6.45-9.08,0-1.61-.84-2.78-2.59-2.78-1.15,0-2.15.71-2.92,1.63l-1.02-1c1.15-1.25,2.36-2.07,4.15-2.07,2.51,0,4.09,1.65,4.09,4.16,0,2.8-2.21,5.66-5.51,8.79.73-.06,1.59-.13,2.3-.13h3.9v1.52h-8.85v-1.04Z" style="fill:#333;"/><path d="M126.8,261.75c0-4.9,1.71-7.26,4.4-7.26s4.38,2.38,4.38,7.26-1.71,7.33-4.38,7.33-4.4-2.44-4.4-7.33ZM133.87,261.75c0-4.11-1.07-5.84-2.67-5.84s-2.69,1.73-2.69,5.84,1.08,5.93,2.69,5.93,2.67-1.79,2.67-5.93Z" style="fill:#333;"/><path d="M137.36,267.8c4.42-3.86,6.45-6.66,6.45-9.08,0-1.61-.84-2.78-2.59-2.78-1.15,0-2.15.71-2.92,1.63l-1.02-1c1.15-1.25,2.36-2.07,4.15-2.07,2.51,0,4.09,1.65,4.09,4.16,0,2.8-2.21,5.66-5.51,8.79.73-.06,1.59-.13,2.3-.13h3.9v1.52h-8.85v-1.04Z" style="fill:#333;"/><path d="M147.71,267.22l.86-1.15c.81.81,1.82,1.55,3.46,1.55s2.99-1.27,2.99-3.32-1.15-3.21-2.92-3.21c-.94,0-1.54.29-2.34.83l-.94-.58.44-6.58h6.85v1.5h-5.32l-.35,4.07c.61-.35,1.25-.56,2.09-.56,2.34,0,4.24,1.38,4.24,4.47s-2.23,4.84-4.61,4.84c-2.19,0-3.53-.92-4.47-1.86Z" style="fill:#333;"/><path d="M176.07,265.92h-6.95v4.4h-1.44v-4.4h-8.87v-1.38h3.15v-5.14h5.72v-2.92h-4.66c-.86,1.48-1.88,2.78-2.92,3.78-.27-.23-.86-.71-1.23-.9,1.8-1.57,3.42-4.05,4.32-6.62l1.44.34c-.27.67-.58,1.36-.88,2.02h11.44v1.38h-6.06v2.92h5.62v1.34h-5.62v3.8h6.95v1.38ZM167.68,264.54v-3.8h-4.3v3.8h4.3Z" style="fill:#333;"/><path d="M187.07,264.96h-1.86v3.88h-1.67v-3.88h-6.12v-1.15l5.85-9.04h1.94v8.79h1.86v1.4ZM183.54,263.56v-4.32c0-.69.08-1.82.12-2.55h-.08c-.35.69-.73,1.38-1.13,2.07l-3.21,4.8h4.3Z" style="fill:#333;"/><path d="M203.39,268.22c0,1-.29,1.5-1,1.73-.73.25-2,.27-4.05.27-.1-.4-.37-1.08-.61-1.48,1.61.06,3.15.04,3.59.04.44-.02.59-.15.59-.58v-3.84h-9.21c-.48,2.17-1.44,4.34-3.3,5.97-.19-.31-.77-.83-1.06-1.04,3.05-2.69,3.36-6.58,3.36-9.64v-5.87h11.69v14.44ZM201.91,262.96v-3.22h-8.77c0,1-.06,2.09-.21,3.22h8.98ZM193.14,255.19v3.19h8.77v-3.19h-8.77Z" style="fill:#333;"/><path d="M213.85,266.55h-4.13v1.55h-1.3v-14.07h5.43v12.52ZM209.73,255.32v4.26h2.78v-4.26h-2.78ZM212.51,265.27v-4.43h-2.78v4.43h2.78ZM222.9,260.03v2.17h2.23v1.27h-2.23v5.14c0,.81-.21,1.23-.79,1.44-.6.21-1.56.23-3.11.23-.06-.38-.25-.96-.46-1.32,1.19.04,2.25.04,2.55.02.33-.02.42-.1.42-.38v-5.12h-7.26v-1.27h7.26v-2.17h-7.35v-1.27h4.82v-2.44h-3.99v-1.27h3.99v-2.29h1.4v2.29h4.13v1.27h-4.13v2.44h4.95v1.27h-2.44ZM216.58,264.13c.98.96,2.05,2.32,2.5,3.26l-1.21.77c-.44-.94-1.46-2.36-2.44-3.38l1.15-.65Z" style="fill:#333;"/><path d="M226.95,269.66c1.02-.86,2-2.4,2.61-3.82l1.34.35c-.63,1.5-1.61,3.11-2.65,4.11l-1.3-.63ZM242.08,264.69h-12.77v-6.1h5.51v-5.82h1.42v2.05h7.26v1.34h-7.26v2.42h5.84v6.1ZM240.64,259.93h-9.96v3.42h9.96v-3.42ZM234,266.25c.25,1.21.46,2.78.48,3.7l-1.42.19c0-.96-.17-2.55-.42-3.78l1.36-.12ZM237.85,266.09c.59,1.15,1.21,2.71,1.44,3.67l-1.38.33c-.19-.94-.77-2.53-1.34-3.71l1.29-.29ZM241.71,265.73c.98,1.21,2.07,2.8,2.55,3.88l-1.34.54c-.44-1.06-1.5-2.71-2.46-3.93l1.25-.48Z" style="fill:#333;"/></svg>