<svg id="レイヤー_1" data-name="レイヤー 1" xmlns="http://www.w3.org/2000/svg" viewBox="0 0 800 640"><defs><style>.cls-1,.cls-3{fill:none;}.cls-2{fill:#333;}.cls-3{stroke:#014098;stroke-miterlimit:10;}.cls-4,.cls-6{opacity:0.4;}.cls-5,.cls-6{fill:#014098;}</style></defs><rect class="cls-1" width="800" height="640"/><path class="cls-2" d="M630.81,599.19H603.46V616.3h-9.84V599.19h-36v-9.12h12.64v-21h23.36v-9.6H576.5a71.9,71.9,0,0,1-10.88,14.56,73.63,73.63,0,0,0-8.24-6.16c7.2-6.08,13.36-16.32,16.8-26.64l9.68,2.48a51.07,51.07,0,0,1-2.64,6.56h45.19v9.2H603.46v9.6h21.11v8.8H603.46v12.16h27.35Zm-37.19-9.12V577.91H579.78v12.16Z" transform="translate(-99.57 -180.36)"/><path class="cls-2" d="M671.14,593.67c-10.56,4.72-22.4,9.76-31.44,13.51L636.5,597c3-1,6.64-2.32,10.64-3.92l-1.6-46.72,9.92-.4,1.44,43.28c4-1.68,8.08-3.36,12.08-5Zm33.11,22.47c-3-5.2-9-12.55-15-19.27-5.83,8.32-13.75,14.72-24.31,19.43a56.42,56.42,0,0,0-7.6-8.4c25.36-9.59,33.59-28.95,36.55-61.83l10.48,1c-1.68,16.4-4.56,29.76-9.75,40.64,6.63,6.88,14.07,15,17.75,20.56Zm-30-41c-2-5.52-7.12-13.92-11.92-19.84L671,551a81.57,81.57,0,0,1,12.64,19.2Z" transform="translate(-99.57 -180.36)"/><path class="cls-2" d="M790.57,602.7v9.61H717.86V602.7H746.5V542.47h10.24v22.88H785V575H756.74V602.7Z" transform="translate(-99.57 -180.36)"/><path class="cls-2" d="M224.36,500.07v-25.8h48.2v145.8h-28.8v-120Z" transform="translate(-99.57 -180.36)"/><path class="cls-2" d="M312.66,491.06q12.49-19.59,41.5-19.6t41.5,19.6q12.51,19.6,12.5,54.21,0,34.79-12.5,54.6t-41.5,19.79q-29,0-41.5-19.79t-12.5-54.6Q300.16,510.67,312.66,491.06Zm66,29.31q-1.91-10.11-7.6-16.51t-16.9-6.39q-11.21,0-16.9,6.39t-7.6,16.51a137.24,137.24,0,0,0-1.9,24.9,151.44,151.44,0,0,0,1.8,25.49q1.8,10.31,7.6,16.61t17,6.29q11.2,0,17-6.29t7.6-16.61a151.44,151.44,0,0,0,1.8-25.49A137.24,137.24,0,0,0,378.66,520.37Z" transform="translate(-99.57 -180.36)"/><path class="cls-2" d="M441.86,491.06q12.5-19.59,41.5-19.6t41.5,19.6q12.5,19.6,12.5,54.21,0,34.79-12.5,54.6t-41.5,19.79q-29,0-41.5-19.79t-12.5-54.6Q429.36,510.67,441.86,491.06Zm66,29.31q-1.91-10.11-7.6-16.51t-16.9-6.39q-11.21,0-16.9,6.39t-7.6,16.51a137.24,137.24,0,0,0-1.9,24.9,151.44,151.44,0,0,0,1.8,25.49q1.8,10.31,7.6,16.61t17,6.29q11.2,0,17-6.29t7.6-16.61a151.44,151.44,0,0,0,1.8-25.49A137.24,137.24,0,0,0,507.86,520.37Z" transform="translate(-99.57 -180.36)"/><line class="cls-3" x1="111.11" y1="253.45" x2="706.52" y2="253.45"/><g class="cls-4"><rect class="cls-5" x="441.65" y="110.11" width="102.6" height="105.67"/></g><g class="cls-4"><rect class="cls-5" x="438.07" y="44.15" width="196.87" height="43.76"/></g><g class="cls-4"><rect class="cls-5" x="585.67" y="110.11" width="46.19" height="105.67"/></g><g id="_64" data-name="64"><path class="cls-5" d="M534.41,283.87V433.8H738.49V283.87H709.86V272.42h28.63V221.27H534.41v51.15h24.73v11.45Zm29,100.73h-16v-16h16Zm0-23h-16v-16h16Zm0-23h-16v-16h16Zm0-21.25h-16v-16h16Zm23,67.28h-16v-16h16Zm0-23h-16v-16h16Zm0-23h-16v-16h16Zm0-21.25h-16v-16h16Zm23,67.28h-16v-16h16Zm0-23h-16v-16h16Zm0-23h-16v-16h16Zm0-21.25h-16v-16h16Zm23,67.28h-16v-16h16Zm0-23h-16v-16h16Zm0-23h-16v-16h16Zm0-21.25h-16v-16h16ZM675.89,422H649.73V296.62h26.16ZM704,384.6H688v-16h16Zm0-23H688v-16h16Zm0-23H688v-16h16Zm0-21.25H688v-16h16Zm7-16h16v16H711Zm0,21.25h16v16H711Zm0,23h16v16H711Zm0,23h16v16H711ZM540.66,227.51H732.25v38.66H540.66Zm30.2,44.91H698.15v11.45H570.86Z" transform="translate(-99.57 -180.36)"/><rect class="cls-5" x="451.76" y="56.75" width="19.7" height="4.33"/><rect class="cls-5" x="451.76" y="64.3" width="19.7" height="4.33"/><rect class="cls-5" x="451.76" y="71.86" width="19.7" height="4.33"/><rect class="cls-5" x="481.75" y="56.75" width="19.7" height="4.33"/><rect class="cls-5" x="481.75" y="64.3" width="19.7" height="4.33"/><rect class="cls-5" x="481.75" y="71.86" width="19.7" height="4.33"/><rect class="cls-5" x="511.74" y="56.75" width="19.7" height="4.33"/><rect class="cls-5" x="511.74" y="64.3" width="19.7" height="4.33"/><rect class="cls-5" x="511.74" y="71.86" width="19.7" height="4.33"/><rect class="cls-5" x="541.72" y="56.75" width="19.7" height="4.33"/><rect class="cls-5" x="541.72" y="64.3" width="19.7" height="4.33"/><rect class="cls-5" x="541.72" y="71.86" width="19.7" height="4.33"/><rect class="cls-5" x="571.71" y="56.75" width="19.7" height="4.33"/><rect class="cls-5" x="571.71" y="64.3" width="19.7" height="4.33"/><rect class="cls-5" x="571.71" y="71.86" width="19.7" height="4.33"/><rect class="cls-5" x="601.7" y="56.75" width="19.7" height="4.33"/><rect class="cls-5" x="601.7" y="64.3" width="19.7" height="4.33"/><rect class="cls-5" x="601.7" y="71.86" width="19.7" height="4.33"/></g><rect class="cls-6" x="205.49" y="216.83" width="16.29" height="36.61"/><polygon class="cls-5" points="247.85 190.59 227.51 162.86 241.38 162.86 213.64 125.06 185.91 162.86 199.77 162.86 179.43 190.59 193.8 190.59 173.95 217.63 205.46 217.63 221.82 217.63 253.33 217.63 233.49 190.59 247.85 190.59"/><rect class="cls-6" x="323.41" y="216.83" width="16.29" height="36.61"/><polygon class="cls-5" points="365.76 190.59 345.42 162.86 359.29 162.86 331.56 125.06 303.82 162.86 317.69 162.86 297.35 190.59 311.71 190.59 291.87 217.63 323.38 217.63 339.73 217.63 371.25 217.63 351.4 190.59 365.76 190.59"/><path class="cls-2" d="M356.41,682.18a93,93,0,0,1,9.34,8l-2.09,2.39a73.31,73.31,0,0,0-8.23-7.68,51.28,51.28,0,0,1-4.39,5h9.85v2.3H350.52v-1.79a41.25,41.25,0,0,1-6.18,4.82,8.65,8.65,0,0,0-2-2.13,33.45,33.45,0,0,0,11.18-10.92Zm-7,24.14c-.08.85-.21,1.75-.38,2.65H364.3v11.34h-2.81v-1.45h-9.81v1.75H348.9V709.52a23.36,23.36,0,0,1-4.43,10.24,8.71,8.71,0,0,0-2.14-2c4-4.86,4.48-11.47,4.48-16.33v-6.91h16.85v11.77Zm11.43-2.39v-2.47H349.63v0c0,.77,0,1.58,0,2.43Zm-11.17-7v2.43H360.8v-2.43Zm2.05,14.46v5h9.81v-5Zm18.47-1.07h-3V686.87h3Zm9.59-27.73v33.91c0,2.14-.55,3.08-1.87,3.63s-3.59.6-7.38.56a12.88,12.88,0,0,0-1.11-3.16c2.9.13,5.41.09,6.23,0s1.06-.25,1.06-1v-34Z" transform="translate(-99.57 -180.36)"/><path class="cls-2" d="M409.19,710.59a39,39,0,0,0,15.22,6.74,11.45,11.45,0,0,0-2.13,2.81,40.38,40.38,0,0,1-16-8.74v9.3h-3.11v-9.09c-4.1,3.71-10.32,6.78-15.91,8.4a13.72,13.72,0,0,0-2.05-2.68,41.32,41.32,0,0,0,15.06-6.74h-14V707.9h16.85v-3.16H390.29v-2.43h12.84V699.2h-15v-2.61h9.3a18.08,18.08,0,0,0-2.1-4.26l1.5-.3H386.45V689.3h6.78a33.26,33.26,0,0,0-3.37-6.18l2.69-.9a29.37,29.37,0,0,1,3.63,6.27l-2.18.81h5.25v-7.55h2.94v7.55h5.08v-7.55h3v7.55h5.16l-1.57-.51a47.89,47.89,0,0,0,3.24-6.49l3.24.86a60.1,60.1,0,0,1-3.75,6.14h6.61V692h-8.53a52.66,52.66,0,0,1-2.65,4.56h9.68v2.61H406.24v3.11h13.35v2.43H406.24v3.16h17.11v2.69ZM398.57,692a16.8,16.8,0,0,1,2.13,4.27l-1.37.29h10l-.43-.12a39,39,0,0,0,2.18-4.44Z" transform="translate(-99.57 -180.36)"/><path class="cls-2" d="M429.84,714.21h7V690.88h-5.54V688.4a19.75,19.75,0,0,0,6.48-2.21h3v28H447v3.24H429.84Z" transform="translate(-99.57 -180.36)"/><path class="cls-2" d="M454.38,712.38a7.06,7.06,0,0,0,5.24,2.39c4.05,0,7.55-3.33,7.85-13.06a9.62,9.62,0,0,1-7.21,3.88c-5.2,0-8.61-3.36-8.61-9.85,0-6,4.09-10.15,9-10.15,6,0,10.5,4.95,10.5,14.89,0,12.67-5.46,17.53-11.35,17.53a10,10,0,0,1-7.51-3.2Zm13.05-13.86c-.43-6.45-2.82-9.86-6.83-9.86-3,0-5.29,2.82-5.29,7.08s1.88,7,5.59,7C463,702.7,465.34,701.5,467.43,698.52Z" transform="translate(-99.57 -180.36)"/><path class="cls-2" d="M477.2,714.21h6.95V690.88h-5.54V688.4a19.75,19.75,0,0,0,6.48-2.21h3v28h6.27v3.24H477.2Z" transform="translate(-99.57 -180.36)"/><path class="cls-2" d="M501.73,712.38a7.1,7.1,0,0,0,5.25,2.39c4,0,7.55-3.33,7.85-13.06a9.64,9.64,0,0,1-7.21,3.88c-5.2,0-8.62-3.36-8.62-9.85,0-6,4.1-10.15,9-10.15,6,0,10.49,4.95,10.49,14.89,0,12.67-5.46,17.53-11.34,17.53a10,10,0,0,1-7.51-3.2Zm13.06-13.86c-.43-6.45-2.82-9.86-6.83-9.86-3,0-5.29,2.82-5.29,7.08s1.88,7,5.59,7C510.35,702.7,512.7,701.5,514.79,698.52Z" transform="translate(-99.57 -180.36)"/><path class="cls-2" d="M561.33,711H545.89v9.77h-3.2V711H523V707.9h7V696.47h12.71V690H532.32a39.49,39.49,0,0,1-6.48,8.41,20.3,20.3,0,0,0-2.73-2,36.18,36.18,0,0,0,9.6-14.71l3.2.76c-.6,1.5-1.28,3-2,4.48h25.42V690H545.89v6.49h12.5v3h-12.5v8.45h15.44Zm-18.64-3.07v-8.45h-9.56v8.45Z" transform="translate(-99.57 -180.36)"/><path class="cls-2" d="M567.23,714.21h6.95V690.88h-5.54V688.4a19.83,19.83,0,0,0,6.48-2.21h3v28h6.27v3.24H567.23Z" transform="translate(-99.57 -180.36)"/><path class="cls-2" d="M590.91,714.21h7V690.88h-5.54V688.4a19.83,19.83,0,0,0,6.48-2.21h3v28h6.28v3.24H590.91Z" transform="translate(-99.57 -180.36)"/><path class="cls-2" d="M645.73,716.09c0,2.22-.64,3.33-2.22,3.84s-4.44.59-9,.59a13.64,13.64,0,0,0-1.37-3.28c3.59.13,7,.09,8,.09s1.32-.34,1.32-1.28v-8.53H622a24.07,24.07,0,0,1-7.34,13.26,12.19,12.19,0,0,0-2.35-2.3c6.78-6,7.47-14.63,7.47-21.41V684h26Zm-3.29-11.69v-7.16H623a53.8,53.8,0,0,1-.47,7.16ZM623,687.13v7.08h19.49v-7.08Z" transform="translate(-99.57 -180.36)"/><path class="cls-2" d="M365.69,750.1H349.61v-2.6h16.08Zm-1.49,26.83h-9.9v2h-2.77V764.6H364.2Zm-12.59-23.67h12.63v2.51H351.61Zm0,5.63h12.63v2.56H351.61Zm12.5-14.42H351.83v-2.56h12.28ZM354.3,767.2v7.17h7.12V767.2ZM372,746.94c0,3.67-.93,8.15-5.46,11.14a14.37,14.37,0,0,0-2.3-2.09c4.1-2.6,4.74-6.15,4.74-9.09v-5.12h13.31v10.41c0,.94.12,1.11.81,1.11h2.13c.77,0,.94-.55,1-4.65a7.11,7.11,0,0,0,2.65,1.15c-.26,5-1,6.23-3.29,6.23h-2.94c-2.6,0-3.37-.81-3.37-3.84V744.6H372Zm14.34,12.5A27.71,27.71,0,0,1,379.17,772a27.27,27.27,0,0,0,9.81,4.6,13.78,13.78,0,0,0-2.05,2.69,29,29,0,0,1-10.15-5.25,32.51,32.51,0,0,1-10.71,5.29,10.94,10.94,0,0,0-1.7-2.77,29.16,29.16,0,0,0,10.06-4.69,28.9,28.9,0,0,1-6-9.3l2.82-.86a23.9,23.9,0,0,0,5.5,8.24,22.75,22.75,0,0,0,5.59-8.32H366.24v-2.9h17.54l.55-.13Z" transform="translate(-99.57 -180.36)"/><path class="cls-2" d="M430.84,774.41v3.12h-38v-3.12h21.54a139.85,139.85,0,0,0,5.76-20.56l3.59.69a195.6,195.6,0,0,1-6.06,19.87Zm-1.24-22.56H394.28v-3.07h15.83v-8.32h3.24v8.32H429.6Zm-25.68,20.43a64.18,64.18,0,0,0-3.92-17.4l2.94-.77a63.86,63.86,0,0,1,4.18,17.4Z" transform="translate(-99.57 -180.36)"/><path class="cls-2" d="M446.46,772.88h7V749.54h-5.54v-2.47a19.74,19.74,0,0,0,6.48-2.22h3v28h6.27v3.24H446.46Z" transform="translate(-99.57 -180.36)"/><path class="cls-2" d="M471,771.05a7.07,7.07,0,0,0,5.25,2.38c4.05,0,7.55-3.32,7.85-13a9.64,9.64,0,0,1-7.21,3.88c-5.2,0-8.62-3.37-8.62-9.85,0-6.06,4.1-10.15,9-10.15,6,0,10.49,5,10.49,14.88,0,12.67-5.46,17.54-11.34,17.54a10,10,0,0,1-7.51-3.2Zm13.06-13.87c-.43-6.44-2.82-9.85-6.83-9.85-3,0-5.29,2.81-5.29,7.08s1.88,7,5.59,7C479.61,761.36,482,760.17,484.05,757.18Z" transform="translate(-99.57 -180.36)"/><path class="cls-2" d="M491.26,772.54l1.92-2.56a10.28,10.28,0,0,0,7.68,3.45c3.67,0,6.65-2.81,6.65-7.38s-2.56-7.12-6.48-7.12a8.57,8.57,0,0,0-5.21,1.83l-2.09-1.28,1-14.63H510v3.33H498.13l-.77,9A9.06,9.06,0,0,1,502,756c5.21,0,9.43,3.07,9.43,9.93s-4.95,10.76-10.24,10.76A13.29,13.29,0,0,1,491.26,772.54Z" transform="translate(-99.57 -180.36)"/><path class="cls-2" d="M532.86,749.89a6.61,6.61,0,0,0-5-2.39c-4.26,0-7.89,3.28-8.06,13a9.72,9.72,0,0,1,7.12-3.8c5.29,0,8.66,3.29,8.66,9.81,0,6.06-4.09,10.16-8.95,10.16-6,0-10.45-5.17-10.45-15.49,0-12.24,5.5-16.93,11.56-16.93a9.59,9.59,0,0,1,7.29,3.2Zm-1,16.63c0-4.22-1.84-6.91-5.63-6.91-2,0-4.36,1.11-6.4,4,.46,6.49,2.81,10,6.74,10C529.57,773.65,531.88,770.79,531.88,766.52Z" transform="translate(-99.57 -180.36)"/><path class="cls-2" d="M578,769.64H562.51v9.77h-3.2v-9.77H539.6v-3.07h7V755.13h12.71v-6.48H548.94a39.41,39.41,0,0,1-6.48,8.4,20.26,20.26,0,0,0-2.73-2,36.15,36.15,0,0,0,9.6-14.72l3.2.77c-.6,1.49-1.28,3-2,4.48H576v3.07H562.51v6.48H575v3h-12.5v8.45H578Zm-18.64-3.07v-8.45h-9.56v8.45Z" transform="translate(-99.57 -180.36)"/><path class="cls-2" d="M581.33,772.41l2-2.56a10.34,10.34,0,0,0,7.76,3.58c3.72,0,6.36-2.21,6.36-5.8,0-3.75-2.52-6.27-9.73-6.27v-3c6.45,0,8.66-2.61,8.66-6,0-3-2-4.94-5.29-5a9.78,9.78,0,0,0-6.48,3.11L582.48,748a12.51,12.51,0,0,1,8.75-3.75c5.24,0,9.08,2.81,9.08,7.84,0,3.8-2.26,6.32-5.59,7.55v.18c3.71.85,6.66,3.66,6.66,7.93,0,5.59-4.48,8.92-10,8.92A12.94,12.94,0,0,1,581.33,772.41Z" transform="translate(-99.57 -180.36)"/><path class="cls-2" d="M638.67,774.76c0,2.21-.64,3.32-2.22,3.83s-4.44.6-9,.6a13.47,13.47,0,0,0-1.37-3.28c3.59.12,7,.08,8,.08s1.32-.34,1.32-1.28v-8.53H614.91a24.1,24.1,0,0,1-7.34,13.27,12.24,12.24,0,0,0-2.35-2.31c6.79-6,7.47-14.63,7.47-21.41V742.68h26Zm-3.29-11.69V755.9H615.89a53.84,53.84,0,0,1-.47,7.17Zm-19.49-17.28v7.08h19.49v-7.08Z" transform="translate(-99.57 -180.36)"/></svg>